<svg width="439" height="100" viewBox="0 0 439 100" fill="none" xmlns="http://www.w3.org/2000/svg">
<g clip-path="url(#clip0)">
<path fill-rule="evenodd" clip-rule="evenodd" d="M96.8967 34.3062C103.023 45.9251 101.496 59.67 94.1061 69.7463L98.9434 85.1746L83.7021 79.0637C83.4544 79.2066 83.2044 79.3469 82.9518 79.4843C66.7459 88.3057 46.7142 82.381 38.2099 66.2512C29.7055 50.1214 35.9489 29.8945 52.1548 21.0731C68.3607 12.2517 88.3924 18.1764 96.8967 34.3062ZM59.6212 72.6883C59.628 72.9587 59.635 73.2399 59.635 73.5355C60.0866 73.3785 60.5202 73.2322 60.9407 73.0904C61.8121 72.7964 62.627 72.5216 63.4282 72.209C75.4289 67.5255 82.0224 56.8639 80.871 43.9288C80.5276 40.0678 79.1503 36.6733 76.2518 34.0444C71.413 29.6557 64.396 29.7932 60.1315 34.3885C56.7928 37.9864 56.4005 43.4702 59.1869 47.5889C61.742 51.3652 66.5297 52.5566 70.9819 50.5246C72.5243 49.8207 73.1994 50.2721 73.155 52.079C72.9983 58.4426 70.131 63.3414 65.2936 67.0627C64.3436 67.7935 63.2927 68.3831 62.2409 68.9732C61.6392 69.3107 61.0372 69.6485 60.4536 70.013C60.1245 70.2183 59.7211 70.5825 59.6719 70.9227C59.591 71.4816 59.6054 72.0552 59.6212 72.6883Z" fill="white"/>
</g>
<path d="M120.897 39.9699H124.971L131.033 60.5916H131.133L139.779 39.9699H143.705L152.351 60.5916H152.45L158.513 39.9699H162.587L154.736 66.306H151.059L141.816 44.2433H141.717L132.425 66.306H128.797L120.897 39.9699ZM166.967 60.2934C165.741 58.1733 165.128 55.7881 165.128 53.138C165.128 50.4878 165.741 48.1192 166.967 46.0322C168.193 43.912 169.899 42.2557 172.085 41.0631C174.271 39.8374 176.723 39.2245 179.439 39.2245C182.156 39.2245 184.607 39.8374 186.794 41.0631C188.98 42.2557 190.686 43.912 191.912 46.0322C193.171 48.1523 193.8 50.5209 193.8 53.138C193.8 55.7881 193.171 58.1733 191.912 60.2934C190.686 62.4136 188.98 64.0699 186.794 65.2625C184.607 66.4551 182.156 67.0514 179.439 67.0514C176.723 67.0514 174.271 66.4551 172.085 65.2625C169.899 64.0699 168.193 62.4136 166.967 60.2934ZM188.384 58.5543C189.278 56.9973 189.725 55.1918 189.725 53.138C189.725 51.0841 189.278 49.2786 188.384 47.7217C187.522 46.1647 186.313 44.9555 184.756 44.0942C183.199 43.2329 181.427 42.8023 179.439 42.8023C177.485 42.8023 175.729 43.2329 174.172 44.0942C172.615 44.9555 171.389 46.1647 170.495 47.7217C169.634 49.2786 169.203 51.0841 169.203 53.138C169.203 55.1918 169.634 56.9973 170.495 58.5543C171.389 60.1112 172.615 61.3204 174.172 62.1817C175.729 63.043 177.485 63.4737 179.439 63.4737C181.427 63.4737 183.199 63.043 184.756 62.1817C186.313 61.3204 187.522 60.1112 188.384 58.5543ZM199.314 39.9699H203.19V42.5538H203.289C204.051 41.6263 205.029 40.8975 206.221 40.3674C207.414 39.8043 208.673 39.5227 209.998 39.5227C210.826 39.5227 211.522 39.5724 212.085 39.6717C212.681 39.7711 213.344 39.9202 214.072 40.119L213.178 43.9948C212.416 43.7961 211.787 43.6636 211.29 43.5973C210.826 43.4979 210.279 43.4483 209.65 43.4483C207.762 43.4483 206.238 44.0777 205.078 45.3365C203.952 46.5953 203.389 48.3676 203.389 50.6534V66.306H199.314V39.9699ZM218.385 30.0317H222.46V52.4423H222.559L237.218 39.9699H243.379L230.758 50.6037L244.025 66.306H238.708L227.776 53.1877H227.677L222.46 57.6598V66.306H218.385V30.0317ZM252.302 63.0264H252.203V66.306H248.277V30.0317H252.352V43.2992H252.451C253.544 42.0072 254.969 41.0134 256.724 40.3177C258.48 39.5889 260.385 39.2245 262.439 39.2245C265.056 39.2245 267.408 39.8374 269.495 41.0631C271.615 42.2557 273.272 43.912 274.464 46.0322C275.69 48.1523 276.303 50.5209 276.303 53.138C276.303 55.8213 275.69 58.223 274.464 60.3431C273.272 62.4633 271.599 64.1196 269.445 65.3122C267.325 66.4717 264.907 67.0514 262.19 67.0514C260.137 67.0514 258.232 66.7036 256.476 66.0079C254.753 65.2791 253.362 64.2853 252.302 63.0264ZM272.228 53.138C272.228 51.0841 271.814 49.2786 270.986 47.7217C270.158 46.1316 268.982 44.9224 267.458 44.0942C265.934 43.2329 264.178 42.8023 262.19 42.8023C260.335 42.8023 258.662 43.1832 257.172 43.9452C255.681 44.674 254.505 45.6843 253.644 46.9763C252.782 48.2351 252.352 49.6265 252.352 51.1503V55.1256C252.352 56.6494 252.766 58.0574 253.594 59.3493C254.455 60.6081 255.615 61.6185 257.072 62.3805C258.53 63.1093 260.153 63.4737 261.942 63.4737C265.089 63.4737 267.59 62.5461 269.445 60.691C271.3 58.8027 272.228 56.285 272.228 53.138ZM280.863 53.287C280.863 50.5043 281.46 48.0529 282.652 45.9328C283.845 43.8126 285.501 42.1729 287.621 41.0134C289.741 39.8208 292.16 39.2245 294.876 39.2245C297.46 39.2245 299.796 39.8208 301.883 41.0134C303.97 42.1729 305.609 43.8126 306.802 45.9328C307.995 48.0198 308.591 50.405 308.591 53.0883V54.579H284.988C284.988 56.3016 285.435 57.8586 286.329 59.2499C287.224 60.6081 288.416 61.6682 289.907 62.4301C291.431 63.1921 293.104 63.573 294.926 63.573C299.133 63.573 302.346 61.7013 304.566 57.958L307.796 60.0947C306.404 62.3805 304.616 64.1196 302.429 65.3122C300.243 66.4717 297.742 67.0514 294.926 67.0514C292.143 67.0514 289.675 66.4882 287.522 65.3619C285.402 64.2356 283.762 62.6289 282.603 60.5419C281.443 58.4549 280.863 56.0366 280.863 53.287ZM304.417 51.2994C304.317 49.7093 303.821 48.2683 302.926 46.9763C302.065 45.6512 300.922 44.6077 299.497 43.8458C298.073 43.0839 296.533 42.7029 294.876 42.7029C293.087 42.7029 291.448 43.0839 289.957 43.8458C288.499 44.5746 287.34 45.6015 286.478 46.9266C285.617 48.2186 285.137 49.6762 285.037 51.2994H304.417ZM314.127 39.9699H318.102V43.2495H318.202C319.196 41.9907 320.537 41.0134 322.227 40.3177C323.916 39.5889 325.722 39.2245 327.643 39.2245C330.094 39.2245 332.264 39.7049 334.153 40.6656C336.041 41.5931 337.498 42.9017 338.525 44.5911C339.585 46.2806 340.115 48.2351 340.115 50.4547V66.306H336.041V51.2497C336.041 48.6327 335.279 46.5788 333.755 45.088C332.264 43.5642 330.227 42.8023 327.643 42.8023C325.788 42.8023 324.148 43.1667 322.724 43.8955C321.299 44.6243 320.189 45.6512 319.394 46.9763C318.599 48.2683 318.202 49.759 318.202 51.4485V66.306H314.127V39.9699ZM345.452 53.138C345.452 50.5209 346.065 48.1523 347.29 46.0322C348.516 43.912 350.189 42.2557 352.309 41.0631C354.462 39.8374 356.864 39.2245 359.514 39.2245C362.794 39.2245 365.659 40.0858 368.111 41.8085C370.562 43.5311 372.152 45.8334 372.881 48.7155L368.955 49.7093C368.293 47.4235 367.133 45.7009 365.477 44.5414C363.854 43.382 361.866 42.8023 359.514 42.8023C357.626 42.8023 355.92 43.2329 354.396 44.0942C352.872 44.9224 351.68 46.1316 350.818 47.7217C349.957 49.2786 349.526 51.0841 349.526 53.138C349.526 55.1918 349.957 57.0138 350.818 58.604C351.68 60.1609 352.872 61.3701 354.396 62.2314C355.92 63.0596 357.626 63.4737 359.514 63.4737C361.866 63.4737 363.854 62.8939 365.477 61.7345C367.133 60.575 368.293 58.8524 368.955 56.5666L372.881 57.5604C372.152 60.4425 370.562 62.7449 368.111 64.4675C365.659 66.1901 362.794 67.0514 359.514 67.0514C356.864 67.0514 354.462 66.4551 352.309 65.2625C350.189 64.0699 348.516 62.4136 347.29 60.2934C346.065 58.1733 345.452 55.7881 345.452 53.138ZM378.182 30.0317H382.256V43.2495H382.356C383.383 41.9575 384.708 40.9637 386.331 40.268C387.954 39.5724 389.743 39.2245 391.698 39.2245C394.149 39.2245 396.319 39.7049 398.207 40.6656C400.095 41.5931 401.553 42.9017 402.58 44.5911C403.64 46.2806 404.17 48.2351 404.17 50.4547V66.306H400.095V51.2497C400.095 48.6327 399.317 46.5788 397.76 45.088C396.236 43.5642 394.132 42.8023 391.449 42.8023C389.693 42.8023 388.103 43.1667 386.679 43.8955C385.287 44.6243 384.194 45.6512 383.399 46.9763C382.637 48.3014 382.256 49.7921 382.256 51.4485V66.306H378.182V30.0317Z" fill="white"/>
<defs>
<clipPath id="clip0">
<rect width="69.048" height="69.048" fill="white" transform="translate(33.3716 16.7291)"/>
</clipPath>
</defs>
</svg>
