<svg width="32" height="32" viewBox="0 0 32 32" fill="none" xmlns="http://www.w3.org/2000/svg">
<g clip-path="url(#clip0)">
<path fill-rule="evenodd" clip-rule="evenodd" d="M29.4403 8.14601C32.2794 13.5307 31.572 19.9007 28.1471 24.5706L30.3889 31.7207L23.3254 28.8887C23.2106 28.9549 23.0947 29.0199 22.9776 29.0836C15.4671 33.1718 6.18348 30.4261 2.24219 22.9508C-1.69912 15.4755 1.19433 6.10141 8.7049 2.01319C16.2155 -2.07505 25.499 0.67072 29.4403 8.14601ZM11.9175 25.6917C11.9207 25.817 11.9239 25.9473 11.9239 26.0843C12.1332 26.0115 12.3342 25.9437 12.5291 25.878C12.933 25.7418 13.3106 25.6144 13.6819 25.4696C19.2435 23.299 22.2993 18.3579 21.7657 12.3632C21.6065 10.5739 20.9682 9.0007 19.6249 7.78234C17.3824 5.7484 14.1304 5.81212 12.154 7.94182C10.6068 9.60925 10.4249 12.1507 11.7163 14.0595C12.9004 15.8096 15.1193 16.3618 17.1826 15.42C17.8974 15.0938 18.2103 15.303 18.1897 16.1404C18.1171 19.0896 16.7882 21.3599 14.5464 23.0845C14.1061 23.4232 13.6191 23.6964 13.1316 23.9699C12.8528 24.1264 12.5738 24.2829 12.3033 24.4518C12.1508 24.547 11.9639 24.7158 11.9411 24.8734C11.9036 25.1324 11.9102 25.3983 11.9175 25.6917Z" fill="black"/>
</g>
<defs>
<clipPath id="clip0">
<rect width="32" height="32" fill="white"/>
</clipPath>
</defs>
</svg>
