<svg width="100" height="100" viewBox="0 0 100 100" fill="none" xmlns="http://www.w3.org/2000/svg">
<path fill-rule="evenodd" clip-rule="evenodd" d="M36.5596 34.3836H34.1414V47.457H36.5596V34.3836ZM49.9256 84.3723C45.2896 84.3723 40.7742 81.8764 36.8809 77.1663C32.7967 72.2148 30.5491 66.3876 29.5757 63.3583C28.753 60.7819 28.231 58.3765 28.0906 56.414C27.9099 54.0288 28.3013 52.5192 29.2747 51.8147C29.6961 51.5128 30.7898 50.7278 37.5633 50.1239C41.4666 49.7817 46.3133 49.5905 51.21 49.5905C55.846 49.5905 60.0403 49.7515 63.3216 50.0736C68.6299 50.5768 70.0447 51.3417 70.6668 51.8751C71.6802 52.7607 72.0215 54.532 71.7005 57.3098C71.4395 59.6748 70.6968 62.5632 69.6233 65.4718C67.7969 70.363 65.178 74.8516 62.2578 78.0922C58.4849 82.2589 54.3409 84.3723 49.9256 84.3723ZM30.6997 53.7672C30.5191 54.0088 30.208 55.3171 30.7898 58.4672C31.3418 61.3557 32.4356 64.6768 33.9007 67.8068C35.8875 72.0639 41.4165 81.957 49.9156 81.957C53.3975 81.957 56.739 80.3266 59.8699 77.096C63.2212 73.6339 65.439 69.2761 66.7134 66.2267C67.9475 63.288 68.8206 60.2787 69.2019 57.7627C69.6133 54.9951 69.232 53.8981 69.0713 53.727C68.9912 53.6566 68.1082 52.9923 63.0909 52.5193C59.8799 52.2073 55.7757 52.0463 51.21 52.0463C46.3736 52.0463 41.6072 52.2375 37.7639 52.5595C32.1346 53.0426 30.9004 53.6465 30.6997 53.7672ZM41.4261 34.3836H43.8443V47.457H41.4261V34.3836ZM51.1294 34.3836H48.7112V47.457H51.1294V34.3836ZM56.0064 34.3836H58.4246V47.457H56.0064V34.3836ZM65.72 34.3836H63.3018V47.457H65.72V34.3836Z" fill="#DA6F25"/>
<path d="M71.6795 27.1977L68.9401 15.4427L65.9097 20.3339C61.2838 18.4016 55.805 17.3549 50.0151 17.3247C44.4159 17.2945 38.8367 18.2406 34.2108 20.0118L31.351 15.02L28.2002 26.6743L39.8201 29.8345L37.0406 24.9735C40.8637 23.635 45.3892 22.9305 49.975 22.9607C54.6109 22.9908 59.1465 23.7759 62.8893 25.1949L59.9392 29.9553L71.6795 27.1977Z" fill="#DA6F25"/>
</svg>
