<svg width="100" height="100" viewBox="0 0 100 100" fill="none" xmlns="http://www.w3.org/2000/svg">
<path d="M84.0741 34.8145L78.0233 31.1511L72.5846 40.0881L67.9587 37.2903L71.1296 50.0416L83.5924 46.7607L78.6555 43.7615" fill="#DA6F25"/>
<path fill-rule="evenodd" clip-rule="evenodd" d="M22.6126 53.8458C22.6126 53.8458 27.5696 53.8458 27.991 53.7754C28.1729 53.7435 28.3013 53.6537 28.39 53.565C28.4971 53.458 28.5464 53.3527 28.563 53.3527V47.4148H41.5777C45.6317 45.3617 50.2173 44.2043 55.074 44.2043C55.6158 44.2043 56.1678 44.2144 56.7195 44.2446C56.8602 43.7213 56.9905 43.1274 57.0408 42.4633C57.5826 36.2335 56.9605 34.0396 56.9605 34.0396C56.9605 34.0396 59.7901 34.1502 60.2518 33.9892C60.6231 33.8483 60.8538 33.1036 60.8538 32.7614C60.8538 32.4192 60.9241 30.7586 60.8538 30.4164C60.7835 30.0641 59.6097 29.4503 59.6097 29.4503H55.6158C55.6158 29.4503 53.4886 23.5929 52.2442 22.345C51.6221 21.7209 49.6253 20.7548 48.2505 20.483C46.8658 20.2113 38.4671 20 38.4671 20C38.4671 20 30.0582 20.2113 28.6834 20.483C27.3087 20.7548 25.2718 21.6807 24.6898 22.345C23.596 23.5728 21.3182 29.4503 21.3182 29.4503H17.3243C17.0435 29.4503 16.1505 30.0742 16.0801 30.4164C16.0416 30.6038 16.0452 31.1864 16.0565 31.7314C16.0657 32.1818 16.0801 32.6066 16.0801 32.7614C16.0801 33.1036 16.3109 33.8583 16.6822 33.9892C17.1439 34.1502 19.9735 34.0396 19.9735 34.0396C19.9735 34.0396 19.3414 36.2335 19.8931 42.4633C20.1741 45.6838 21.7896 47.4148 21.7896 47.4148C21.7896 47.4148 21.8699 52.8394 21.7999 53.2621C21.7296 53.6848 22.6126 53.8458 22.6126 53.8458ZM53.4488 32.6608H23.2852C23.2051 32.4695 23.5965 30.5272 23.5965 30.5272C23.5965 30.5272 25.7237 25.0623 26.4964 24.4082C27.0784 23.925 28.7542 23.0494 29.9383 22.808C31.1221 22.5664 38.347 22.3853 38.347 22.3853C38.347 22.3853 45.5718 22.5664 46.7559 22.808C47.94 23.0394 49.6458 23.8949 50.1978 24.4082C51.2012 25.3542 53.0977 30.5272 53.0977 30.5272C53.0977 30.5272 53.5291 32.4595 53.4488 32.6608Z" fill="#DA6F25"/>
<path d="M55.0441 47.5658C40.2934 47.5658 28.3022 59.6025 28.3022 74.3868C28.3022 76.1581 28.4829 77.8891 28.804 79.5699H36.2696V76.7519H30.8911C30.8109 75.977 30.7707 75.1819 30.7707 74.3969C30.7707 71.1361 31.4129 68.0263 32.5769 65.1781L37.2028 67.2413L38.2263 64.9366L33.6406 62.8935C35.2361 59.9145 37.4236 57.318 40.0526 55.2448L51.6123 71.1663C50.9701 71.9412 50.5988 72.9275 50.5988 74.0044C50.5988 76.46 52.5856 78.4628 55.0441 78.4628C57.5025 78.4628 59.4893 76.4701 59.4893 74.0044C59.4893 71.5487 57.5025 69.5459 55.0441 69.5459C54.5624 69.5459 54.1008 69.6265 53.6694 69.7674L42.0896 53.8056C45.5013 51.6418 49.475 50.3033 53.7496 50.0818V55.1039H56.3586V50.0818C60.553 50.3033 64.4664 51.6015 67.848 53.6949L64.8678 57.7809L66.9048 59.2704L69.9151 55.1341C72.6044 57.2274 74.8521 59.8843 76.4777 62.9137L71.9822 64.9164L73.0058 67.2211L77.5514 65.1882C78.7053 68.0263 79.3275 71.116 79.3275 74.3566C79.3275 75.1517 79.2873 75.9367 79.2071 76.7116H73.377V79.5296H81.2942C81.6254 77.859 81.7959 76.1279 81.7959 74.3466C81.7859 59.5925 69.7947 47.5658 55.0441 47.5658Z" fill="#DA6F25"/>
</svg>
