<svg width="100" height="100" viewBox="0 0 100 100" fill="none" xmlns="http://www.w3.org/2000/svg">
<path d="M20.2134 50.1993C20.2134 42.0712 23.3449 34.4408 29.0175 28.7014C30.034 27.673 30.0176 26.0308 29.0175 25.0024C28.5257 24.5047 27.8699 24.2393 27.1977 24.2393C26.5091 24.2393 25.8533 24.5213 25.3778 25.0024C18.7215 31.7204 15.0654 40.6778 15.0654 50.1993C15.0654 59.7207 18.7215 68.6615 25.3778 75.3962C25.8697 75.8938 26.5255 76.1592 27.1977 76.1592C27.8863 76.1592 28.5421 75.8772 29.0175 75.3962C30.034 74.3677 30.034 72.7255 29.0175 71.6971C23.3285 65.9577 20.2134 58.3273 20.2134 50.1993Z" fill="#DA6F25"/>
<path fill-rule="evenodd" clip-rule="evenodd" d="M22.5088 50.1992C22.5088 34.7062 34.969 22.116 50.2654 22.116C65.562 22.116 78.022 34.7062 78.022 50.1992C78.022 65.6757 65.5784 78.2824 50.2654 78.2824C34.9526 78.2824 22.5088 65.6922 22.5088 50.1992ZM72.8416 50.1992C72.8252 37.6257 62.6931 27.3744 50.2659 27.3578C37.8384 27.3744 27.7063 37.6257 27.6899 50.2158C27.7063 62.7728 37.8384 73.024 50.2659 73.0573C62.6931 73.024 72.8252 62.7728 72.8416 50.1992Z" fill="#DA6F25"/>
<path fill-rule="evenodd" clip-rule="evenodd" d="M75.1531 25.0024C74.6611 24.5047 74.0054 24.2393 73.3333 24.2393C72.6445 24.2393 71.9888 24.5213 71.4971 25.0024C70.4805 26.0308 70.4805 27.673 71.4971 28.7014C71.5034 28.7078 71.5098 28.7117 71.5151 28.715C71.5237 28.7205 71.5298 28.7244 71.5298 28.7346C77.186 34.474 80.301 42.1044 80.301 50.1993C80.301 58.3273 77.1697 65.9577 71.4971 71.6971C70.4805 72.7255 70.4805 74.3677 71.4971 75.4127C71.9888 75.9104 72.6445 76.1758 73.3169 76.1758C73.989 76.1758 74.6611 75.8938 75.1367 75.4127C81.793 68.6781 85.449 59.7372 85.449 50.2158C85.4819 40.6779 81.8093 31.7204 75.1531 25.0024ZM29.8372 59.0737C29.9519 59.2396 30.1321 59.3226 30.3452 59.3226H33.28C33.5752 59.3226 33.821 59.1235 33.8867 58.8581L34.8047 55.3249H38.7559L39.6248 58.8581C39.6904 59.1401 39.9363 59.3391 40.2314 59.3391H43.248C43.3545 59.3391 43.4563 59.31 43.5479 59.2596C43.6257 59.2169 43.6963 59.1589 43.7563 59.0903C43.7988 59.0352 43.8323 58.971 43.855 58.9028C43.8647 58.8741 43.8726 58.8448 43.8782 58.8151L43.885 58.7714C43.8901 58.7302 43.8914 58.6887 43.8884 58.6479C43.8874 58.6321 43.8857 58.6165 43.8833 58.601C43.8818 58.5907 43.8799 58.5806 43.8777 58.5705L43.8711 58.5429L38.9363 40.5286C38.8542 40.2466 38.6248 40.0641 38.3296 40.0641H35.3621C35.0835 40.0641 34.8376 40.2631 34.7556 40.5286L29.7551 58.5263C29.6895 58.7088 29.7224 58.9244 29.8372 59.0737ZM36.8049 47.6116L35.8867 51.1116H37.6738L36.8049 47.6116ZM45.6912 59.3225H52.085C54.5278 59.3225 57.3643 57.7964 57.3643 53.467C57.3643 51.3604 56.6755 49.7182 55.4297 48.7892C56.2822 47.8935 56.7412 46.6494 56.7412 45.14C56.7412 41.756 55.1018 40.0475 51.9048 40.0475H45.7075C45.363 40.0475 45.0845 40.3295 45.0845 40.6778V58.6756C45.0681 59.0571 45.3467 59.3225 45.6912 59.3225ZM51.741 51.3106H49.2161V54.9931H51.6916C52.4622 54.9931 53.1999 54.7775 53.1999 53.2514C53.1999 51.5262 52.4131 51.3106 51.741 51.3106ZM51.5278 47.3461H49.2161V44.3935H51.2983C52.1672 44.3935 52.6589 44.6257 52.6589 45.8366C52.6753 47.1968 52.0195 47.3461 51.5278 47.3461ZM70.3323 53.351C70.3323 57.2325 67.9221 59.7538 64.217 59.7538C62.479 59.7538 60.9216 59.1401 59.8396 58.0287C58.6099 56.768 57.9705 54.9434 57.9868 52.7372C57.9868 52.3889 58.2656 52.1068 58.6099 52.1068H61.4133C61.7578 52.1068 62.0364 52.3889 62.0364 52.7372C62.0364 55.076 63.4792 55.4244 64.3318 55.4244C65.0366 55.4244 66.2664 55.2253 66.2664 53.8154C66.2664 52.6708 65.3154 52.2893 63.6267 51.7253C63.5002 51.6774 63.3662 51.6294 63.2283 51.5814C63.0798 51.5298 62.927 51.4783 62.7742 51.4268C60.5117 50.5974 58.4294 49.3533 58.4294 45.7039C58.4294 41.7063 61.2332 39.6162 63.9875 39.6162C66.8237 39.6162 69.8569 41.2916 69.8896 45.9694C69.906 45.986 69.906 46.0191 69.906 46.0523C69.906 46.4006 69.6272 46.6826 69.283 46.6826H66.4631C66.1353 46.6826 65.8564 46.4172 65.8401 46.0688C65.7581 44.3271 64.9875 43.9622 63.8562 43.9622C63.4463 43.9622 62.4956 44.0949 62.4956 45.3722C62.4956 46.2016 62.5774 46.3011 65.709 47.3959L66.1023 47.5286L66.1338 47.5395C67.2134 47.9146 70.3323 48.998 70.3323 53.351Z" fill="#DA6F25"/>
</svg>
