<svg width="100" height="100" viewBox="0 0 100 100" fill="none" xmlns="http://www.w3.org/2000/svg">
<path fill-rule="evenodd" clip-rule="evenodd" d="M66.8743 35.3579C70.0149 35.3579 71.791 37.5317 71.791 42.4531C71.791 47.3846 70.0249 49.5483 66.8743 49.5483C63.7334 49.5483 61.9573 47.3745 61.9573 42.4531C61.9573 37.5217 63.7334 35.3579 66.8743 35.3579ZM40.4631 35.5895H41.8379V45.4524C41.8379 47.5155 42.8313 48.5018 44.8481 48.5018C46.8652 48.5018 47.8586 47.4954 47.8586 45.4524V35.5895H49.2334V45.4825C49.2334 48.371 47.658 49.5586 44.8381 49.5586C42.0085 49.5586 40.4431 48.371 40.4431 45.4825V35.5895H40.4631ZM34.2817 35.5897H32.5559L28.0002 49.3173H29.4653L30.7195 45.3118H36.1082L37.3623 49.3173H38.8274L34.2817 35.5897ZM33.4392 36.5455L35.8174 44.2748H31.021L33.3992 36.5455H33.4392ZM50.9092 36.6261H54.8728L54.8828 49.317H56.2576V36.6261H60.2212V35.5895H50.9092V36.6261ZM70.4058 42.4532C70.4058 46.8815 69.0713 48.5018 66.8738 48.5018C64.6763 48.5018 63.3315 46.8915 63.3416 42.4532C63.3416 38.025 64.6863 36.4047 66.8738 36.4047C69.0613 36.4047 70.4058 38.0149 70.4058 42.4532ZM29.8269 59.5623H32.3354V78.0803H29.8269V59.5623ZM53.2473 54.3893H41.6174V80.848H46.2334V70.6932H53.2473C60.7832 70.7234 62.2183 65.8423 62.2183 62.5815C62.2183 59.2805 60.7732 54.3893 53.2473 54.3893ZM46.2432 66.9192H52.9963C55.0635 66.9192 57.6123 65.8826 57.6123 62.5513C57.6123 59.0691 55.5049 58.1835 53.0767 58.1835H46.2432V66.9192ZM71.0684 59.5623H68.5598V78.0803H71.0684V59.5623Z" fill="#DA6F25"/>
<path d="M61.9768 24.2068C61.9768 25.0321 61.1841 25.7064 60.2208 25.7064H41.0148C40.0515 25.7064 39.2588 25.0321 39.2588 24.2068V21.5901C39.2588 20.7649 40.0515 20.0906 41.0148 20.0906H60.2208C61.1841 20.0906 61.9768 20.7649 61.9768 21.5901V24.2068Z" fill="#DA6F25"/>
</svg>
