<svg width="100" height="100" viewBox="0 0 100 100" fill="none" xmlns="http://www.w3.org/2000/svg">
<path fill-rule="evenodd" clip-rule="evenodd" d="M19.0703 10.01H24.1477V17.065H19.0703V10.01ZM24.147 76.2021H19.0696V61.3574H24.147V76.2021ZM19.0696 56.4864H24.147V41.6417H19.0696V56.4864ZM24.147 36.7808H19.0696V21.9361H24.147V36.7808ZM24.147 81.0732H19.0696V88.1281H24.147V81.0732Z" fill="#DA6F25"/>
<path fill-rule="evenodd" clip-rule="evenodd" d="M72.0007 10.01H77.0781V17.065H72.0007V10.01ZM77.0774 76.2021H72V61.3574H77.0774V76.2021ZM72 56.4864H77.0774V41.6417H72V56.4864ZM77.0774 36.7808H72V21.9361H77.0774V36.7808ZM77.0774 81.0732H72V88.1281H77.0774V81.0732Z" fill="#DA6F25"/>
<path fill-rule="evenodd" clip-rule="evenodd" d="M49.0878 26.7076L47.643 26.7136C41.5617 26.7341 35.9716 28.8853 35.7282 35.5422C35.7258 35.6197 35.7248 35.7012 35.7238 35.7862C35.7226 35.9104 35.7211 36.0419 35.7148 36.1785C35.7158 36.1926 35.7163 36.2064 35.7163 36.2202L35.716 36.2479C35.7153 36.2724 35.7136 36.2968 35.7119 36.3219L35.7089 36.3692C35.7006 36.5795 35.6955 36.7981 35.6962 37.0334C35.6948 37.0811 35.6933 37.1287 35.6865 37.1878C35.6848 37.3574 35.6801 37.5334 35.6753 37.7226L35.6701 37.9194C35.6716 37.9236 35.6709 37.9286 35.6704 37.9336L35.6699 37.9404L35.6709 37.9474L35.6731 37.9277C35.6687 37.967 35.6731 38.0314 35.677 38.0677C35.6801 38.1909 35.6755 38.3316 35.6711 38.4611L35.6694 38.5133C35.666 38.6258 35.6643 38.7344 35.6633 38.8471L35.6628 39.0906C35.6579 39.1904 35.6582 39.2884 35.6582 39.388C35.6582 39.4702 35.6582 39.5536 35.6555 39.6398C35.6577 39.7238 35.6518 39.8108 35.654 39.8948C35.6342 42.1449 35.6215 44.9579 35.6135 48.0426C35.0669 48.1938 34.6074 48.5585 34.2995 48.8493C33.7214 49.3795 33.653 50.5635 34.3837 50.8166C34.7136 50.8194 35.1718 50.606 35.6142 50.323C35.6137 61.3777 35.6696 74.815 35.6958 78.5375C35.705 79.1844 35.7004 79.5347 35.7004 79.5347C36.3945 80.1781 36.6191 84.1113 36.6223 84.6379C36.645 87.4192 42.5205 88.3593 47.9897 88.3347L48.7107 88.3276L49.4397 88.3174C54.9089 88.2929 60.7741 87.3142 60.768 84.5268C60.7678 84.0086 60.9538 80.0677 61.6406 79.4227C61.6406 79.4227 61.6369 79.3864 61.6406 79.319C61.6367 79.1791 61.6313 78.8794 61.6357 78.4255L61.6211 76.2968L61.6203 76.2127C61.5832 70.741 61.5056 59.277 61.382 49.7363C61.7482 49.9427 62.1098 50.0848 62.3696 50.0753C63.0661 49.7942 63.0031 48.6108 62.4074 48.0825C62.1438 47.8483 61.7609 47.5443 61.3232 47.3734C61.2839 44.4944 61.2461 41.8788 61.1941 39.7678C61.1933 39.742 61.1919 39.7164 61.1904 39.6912C61.187 39.6342 61.1838 39.5787 61.1901 39.5242L61.184 39.2727L61.1833 39.2463L61.1826 39.2197L61.1818 39.1932L61.1811 39.1669L61.1804 39.1412L61.1796 39.1163L61.1789 39.0923L61.1782 39.0692C61.1762 38.9767 61.1745 38.8857 61.1704 38.7963C61.1691 38.7004 61.1667 38.6075 61.1643 38.5145C61.1618 38.4255 61.1594 38.3365 61.1582 38.2447C61.1513 38.0964 61.1528 37.9451 61.1489 37.8051L61.1513 37.7854C61.1467 37.7211 61.1452 37.6651 61.1489 37.5978C61.1447 37.5085 61.1435 37.408 61.1403 37.3122C61.1384 37.2489 61.1355 37.1877 61.1306 37.1332C61.1294 37.0455 61.1264 36.9614 61.1235 36.8792C61.1193 36.7595 61.1152 36.6436 61.1169 36.5256L61.1149 36.4095L61.1149 36.3901L61.1132 36.3081L61.1115 36.2539L61.1076 36.1897C61.0971 35.9014 61.0903 35.6495 61.0759 35.4285C60.7832 28.7965 55.1774 26.6841 49.0878 26.7076ZM36.9267 32.7607C36.9174 31.8028 37.3732 30.9872 38.1203 30.3014C39.2033 29.3241 40.8886 28.6088 42.7146 28.1252L43.2773 28.5619C41.4279 29.0068 39.7197 29.7115 38.6723 30.7608C38.2858 31.146 37.9902 31.5738 37.8159 32.0517L37.8188 32.06L37.8098 32.0899L37.7951 32.1339L37.7929 32.1394L37.7915 32.1445C37.7768 32.1872 37.7622 32.229 37.7548 32.2717C37.6477 32.5462 37.4033 33.0119 36.936 33.2003C36.9345 33.1446 36.9338 33.0871 36.9331 33.0287L36.9331 33.0079L36.9331 33.0059L36.9331 33.0039C36.9318 32.9235 36.9306 32.8416 36.9267 32.7607ZM48.4331 43.4941C45.476 43.5022 39.7907 44.8209 38.2072 46.3097C39.2736 47.7981 40.0717 50.6185 40.6035 54.0255C42.4887 52.644 47.0437 52.5083 48.4719 52.5083C49.9084 52.5053 54.517 52.5952 56.3911 53.979C56.8791 50.5599 57.6462 47.7277 58.7009 46.2328C57.0927 44.7526 51.3899 43.486 48.4331 43.4941ZM37.4621 46.2502C37.4621 46.2502 39.6513 51.4024 40.333 61.2294L40.2107 61.2138C39.4843 61.1216 38.4609 60.9916 37.8469 60.6708L37.4621 46.2502ZM37.0253 84.143C37.0188 84.513 37.1313 84.8491 37.3208 85.1384C37.9047 86.048 39.3588 86.5853 41.2348 86.9129L40.6071 86.038L40.6042 86.0296C40.3173 85.9641 40.072 85.8835 39.8938 85.8068C39.1718 85.475 38.6706 84.9219 38.3049 84.2253C38.0097 83.6445 37.8042 82.9746 37.656 82.2555L36.9865 82.6116C37.0056 83.1042 37.0222 83.6164 37.0253 84.143ZM38.2517 75.5083L37.8874 61.8436C38.6862 62.1286 39.5129 62.3092 40.4143 62.3591L40.4284 62.6306L40.4416 62.9222L40.4643 63.4812C40.8034 71.561 39.2331 73.884 38.5527 74.8903C38.3679 75.1639 38.2487 75.3402 38.2517 75.5083ZM41.2216 71.2642C40.9726 74.4362 40.5183 77.1456 39.8476 78.7932C40.1311 79.7553 42.5659 81.1052 48.6586 81.09C54.7512 81.0748 57.1679 79.7077 57.435 78.7344C56.7414 77.0824 56.2568 74.3745 55.9743 71.188C55.2204 71.9328 52.561 72.1911 48.5842 72.2112C44.6687 72.2185 42.0263 71.9805 41.2216 71.2642ZM60.3464 84.039C60.354 84.4226 60.2453 84.7448 60.0605 85.038C59.4848 85.9632 58.0349 86.4988 56.1599 86.8211L56.7785 85.9369L56.7756 85.9286C56.8493 85.9092 56.9206 85.8894 56.9887 85.8695L57.0739 85.844C57.2312 85.7959 57.3691 85.7473 57.4819 85.7005C58.205 85.3627 58.6987 84.8066 59.0568 84.1111C59.3542 83.532 59.551 82.8574 59.6853 82.1397L60.3601 82.4978C60.3459 83.0025 60.3378 83.5238 60.3464 84.039ZM58.9458 75.2075C58.9858 75.288 59.0078 75.36 59.0078 75.4305L59.2226 61.7817C58.4348 62.096 57.6096 62.2823 56.7024 62.3194L56.6938 62.5852L56.6811 62.9185C56.6745 63.0854 56.6679 63.2545 56.6626 63.427C56.4074 71.5198 58.0124 73.832 58.7028 74.8271C58.8086 74.9794 58.8928 75.1009 58.9458 75.2075ZM59.2353 60.5993C58.7065 60.9029 57.8623 61.0325 57.2185 61.1312C57.111 61.1477 57.0092 61.1633 56.9155 61.1787C56.8603 61.1878 56.8078 61.1968 56.7587 61.2059C57.3339 51.3468 59.468 46.1712 59.468 46.1712L59.2353 60.5993ZM59.8547 33.0146C59.8545 32.9051 59.8542 32.7864 59.8488 32.6696C59.8396 31.7117 59.3757 30.8999 58.6252 30.2298C57.5424 29.2657 55.8293 28.5586 54.0085 28.0979L53.4445 28.5381C55.2898 28.9617 57.0134 29.6462 58.0756 30.6837C58.4775 31.0657 58.7712 31.4868 58.9548 31.9667L58.958 31.9751C58.9716 32.0126 58.9816 32.0466 58.9917 32.0807C59.0017 32.1147 59.0117 32.1488 59.0251 32.1863C59.1413 32.4551 59.383 32.914 59.8549 33.1008L59.8547 33.0146Z" fill="#DA6F25"/>
<path fill-rule="evenodd" clip-rule="evenodd" d="M47.6255 20.6303L37.0247 20.5538L36.97 25L27 17.2944L37.145 10L37.0908 14.7444L48 14.818L58.9092 14.7444L58.855 10L69 17.2944L59.03 25L58.9753 20.5538L48.3745 20.6303V20.6357L48 20.633L47.6255 20.6357V20.6303Z" fill="#DA6F25"/>
</svg>
