<svg width="100" height="100" viewBox="0 0 100 100" fill="none" xmlns="http://www.w3.org/2000/svg">
<path fill-rule="evenodd" clip-rule="evenodd" d="M64.3784 18.0603C66.9873 18.0603 68.4624 19.8618 68.4624 23.9579C68.4624 28.054 66.9873 29.8555 64.3784 29.8555C61.7695 29.8555 60.2944 28.054 60.2944 23.9579C60.2944 19.8618 61.7695 18.0603 64.3784 18.0603ZM51.1133 19.107H54.4146L54.4045 29.6542H55.5486V19.107H58.8499V18.2415H51.1133V19.107ZM37.2954 18.2509H35.8606L32.0876 29.6536H33.3018L34.3455 26.3325H38.8208L39.8643 29.6536H41.0786L37.2954 18.2509ZM36.6033 19.0466L38.5701 25.4676H34.5864L36.5632 19.0466H36.6033ZM42.4331 18.2515H43.5771V26.4539C43.5771 28.1647 44.3999 28.99 46.0757 28.99C47.7515 28.99 48.5742 28.1547 48.5742 26.4539V18.2515H49.7183V26.4739C49.7183 28.8793 48.4136 29.8656 46.0657 29.8656C43.7175 29.8656 42.4131 28.8793 42.4131 26.4739V18.2515H42.4331ZM67.3088 23.9579C67.3088 27.6414 66.2051 28.99 64.3789 28.99C62.5525 28.99 61.4387 27.6616 61.4487 23.9579C61.4487 20.2744 62.5627 18.9258 64.3789 18.9258C66.1951 18.9258 67.3088 20.2644 67.3088 23.9579Z" fill="#DA6F25"/>
<path d="M44.2897 81.5451V64.2448H27.0505V52.2282H44.2897V34.9279H56.2709V52.2282H73.5101V64.2448H56.2709V81.5451" fill="#DA6F25"/>
</svg>
