<svg width="100" height="100" viewBox="0 0 100 100" fill="none" xmlns="http://www.w3.org/2000/svg">
<path d="M49.9199 23.4358C35.2416 23.4358 23.3557 35.3217 23.3557 50C23.3557 64.6783 35.2416 76.5642 49.9199 76.5642C64.5983 76.5642 76.4841 64.6783 76.4841 50C76.4841 35.3217 64.5983 23.4358 49.9199 23.4358ZM49.9199 72.6261C37.4612 72.6261 27.2938 62.4587 27.2938 50C27.2938 37.5413 37.4612 27.3739 49.9199 27.3739C62.3786 27.3739 72.5461 37.5413 72.5461 50C72.5461 62.4587 62.3786 72.6261 49.9199 72.6261Z" fill="#DA6F25"/>
<path d="M25.1458 30.5244L23.5705 29.3071L21.9953 28.0899C21.8521 28.3047 18.0572 33.1736 16.1239 40.9782C14.3339 48.21 13.9043 59.3798 21.9237 71.6237L25.2174 69.4757C11.4698 48.4248 24.5729 31.2404 25.1458 30.5244Z" fill="#DA6F25"/>
<path d="M77.9161 28.1615L74.7656 30.5244C88.7995 49.2124 75.3384 68.688 74.7656 69.4757L77.9877 71.7669C78.0593 71.5521 93.6685 49.2124 77.9161 28.1615Z" fill="#DA6F25"/>
<path d="M58.154 43.9139L47.1989 41.7658L41.614 37.6845C41.614 37.6845 36.029 35.0352 33.7378 39.6178L45.1941 51.2172H49.9198V55.4417L58.154 63.6759L65.2425 56.5873L66.2449 51.5752C66.1733 51.7184 60.302 51.9332 58.154 43.9139Z" fill="#DA6F25"/>
</svg>
