<svg width="100" height="100" viewBox="0 0 100 100" fill="none" xmlns="http://www.w3.org/2000/svg">
<path fill-rule="evenodd" clip-rule="evenodd" d="M64.1001 12.1732C64.1201 22.3179 64.1301 30.8724 64.1301 34.3748C64.1301 35.1396 64.1301 35.6429 64.1501 35.8844V36.0756C62.9663 37.1726 62.615 43.9055 62.615 44.7912C62.615 49.5415 52.5806 51.192 43.2485 51.192H40.76C31.428 51.192 21.3933 49.5314 21.3933 44.7912C21.3933 43.9156 21.0322 37.1827 19.8582 36.0756V34.3647C19.8582 30.8624 19.8682 22.3079 19.8882 12.1631H23.9021L24.2632 29.232C24.2632 28.9504 24.4663 28.6547 24.7803 28.1974C25.8467 26.6443 28.1936 23.2267 28.2168 12.1631H55.1594V12.1732H55.7715C55.7947 23.2368 58.1416 26.6544 59.208 28.2075C59.522 28.6648 59.7251 28.9604 59.7251 29.2421L60.0862 12.1732H64.1001ZM22.0654 43.976C22.0654 44.6201 22.2358 45.1837 22.5569 45.6869C23.5706 47.2468 26.0391 48.1627 29.23 48.7162L28.1763 47.2066V47.1965C27.6746 47.0757 27.2632 46.955 26.9521 46.8141C25.7178 46.2605 24.865 45.2944 24.2529 44.1068C23.751 43.1306 23.4099 41.9732 23.1692 40.7454L22.0151 41.3492C22.0452 42.2047 22.0654 43.0803 22.0654 43.976ZM41.9939 38.8433C31.5881 38.8433 27.4541 36.5285 26.9824 34.878C28.1062 32.1506 28.8989 27.7626 29.3506 22.5695C31.5181 23.3646 35.9031 23.6665 41.9036 23.6665C48.0547 23.6766 52.51 23.3646 54.6274 22.5192C55.0889 27.7224 55.8816 32.1506 57.0056 34.878C56.5339 36.5285 52.3997 38.8433 41.9939 38.8433ZM61.4104 45.6869C61.7214 45.1837 61.9021 44.6201 61.9021 43.976C61.9021 43.0702 61.9221 42.1946 61.9524 41.3492L60.7983 40.7454C60.5576 41.9732 60.2163 43.1104 59.7146 44.1068C59.1125 45.2944 58.2598 46.2505 57.0154 46.8141C56.8735 46.8783 56.7087 46.9384 56.5249 46.9962C56.3054 47.0651 56.0588 47.1308 55.7913 47.1965V47.2066L54.7375 48.7162C57.9385 48.1627 60.397 47.2569 61.4104 45.6869Z" fill="#DA6F25"/>
<path fill-rule="evenodd" clip-rule="evenodd" d="M65.6211 58.433C64.8206 58.433 64.1716 59.0819 64.1716 59.8823V61.7767L59.4561 58.8066C58.9734 58.5027 58.345 58.8495 58.345 59.4198V67.5421C58.345 68.1124 58.9734 68.4592 59.4561 68.1553L64.1716 65.1852V67.0796C64.1716 67.88 64.8206 68.5289 65.6211 68.5289H78.6926C79.4929 68.5289 80.1418 67.88 80.1418 67.0796V59.8823C80.1418 59.0819 79.4929 58.433 78.6926 58.433H65.6211Z" fill="#DA6F25"/>
<path d="M55.844 76.666L41.8761 86.2172L27.8965 76.666L31.6142 76.8307L34.7573 55.6815H48.9832L52.1263 76.8307L55.844 76.666Z" fill="#DA6F25"/>
</svg>
