<svg width="100" height="100" viewBox="0 0 100 100" fill="none" xmlns="http://www.w3.org/2000/svg">
<path fill-rule="evenodd" clip-rule="evenodd" d="M36.491 87.8975H64.427L49.9373 63.8341L36.491 87.8975ZM38.5984 86.6697L49.9875 66.2999L62.2598 86.6697H38.5984Z" fill="#DA6F25"/>
<path fill-rule="evenodd" clip-rule="evenodd" d="M48.8938 81.2351H51.252V71.6439H48.8938V81.2351ZM48.9441 83.1675C48.6331 83.4594 48.4824 83.8116 48.4824 84.2444C48.4824 84.4355 48.5327 84.6368 48.6331 84.8281C48.7131 85.0294 48.8235 85.1803 48.9741 85.3112C49.1245 85.452 49.2852 85.5527 49.4758 85.6332C49.6665 85.7137 49.8672 85.754 50.0779 85.754C50.5093 85.754 50.8706 85.603 51.1917 85.3011C51.5027 85.0093 51.6533 84.657 51.6533 84.2242C51.6533 83.8015 51.4927 83.4392 51.1716 83.1575C50.8506 82.8656 50.4893 82.7146 50.0579 82.7146C49.6265 82.7146 49.2651 82.8656 48.9441 83.1675Z" fill="#DA6F25"/>
<path fill-rule="evenodd" clip-rule="evenodd" d="M85.5559 58.3634C85.5367 58.4052 85.511 58.4445 85.479 58.48C85.399 58.5806 85.2683 58.631 85.128 58.631H67.7583C67.5174 58.631 67.3067 58.4498 67.2867 58.2083L67.1963 57.4836C67.1863 57.3528 67.2264 57.2219 67.3167 57.1213C67.407 57.0206 67.5376 56.9703 67.668 56.9703H85.0376C85.1978 56.9703 85.3448 57.0505 85.4312 57.1754C85.4746 57.2382 85.5027 57.3123 85.5093 57.3931L85.5996 58.1177C85.6062 58.2024 85.5916 58.287 85.5559 58.3634ZM85.6702 63.5121C85.7049 63.5121 85.7395 63.5085 85.7735 63.5015C85.867 63.4817 85.9549 63.4349 86.0213 63.3611C86.1116 63.2604 86.1516 63.1296 86.1416 62.9988L86.0513 62.2742C86.0313 62.0326 85.8206 61.8514 85.5799 61.8514H79.0574C78.927 61.8514 78.7964 61.9017 78.7061 62.0024C78.6158 62.103 78.5757 62.2339 78.5857 62.3647L78.6761 63.0894C78.6892 63.2473 78.7837 63.3794 78.9148 63.4519C78.9844 63.4904 79.0642 63.5121 79.1477 63.5121H85.6702ZM86.2017 68.3932C86.3321 68.3932 86.4624 68.3429 86.5528 68.2422C86.6431 68.1416 86.6831 68.0107 86.6731 67.8799L86.5828 67.1453C86.5628 66.9037 86.3521 66.7225 86.1114 66.7225H79.5889C79.5266 66.7225 79.4641 66.734 79.406 66.757C79.3428 66.7821 79.2847 66.8209 79.2376 66.8735C79.1968 66.9189 79.1663 66.9705 79.146 67.0254C79.1214 67.0923 79.1119 67.1641 79.1172 67.2358L79.2076 67.9604C79.2141 68.0403 79.2415 68.1134 79.284 68.1757C79.3702 68.3019 79.5179 68.3832 79.6792 68.3832H86.2017V68.3932ZM87.0948 73.1033C87.1851 73.0026 87.2251 72.8718 87.2151 72.741L87.1248 72.0164C87.1048 71.7748 86.8941 71.5936 86.6534 71.5936H80.1309C80.0005 71.5936 79.8699 71.6439 79.7796 71.7446C79.6892 71.8452 79.6492 71.9761 79.6592 72.1069L79.7495 72.8315C79.7696 73.0731 79.9803 73.2543 80.2212 73.2543H86.7437C86.8741 73.2643 86.9944 73.2039 87.0948 73.1033ZM87.7571 76.8975L87.8474 77.6221C87.8536 77.7094 87.8406 77.7927 87.8084 77.8652C87.7969 77.891 87.783 77.9153 87.7666 77.9379C87.7547 77.9543 87.7415 77.9698 87.7271 77.9844C87.7076 78.0061 87.6861 78.0254 87.6634 78.0425C87.6353 78.0634 87.6053 78.0807 87.5738 78.0945C87.5118 78.1217 87.4439 78.1354 87.376 78.1354H80.8536C80.7513 78.1354 80.6543 78.1028 80.5752 78.0468C80.4681 77.9707 80.3933 77.8517 80.3819 77.7126L80.2915 76.988C80.2815 76.8572 80.3216 76.7263 80.4119 76.6257C80.4634 76.5682 80.5284 76.5272 80.5987 76.5026C80.6514 76.484 80.7073 76.4747 80.7632 76.4747H87.2857C87.3824 76.4747 87.4742 76.5039 87.5508 76.5546C87.6651 76.63 87.7452 76.7529 87.7571 76.8975Z" fill="#DA6F25"/>
<path fill-rule="evenodd" clip-rule="evenodd" d="M76.0364 37.6069C76.1267 37.5062 76.2574 37.4559 76.3877 37.4559H82.9102C83.1509 37.4559 83.3616 37.6371 83.3816 37.8786L83.472 38.6033C83.482 38.7341 83.4419 38.8649 83.3516 38.9656C83.2613 39.0662 83.1309 39.1165 83.0005 39.1165H76.4781C76.2371 39.1165 76.0264 38.9354 76.0064 38.6938L75.9161 37.9692C75.906 37.8384 75.9461 37.7075 76.0364 37.6069ZM76.9297 42.327C76.7994 42.327 76.6687 42.3773 76.5784 42.4779C76.4881 42.5786 76.448 42.7094 76.458 42.8402L76.5484 43.5649C76.5684 43.8064 76.7791 43.9875 77.0201 43.9875H83.5425C83.6729 43.9875 83.8033 43.9373 83.8936 43.8366C83.9839 43.736 84.024 43.6051 84.014 43.4743L83.9236 42.7496C83.9036 42.5081 83.6929 42.327 83.4522 42.327H76.9297ZM77.1104 47.3591C77.2007 47.2584 77.3313 47.2081 77.4617 47.2081H83.9842C84.2249 47.2081 84.4356 47.3893 84.4556 47.6308L84.5459 48.3555C84.5559 48.4863 84.5159 48.6171 84.4256 48.7178C84.3352 48.8184 84.2049 48.8687 84.0745 48.8687H77.552C77.3111 48.8687 77.1004 48.6876 77.0804 48.446L76.99 47.7214C76.98 47.5906 77.0201 47.4597 77.1104 47.3591ZM77.6421 52.2402C77.7325 52.1396 77.8631 52.0893 77.9934 52.0893H84.5159C84.7566 52.0893 84.9673 52.2704 84.9873 52.512L85.0777 53.2366C85.0877 53.3674 85.0476 53.4983 84.9573 53.5989C84.867 53.6996 84.7366 53.7499 84.6062 53.7499H78.0838C77.8428 53.7499 77.6321 53.5687 77.6121 53.3272L77.5218 52.6025C77.5118 52.4717 77.5518 52.3409 77.6421 52.2402Z" fill="#DA6F25"/>
<path fill-rule="evenodd" clip-rule="evenodd" d="M73.7793 14.7412C73.5384 14.7412 73.3277 14.5601 73.3077 14.3185L73.2173 13.5939C73.2073 13.463 73.2474 13.3322 73.3377 13.2316C73.428 13.1309 73.5586 13.0806 73.689 13.0806H80.2115C80.4522 13.0806 80.6629 13.2617 80.6829 13.5033L80.7732 14.2279C80.7832 14.3588 80.7432 14.4895 80.6529 14.5902C80.5625 14.6908 80.4322 14.7412 80.3018 14.7412H73.7793ZM74.241 17.9517C74.1106 17.9517 73.98 18.002 73.8897 18.1027C73.7994 18.2032 73.7593 18.3341 73.7693 18.465L73.8597 19.1896C73.8628 19.2279 73.8709 19.2646 73.8831 19.2994C73.9004 19.349 73.9261 19.3945 73.9583 19.4347C74.0464 19.5437 74.1831 19.6123 74.3313 19.6123H80.8538C80.8975 19.6123 80.9412 19.6067 80.9834 19.5953C81.0672 19.5729 81.1448 19.5282 81.2049 19.4613C81.2952 19.3606 81.3352 19.2299 81.3252 19.099L81.2349 18.3744C81.2239 18.2406 81.1543 18.1252 81.0535 18.0491C80.9722 17.9877 80.8709 17.9517 80.7635 17.9517H74.241ZM74.6338 22.8451C74.6819 22.8301 74.7325 22.8226 74.7828 22.8226H81.3052C81.5459 22.8226 81.7566 23.0038 81.7766 23.2454L81.867 23.97C81.877 24.1008 81.837 24.2316 81.7466 24.3323C81.6973 24.3871 81.6363 24.427 81.5696 24.4519C81.5445 24.4613 81.5186 24.4686 81.4922 24.4738C81.4605 24.4801 81.428 24.4833 81.3955 24.4833H74.8731C74.6321 24.4833 74.4214 24.3021 74.4014 24.0605L74.3111 23.3359C74.304 23.2448 74.3213 23.1536 74.3631 23.0725C74.3814 23.0374 74.4041 23.0042 74.4314 22.9736C74.461 22.9407 74.4949 22.9131 74.5318 22.8909C74.5638 22.8715 74.5982 22.8562 74.6338 22.8451ZM75.3147 27.7039C75.1844 27.7039 75.0537 27.7542 74.9634 27.8549C74.8731 27.9554 74.833 28.0863 74.8431 28.2172L74.9334 28.9418C74.9534 29.1833 75.1641 29.3645 75.4051 29.3645H81.9275C82.0579 29.3645 82.1883 29.3141 82.2786 29.2135C82.3689 29.1128 82.409 28.9821 82.399 28.8512L82.3086 28.1266C82.2886 27.885 82.0779 27.7039 81.8372 27.7039H75.3147ZM82.8831 33.9287C82.9068 33.863 82.9161 33.7926 82.9107 33.7222L82.8203 32.9976C82.8003 32.756 82.5894 32.5748 82.3487 32.5748H64.979C64.9444 32.5748 64.9097 32.5784 64.8758 32.5854C64.814 32.5984 64.7549 32.623 64.7027 32.6595C64.6756 32.6785 64.6504 32.7006 64.6277 32.7258C64.5374 32.8264 64.4974 32.9573 64.5074 33.0881L64.5977 33.8127C64.6177 34.0543 64.8284 34.2355 65.0694 34.2355H82.439C82.4673 34.2373 82.4949 34.2367 82.5215 34.2338C82.5769 34.2278 82.6282 34.2118 82.6726 34.1877C82.7205 34.1619 82.7605 34.1267 82.7901 34.0845C82.8318 34.038 82.8628 33.9851 82.8831 33.9287Z" fill="#DA6F25"/>
<path fill-rule="evenodd" clip-rule="evenodd" d="M15.3084 58.1177C15.2984 58.2485 15.3384 58.3793 15.4287 58.48C15.5291 58.5806 15.6497 58.631 15.7801 58.631H33.1497C33.3904 58.631 33.6014 58.4498 33.6214 58.2083L33.7117 57.4836C33.7217 57.3528 33.6814 57.2219 33.5911 57.1213C33.5369 57.0608 33.4681 57.0184 33.3936 56.9943C33.344 56.9783 33.292 56.9703 33.24 56.9703H15.8704C15.6294 56.9703 15.4187 57.1515 15.3987 57.3931L15.3084 58.1177ZM15.2581 63.5121C15.1277 63.5121 14.9971 63.4617 14.9068 63.3611C14.8164 63.2604 14.7764 63.1296 14.7864 62.9988L14.8767 62.2742C14.8865 62.1562 14.9417 62.0526 15.0237 61.9775C15.1097 61.8988 15.2251 61.8514 15.3484 61.8514H21.8709C22.0013 61.8514 22.1316 61.9017 22.222 62.0024C22.3123 62.103 22.3523 62.2339 22.3423 62.3647L22.252 63.0894C22.232 63.3309 22.0213 63.5121 21.7806 63.5121H15.2581ZM14.7063 68.3933C14.657 68.3933 14.6075 68.3861 14.5603 68.3717C14.4827 68.348 14.4112 68.3048 14.355 68.2423C14.2647 68.1416 14.2246 68.0109 14.2347 67.88L14.325 67.1554C14.345 66.9138 14.5557 66.7327 14.7967 66.7327H21.3191C21.4495 66.7327 21.5799 66.783 21.6702 66.8837C21.7112 66.9293 21.7417 66.9812 21.762 67.0364C21.7864 67.1029 21.7959 67.1744 21.7906 67.246L21.7002 67.9706C21.6902 68.0927 21.6314 68.1993 21.5445 68.275C21.5076 68.3071 21.4659 68.3336 21.4204 68.3533C21.3614 68.379 21.2962 68.3933 21.2288 68.3933H14.7063ZM13.8233 73.1033C13.7329 73.0026 13.6929 72.8718 13.7029 72.741L13.7932 72.0164C13.8133 71.7748 14.024 71.5936 14.2649 71.5936H20.7874C20.9178 71.5936 21.0481 71.6439 21.1385 71.7446C21.1966 71.8092 21.2337 71.8864 21.2503 71.968C21.2596 72.0134 21.2625 72.0602 21.2588 72.1069L21.1685 72.8315C21.1485 73.0731 20.9378 73.2543 20.6971 73.2543H14.1746C14.0442 73.2643 13.9136 73.2039 13.8233 73.1033ZM13.1609 76.8975L13.0706 77.6221C13.0606 77.7629 13.1006 77.8938 13.191 77.9844C13.2813 78.085 13.4119 78.1354 13.5423 78.1354H20.0647C20.3055 78.1354 20.5161 77.9542 20.5362 77.7126L20.6265 76.988C20.6365 76.8572 20.5965 76.7263 20.5061 76.6257C20.4158 76.525 20.2854 76.4747 20.1551 76.4747H13.6326C13.3916 76.4747 13.1809 76.6559 13.1609 76.8975Z" fill="#DA6F25"/>
<path fill-rule="evenodd" clip-rule="evenodd" d="M24.8814 37.6069C24.7911 37.5062 24.6607 37.4559 24.5303 37.4559H18.0078C17.7669 37.4559 17.5562 37.6371 17.5362 37.8787L17.4458 38.6033C17.4358 38.7341 17.4759 38.8649 17.5662 38.9656C17.6292 39.0356 17.7117 39.0814 17.8001 39.1027C17.8384 39.1119 17.878 39.1166 17.9175 39.1166H24.44C24.6807 39.1166 24.8914 38.9354 24.9114 38.6938L25.0017 37.9692C25.0118 37.8384 24.9717 37.7075 24.8814 37.6069ZM24.2488 42.3893C24.2896 42.4125 24.3272 42.442 24.3594 42.478C24.4497 42.5786 24.4898 42.7095 24.4798 42.8403L24.3894 43.5649C24.3694 43.8065 24.1587 43.9877 23.918 43.9877H17.3955C17.3384 43.9877 17.281 43.978 17.2271 43.9586C17.1582 43.9338 17.095 43.8932 17.0442 43.8367C16.9832 43.7687 16.9451 43.687 16.93 43.6007C16.9226 43.5593 16.9207 43.5168 16.9239 43.4744L17.0142 42.7498C17.0342 42.5082 17.2449 42.327 17.4859 42.327H24.0083C24.0921 42.327 24.1758 42.3478 24.2488 42.3893ZM23.6944 47.269C23.6761 47.2587 23.657 47.2496 23.6375 47.2419C23.5799 47.2194 23.5181 47.2081 23.4563 47.2081H16.9339C16.9161 47.2081 16.8987 47.2091 16.8814 47.2109C16.8682 47.2124 16.8553 47.2144 16.8426 47.2168C16.7718 47.2306 16.7056 47.26 16.649 47.3016C16.5452 47.3778 16.4734 47.4948 16.4622 47.6309L16.3719 48.3555C16.3648 48.4492 16.3833 48.5428 16.4275 48.6255C16.4451 48.6582 16.4666 48.6892 16.4922 48.7178C16.5379 48.7688 16.594 48.8069 16.6553 48.832C16.6856 48.8445 16.7173 48.8538 16.7495 48.8599C16.7806 48.8657 16.812 48.8688 16.8435 48.8688H23.366C23.4693 48.8688 23.5669 48.8354 23.6465 48.7783C23.7522 48.7023 23.826 48.584 23.8374 48.446L23.9278 47.7214C23.9378 47.5906 23.8977 47.4597 23.8074 47.3591C23.7745 47.3224 23.7361 47.2924 23.6944 47.269ZM23.2659 52.2402C23.2283 52.1985 23.1839 52.1654 23.1355 52.1409C23.0672 52.1064 22.991 52.0892 22.9148 52.0892H16.3924C16.1514 52.0892 15.9407 52.2704 15.9207 52.512L15.8304 53.2366C15.8203 53.3674 15.8604 53.4982 15.9507 53.5989C16.0411 53.6995 16.1717 53.7499 16.302 53.7499H22.8245C23.0652 53.7499 23.2759 53.5687 23.2959 53.3271L23.3863 52.6025C23.3963 52.4717 23.3562 52.3408 23.2659 52.2402Z" fill="#DA6F25"/>
<path fill-rule="evenodd" clip-rule="evenodd" d="M27.1297 14.7412C27.3704 14.7412 27.5811 14.5601 27.6011 14.3185L27.6914 13.5939C27.7015 13.463 27.6614 13.3322 27.5711 13.2316C27.4807 13.1309 27.3504 13.0806 27.22 13.0806H20.6975C20.4566 13.0806 20.2459 13.2617 20.2259 13.5033L20.1355 14.2279C20.1255 14.3588 20.1656 14.4895 20.2559 14.5902C20.3462 14.6908 20.4768 14.7412 20.6072 14.7412H27.1297ZM26.6783 17.9517C26.8086 17.9517 26.939 18.002 27.0293 18.1027C27.0818 18.161 27.1172 18.2295 27.1358 18.3024C27.1492 18.3551 27.1538 18.41 27.1497 18.465L27.0594 19.1896C27.0523 19.2737 27.0223 19.3505 26.9759 19.4148C26.8892 19.5354 26.7449 19.6123 26.5879 19.6123H20.0655C19.9351 19.6123 19.8045 19.5619 19.7141 19.4613C19.6238 19.3606 19.5838 19.2299 19.5938 19.099L19.6841 18.3744C19.7041 18.1328 19.9148 17.9517 20.1558 17.9517H26.6783ZM26.4873 22.9736C26.397 22.8729 26.2666 22.8226 26.1363 22.8226H19.6138C19.3728 22.8226 19.1621 23.0038 19.1421 23.2454L19.0518 23.97C19.0418 24.1008 19.0818 24.2316 19.1722 24.3323C19.2102 24.3748 19.2557 24.4083 19.3052 24.433C19.3728 24.4666 19.4483 24.4833 19.5235 24.4833H26.0459C26.2867 24.4833 26.4974 24.3021 26.5174 24.0605L26.6077 23.3359C26.6116 23.2854 26.6079 23.2349 26.597 23.186C26.5794 23.1085 26.5428 23.0354 26.4873 22.9736ZM25.5943 27.7039C25.7246 27.7039 25.855 27.7542 25.9453 27.8549C26.0357 27.9554 26.0757 28.0863 26.0657 28.2172L25.9754 28.9418C25.9695 29.0115 25.9478 29.0762 25.9141 29.1329C25.8885 29.1763 25.8557 29.215 25.8179 29.2477C25.7332 29.3208 25.6221 29.3645 25.5039 29.3645H18.9815C18.8511 29.3645 18.7205 29.3141 18.6302 29.2135C18.5796 29.1572 18.5447 29.0914 18.5257 29.0215C18.5108 28.9664 18.5054 28.9088 18.5098 28.8512L18.6001 28.1266C18.6202 27.885 18.8308 27.7039 19.0718 27.7039H25.5943ZM18.1082 34.0845C18.0179 33.9838 17.9778 33.853 17.9878 33.7222L18.0782 32.9976C18.0982 32.756 18.3089 32.5748 18.5498 32.5748H35.9195C36.0498 32.5748 36.1805 32.6251 36.2705 32.7258C36.3609 32.8264 36.4012 32.9573 36.3911 33.0881L36.3008 33.8127C36.2808 34.0543 36.0699 34.2355 35.8291 34.2355H18.4595C18.3291 34.2455 18.2085 34.1851 18.1082 34.0845Z" fill="#DA6F25"/>
</svg>
