<svg width="100" height="100" viewBox="0 0 100 100" fill="none" xmlns="http://www.w3.org/2000/svg">
<path fill-rule="evenodd" clip-rule="evenodd" d="M36.491 87.8975H64.427L49.9373 63.8341L36.491 87.8975ZM38.5984 86.6697L49.9875 66.2999L62.2598 86.6697H38.5984Z" fill="#DA6F25"/>
<path fill-rule="evenodd" clip-rule="evenodd" d="M48.894 81.2351H51.2522V71.6439H48.894V81.2351ZM48.9443 83.1674C48.6333 83.4593 48.4827 83.8115 48.4827 84.2443C48.4827 84.4355 48.533 84.6368 48.6333 84.828C48.7134 85.0293 48.8237 85.1802 48.9744 85.3111C49.1248 85.452 49.2854 85.5526 49.4761 85.6332C49.6667 85.7137 49.8674 85.7539 50.0781 85.7539C50.5095 85.7539 50.8708 85.603 51.1919 85.301C51.5029 85.0092 51.6536 84.6569 51.6536 84.2242C51.6536 83.8015 51.4929 83.4391 51.1719 83.1573C50.8508 82.8655 50.4895 82.7145 50.0581 82.7145C49.6267 82.7145 49.2654 82.8655 48.9443 83.1674Z" fill="#DA6F25"/>
<path fill-rule="evenodd" clip-rule="evenodd" d="M85.5994 58.1177C85.6094 58.2485 85.5691 58.3793 85.4788 58.48C85.3987 58.5806 85.2681 58.6309 85.1277 58.6309H67.7581C67.5171 58.6309 67.3064 58.4498 67.2864 58.2083L67.1961 57.4836C67.1861 57.3528 67.2261 57.2219 67.3164 57.1213C67.4068 57.0206 67.5374 56.9703 67.6678 56.9703H85.0374C85.2781 56.9703 85.489 57.1515 85.5091 57.393L85.5994 58.1177ZM85.67 63.5121C85.8003 63.5121 85.9307 63.4618 86.021 63.3611C86.1114 63.2605 86.1514 63.1296 86.1414 62.9988L86.0511 62.2742C86.031 62.0327 85.8203 61.8515 85.5796 61.8515H79.0572C78.9268 61.8515 78.7962 61.9018 78.7058 62.0024C78.6155 62.1031 78.5755 62.2339 78.5855 62.3647L78.6758 63.0894C78.6958 63.3309 78.9065 63.5121 79.1475 63.5121H85.67ZM86.2015 68.3932C86.3318 68.3932 86.4622 68.3429 86.5525 68.2422C86.6429 68.1416 86.6829 68.0107 86.6729 67.8799L86.5826 67.1452C86.5625 66.9037 86.3518 66.7225 86.1111 66.7225H79.5887C79.4583 66.7225 79.3277 66.7728 79.2373 66.8735C79.147 66.9741 79.107 67.105 79.117 67.2358L79.2073 67.9604C79.2273 68.202 79.438 68.3831 79.679 68.3831H86.2015V68.3932ZM87.0945 73.1033C87.1849 73.0026 87.2249 72.8718 87.2149 72.741L87.1245 72.0163C87.1045 71.7748 86.8938 71.5936 86.6531 71.5936H80.1307C80.0003 71.5936 79.8697 71.6439 79.7793 71.7446C79.689 71.8452 79.649 71.9761 79.659 72.1069L79.7493 72.8315C79.7693 73.0731 79.98 73.2542 80.221 73.2542H86.7434C86.8738 73.2643 86.9942 73.2039 87.0945 73.1033ZM87.7569 76.8974L87.8472 77.6221C87.8572 77.7629 87.8172 77.8938 87.7268 77.9844C87.6365 78.085 87.5061 78.1353 87.3758 78.1353H80.8533C80.6123 78.1353 80.4016 77.9542 80.3816 77.7126L80.2913 76.988C80.2813 76.8572 80.3213 76.7263 80.4117 76.6257C80.502 76.525 80.6326 76.4747 80.763 76.4747H87.2854C87.5262 76.4747 87.7369 76.6559 87.7569 76.8974Z" fill="#DA6F25"/>
<path fill-rule="evenodd" clip-rule="evenodd" d="M76.0364 37.6069C76.1267 37.5062 76.2574 37.4559 76.3877 37.4559H82.9102C83.1509 37.4559 83.3616 37.6371 83.3816 37.8786L83.472 38.6033C83.482 38.7341 83.4419 38.8649 83.3516 38.9656C83.2613 39.0662 83.1309 39.1165 83.0005 39.1165H76.4781C76.2371 39.1165 76.0264 38.9354 76.0064 38.6938L75.9161 37.9692C75.906 37.8384 75.9461 37.7075 76.0364 37.6069ZM76.9297 42.327C76.7994 42.327 76.6687 42.3773 76.5784 42.4779C76.4881 42.5786 76.448 42.7094 76.458 42.8402L76.5484 43.5649C76.5684 43.8064 76.7791 43.9875 77.0201 43.9875H83.5425C83.6729 43.9875 83.8033 43.9373 83.8936 43.8366C83.9839 43.736 84.024 43.6051 84.014 43.4743L83.9236 42.7496C83.9036 42.5081 83.6929 42.327 83.4522 42.327H76.9297ZM77.1104 47.3591C77.2007 47.2584 77.3313 47.2081 77.4617 47.2081H83.9842C84.2249 47.2081 84.4356 47.3893 84.4556 47.6308L84.5459 48.3555C84.5559 48.4863 84.5159 48.6171 84.4256 48.7178C84.3352 48.8184 84.2049 48.8687 84.0745 48.8687H77.552C77.3111 48.8687 77.1004 48.6876 77.0804 48.446L76.99 47.7214C76.98 47.5906 77.0201 47.4597 77.1104 47.3591ZM77.6421 52.2402C77.7325 52.1396 77.8631 52.0893 77.9934 52.0893H84.5159C84.7566 52.0893 84.9673 52.2704 84.9873 52.512L85.0777 53.2366C85.0877 53.3674 85.0476 53.4983 84.9573 53.5989C84.867 53.6996 84.7366 53.7499 84.6062 53.7499H78.0838C77.8428 53.7499 77.6321 53.5687 77.6121 53.3272L77.5218 52.6025C77.5118 52.4717 77.5518 52.3409 77.6421 52.2402Z" fill="#DA6F25"/>
<path fill-rule="evenodd" clip-rule="evenodd" d="M73.7793 14.7411C73.5384 14.7411 73.3277 14.5599 73.3077 14.3184L73.2173 13.5938C73.2073 13.463 73.2474 13.3321 73.3377 13.2314C73.428 13.1308 73.5586 13.0805 73.689 13.0805H80.2115C80.4522 13.0805 80.6629 13.2617 80.6829 13.5032L80.7732 14.2278C80.7832 14.3586 80.7432 14.4895 80.6529 14.5901C80.5625 14.6908 80.4322 14.7411 80.3018 14.7411H73.7793ZM74.241 17.9516C74.1106 17.9516 73.98 18.0019 73.8897 18.1025C73.7994 18.2032 73.7593 18.334 73.7693 18.4648L73.8597 19.1895C73.8797 19.431 74.0904 19.6122 74.3313 19.6122H80.8538C80.9842 19.6122 81.1145 19.5619 81.2049 19.4612C81.2952 19.3606 81.3352 19.2297 81.3252 19.0989L81.2349 18.3743C81.2149 18.1328 81.0042 17.9516 80.7635 17.9516H74.241ZM74.4314 22.9736C74.5218 22.8729 74.6524 22.8226 74.7828 22.8226H81.3052C81.5459 22.8226 81.7566 23.0038 81.7766 23.2453L81.867 23.97C81.877 24.1008 81.837 24.2316 81.7466 24.3323C81.6563 24.4329 81.5259 24.4832 81.3955 24.4832H74.8731C74.6321 24.4832 74.4214 24.3021 74.4014 24.0605L74.3111 23.3359C74.3011 23.2051 74.3411 23.0742 74.4314 22.9736ZM75.3147 27.7037C75.1844 27.7037 75.0537 27.754 74.9634 27.8547C74.8731 27.9553 74.833 28.0862 74.8431 28.217L74.9334 28.9417C74.9534 29.1832 75.1641 29.3643 75.4051 29.3643H81.9275C82.0579 29.3643 82.1883 29.314 82.2786 29.2134C82.3689 29.1127 82.409 28.9819 82.399 28.8511L82.3086 28.1264C82.2886 27.8849 82.0779 27.7037 81.8372 27.7037H75.3147ZM82.7901 34.0845C82.8804 33.9838 82.9207 33.853 82.9107 33.7222L82.8203 32.9975C82.8003 32.756 82.5894 32.5748 82.3487 32.5748H64.979C64.8487 32.5748 64.7181 32.6251 64.6277 32.7258C64.5374 32.8264 64.4974 32.9573 64.5074 33.0881L64.5977 33.8127C64.6177 34.0543 64.8284 34.2354 65.0694 34.2354H82.439C82.5894 34.2455 82.72 34.1851 82.7901 34.0845Z" fill="#DA6F25"/>
<path fill-rule="evenodd" clip-rule="evenodd" d="M15.3084 58.1178C15.2984 58.2486 15.3384 58.3795 15.4287 58.4801C15.5291 58.5807 15.6497 58.631 15.7801 58.631H33.1497C33.3904 58.631 33.6014 58.4499 33.6214 58.2084L33.7117 57.4837C33.7217 57.3529 33.6814 57.222 33.5911 57.1214C33.501 57.0208 33.3704 56.9705 33.24 56.9705H15.8704C15.6294 56.9705 15.4187 57.1516 15.3987 57.3931L15.3084 58.1178ZM15.2581 63.5122C15.1277 63.5122 14.9971 63.4619 14.9068 63.3613C14.8164 63.2606 14.7764 63.1298 14.7864 62.999L14.8767 62.2743C14.8968 62.0328 15.1075 61.8516 15.3484 61.8516H21.8709C22.0013 61.8516 22.1316 61.9019 22.222 62.0026C22.3123 62.1032 22.3523 62.2341 22.3423 62.3649L22.252 63.0895C22.232 63.3311 22.0213 63.5122 21.7806 63.5122H15.2581ZM14.7063 68.3933C14.576 68.3933 14.4453 68.343 14.355 68.2424C14.2647 68.1417 14.2246 68.0109 14.2347 67.8801L14.325 67.1554C14.345 66.9139 14.5557 66.7327 14.7967 66.7327H21.3191C21.4495 66.7327 21.5799 66.783 21.6702 66.8837C21.7605 66.9843 21.8006 67.1152 21.7906 67.246L21.7002 67.9706C21.6802 68.2122 21.4695 68.3933 21.2288 68.3933H14.7063ZM13.8233 73.1033C13.7329 73.0027 13.6929 72.8718 13.7029 72.741L13.7932 72.0164C13.8133 71.7748 14.024 71.5937 14.2649 71.5937H20.7874C20.9178 71.5937 21.0481 71.644 21.1385 71.7446C21.2288 71.8453 21.2688 71.9761 21.2588 72.1069L21.1685 72.8316C21.1485 73.0731 20.9378 73.2543 20.6971 73.2543H14.1746C14.0442 73.2643 13.9136 73.204 13.8233 73.1033ZM13.1609 76.8975L13.0706 77.6222C13.0606 77.7631 13.1006 77.8939 13.191 77.9845C13.2813 78.0851 13.4119 78.1354 13.5423 78.1354H20.0647C20.3055 78.1354 20.5161 77.9543 20.5362 77.7128L20.6265 76.9881C20.6365 76.8573 20.5965 76.7264 20.5061 76.6258C20.4158 76.5251 20.2854 76.4749 20.1551 76.4749H13.6326C13.3916 76.4749 13.1809 76.656 13.1609 76.8975Z" fill="#DA6F25"/>
<path fill-rule="evenodd" clip-rule="evenodd" d="M24.8814 37.6069C24.7911 37.5063 24.6607 37.456 24.5303 37.456H18.0078C17.7669 37.456 17.5562 37.6371 17.5362 37.8787L17.4458 38.6033C17.4358 38.7341 17.4759 38.865 17.5662 38.9656C17.6565 39.0663 17.7871 39.1166 17.9175 39.1166H24.44C24.6807 39.1166 24.8914 38.9354 24.9114 38.6939L25.0017 37.9692C25.0118 37.8384 24.9717 37.7076 24.8814 37.6069ZM24.0083 42.327C24.1387 42.327 24.2691 42.3773 24.3594 42.478C24.4497 42.5786 24.4898 42.7095 24.4798 42.8403L24.3894 43.5649C24.3694 43.8065 24.1587 43.9876 23.918 43.9876H17.3955C17.2652 43.9876 17.1346 43.9373 17.0442 43.8367C16.9539 43.736 16.9139 43.6052 16.9239 43.4744L17.0142 42.7497C17.0342 42.5082 17.2449 42.327 17.4859 42.327H24.0083ZM23.8074 47.3591C23.7171 47.2585 23.5867 47.2082 23.4563 47.2082H16.9339C16.6929 47.2082 16.4822 47.3893 16.4622 47.6309L16.3719 48.3555C16.3619 48.4863 16.4019 48.6172 16.4922 48.7178C16.5826 48.8185 16.7132 48.8688 16.8435 48.8688H23.366C23.6067 48.8688 23.8174 48.6876 23.8374 48.4461L23.9278 47.7214C23.9378 47.5906 23.8977 47.4598 23.8074 47.3591ZM23.2659 52.2403C23.1756 52.1396 23.0452 52.0894 22.9148 52.0894H16.3924C16.1514 52.0894 15.9407 52.2705 15.9207 52.512L15.8304 53.2367C15.8203 53.3675 15.8604 53.4984 15.9507 53.599C16.0411 53.6996 16.1717 53.7499 16.302 53.7499H22.8245C23.0652 53.7499 23.2759 53.5688 23.2959 53.3273L23.3863 52.6026C23.3963 52.4718 23.3562 52.3409 23.2659 52.2403Z" fill="#DA6F25"/>
<path fill-rule="evenodd" clip-rule="evenodd" d="M27.1294 14.7412C27.3702 14.7412 27.5808 14.5601 27.6009 14.3185L27.6912 13.5939C27.7012 13.4631 27.6612 13.3322 27.5708 13.2316C27.4805 13.1309 27.3501 13.0806 27.2198 13.0806H20.6973C20.4563 13.0806 20.2456 13.2618 20.2256 13.5033L20.1353 14.228C20.1253 14.3588 20.1653 14.4896 20.2557 14.5903C20.346 14.6909 20.4766 14.7412 20.607 14.7412H27.1294ZM26.678 17.9517C26.8084 17.9517 26.9388 18.002 27.0291 18.1026C27.1194 18.2032 27.1595 18.3341 27.1495 18.4649L27.0591 19.1896C27.0391 19.4311 26.8284 19.6122 26.5877 19.6122H20.0652C19.9349 19.6122 19.8042 19.562 19.7139 19.4613C19.6236 19.3607 19.5835 19.2298 19.5935 19.099L19.6839 18.3743C19.7039 18.1328 19.9146 17.9517 20.1556 17.9517H26.678ZM26.4871 22.9737C26.3968 22.873 26.2664 22.8228 26.136 22.8228H19.6136C19.3726 22.8228 19.1619 23.0039 19.1419 23.2454L19.0516 23.9701C19.0415 24.1009 19.0816 24.2318 19.1719 24.3324C19.2622 24.433 19.3929 24.4833 19.5232 24.4833H26.0457C26.2864 24.4833 26.4971 24.3022 26.5171 24.0607L26.6075 23.336C26.6175 23.2052 26.5774 23.0743 26.4871 22.9737ZM25.594 27.7039C25.7244 27.7039 25.8548 27.7542 25.9451 27.8548C26.0354 27.9554 26.0755 28.0863 26.0655 28.2171L25.9751 28.9418C25.9551 29.1833 25.7444 29.3644 25.5037 29.3644H18.9812C18.8509 29.3644 18.7203 29.3141 18.6299 29.2135C18.5396 29.1129 18.4995 28.982 18.5096 28.8512L18.5999 28.1265C18.6199 27.885 18.8306 27.7039 19.0716 27.7039H25.594ZM18.1079 34.0845C18.0176 33.9839 17.9776 33.853 17.9876 33.7222L18.0779 32.9976C18.0979 32.756 18.3086 32.5749 18.5496 32.5749H35.9192C36.0496 32.5749 36.1802 32.6252 36.2703 32.7258C36.3606 32.8265 36.4009 32.9573 36.3909 33.0881L36.3006 33.8128C36.2806 34.0543 36.0696 34.2355 35.8289 34.2355H18.4593C18.3289 34.2455 18.2083 34.1852 18.1079 34.0845Z" fill="#DA6F25"/>
</svg>
