<svg width="100" height="100" viewBox="0 0 100 100" fill="none" xmlns="http://www.w3.org/2000/svg">
<path fill-rule="evenodd" clip-rule="evenodd" d="M53.1106 62.4207C55.2478 65.1179 58.0676 67.2011 61.2686 68.439L61.8506 66.9596C58.9104 65.8324 56.3215 63.9102 54.3647 61.4343C52.4082 58.9586 51.1438 55.9896 50.7224 52.8597L49.157 53.071C49.6086 56.4929 50.9832 59.7234 53.1106 62.4207ZM46.1868 67.4628C48.9263 70.9349 52.5488 73.612 56.6729 75.2021L57.2349 73.7428C53.3916 72.2533 49.99 69.7373 47.4211 66.4866C44.8523 63.2258 43.2065 59.3309 42.6548 55.2348L41.0894 55.4462C41.6814 59.824 43.4375 63.9806 46.1868 67.4628Z" fill="#DA6F25"/>
<path fill-rule="evenodd" clip-rule="evenodd" d="M80.284 26.6224C80.6451 26.7633 80.9764 27.025 81.1971 27.2263C81.7088 27.6791 81.7591 28.6855 81.147 28.9271C80.9261 28.9271 80.625 28.8063 80.314 28.6252C80.3743 38.0855 80.3843 49.7801 80.3843 52.9805V53.7454V53.8359C79.8023 54.3794 79.6216 57.7207 79.6216 58.1635C79.6216 60.5085 74.6245 61.3337 69.9886 61.3337H68.7644C64.1184 61.3337 59.1314 60.5186 59.1314 58.1635C59.1314 57.7308 58.9507 54.3895 58.3687 53.8359V52.9905C58.3687 49.8304 58.3887 38.4176 58.439 29.0378C58.0677 29.2794 57.6763 29.4605 57.3953 29.4605C56.7632 29.2491 56.8333 28.2427 57.325 27.7899C57.596 27.5483 57.9873 27.2263 58.449 27.1055C58.469 24.4888 58.4891 22.0935 58.5191 20.1914V19.97C58.5293 19.809 58.5293 19.6479 58.5293 19.4969C58.5293 19.4211 58.5315 19.343 58.534 19.2658L58.5345 19.2477L58.5347 19.2437L58.5354 19.2181V19.2137L58.5357 19.2092L58.5364 19.183V19.1794V19.1759V19.1724V19.1688V19.1653V19.1617V19.1582V19.1547V19.1511C58.5379 19.1042 58.5393 19.0583 58.5393 19.0139C58.5494 18.8931 58.5494 18.7623 58.5494 18.6415V18.5107L58.5506 18.3754L58.5511 18.3458L58.5516 18.3184L58.552 18.293L58.5525 18.2694L58.553 18.2476L58.5535 18.2269L58.554 18.2075L58.5545 18.189L58.5547 18.1823L58.5555 18.1521V18.1482V18.1445V18.1409V18.1376V18.1344V18.1316V18.1288V18.126V18.1232V18.1204V18.1175V18.1148C58.5574 18.042 58.5594 17.97 58.5594 17.8968V17.7659L58.5606 17.6447L58.5611 17.6174L58.5616 17.5916L58.562 17.5674L58.5625 17.5448L58.563 17.5239L58.5635 17.5043L58.564 17.4861L58.5645 17.4692L58.5647 17.4625L58.5655 17.4338V17.4291V17.4247V17.4203V17.4164V17.4128V17.4092V17.4056V17.402V17.3987V17.3955V17.3923V17.389C58.5674 17.3262 58.5694 17.2645 58.5694 17.2023V17.0514C58.5738 16.9635 58.5762 16.8775 58.5784 16.796L58.5789 16.7789L58.5791 16.774C58.5816 16.6771 58.584 16.587 58.5894 16.5079C58.8304 10.8719 63.5765 9.06042 68.7442 9.06042H69.9786C75.1463 9.06042 79.9026 10.8619 80.1333 16.5079C80.1387 16.6017 80.1412 16.7062 80.1436 16.8188L80.1438 16.8242V16.8295L80.1443 16.8502C80.1465 16.9459 80.149 17.0471 80.1534 17.152C80.1636 17.2325 80.1636 17.3332 80.1636 17.4338C80.1636 17.5109 80.1658 17.588 80.1683 17.6683C80.1709 17.7559 80.1736 17.8474 80.1736 17.9471C80.1736 17.9817 80.1751 18.0178 80.1766 18.0547V18.0576V18.0604V18.0632V18.066V18.0688V18.0716V18.0744V18.0775V18.0807V18.0841L80.1773 18.106L80.1775 18.1098L80.1783 18.1313L80.1785 18.1356L80.179 18.1496L80.1795 18.165C80.1817 18.2234 80.1836 18.2825 80.1836 18.3396V18.4905V18.5006C80.1936 18.6214 80.1936 18.7422 80.1936 18.873C80.2037 19.0139 80.2037 19.185 80.2037 19.3359C80.2037 19.3906 80.2051 19.4468 80.2066 19.5042V19.5079V19.5117V19.5157V19.5198V19.5239V19.5284V19.5328V19.5377V19.5425V19.5477L80.2073 19.5808L80.2076 19.587L80.2083 19.6201L80.2085 19.6276L80.209 19.6476L80.2095 19.6694L80.21 19.6929L80.2105 19.7181C80.2122 19.7947 80.2137 19.8724 80.2137 19.9498V20.1612C80.2437 21.9627 80.264 24.1869 80.284 26.6224ZM78.0564 12.0294C77.1433 11.2041 75.6983 10.5902 74.1531 10.1977L73.6914 10.5701C75.2569 10.9424 76.7117 11.5363 77.6048 12.4319C77.9261 12.744 78.1868 13.1063 78.3374 13.5189C78.3489 13.5532 78.357 13.5843 78.3655 13.6177L78.3672 13.6241L78.3875 13.7C78.4878 13.9315 78.6985 14.324 79.0899 14.485V14.1127C79.0899 13.2975 78.6985 12.6131 78.0564 12.0294ZM76.2591 39.7609L76.2605 39.7313L76.261 39.7211L76.2615 39.7101L76.262 39.6995L76.2625 39.6892L76.263 39.6784L76.2657 39.6216L76.2681 39.5679C76.2725 39.4694 76.2766 39.3712 76.2801 39.2731C77.0528 39.2429 77.7452 39.0818 78.4175 38.8202L78.1668 50.4141C78.169 50.2722 78.0674 50.1233 77.9097 49.8918C77.3294 49.0405 75.9876 47.0718 76.24 40.2191C76.2449 40.0645 76.252 39.912 76.2591 39.7609ZM76.6614 38.2877C77.2188 38.205 77.9839 38.0914 78.4478 37.8339L78.7088 25.5757C78.7088 25.5757 76.8724 29.9738 76.3406 38.337C76.4327 38.3217 76.5376 38.306 76.6519 38.2891L76.6614 38.2877ZM69.3767 23.271C71.8953 23.271 76.722 24.3579 78.0664 25.626C77.1634 26.8941 76.501 29.2994 76.0696 32.208C74.4842 31.0204 70.5708 30.9197 69.3565 30.9197C68.1424 30.9197 64.2891 31.0103 62.6836 32.1778C62.2422 29.2894 61.5799 26.8941 60.6868 25.626C62.0315 24.3781 66.8579 23.271 69.3767 23.271ZM60.8145 49.8976C61.3973 49.0494 62.7456 47.0874 62.4927 40.2191C62.4827 39.897 62.4627 39.575 62.4427 39.2731C61.68 39.2228 60.9776 39.0617 60.3052 38.8202L60.5562 50.4141C60.5562 50.2733 60.6575 50.1258 60.8145 49.8976ZM60.0342 25.5757C60.0342 25.5757 61.8604 29.9536 62.4024 38.3069L62.1665 38.2736C61.562 38.1895 60.7808 38.0807 60.2952 37.8238L60.0342 25.5757ZM60.6763 12.0394C60.0242 12.6231 59.6429 13.3075 59.6429 14.1227V14.485C60.0442 14.324 60.2549 13.9315 60.3453 13.7C60.3553 13.6396 60.3753 13.5692 60.3955 13.5188C60.5459 13.1163 60.7969 12.754 61.128 12.4319C62.031 11.5362 63.4861 10.9424 65.0516 10.5801L64.5799 10.2077C63.0345 10.6103 61.5996 11.2141 60.6763 12.0394ZM59.7234 58.5762C59.5628 58.3245 59.4725 58.0427 59.4725 57.7308C59.4725 57.2879 59.4624 56.8451 59.4424 56.4325L60.0144 56.1205C60.1348 56.7243 60.2954 57.298 60.5562 57.7911C60.8672 58.3849 61.2788 58.8579 61.9009 59.1397C62.0513 59.2102 62.262 59.2706 62.503 59.3309L63.0347 60.0757C61.4493 59.814 60.2251 59.3611 59.7234 58.5762ZM61.9112 53.2119C62.1519 54.0372 64.199 55.1844 69.3767 55.1844C74.5345 55.1844 76.5916 54.0271 76.8426 53.2119C76.2605 51.8029 75.8592 49.4982 75.6382 46.791C74.9961 47.425 72.7383 47.6464 69.3567 47.6464C66.0454 47.6464 63.8077 47.4351 63.1153 46.8312C62.8946 49.5284 62.4932 51.813 61.9112 53.2119ZM79.2603 57.7307C79.2603 58.0527 79.17 58.3345 79.0093 58.5761C78.5076 59.3611 77.2835 59.814 75.688 60.0857L76.2198 59.3409C76.4607 59.2906 76.6714 59.2202 76.8218 59.1497C77.4341 58.8679 77.8655 58.3849 78.1665 57.8011C78.4175 57.308 78.5879 56.7343 78.7083 56.1305L79.2803 56.4425C79.2703 56.845 79.2603 57.2879 79.2603 57.7307ZM39.3636 90.6607H38.5911V90.6205H23.2283C22.4456 85.528 21.3318 82.8811 21.3318 82.8811L21.4922 90.6205H19.6058C19.6106 89.9387 19.6133 89.2593 19.6158 88.5873C19.6182 87.9003 19.6206 87.221 19.6258 86.5546C19.2144 86.8162 18.803 87.0074 18.502 87.0074C17.8396 86.7559 17.8999 85.679 18.4317 85.2059C18.7027 84.9543 19.1341 84.6122 19.6258 84.4813C19.635 83.6248 19.6433 82.791 19.6512 81.9875L19.6541 81.697L19.6543 81.6658L19.6563 81.4602L19.6573 81.3696C19.6729 79.7893 19.6873 78.3398 19.7061 77.0842V76.8527C19.7161 76.6917 19.7161 76.5206 19.7161 76.3596C19.7161 76.2791 19.7183 76.1965 19.7207 76.1147L19.7212 76.0952V76.0911V76.0871V76.0831V76.0791C19.7237 75.9992 19.7261 75.9207 19.7261 75.8463C19.7361 75.6953 19.7361 75.5645 19.7361 75.4337V75.3229V75.3028C19.7361 75.1844 19.7388 75.0687 19.7415 74.9556L19.7417 74.9485L19.7425 74.9141V74.9086V74.9033C19.7444 74.8134 19.7464 74.7251 19.7464 74.6385V74.5078C19.7464 74.4283 19.7481 74.3516 19.7496 74.2768L19.75 74.2545L19.7505 74.2337L19.751 74.2142L19.7515 74.1959L19.7517 74.1893L19.7525 74.1592V74.1547V74.1505C19.7544 74.0708 19.7564 73.9924 19.7564 73.9139V73.7529C19.7608 73.66 19.7632 73.569 19.7654 73.4825L19.7659 73.4654L19.7662 73.4589C19.7686 73.3577 19.771 73.263 19.7764 73.1793C20.0271 67.1407 25.1148 65.2084 30.6336 65.2084H31.9483C37.4771 65.2084 42.5545 67.1407 42.8055 73.1793C42.8106 73.2896 42.8133 73.4053 42.8157 73.5265L42.816 73.5404L42.8162 73.5546L42.8164 73.569L42.8169 73.5842C42.8191 73.6775 42.8216 73.774 42.8255 73.8737C42.8355 73.9743 42.8355 74.085 42.8355 74.1857C42.8355 74.2599 42.8374 74.3325 42.8394 74.4062V74.41V74.4139L42.8401 74.4413L42.8404 74.4478L42.8409 74.4636L42.8413 74.4804L42.8418 74.4984L42.8423 74.5179C42.8438 74.5887 42.8455 74.6617 42.8455 74.7392C42.8455 74.7859 42.847 74.8364 42.8484 74.8885L42.8492 74.9138L42.8494 74.9188L42.8501 74.9433L42.8504 74.9477L42.8509 74.9643C42.8533 75.0345 42.8555 75.1055 42.8555 75.1719V75.333V75.3431C42.8658 75.4638 42.8658 75.5947 42.8658 75.7355C42.8658 75.7905 42.8672 75.8494 42.8687 75.9099L42.8694 75.938L42.8697 75.9429L42.8704 75.9702L42.8706 75.9743L42.8711 75.9936C42.8736 76.0729 42.8758 76.153 42.8758 76.2287C42.8758 76.3337 42.8782 76.4365 42.8807 76.5403V76.5435V76.5467V76.5499V76.5534C42.8833 76.664 42.8858 76.7759 42.8858 76.8929V77.1144C42.9258 79.0467 42.9458 81.4117 42.9661 84.0284C43.3575 84.1895 43.6985 84.4612 43.9392 84.6826C44.4612 85.1758 44.5313 86.2426 43.8692 86.4841C43.6182 86.4841 43.2972 86.3533 42.9661 86.162C42.9712 86.9028 42.9737 87.6539 42.9761 88.4113C42.9786 89.1562 42.9812 89.9072 42.9861 90.6607H41.0996L41.26 82.9214C41.26 82.9214 40.1563 85.5582 39.3636 90.6607ZM20.8899 70.6733C20.8899 69.7977 21.3113 69.063 21.9937 68.4491C22.9871 67.5533 24.5125 66.9193 26.168 66.4866L26.6697 66.8791C25.0042 67.2716 23.4388 67.9056 22.4854 68.8516C22.1343 69.1938 21.8733 69.5763 21.6927 70.0191C21.6726 70.0895 21.6526 70.1499 21.6224 70.2103C21.522 70.4619 21.3013 70.8846 20.8799 71.0457C20.8899 70.9349 20.8899 70.8041 20.8899 70.6733ZM40.8587 70.0292C40.8887 70.0895 40.909 70.15 40.929 70.2204C41.0293 70.472 41.26 70.8947 41.6614 71.0759V70.6833C41.6614 69.8178 41.24 69.0731 40.5577 68.4592C39.5843 67.5634 38.0391 66.9294 36.3833 66.4966L35.8816 66.8892C37.5474 67.2716 39.1128 67.9157 40.066 68.8617C40.4173 69.214 40.6983 69.5964 40.8587 70.0292ZM38.6307 90.1572C38.6158 90.1472 38.6031 90.1346 38.5894 90.1208L38.5828 90.1141C38.5989 90.1277 38.6158 90.1425 38.6307 90.1572ZM38.5828 90.1141L38.5769 90.1093C38.5625 90.0971 38.5496 90.086 38.5406 90.077C38.5574 90.0896 38.5708 90.1022 38.5828 90.1141ZM23.9104 90.1575C23.9336 90.1409 23.9561 90.1231 23.9781 90.105C23.9544 90.1216 23.9319 90.139 23.9104 90.1575ZM23.9939 90.0918C23.9886 90.0962 23.9834 90.1006 23.9781 90.105C24.0318 90.0673 24.0918 90.0345 24.1614 90.0065C25.8672 88.7485 30.0115 88.6479 31.3059 88.6479C32.6004 88.6479 36.7747 88.7485 38.4705 90.0166C38.9322 86.9168 39.6446 84.3505 40.5979 82.9918C39.1429 81.6331 33.9851 80.4657 31.2959 80.4657C28.5967 80.4657 23.4287 81.6432 21.9939 82.9918C22.9473 84.3404 23.6597 86.9067 24.1211 89.9965C24.074 90.0261 24.0335 90.0593 23.9939 90.0918Z" fill="#DA6F25"/>
</svg>
