<svg width="100" height="100" viewBox="0 0 100 100" fill="none" xmlns="http://www.w3.org/2000/svg">
<path fill-rule="evenodd" clip-rule="evenodd" d="M53.1106 62.4207C55.2478 65.1179 58.0676 67.2011 61.2686 68.439L61.8506 66.9596C58.9104 65.8324 56.3215 63.9102 54.3647 61.4343C52.4082 58.9586 51.1438 55.9896 50.7224 52.8597L49.157 53.071C49.6086 56.4929 50.9832 59.7234 53.1106 62.4207ZM46.1868 67.4628C48.9263 70.9349 52.5488 73.612 56.6729 75.2021L57.2349 73.7428C53.3916 72.2533 49.99 69.7373 47.4211 66.4866C44.8523 63.2258 43.2065 59.3309 42.6548 55.2348L41.0894 55.4462C41.6814 59.824 43.4375 63.9806 46.1868 67.4628Z" fill="#DA6F25"/>
<path fill-rule="evenodd" clip-rule="evenodd" d="M80.2837 26.6224C80.6448 26.7633 80.9761 27.025 81.1968 27.2263C81.7085 27.6791 81.7588 28.6855 81.1468 28.9271C80.9258 28.9271 80.6248 28.8063 80.3138 28.6252C80.3741 38.0855 80.3841 49.7801 80.3841 52.9805V53.7454V53.8359C79.802 54.3794 79.6214 57.7207 79.6214 58.1635C79.6214 60.5085 74.6243 61.3337 69.9883 61.3337H68.7642C64.1182 61.3337 59.1311 60.5186 59.1311 58.1635C59.1311 57.7308 58.9505 54.3895 58.3684 53.8359V52.9905C58.3684 49.8304 58.3885 38.4176 58.4388 29.0378C58.0674 29.2794 57.6761 29.4605 57.3951 29.4605C56.763 29.2491 56.833 28.2427 57.3247 27.7899C57.5957 27.5483 57.9871 27.2263 58.4488 27.1055C58.4688 24.4888 58.4888 22.0935 58.5188 20.1914V19.97C58.523 19.906 58.5254 19.842 58.5269 19.7787L58.5284 19.6719L58.5288 19.5859L58.5291 19.4969C58.5291 19.3359 58.5391 19.1649 58.5391 19.0139C58.5491 18.8931 58.5491 18.7623 58.5491 18.6415V18.5107C58.5491 18.4081 58.5513 18.3121 58.5535 18.2185C58.5562 18.11 58.5591 18.0048 58.5591 17.8968V17.7659C58.5591 17.5646 58.5691 17.3835 58.5691 17.2023V17.0514C58.5791 16.8501 58.5791 16.6589 58.5891 16.5079C58.8301 10.8719 63.5762 9.06042 68.7439 9.06042H69.9783C75.146 9.06042 79.9024 10.8619 80.1331 16.5079C80.1385 16.5978 80.1409 16.6979 80.1436 16.8049V16.8116V16.818V16.824V16.8295L80.1443 16.8505L80.1451 16.8666L80.1475 16.9869C80.149 17.0406 80.1507 17.0958 80.1531 17.152C80.1558 17.1724 80.1575 17.1941 80.159 17.2167L80.1619 17.2781C80.1634 17.328 80.1634 17.3809 80.1634 17.4338C80.1634 17.4738 80.1641 17.5137 80.1651 17.5541L80.1683 17.6683C80.1707 17.7559 80.1734 17.8474 80.1734 17.9471C80.1734 17.9954 80.1758 18.047 80.1783 18.0997V18.1036V18.1078V18.1124V18.1173V18.1224V18.1272V18.1316V18.1356C80.1807 18.2036 80.1834 18.2729 80.1834 18.3396V18.4905V18.5006C80.1934 18.6214 80.1934 18.7422 80.1934 18.873C80.2034 19.0139 80.2034 19.185 80.2034 19.3359C80.2034 19.5272 80.2134 19.7385 80.2134 19.9498V20.1612C80.2434 21.9627 80.2637 24.1869 80.2837 26.6224ZM78.0562 12.0294C77.1431 11.2041 75.698 10.5902 74.1529 10.1977L73.6912 10.5701C75.2566 10.9424 76.7115 11.5363 77.6045 12.4319C77.9258 12.744 78.1866 13.1063 78.3372 13.5189C78.3487 13.5529 78.3567 13.5838 78.365 13.6168L78.367 13.6241L78.3872 13.7C78.4876 13.9315 78.6983 14.324 79.0896 14.485V14.1127C79.0896 13.2975 78.6983 12.6131 78.0562 12.0294ZM76.2588 39.7609L76.2603 39.7313L76.261 39.721C76.2681 39.571 76.2749 39.4221 76.2798 39.2731C77.0525 39.2429 77.7449 39.0818 78.4173 38.8202L78.1665 50.4141C78.1687 50.2722 78.0672 50.1233 77.9095 49.8918C77.3291 49.0404 75.9873 47.0718 76.2398 40.2191C76.2447 40.0645 76.2517 39.912 76.2588 39.7609ZM76.6609 38.2877C77.2188 38.2049 77.9837 38.0914 78.4475 37.8339L78.7085 25.5757C78.7085 25.5757 76.8721 29.9738 76.3404 38.337L76.4859 38.3139L76.6609 38.2877ZM69.3765 23.271C71.8951 23.271 76.7217 24.3579 78.0662 25.626C77.1631 26.8941 76.5008 29.2994 76.0694 32.208C74.4839 31.0204 70.5706 30.9197 69.3562 30.9197C68.1421 30.9197 64.2889 31.0103 62.6834 32.1778C62.242 29.2894 61.5796 26.8941 60.6866 25.626C62.0313 24.3781 66.8577 23.271 69.3765 23.271ZM60.814 49.8976C61.397 49.0494 62.7454 47.0874 62.4925 40.2191C62.4825 39.897 62.4624 39.575 62.4424 39.2731C61.6797 39.2228 60.9773 39.0617 60.305 38.8202L60.5559 50.4141C60.5559 50.2733 60.6573 50.1257 60.814 49.8976ZM60.034 25.5757C60.034 25.5757 61.8601 29.9536 62.4021 38.3069L62.1663 38.2736C61.5618 38.1895 60.7806 38.0807 60.295 37.8238L60.034 25.5757ZM60.6761 12.0394C60.024 12.6231 59.6426 13.3075 59.6426 14.1227V14.485C60.044 14.324 60.2547 13.9315 60.345 13.7C60.355 13.6396 60.375 13.5692 60.3953 13.5188L60.4185 13.4588L60.4344 13.4203C60.5064 13.2499 60.5965 13.0869 60.7032 12.9313C60.824 12.7553 60.9663 12.5888 61.1277 12.4319C62.0308 11.5362 63.4859 10.9424 65.0513 10.5801L64.5796 10.2077C63.0342 10.6103 61.5994 11.2141 60.6761 12.0394ZM59.7232 58.5762C59.5625 58.3245 59.4722 58.0427 59.4722 57.7308C59.4722 57.2879 59.4622 56.8451 59.4422 56.4325L60.0142 56.1205C60.1346 56.7243 60.2952 57.298 60.5559 57.7911C60.867 58.3849 61.2786 58.8579 61.9007 59.1397C62.0511 59.2102 62.2618 59.2706 62.5027 59.3309L63.0345 60.0757C61.449 59.814 60.2249 59.3611 59.7232 58.5762ZM61.9109 53.2119C62.1516 54.0372 64.1988 55.1844 69.3765 55.1844C74.5342 55.1844 76.5913 54.0271 76.8423 53.2119C76.2603 51.8029 75.8589 49.4982 75.638 46.791C74.9959 47.425 72.7381 47.6464 69.3565 47.6464C66.0452 47.6464 63.8074 47.4351 63.115 46.8312C62.8943 49.5284 62.493 51.813 61.9109 53.2119ZM79.26 57.7307C79.26 58.0527 79.1697 58.3345 79.0091 58.5761C78.5074 59.3611 77.2832 59.814 75.6878 60.0857L76.2195 59.3409C76.4605 59.2906 76.6712 59.2202 76.8216 59.1497C77.4339 58.8679 77.8653 58.3849 78.1663 57.8011C78.4173 57.308 78.5877 56.7343 78.708 56.1305L79.2801 56.4425C79.2757 56.6197 79.2713 56.8047 79.2676 56.994C79.2652 57.1265 79.2632 57.2612 79.2618 57.3969L79.2603 57.5713L79.26 57.7307ZM39.3633 90.6607H38.5909V90.6205H23.2281C22.4454 85.528 21.3316 82.8811 21.3316 82.8811L21.492 90.6205H19.6055C19.6104 89.9532 19.6128 89.2882 19.6153 88.6302V88.6089V88.5873L19.616 88.4377C19.6184 87.8018 19.6209 87.1726 19.6255 86.5546C19.5642 86.5935 19.503 86.6309 19.4422 86.6663C19.3938 86.6944 19.3457 86.7213 19.2981 86.7468C19.1914 86.8036 19.087 86.8534 18.9866 86.8937C18.8084 86.9654 18.6429 87.0074 18.5017 87.0074C17.8394 86.7559 17.8997 85.679 18.4314 85.2059C18.7024 84.9543 19.1338 84.6122 19.6255 84.4813L19.6368 83.4274L19.6509 81.9875L19.6538 81.697C19.6707 79.9893 19.6861 78.426 19.7058 77.0842V76.8527C19.7093 76.7965 19.7115 76.7391 19.7129 76.6814C19.7159 76.5735 19.7159 76.4644 19.7159 76.3596C19.7159 76.2916 19.7173 76.2221 19.7193 76.1529L19.7207 76.0966C19.7234 76.0106 19.7259 75.926 19.7259 75.8463C19.7359 75.6953 19.7359 75.5645 19.7359 75.4337V75.3229V75.3028C19.7359 75.1985 19.7381 75.0962 19.7403 74.996L19.741 74.9752L19.7417 74.9337C19.7439 74.8333 19.7461 74.7349 19.7461 74.6385V74.5078C19.7461 74.4043 19.7483 74.3057 19.7505 74.2094L19.7513 74.1909C19.7537 74.0972 19.7561 74.0056 19.7561 73.9139V73.7529C19.7662 73.5416 19.7662 73.3403 19.7762 73.1793C20.0269 67.1407 25.1145 65.2084 30.6333 65.2084H31.948C37.4768 65.2084 42.5542 67.1407 42.8052 73.1793C42.8152 73.3906 42.8152 73.6221 42.8252 73.8737C42.8296 73.9171 42.8321 73.9624 42.8335 74.008C42.8352 74.068 42.8352 74.1285 42.8352 74.1857C42.8352 74.2744 42.8377 74.3606 42.8401 74.4492L42.8409 74.4651C42.8431 74.5524 42.8453 74.6423 42.8453 74.7392C42.8453 74.7981 42.8475 74.8631 42.8496 74.9296V74.9345C42.8523 75.0142 42.8553 75.096 42.8553 75.1719V75.333V75.3431C42.8655 75.4638 42.8655 75.5947 42.8655 75.7355C42.8655 75.79 42.867 75.8484 42.8687 75.9084L42.8736 76.088L42.8753 76.1712L42.8755 76.2287C42.8755 76.3382 42.878 76.4452 42.8804 76.5534C42.8829 76.664 42.8855 76.7759 42.8855 76.8929V77.1144C42.9256 79.0467 42.9456 81.4117 42.9659 84.0284C43.3572 84.1895 43.6983 84.4612 43.939 84.6826C44.461 85.1758 44.531 86.2426 43.8689 86.4841C43.618 86.4841 43.2969 86.3533 42.9659 86.162C42.9759 87.6314 42.9759 89.1411 42.9859 90.6607H41.0994L41.2598 82.9214C41.2598 82.9214 40.156 85.5582 39.3633 90.6607ZM20.8897 70.6733C20.8897 69.7977 21.3111 69.063 21.9934 68.4491C22.9869 67.5533 24.5122 66.9193 26.1678 66.4866L26.6695 66.8791C25.0039 67.2716 23.4385 67.9056 22.4851 68.8516C22.1341 69.1938 21.8731 69.5763 21.6924 70.0191L21.6731 70.0833C21.6587 70.1277 21.6429 70.169 21.6221 70.2103C21.5218 70.4619 21.3011 70.8846 20.8797 71.0457C20.8897 70.9349 20.8897 70.8041 20.8897 70.6733ZM40.8584 70.0292C40.8885 70.0895 40.9087 70.15 40.9287 70.2204C41.0291 70.472 41.2598 70.8947 41.6612 71.0759V70.6833C41.6612 69.8178 41.2398 69.0731 40.5574 68.4592C39.584 67.5634 38.0389 66.9294 36.3831 66.4966L35.8814 66.8892C37.5472 67.2716 39.1126 67.9157 40.0657 68.8617C40.417 69.214 40.698 69.5964 40.8584 70.0292ZM24.1209 89.9965C24.0674 90.0301 24.0227 90.0681 23.9781 90.1047C24.0318 90.0671 24.0916 90.0344 24.1612 90.0065C25.867 88.7485 30.0113 88.6479 31.3057 88.6479C32.6001 88.6479 36.7745 88.7485 38.4703 90.0166C38.9319 86.9168 39.6443 84.3505 40.5977 82.9918C39.1426 81.6331 33.9849 80.4657 31.2957 80.4657C28.5965 80.4657 23.4285 81.6432 21.9937 82.9918C22.9471 84.3404 23.6595 86.9067 24.1209 89.9965Z" fill="#DA6F25"/>
</svg>
