<svg width="100" height="100" viewBox="0 0 100 100" fill="none" xmlns="http://www.w3.org/2000/svg">
<path fill-rule="evenodd" clip-rule="evenodd" d="M66.3415 36.7871H54.3703V31.4229C59.227 31.4128 64.4451 30.5474 64.4451 28.0716C64.4451 27.6086 64.6257 24.0962 65.2478 23.5125V23.4219V22.6268C65.2478 20.5737 65.2478 15.1895 65.2278 9.04016H63.281L63.1306 19.9498C63.1306 19.803 63.0615 19.6486 62.9546 19.4097C62.5561 18.5183 61.6318 16.4515 61.8059 9.22131V9.03015H45.8513C45.8513 9.09058 45.8513 9.15088 45.8613 9.22131C46.0669 16.451 44.9624 18.5181 44.4861 19.4094C44.3584 19.6484 44.2759 19.803 44.2759 19.9498L44.0952 9.04016H42.1284C42.1084 15.1895 42.1084 20.5737 42.1084 22.6268V23.5226C42.7305 24.1063 42.9111 27.6086 42.9111 28.0816C42.9111 30.5172 47.9485 31.3928 52.7449 31.4229V36.7871H40.7737C39.6098 36.7871 38.6565 37.7432 38.6565 38.9107V64.8561H68.4687V38.9207C68.4587 37.7432 67.5056 36.7871 66.3415 36.7871ZM34.3159 90.4617L34.3188 90.4627C34.3398 90.4701 34.354 90.4751 34.3618 90.4795L42.3794 90.4896L42.2439 90.4191C40.6116 89.5703 36.4814 87.4228 36.218 85.0851C36.0078 82.6271 37.3894 82.1918 39.1929 81.6235C39.3684 81.5682 39.5478 81.5117 39.7302 81.452C39.9785 81.3705 40.2185 81.294 40.4504 81.2215C40.7375 81.1318 41.0127 81.0485 41.2771 80.9701C41.7475 80.8306 42.1831 80.7067 42.5903 80.5912L42.5932 80.5903C44.8789 79.9409 46.2478 79.5519 47.6875 78.1006C48.7109 77.0539 49.4236 75.5845 49.4133 74.4272C49.3933 72.8974 49.1526 71.8507 46.7241 69.5762H40.7336C40.7915 69.6234 40.8494 69.6696 40.9072 69.7151L41.0325 69.8121L41.1584 69.9078C41.3552 70.0556 41.551 70.1965 41.7427 70.3342C43.1387 71.3379 44.3027 72.175 43.8642 74.3165C43.3325 76.0374 40.9143 76.6212 38.7268 77.0942C33.4888 78.2415 31.9936 80.3751 31.3113 82.9113C30.8096 84.7933 31.0102 87.1282 32.5354 88.99C33.5229 90.1856 34.1399 90.4004 34.3159 90.4617ZM52.9097 90.4617C52.9321 90.4696 52.9475 90.4749 52.9556 90.4795L60.9731 90.4896L60.8376 90.4191C59.2053 89.5703 55.0752 87.4228 54.8118 85.0851C54.6015 82.6271 55.9831 82.1918 57.7866 81.6235L57.7888 81.6228C57.9636 81.5677 58.1423 81.5115 58.324 81.452C59.4253 81.0908 60.3633 80.8243 61.1833 80.5914L61.187 80.5903C63.4726 79.9409 64.8415 79.5519 66.2812 78.1006C67.3047 77.0539 68.0173 75.5845 68.0071 74.4272C67.987 72.8974 67.7463 71.8507 65.3179 69.5762H59.3274C59.4734 69.6952 59.6203 69.8088 59.7666 69.9186C59.8357 69.9704 59.9045 70.0214 59.9731 70.0717L60.0593 70.1344L60.3364 70.3342C61.7324 71.3379 62.8965 72.175 62.458 74.3165C61.9263 76.0374 59.508 76.6212 57.3205 77.0942C52.0825 78.2415 50.5874 80.3751 49.905 82.9113C49.4033 84.7933 49.604 87.1282 51.1291 88.99C52.1167 90.1856 52.7336 90.4004 52.9097 90.4617ZM63.5015 25.9883C63.3711 26.6223 63.2004 27.2161 62.9294 27.7394C62.6084 28.3634 62.167 28.8666 61.5246 29.1585C61.354 29.2289 61.1433 29.2994 60.8826 29.3598V29.3699L60.3306 30.1548C61.9963 29.873 63.2908 29.4 63.8125 28.5748C63.9831 28.3131 64.0735 28.0212 64.0735 27.6791C64.0735 27.4421 64.0735 27.2076 64.0774 26.9781C64.081 26.7497 64.0886 26.5263 64.1035 26.3104L63.5015 25.9883ZM43.5132 28.5647C43.3425 28.303 43.2522 28.0011 43.2522 27.669C43.2522 27.4653 43.2502 27.2617 43.2463 27.0588C43.2414 26.8006 43.2334 26.5438 43.2222 26.2902L43.8242 25.9681C43.9546 26.6122 44.1252 27.2161 44.3962 27.7193C44.7173 28.3433 45.1589 28.8465 45.811 29.1384C45.9717 29.2189 46.1924 29.2792 46.4534 29.3397V29.3497L47.0051 30.1347C45.3293 29.8529 44.0349 29.3799 43.5132 28.5647ZM47.0754 22.9387C46.8445 24.2874 46.4231 25.4347 45.811 26.1392C46.062 26.5518 48.2092 27.1255 53.6479 27.1255C59.0867 27.1255 61.2441 26.5518 61.4949 26.1392C60.8928 25.4347 60.4614 24.2874 60.2305 22.9287C59.5583 23.2407 57.1802 23.3514 53.6379 23.3514C50.146 23.3514 47.7878 23.2407 47.0754 22.9387Z" fill="#DA6F25"/>
</svg>
