<svg width="100" height="100" viewBox="0 0 100 100" fill="none" xmlns="http://www.w3.org/2000/svg">
<path fill-rule="evenodd" clip-rule="evenodd" d="M18.6292 17L13.0901 22.4346L21.1177 30.6068L16.6021 35.045L30.7207 35.3973L30.8811 21.0156L26.6467 25.1721L18.6292 17ZM54.8433 26.7925C63.4229 26.7925 71.5005 30.1539 77.5713 36.2427C83.6521 42.3315 86.9937 50.4232 87.0037 59.0381C87.0037 68.277 83.04 77.0831 76.1365 83.2021L73.688 80.4244L68.6406 75.3622L72.3132 71.6787L76.7585 76.1371C79.9897 71.9605 81.9966 66.9485 82.4883 61.6548H75.4441V56.4415H82.4983C81.9866 50.9163 79.8691 45.7333 76.3672 41.4459L72.1125 45.7131L68.4399 42.0297L72.7246 37.7322C68.3899 34.0688 63.1116 31.8447 57.4724 31.3314V37.7825H52.2744V31.3314C46.5649 31.8648 41.2266 34.1293 36.8616 37.8731L52.9868 54.0463C53.5688 53.8248 54.2012 53.7041 54.8633 53.7041C57.8035 53.7041 60.1917 56.0893 60.1917 59.0482C60.1917 61.9969 57.8035 64.3922 54.8633 64.3922C51.9233 64.3922 49.5352 62.007 49.5352 59.0482C49.5352 58.706 49.5752 58.3738 49.6252 58.0518L33.229 41.6069C29.7974 45.8641 27.7302 50.9767 27.2285 56.4315H33.229V61.6447H27.2285C27.5095 64.7244 28.292 67.7134 29.5764 70.5314C30.4595 72.4838 31.5332 74.2953 32.8176 75.966L37.0923 71.6787L40.7649 75.3622L35.0454 81.0988L35.0251 81.0786L33.3093 82.9707C30.0081 79.9816 27.3989 76.4089 25.5627 72.353C23.6562 68.1663 22.6929 63.6777 22.6929 59.0381C22.6929 50.4332 26.0444 42.3315 32.1152 36.2427C38.176 30.1439 46.2639 26.7925 54.8433 26.7925Z" fill="#DA6F25"/>
</svg>
