<svg width="100" height="100" viewBox="0 0 100 100" fill="none" xmlns="http://www.w3.org/2000/svg">
<path fill-rule="evenodd" clip-rule="evenodd" d="M83.6396 58.1287H84.031C86.6099 58.1287 88.717 56.0253 88.717 53.4287V33.3204C88.717 30.734 86.6199 28.6205 84.031 28.6205H83.6396C81.0608 28.6205 78.9536 30.7239 78.9536 33.3204V53.4287C78.9536 56.0253 81.0508 58.1287 83.6396 58.1287ZM52.593 52.8751C67.3435 52.8751 79.3347 64.9119 79.3347 79.6962C79.3347 81.4674 79.1541 83.1985 78.833 84.8792H71.3674V82.0613H76.7458C76.8262 81.2863 76.8662 80.4912 76.8662 79.7062C76.8662 76.4454 76.2241 73.3356 75.0601 70.4874L70.4341 72.5505L69.4106 70.2458L73.9963 68.2029C72.4009 65.2239 70.2134 62.6273 67.5845 60.5541L56.0247 76.4756C56.667 77.2505 57.0381 78.2368 57.0381 79.3137C57.0381 81.7694 55.0513 83.7721 52.593 83.7721C50.1445 83.7721 48.1477 81.7794 48.1477 79.3137C48.1477 76.848 50.1345 74.8552 52.593 74.8552C52.7485 74.8552 52.9019 74.8636 53.0527 74.8798C53.3694 74.9135 53.6753 74.9812 53.9675 75.0767L65.5474 59.125C62.1357 56.9612 58.1621 55.6227 53.8875 55.4012V60.4232H51.2783V55.4012C47.084 55.6227 43.1707 56.9209 39.7891 59.0143L42.7693 63.1003L40.7322 64.5898L37.7219 60.4535C35.0327 62.5468 32.7849 65.2037 31.1594 68.233L35.6548 70.2358L34.6313 72.5405L30.0857 70.5076C28.9316 73.3457 28.3096 76.4353 28.3096 79.676C28.3096 80.4711 28.3496 81.2561 28.4299 82.031H34.26V84.849H26.3428C26.0117 83.1783 25.8411 81.4473 25.8411 79.6659C25.8511 64.9019 37.8423 52.8751 52.593 52.8751ZM79.335 64.8616C79.335 62.3656 81.3618 60.3528 83.8303 60.3528C86.3088 60.3528 88.3159 62.3656 88.3259 64.8616C88.3259 67.3574 86.3188 69.3702 83.8303 69.3702C81.3418 69.3702 79.335 67.3373 79.335 64.8616Z" fill="#DA6F25"/>
<path d="M32.9451 57.3637C31.1289 54.6363 28.9815 52.4826 27.0348 50.5402C23.1013 46.595 20.2616 43.7469 20.1612 37.6681C20.0709 32.1731 22.5294 27.8153 26.7338 25.9937C29.112 24.9671 31.9016 24.8262 34.8116 25.6012C37.571 26.3258 40.4007 27.8656 43.1201 30.0898L39.4274 33.884L58.7036 38.8255L53.3352 19.613L49.4819 23.5682C45.5585 20.2068 41.4142 17.9423 37.1195 16.8051C32.2327 15.5169 27.3961 15.8087 23.1415 17.6404C19.4287 19.2406 16.3482 21.958 14.2208 25.4905C12.0935 29.023 11.0098 33.2902 11.0901 37.8191C11.1603 42.2071 12.234 46.0415 14.3714 49.5539C16.1776 52.5128 18.4353 54.7772 20.6128 56.9712C23.2418 59.608 25.5297 61.9027 26.8643 65.1232C28.4798 62.2146 30.5268 59.598 32.9451 57.3637Z" fill="#DA6F25"/>
</svg>
