<svg width="100" height="100" viewBox="0 0 100 100" fill="none" xmlns="http://www.w3.org/2000/svg">
<path fill-rule="evenodd" clip-rule="evenodd" d="M35.4534 41.0396L37.6909 41.0798C37.7603 37.7848 38.8835 36.5451 40.0598 35.2469L40.1094 35.1923L40.1204 35.1805C41.4121 33.8046 42.8782 32.2431 42.6479 28.5601C42.4373 25.2489 40.7717 23.6085 39.2866 22.1793C37.6909 20.6295 36.4368 19.4016 36.6575 16.1609L34.4299 16.01C34.1492 20.2942 36.0525 22.1464 37.7375 23.7859L37.7412 23.7896L37.7795 23.8275C39.1084 25.1401 40.2712 26.2887 40.4204 28.711C40.5811 31.4384 39.708 32.3743 38.4836 33.6726C37.1692 35.0715 35.5337 36.8328 35.4534 41.0396ZM49.03 41.0798L46.7925 41.0497C46.8628 36.8455 48.5061 35.0839 49.8203 33.6753L49.8228 33.6726C51.0471 32.3743 51.9202 31.4384 51.7595 28.711C51.6104 26.2887 50.4475 25.1401 49.1187 23.8275L49.0803 23.7896L49.0767 23.7859C47.3916 22.1464 45.4883 20.2942 45.769 16.01L48.0066 16.1609C47.7859 19.4016 49.0403 20.6295 50.6357 22.1793C52.1208 23.6085 53.7864 25.2489 53.9973 28.5601C54.2273 32.2431 52.7612 33.8046 51.4695 35.1805L51.4585 35.1923L51.4197 35.2347C50.2297 36.5374 49.0996 37.7744 49.03 41.0798ZM60.3689 41.08L58.1311 41.0497C58.2014 36.8455 59.845 35.0839 61.1589 33.6754L61.1614 33.6727C62.3857 32.3745 63.2588 31.4385 63.0981 28.7211C62.9487 26.2901 61.7778 25.142 60.4331 23.8235L60.4089 23.7997L60.3931 23.7842C58.7212 22.1476 56.8276 20.294 57.1077 16.0201L59.3452 16.1711C59.1245 19.4117 60.3789 20.6396 61.9744 22.1895C63.4495 23.6186 65.115 25.259 65.3359 28.5702C65.5659 32.2532 64.0999 33.8148 62.8081 35.1907L62.7971 35.2025L62.7908 35.2091C61.5691 36.515 60.4189 37.7443 60.3689 41.08ZM62.3762 79.8572H77.5583L73.8457 84.6276H23.7334L20.0208 79.8572H34.6309C32.4434 79.0923 29.5835 75.1572 29.5835 73.5168V43.9281H67.7446L67.8149 49.1111C69.0894 48.2356 70.5442 47.7626 72.0596 47.7626C76.7656 47.7626 80.5989 52.3518 80.5989 57.9877C80.5989 68.4948 72.762 68.4042 68.0557 68.2733C68.0027 68.2733 67.9497 68.2705 67.8997 68.2679C67.855 68.2655 67.8125 68.2632 67.7747 68.2632V73.5067C67.7446 75.2679 64.5537 79.1729 62.3762 79.8572ZM66.8914 58.1185C66.8914 54.5659 69.1992 51.6774 72.0391 51.6774C74.8889 51.6774 77.1868 54.5659 77.1868 58.1185C77.1868 61.6711 74.8789 64.5596 72.0391 64.5596C69.1992 64.5596 66.8914 61.6711 66.8914 58.1185Z" fill="#DA6F25"/>
</svg>
