<svg width="100" height="100" viewBox="0 0 100 100" fill="none" xmlns="http://www.w3.org/2000/svg">
<path d="M16.6793 49.6958C16.6793 40.8393 20.1211 32.5162 26.3625 26.2563C27.4763 25.1392 27.4663 23.3377 26.3625 22.2206C25.8207 21.6771 25.1082 21.3853 24.3556 21.3853C23.603 21.3853 22.8806 21.6872 22.3487 22.2206C15.0336 29.5473 10.9998 39.3196 10.9998 49.7058C10.9998 60.0921 15.0236 69.8442 22.3487 77.1911C22.8906 77.7346 23.603 78.0264 24.3556 78.0264C25.1182 78.0264 25.8307 77.7245 26.3625 77.1911C27.4763 76.074 27.4763 74.2725 26.3625 73.1554C20.1211 66.8652 16.6793 58.5422 16.6793 49.6958Z" fill="#DA6F25"/>
<path fill-rule="evenodd" clip-rule="evenodd" d="M19.208 49.6957C19.208 32.808 32.915 19.0704 49.7429 19.0704C66.5806 19.0704 80.2778 32.808 80.2778 49.6957C80.2778 66.5733 66.5806 80.321 49.7429 80.321C32.905 80.321 19.208 66.5834 19.208 49.6957ZM74.5781 49.6857C74.5579 35.9783 63.4197 24.797 49.7427 24.7769C36.0657 24.8071 24.9275 35.9783 24.9075 49.7058C24.9275 63.4031 36.0657 74.5845 49.7427 74.6146C63.4097 74.5744 74.5579 63.4031 74.5781 49.6857Z" fill="#DA6F25"/>
<path d="M77.127 22.2105C76.5852 21.667 75.8727 21.3752 75.1201 21.3752C74.3676 21.3752 73.6451 21.6771 73.0932 22.2105C71.9794 23.3276 71.9794 25.1291 73.0932 26.2462C73.1032 26.2563 73.1233 26.2664 73.1333 26.2865C79.3547 32.5464 82.7764 40.8594 82.7764 49.6857C82.7764 58.5422 79.3346 66.8652 73.0932 73.1252C71.9794 74.2423 71.9794 76.0438 73.0932 77.171C73.635 77.7144 74.3475 78.0063 75.1001 78.0063C75.8627 78.0063 76.5751 77.7044 77.107 77.171C84.4221 69.8342 88.4559 60.0719 88.4559 49.6857C88.486 39.3095 84.4522 29.5473 77.127 22.2105Z" fill="#DA6F25"/>
<path fill-rule="evenodd" clip-rule="evenodd" d="M58.6138 65.1844C58.9348 65.3052 59.2058 65.5267 59.3965 65.6978C59.8179 66.0802 59.8682 66.9357 59.2961 67.0967C59.0955 67.0967 58.8447 66.996 58.5837 66.8451C58.5889 67.4915 58.5913 68.1506 58.5938 68.8175C58.5962 69.4694 58.5989 70.1285 58.6038 70.7902H57.0986L57.239 64.2787C57.239 64.2787 56.3159 66.5029 55.6838 70.7902H42.9199C42.3459 66.897 41.5237 64.7051 41.3848 64.335C41.3706 64.2975 41.3635 64.2787 41.3645 64.2787L41.5051 70.7902H39.9797C39.9846 70.2064 39.9871 69.6226 39.9895 69.0443V69.0275V69.0101C39.9922 68.3938 39.9949 67.7839 40 67.1873C39.6787 67.3986 39.3477 67.5496 39.1069 67.5496C38.585 67.3583 38.6353 66.4928 39.0566 66.1204C39.2773 65.9091 39.6187 65.6374 40.01 65.5367L40.0244 63.8062L40.0247 63.7671L40.0249 63.7267C40.0374 62.2053 40.0486 60.8196 40.0701 59.6492V59.468C40.0801 59.3372 40.0801 59.2064 40.0801 59.0755C40.0801 59.0139 40.082 58.9524 40.0842 58.8917L40.0847 58.876L40.0852 58.8616L40.0854 58.8577L40.0862 58.8361C40.0881 58.777 40.0901 58.7191 40.0901 58.6629C40.1003 58.5522 40.1003 58.4415 40.1003 58.3408V58.2301C40.1003 58.1514 40.1023 58.0746 40.1045 57.9988L40.105 57.9795L40.1055 57.9609V57.9575V57.9541C40.1079 57.8709 40.1104 57.7889 40.1104 57.7068V57.6061C40.1104 57.4451 40.1104 57.2841 40.1204 57.1331V57.0023C40.1248 56.9319 40.1272 56.8615 40.1296 56.7936L40.1299 56.7846L40.1301 56.7753C40.1326 56.6946 40.1353 56.6179 40.1404 56.5494C40.3411 51.7488 44.385 50.209 48.78 50.209H49.8337C54.2288 50.209 58.2727 51.7387 58.4734 56.5494C58.4785 56.6385 58.4812 56.7303 58.4836 56.8264L58.4839 56.8371L58.4841 56.8482C58.4866 56.9298 58.489 57.0145 58.4934 57.103C58.5034 57.1734 58.5034 57.264 58.5034 57.3445C58.5034 57.4032 58.5054 57.462 58.5071 57.5223L58.5073 57.5269L58.5081 57.551C58.5107 57.6263 58.5134 57.7041 58.5134 57.7873C58.5134 57.8294 58.5154 57.8768 58.5173 57.9257L58.5181 57.9461L58.5183 57.9504L58.5188 57.963L58.5193 57.9775C58.5215 58.0292 58.5234 58.0813 58.5234 58.1295V58.2603V58.2805C58.5334 58.371 58.5334 58.4818 58.5334 58.5925C58.5334 58.6439 58.5354 58.6989 58.5374 58.7552L58.5381 58.7769L58.5383 58.7809L58.5388 58.7951L58.5393 58.8108C58.5415 58.8691 58.5435 58.928 58.5435 58.9849C58.5435 59.0692 58.5459 59.1536 58.5486 59.2391L58.5491 59.2577L58.5496 59.277C58.5518 59.3528 58.5537 59.4296 58.5537 59.5083V59.6794C58.5752 60.7901 58.5864 62.0788 58.5989 63.4927L58.5991 63.5328L58.5994 63.5712L58.6138 65.1844ZM41.0537 54.8385C41.3948 54.7076 41.5654 54.3755 41.6458 54.1743C41.6558 54.134 41.6758 54.0736 41.6958 54.0132C41.8364 53.671 42.0471 53.3591 42.3281 53.0873C43.0908 52.3325 44.335 51.8293 45.6594 51.5173L45.2581 51.2053C43.9436 51.5475 42.7195 52.0507 41.9368 52.7653C41.3948 53.2584 41.0637 53.8422 41.0637 54.5366C41.0637 54.6473 41.0637 54.7479 41.0537 54.8385ZM55.0312 69.9348C53.6765 68.9284 50.3652 68.8479 49.3218 68.8479C48.2881 68.8479 44.9968 68.9284 43.6321 69.9247C43.2607 67.459 42.699 65.4261 41.9263 64.3391C43.0703 63.2723 47.1843 62.3263 49.3218 62.3263C51.469 62.3263 55.563 63.2522 56.717 64.3391C55.9646 65.416 55.4026 67.4691 55.0312 69.9348ZM57.0083 54.2045C57.0886 54.3957 57.2593 54.7278 57.6003 54.8687V54.5567C57.6003 53.8623 57.2693 53.2786 56.7275 52.7854C55.9548 52.0809 54.7305 51.5676 53.406 51.2255L53.0046 51.5375C54.3291 51.8494 55.5735 52.3527 56.3259 53.1276C56.6069 53.3994 56.8279 53.7113 56.9583 54.0535C56.9683 54.0786 56.9758 54.1038 56.9834 54.129C56.9907 54.1541 56.9983 54.1793 57.0083 54.2045Z" fill="#DA6F25"/>
<path fill-rule="evenodd" clip-rule="evenodd" d="M37.5513 47.693L49.4722 26.3569L62.3264 47.693H37.5513ZM60.3997 46.6262L49.5122 28.5509L39.4075 46.6262H60.3997Z" fill="#DA6F25"/>
<path fill-rule="evenodd" clip-rule="evenodd" d="M50.6169 33.2811H48.5298V41.7853H50.6169V33.2811ZM49.5825 43.0735C49.9539 43.0735 50.2849 43.2043 50.5559 43.4559C50.8369 43.7176 50.9773 44.0296 50.9773 44.412C50.9773 44.7844 50.8369 45.1064 50.5659 45.3681C50.2849 45.6298 49.9539 45.7606 49.5725 45.7606C49.3818 45.7606 49.2012 45.7203 49.0408 45.6499C48.8701 45.5895 48.7297 45.499 48.5991 45.3782C48.4688 45.2675 48.3684 45.1165 48.2881 44.9555C48.2078 44.7844 48.1777 44.6133 48.1777 44.4221C48.1777 44.0497 48.3181 43.7277 48.5891 43.466C48.8701 43.2043 49.2012 43.0735 49.5825 43.0735Z" fill="#DA6F25"/>
</svg>
