<svg width="100" height="100" viewBox="0 0 100 100" fill="none" xmlns="http://www.w3.org/2000/svg">
<path fill-rule="evenodd" clip-rule="evenodd" d="M76.3867 24.658C76.698 24.658 77.6914 25.3524 77.7715 25.7349C77.8418 26.1274 77.7715 27.9792 77.7515 28.3516C77.7515 28.7441 77.4907 29.5693 77.0691 29.7203C76.5474 29.8914 73.4065 29.7706 73.4065 29.7706C73.4065 29.7706 73.4668 30.0121 73.5471 30.5556C73.552 30.5847 73.5545 30.6162 73.5569 30.6466C73.5596 30.6793 73.562 30.7107 73.5672 30.7368C73.5716 30.7902 73.5779 30.8455 73.5845 30.9029C73.593 30.9752 73.6016 31.0507 73.6072 31.1293C73.6375 31.3306 73.6575 31.5922 73.6775 31.864C73.6875 32.0451 73.6975 32.2464 73.7075 32.4578C73.7578 33.4239 73.7578 34.6517 73.6875 36.2318C73.6785 36.5594 73.6612 36.887 73.6433 37.2296L73.6375 37.3389C73.6175 37.5301 73.6072 37.7213 73.5972 37.9226C73.5838 38.1014 73.5686 38.2821 73.553 38.4657C73.5335 38.6956 73.5137 38.9299 73.4969 39.1705C73.4856 39.2883 73.4715 39.3997 73.4575 39.5085C73.4466 39.5949 73.4356 39.6796 73.4268 39.7643C73.4219 39.8096 73.4141 39.8499 73.4068 39.8901C73.399 39.9304 73.3916 39.9706 73.3865 40.0159L73.3838 40.0406C73.3745 40.1246 73.3648 40.2153 73.3465 40.2977C73.3164 40.4084 73.2962 40.5192 73.2761 40.6299C73.271 40.65 73.2661 40.6752 73.2613 40.7003C73.2561 40.7255 73.251 40.7506 73.2461 40.7708C73.2288 40.8464 73.208 40.922 73.1878 40.9956C73.1729 41.0494 73.1585 41.1022 73.1458 41.1532C72.5237 43.4579 71.3797 44.6857 71.3797 44.6857C71.3797 44.6857 71.2793 50.7343 71.3596 51.1973C71.43 51.6602 70.4566 51.8514 70.4566 51.8514C70.4566 51.8514 64.9275 51.8514 64.4658 51.7709C64.0044 51.6904 63.8538 51.3079 63.8538 51.3079V44.6857H41.7378V51.3079C41.7378 51.3079 41.5874 51.6904 41.1258 51.7709C40.6641 51.8514 35.1353 51.8514 35.1353 51.8514C35.1353 51.8514 34.1519 51.6602 34.2322 51.1973C34.3123 50.7343 34.2119 44.6857 34.2119 44.6857C34.2119 44.6857 32.4158 42.7635 32.0948 39.1705C31.4827 32.2162 32.1851 29.7807 32.1851 29.7807C32.1851 29.7807 29.0342 29.9216 28.5225 29.7303C28.0911 29.5693 27.8401 28.7441 27.8401 28.3616C27.8401 28.262 27.835 28.0682 27.8286 27.8282C27.8096 27.1233 27.7803 26.0202 27.8401 25.7349C27.9204 25.3524 28.9138 24.658 29.2249 24.658H33.6802C33.6802 24.658 36.2088 18.1063 37.4431 16.7174C38.0955 15.9827 40.3631 14.9461 41.8985 14.6341C43.4436 14.3221 52.8059 14.0906 52.8059 14.0906C52.8059 14.0906 62.178 14.3221 63.7134 14.6341C65.2486 14.9461 67.4763 16.0229 68.1687 16.7174C69.5435 18.1063 71.9317 24.658 71.9317 24.658H76.3867ZM36.2376 25.8456C36.2376 25.8456 35.8062 28.0195 35.8965 28.2409H69.502C69.5821 28.0195 69.1106 25.8456 69.1106 25.8456C69.1106 25.8456 67.0032 20.0789 65.8794 19.0222C65.2674 18.4384 63.3609 17.5024 62.0462 17.2408C60.7317 16.9791 52.6741 16.7778 52.6741 16.7778C52.6741 16.7778 44.6165 16.9791 43.302 17.2408C41.9773 17.5024 40.1209 18.4686 39.4688 19.0222C38.6157 19.7468 36.2376 25.8456 36.2376 25.8456Z" fill="#DA6F25"/>
<path fill-rule="evenodd" clip-rule="evenodd" d="M53.1931 85.5467C53.219 85.5554 53.237 85.5613 53.247 85.5663V85.5865H64.6562L64.4055 85.4553C62.0461 84.2224 56.2534 81.1951 55.886 77.8874C55.5837 74.3873 57.5639 73.7634 60.1323 72.9542C60.3779 72.8768 60.6286 72.7978 60.8833 72.7144C62.4629 72.1952 63.8071 71.8134 64.9814 71.4797C68.2231 70.5587 70.1719 70.0052 72.2121 67.944C73.667 66.4545 74.6806 64.3712 74.6706 62.7206C74.6504 60.5468 74.3093 59.0573 70.8474 55.8167H62.3181C62.7986 56.2079 63.2868 56.5583 63.7568 56.8955C65.7402 58.3188 67.3982 59.5085 66.7734 62.5596C66.0307 65.0153 62.5791 65.8406 59.4682 66.5149C52.0027 68.1553 49.8655 71.1947 48.9021 74.7977C48.1897 77.4747 48.4704 80.806 50.6479 83.4529C52.0757 85.1748 52.9582 85.4686 53.1931 85.5467ZM26.7121 85.5468C26.738 85.5555 26.7561 85.5615 26.7661 85.5665V85.5866H38.1753L37.9245 85.4554C35.5652 84.2225 29.7724 81.1953 29.405 77.8875C29.1028 74.3875 31.083 73.7635 33.6513 72.9543C33.897 72.877 34.1477 72.7979 34.4023 72.7145C35.9819 72.1953 37.3261 71.8135 38.5005 71.4798C41.7422 70.5588 43.6909 70.0053 45.7312 67.9441C47.186 66.4546 48.1997 64.3713 48.1897 62.7208C48.1694 60.5469 47.8283 59.0574 44.3664 55.8168H35.8371C36.3176 56.2081 36.8059 56.5584 37.2759 56.8956C39.2593 58.319 40.9172 59.5086 40.2925 62.5598C39.5498 65.0154 36.0981 65.8407 32.9873 66.515C25.5217 68.1555 23.3845 71.1948 22.4211 74.7978C21.7087 77.4749 21.9895 80.8061 24.167 83.453C25.5947 85.1749 26.4773 85.4687 26.7121 85.5468Z" fill="#DA6F25"/>
</svg>
