<svg width="100" height="100" viewBox="0 0 100 100" fill="none" xmlns="http://www.w3.org/2000/svg">
<path d="M20.9373 49.9999C20.9373 42.1352 23.9673 34.752 29.4562 29.1986C30.4397 28.2034 30.4238 26.6144 29.4562 25.6193C28.9802 25.1378 28.3457 24.881 27.6953 24.881C27.029 24.881 26.3944 25.1538 25.9344 25.6193C19.4937 32.1197 15.9561 40.787 15.9561 49.9999C15.9561 59.2129 19.4937 67.8641 25.9344 74.3805C26.4103 74.8621 27.0449 75.1189 27.6953 75.1189C28.3615 75.1189 28.9961 74.846 29.4562 74.3805C30.4397 73.3854 30.4397 71.7964 29.4562 70.8013C23.9514 65.2478 20.9373 57.8646 20.9373 49.9999Z" fill="#DA6F25"/>
<path fill-rule="evenodd" clip-rule="evenodd" d="M23.1584 49.9999C23.1584 35.0088 35.2149 22.8265 50.0159 22.8265C64.8168 22.8265 76.8733 35.0088 76.8733 49.9999C76.8733 64.9749 64.8327 77.1733 50.0159 77.1733C35.1991 77.1733 23.1584 64.991 23.1584 49.9999ZM71.8605 49.9999C71.8447 37.8337 62.0408 27.9145 50.0161 27.8984C37.9913 27.9145 28.1875 37.8337 28.1716 50.0159C28.1875 62.1661 37.9913 72.0853 50.0161 72.1174C62.0408 72.0853 71.8447 62.1661 71.8605 49.9999Z" fill="#DA6F25"/>
<path d="M74.0971 25.6193C73.6212 25.1378 72.9866 24.881 72.3362 24.881C71.6699 24.881 71.0354 25.1538 70.5594 25.6193C69.5759 26.6144 69.5759 28.2034 70.5594 29.1986C70.5753 29.2146 70.5912 29.2146 70.5912 29.2307C76.0642 34.7841 79.0783 42.1673 79.0783 49.9999C79.0783 57.8646 76.0483 65.2478 70.5594 70.8013C69.5759 71.7964 69.5759 73.3854 70.5594 74.3966C71.0354 74.8781 71.6699 75.1349 72.3203 75.1349C72.9707 75.1349 73.6212 74.8621 74.0812 74.3966C80.5219 67.8801 84.0595 59.2289 84.0595 50.016C84.0913 40.787 80.5378 32.1197 74.0971 25.6193Z" fill="#DA6F25"/>
<path d="M32.25 42.8416V59.667H42.4301V56.0851H36.6331V52.7389H41.8645V49.2984H36.6331V46.4235H42.218V42.8416H32.25ZM48.557 56.5093V52.409H49.7824C50.1908 52.409 50.5522 52.5818 50.8664 52.9274C51.1806 53.273 51.3377 53.7758 51.3377 54.4356C51.3377 55.1425 51.1806 55.6688 50.8664 56.0144C50.5522 56.3443 50.1908 56.5093 49.7824 56.5093H48.557ZM48.557 49.4398V45.9993H49.6174C50.073 45.9993 50.4186 46.1721 50.6543 46.5177C50.8899 46.8634 51.0078 47.2718 51.0078 47.7431C51.0078 48.1987 50.8899 48.5993 50.6543 48.9449C50.4186 49.2748 50.073 49.4398 49.6174 49.4398H48.557ZM44.1739 42.8416V59.667H50.7957C51.7068 59.667 52.4845 59.5492 53.1286 59.3135C53.7727 59.0622 54.2911 58.7165 54.6839 58.2767C55.0923 57.8368 55.3908 57.3105 55.5794 56.6978C55.7679 56.0851 55.8621 55.4174 55.8621 54.6948C55.8621 54.2549 55.7993 53.8229 55.6736 53.3987C55.5636 52.9588 55.383 52.5582 55.1316 52.1969C54.8803 51.8356 54.5582 51.5371 54.1655 51.3014C53.7727 51.0501 53.3014 50.9008 52.7516 50.8537V50.8066C53.2229 50.7123 53.6235 50.5474 53.9534 50.3117C54.2833 50.0761 54.5504 49.7933 54.7546 49.4634C54.9745 49.1177 55.1316 48.7407 55.2259 48.3322C55.3358 47.9081 55.3908 47.4761 55.3908 47.0362C55.3908 45.7637 55.0138 44.7504 54.2597 43.9963C53.5213 43.2265 52.3667 42.8416 50.7957 42.8416H44.1739ZM57.564 42.8416V59.667H63.9265C65.199 59.667 66.1887 59.4392 66.8957 58.9836C67.6026 58.5123 68.1289 57.8918 68.4745 57.122C68.8359 56.3365 69.0558 55.441 69.1344 54.4356C69.2129 53.4144 69.2522 52.354 69.2522 51.2543C69.2522 50.1546 69.2129 49.102 69.1344 48.0966C69.0558 47.0754 68.8359 46.18 68.4745 45.4102C68.1289 44.6247 67.6026 44.0041 66.8957 43.5486C66.1887 43.0773 65.199 42.8416 63.9265 42.8416H57.564ZM61.947 56.5093V45.9993H62.819C63.2431 45.9993 63.5809 46.0622 63.8322 46.1878C64.0836 46.2978 64.2721 46.5413 64.3978 46.9183C64.5392 47.2954 64.6256 47.8295 64.657 48.5208C64.7042 49.212 64.7277 50.1232 64.7277 51.2543C64.7277 52.3854 64.7042 53.2966 64.657 53.9878C64.6256 54.6791 64.5392 55.2132 64.3978 55.5903C64.2721 55.9673 64.0836 56.2187 63.8322 56.3443C63.5809 56.4543 63.2431 56.5093 62.819 56.5093H61.947Z" fill="#DA6F25"/>
</svg>
