<svg width="100" height="100" viewBox="0 0 100 100" fill="none" xmlns="http://www.w3.org/2000/svg">
<path d="M16.6793 49.6958C16.6793 40.8393 20.1211 32.5162 26.3625 26.2563C27.4763 25.1392 27.4663 23.3377 26.3625 22.2206C25.8207 21.6771 25.1082 21.3853 24.3556 21.3853C23.603 21.3853 22.8806 21.6872 22.3487 22.2206C15.0336 29.5473 10.9998 39.3196 10.9998 49.7058C10.9998 60.0921 15.0236 69.8442 22.3487 77.1911C22.8906 77.7346 23.603 78.0264 24.3556 78.0264C25.1182 78.0264 25.8307 77.7245 26.3625 77.1911C27.4763 76.074 27.4763 74.2725 26.3625 73.1554C20.1211 66.8652 16.6793 58.5422 16.6793 49.6958Z" fill="#DA6F25"/>
<path fill-rule="evenodd" clip-rule="evenodd" d="M19.208 49.6957C19.208 32.808 32.915 19.0704 49.7429 19.0704C66.5806 19.0704 80.2778 32.808 80.2778 49.6957C80.2778 66.5733 66.5806 80.321 49.7429 80.321C32.905 80.321 19.208 66.5834 19.208 49.6957ZM74.5781 49.6857C74.5579 35.9783 63.4197 24.797 49.7427 24.7769C36.0657 24.8071 24.9275 35.9783 24.9075 49.7058C24.9275 63.4031 36.0657 74.5845 49.7427 74.6146C63.4097 74.5744 74.5579 63.4031 74.5781 49.6857Z" fill="#DA6F25"/>
<path d="M77.127 22.2105C76.5852 21.667 75.8727 21.3752 75.1201 21.3752C74.3676 21.3752 73.6451 21.6771 73.0932 22.2105C71.9794 23.3276 71.9794 25.1291 73.0932 26.2462C73.1032 26.2563 73.1233 26.2664 73.1333 26.2865C79.3547 32.5464 82.7764 40.8594 82.7764 49.6857C82.7764 58.5422 79.3346 66.8652 73.0932 73.1252C71.9794 74.2423 71.9794 76.0438 73.0932 77.171C73.635 77.7144 74.3475 78.0063 75.1001 78.0063C75.8627 78.0063 76.5751 77.7044 77.107 77.171C84.4221 69.8342 88.4559 60.0719 88.4559 49.6857C88.486 39.3095 84.4522 29.5473 77.127 22.2105Z" fill="#DA6F25"/>
<path fill-rule="evenodd" clip-rule="evenodd" d="M58.614 65.1844C58.9351 65.3052 59.2061 65.5267 59.3967 65.6978C59.8181 66.0802 59.8684 66.9357 59.2964 67.0967C59.1812 67.0967 59.0496 67.0635 58.9092 67.0068C58.8047 66.9647 58.6953 66.9094 58.584 66.8451C58.5891 67.4915 58.5916 68.1506 58.5942 68.8175C58.5967 69.4694 58.5991 70.1285 58.604 70.7902H57.0989L57.2393 64.2787C57.2393 64.2787 56.3162 66.5029 55.6841 70.7902H42.9202C42.3462 66.897 41.5237 64.7051 41.385 64.335C41.3708 64.2975 41.3638 64.2787 41.3647 64.2787L41.5054 70.7902H39.98C39.99 69.5724 39.99 68.3547 40.0002 67.1873C39.679 67.3986 39.3479 67.5496 39.1072 67.5496C38.5852 67.3583 38.6355 66.4928 39.0569 66.1204C39.2776 65.9091 39.6189 65.6374 40.0103 65.5367L40.0227 64.0544L40.0249 63.7979C40.0371 62.2486 40.0483 60.8379 40.0703 59.6492V59.468C40.0803 59.3372 40.0803 59.2064 40.0803 59.0755C40.0803 59.0087 40.0825 58.9418 40.0847 58.876L40.0854 58.8616C40.0879 58.7937 40.0903 58.7271 40.0903 58.6629C40.1006 58.5522 40.1006 58.4415 40.1006 58.3408V58.2301C40.1006 58.1447 40.1028 58.0615 40.105 57.9795L40.1057 57.9609V57.9571L40.1084 57.8665C40.1096 57.8131 40.1106 57.7599 40.1106 57.7068V57.6061C40.1106 57.4451 40.1106 57.2841 40.1206 57.1331V57.0023L40.1257 56.9072L40.1304 56.7847V56.7753C40.1331 56.6946 40.1355 56.6179 40.1406 56.5494C40.3413 51.7488 44.3853 50.209 48.7803 50.209H49.834C54.229 50.209 58.2729 51.7387 58.4736 56.5494C58.4788 56.6385 58.4812 56.7304 58.4839 56.8264L58.488 56.9698L58.4937 57.103C58.5037 57.1734 58.5037 57.264 58.5037 57.3445C58.5037 57.4854 58.5137 57.6263 58.5137 57.7873L58.5144 57.8405C58.5151 57.8754 58.5168 57.9126 58.5186 57.9504L58.5193 57.963C58.5215 58.0195 58.5237 58.0768 58.5237 58.1295V58.2603V58.2805C58.5337 58.371 58.5337 58.4818 58.5337 58.5925C58.5337 58.7132 58.5437 58.8541 58.5437 58.9849C58.5437 59.0692 58.5461 59.1536 58.5486 59.2391C58.5513 59.3271 58.554 59.4164 58.554 59.5083V59.6794C58.5759 60.8106 58.5872 62.1265 58.5996 63.5712L58.614 65.1844ZM41.054 54.8385C41.395 54.7076 41.5657 54.3755 41.646 54.1743C41.656 54.134 41.676 54.0736 41.696 54.0132C41.8367 53.671 42.0474 53.3591 42.3284 53.0873C43.0911 52.3325 44.3352 51.8293 45.6597 51.5173L45.2583 51.2053C43.9438 51.5475 42.7197 52.0507 41.937 52.7653C41.395 53.2584 41.064 53.8422 41.064 54.5366C41.064 54.5987 41.064 54.6576 41.0623 54.7134C41.0608 54.757 41.0583 54.7987 41.054 54.8385ZM55.0315 69.9348C53.6768 68.9284 50.3655 68.8479 49.322 68.8479C48.2883 68.8479 44.9971 68.9284 43.6323 69.9247C43.261 67.459 42.6992 65.4261 41.9265 64.3391C43.0706 63.2723 47.1846 62.3263 49.322 62.3263C51.4692 62.3263 55.5632 63.2522 56.7173 64.3391C55.9646 65.416 55.4028 67.4691 55.0315 69.9348ZM57.0085 54.2045C57.0889 54.3957 57.2595 54.7278 57.6006 54.8687V54.5567C57.6006 53.8623 57.2695 53.2786 56.7278 52.7854C55.9551 52.0809 54.7307 51.5676 53.4062 51.2255L53.0049 51.5375C54.3293 51.8494 55.5737 52.3527 56.3262 53.1276C56.6072 53.3994 56.8281 53.7113 56.9585 54.0535C56.9685 54.0786 56.9761 54.1038 56.9836 54.129C56.991 54.1542 56.9985 54.1793 57.0085 54.2045Z" fill="#DA6F25"/>
<path fill-rule="evenodd" clip-rule="evenodd" d="M37.5513 47.693L49.4722 26.3569L62.3264 47.693H37.5513ZM60.3997 46.6262L49.5122 28.5509L39.4075 46.6262H60.3997Z" fill="#DA6F25"/>
<path fill-rule="evenodd" clip-rule="evenodd" d="M50.6169 33.2811H48.5298V41.7853H50.6169V33.2811ZM49.5825 43.0735C49.9539 43.0735 50.2849 43.2043 50.5559 43.4559C50.8369 43.7176 50.9773 44.0296 50.9773 44.412C50.9773 44.7844 50.8369 45.1064 50.5659 45.3681C50.2849 45.6298 49.9539 45.7606 49.5725 45.7606C49.3818 45.7606 49.2012 45.7203 49.0408 45.6499C48.8701 45.5895 48.7297 45.499 48.5991 45.3782C48.4688 45.2675 48.3684 45.1165 48.2881 44.9555C48.2078 44.7844 48.1777 44.6133 48.1777 44.4221C48.1777 44.0497 48.3181 43.7277 48.5891 43.466C48.8701 43.2043 49.2012 43.0735 49.5825 43.0735Z" fill="#DA6F25"/>
</svg>
