<svg width="105" height="100" viewBox="0 0 105 100" fill="none" xmlns="http://www.w3.org/2000/svg">
<path d="M37.1244 51.0572C37.1244 51.2686 37.1044 51.5403 37.2047 51.6812C37.3051 51.8322 38.2182 52.5266 39.4023 52.8285C40.5863 53.1405 41.8507 53.0902 42.252 53.3015C42.6635 53.2814 43.0949 53.3015 43.0949 53.3015V53.2915L43.8074 52.7279L44.1385 52.7178C44.8008 54.8011 46.7375 56.3107 49.0253 56.3107C50.4903 56.3107 51.7948 55.7069 52.728 54.7206C53.3702 54.167 53.8619 53.4626 54.1429 52.6574L54.2131 52.6675L55.2968 52.6373C55.2968 52.899 55.2868 53.1204 55.2968 53.1808L84.8383 52.7581V52.748H84.8483V52.6272C84.8483 52.5165 84.8584 52.3454 84.8684 52.1341L84.8784 52.1441L85.5708 52.4863L85.8518 52.4964C86.1227 53.382 86.6445 54.1469 87.3268 54.7407C88.26 55.7169 89.5846 56.3308 91.0296 56.3308C93.6486 56.3308 95.7959 54.3583 96.117 51.8221H96.1471L96.2876 51.4799L97.0904 51.9731V52.0435C97.0904 52.0435 97.1104 52.0435 97.1405 52.0536H97.1606C97.281 52.0737 97.5118 52.0938 97.6924 52.0938C97.9433 52.0938 98.0738 51.1881 98.6959 50.9767C99.007 50.4634 99.1976 49.4671 99.2679 48.5412V48.521C99.318 47.8166 99.298 47.1423 99.1876 46.7598C98.9267 46.2063 98.2644 45.9547 98.2142 45.3609C98.1641 44.7671 98.1039 43.5493 98.0236 43.1367C98.0236 43.1266 98.0135 43.1166 98.0135 43.1065C98.0236 43.0965 98.0336 43.0763 98.0336 43.0763C98.0336 43.0763 97.9032 42.0397 97.7727 41.8082C97.6423 41.5768 97.3111 40.7616 96.7793 40.2886C96.7291 40.2483 96.6689 40.208 96.6188 40.1879C96.408 39.8659 95.7658 38.9802 94.933 38.5173C94.8828 38.4871 94.9029 38.5273 94.933 38.5978L94.7925 38.5273L94.7423 38.477C94.5416 38.1449 93.0766 36.8063 91.7821 35.7697C91.4711 35.5181 91.1801 35.2867 90.8891 35.0854C90.4777 34.7834 90.1566 34.5721 89.9659 34.5117V34.5218L89.9559 34.5117C89.9559 34.5117 89.7652 34.2802 89.5746 34.2601C89.7552 34.0689 90.1867 33.9179 90.1867 33.6059C90.1867 33.4449 89.6247 33.3342 89.0427 33.2436C88.8521 33.2235 88.6815 33.2034 88.5109 33.1732C88.1898 33.143 87.9189 33.1229 87.7884 33.1229C87.5777 33.1128 85.2096 32.8109 82.4601 32.5593C81.9684 32.519 81.4868 32.4586 81.0252 32.4184C78.2858 32.1668 75.3959 31.9252 70.6195 32.3982C66.4853 32.8109 65.3012 33.767 65.3012 33.767C65.2611 33.7871 65.2109 33.7972 65.1708 33.8374C65.1708 33.8475 65.1708 33.8475 65.1808 33.8575C65.1708 33.8575 65.1708 33.8676 65.1808 33.8676C59.3407 36.7661 55.6982 38.8896 55.1564 39.3425C55.1363 39.3526 55.1062 39.3727 55.0761 39.3828C55.0058 39.3928 54.765 39.423 54.6948 39.4633C54.4239 39.5035 54.0325 39.5639 53.5509 39.6444C53.601 39.6243 53.6512 39.6243 53.6512 39.6243C52.1661 39.8558 50.8415 40.0873 49.6274 40.3187C45.7039 41.0635 40.8974 42.2511 39.5728 43.7708L39.5427 43.8009H39.5528C39.5327 43.8211 39.5126 43.8513 39.4825 43.8815C37.5158 46.4981 37.5158 47.0416 37.3653 47.7159C37.2148 48.3902 37.2348 49.769 37.2449 49.8294C37.2649 49.8797 37.4556 49.9099 37.4556 49.9099L37.3753 50.7352C37.3853 50.6949 37.1244 50.8559 37.1244 51.0572Z" fill="#DA6F25"/>
<path d="M82.8111 65.2778H58.7183V58.5046L46.5867 70.6823L58.7183 82.8599V76.0867H82.8111" fill="#DA6F25"/>
<path d="M27.421 46.7596C27.1601 46.2061 26.4978 45.9545 26.4476 45.3607C26.3975 44.7669 26.3373 43.5492 26.257 43.1365C26.257 43.1265 26.2469 43.1164 26.2469 43.1063C26.257 43.0963 26.267 43.0762 26.267 43.0762C26.267 43.0762 26.1366 42.0395 26.0061 41.8081C25.8757 41.5766 25.5445 40.7614 25.0127 40.2884C24.9625 40.2481 24.9023 40.2079 24.8522 40.1877C24.6414 39.8657 23.9992 38.98 23.1664 38.5171C23.1162 38.4869 23.1363 38.5272 23.1664 38.5976L23.0259 38.5272L22.9757 38.4768C22.775 38.1447 21.31 36.8062 20.0155 35.7696C19.7045 35.518 19.4135 35.2865 19.1225 35.0852C18.7111 34.7833 18.39 34.5719 18.1993 34.5115V34.5216L18.1893 34.5115C18.1893 34.5115 17.9986 34.2801 17.808 34.2599C17.9886 34.0687 18.4201 33.9178 18.4201 33.6058C18.4201 33.4447 17.8581 33.334 17.2761 33.2435C17.0855 33.2233 16.9149 33.2032 16.7443 33.173C16.4232 33.1428 16.1523 33.1227 16.0218 33.1227C15.8111 33.1126 13.443 32.8107 10.6935 32.5591C10.2018 32.5188 9.72019 32.4585 9.2586 32.4182C6.96071 32.2068 4.55244 31.9955 1.00024 32.2169V52.929L13.0617 52.7478V52.7378H13.0717V52.617C13.0717 52.5063 13.0817 52.3352 13.0918 52.1238L13.1018 52.1339L13.7942 52.4761L14.0751 52.4862C14.3461 53.3718 14.8679 54.1367 15.5502 54.7305C16.4834 55.7067 17.808 56.3206 19.2529 56.3206C21.8719 56.3206 24.0193 54.348 24.3404 51.8119H24.3705L24.511 51.4697L25.3137 51.9628V52.0333C25.3137 52.0333 25.3338 52.0333 25.3639 52.0433H25.384C25.5044 52.0635 25.7352 52.0836 25.9158 52.0836C26.1667 52.0836 26.2971 51.1778 26.9193 50.9665C27.2303 50.4532 27.421 49.4568 27.4912 48.5309V48.5108C27.5414 47.8164 27.5113 47.1622 27.421 46.7596Z" fill="#DA6F25"/>
<path d="M47.2095 37.9737C39.3625 33.5354 35.6397 33.1227 37.8574 36.9371C35.6397 33.1227 33.1813 35.9709 31.7062 44.0826C33.1913 35.9709 32.4187 32.2773 29.7896 34.8336C32.4187 32.2773 28.9668 30.818 21.1199 31.1703C28.9668 30.818 32.218 28.9461 29.298 26.4804C32.228 28.936 32.5391 25.1922 30.0907 17.0804C32.5391 25.1922 35.3186 27.7283 37.0546 23.4309C35.3186 27.7283 38.9812 26.8729 46.2261 21.2772C38.9812 26.8628 37.4459 30.2947 42.3528 29.8821C37.4158 30.3148 39.3625 33.5354 47.2095 37.9737Z" fill="#DA6F25"/>
</svg>
