<svg width="100" height="100" viewBox="0 0 100 100" fill="none" xmlns="http://www.w3.org/2000/svg">
<path d="M21.7344 38.6188V57.7923H26.7292V49.8973H29.7905V57.7923H34.7852V38.6188H29.7905V45.6545H26.7292V38.6188H21.7344Z" fill="#DA6F25"/>
<path d="M64.9566 38.6188V57.7923H72.207C73.6571 57.7923 74.785 57.5327 75.5906 57.0135C76.3962 56.4765 76.9959 55.7693 77.3898 54.8921C77.8015 53.997 78.0522 52.9765 78.1417 51.8308C78.2312 50.6671 78.2759 49.4587 78.2759 48.2056C78.2759 46.9524 78.2312 45.7529 78.1417 44.6072C78.0522 43.4435 77.8015 42.4231 77.3898 41.5459C76.9959 40.6507 76.3962 39.9436 75.5906 39.4244C74.785 38.8874 73.6571 38.6188 72.207 38.6188H64.9566ZM69.9513 54.1939V42.2172H70.9449C71.4283 42.2172 71.8132 42.2888 72.0996 42.432C72.3861 42.5573 72.6009 42.8348 72.7441 43.2645C72.9052 43.6942 73.0037 44.3028 73.0395 45.0905C73.0932 45.8782 73.1201 46.9166 73.1201 48.2056C73.1201 49.4945 73.0932 50.5329 73.0395 51.3206C73.0037 52.1083 72.9052 52.717 72.7441 53.1466C72.6009 53.5763 72.3861 53.8627 72.0996 54.0059C71.8132 54.1313 71.4283 54.1939 70.9449 54.1939H69.9513Z" fill="#DA6F25"/>
<path d="M26.8415 27.5845L26.0567 27.5236C26.4084 22.9999 28.0751 19.0991 30.8669 16.2498C33.6586 13.4005 37.4805 11.6994 41.9129 11.3405L41.9726 12.1415C37.7297 12.4862 34.0805 14.1008 31.4209 16.8152C28.7714 19.5331 27.1793 23.2611 26.8415 27.5845Z" fill="#DA6F25"/>
<path fill-rule="evenodd" clip-rule="evenodd" d="M34.3767 19.832C36.4063 17.7607 39.1956 16.5204 42.4439 16.26L42.384 15.459C38.9465 15.7335 35.9878 17.05 33.8193 19.2631C31.6545 21.4727 30.3645 24.5062 30.092 28.0043L30.877 28.0653C31.1355 24.7536 32.3406 21.9102 34.3767 19.832ZM37.9002 23.4281C39.4517 21.8444 41.5742 20.9055 44.051 20.7015L43.9912 19.9005C41.3284 20.1221 39.0266 21.1407 37.3428 22.8593C35.6587 24.5778 34.6541 26.9204 34.4436 29.6449L35.2285 29.7059C35.4251 27.1816 36.3484 25.0119 37.9002 23.4281Z" fill="#DA6F25"/>
<path d="M41.9724 87.1751L41.9127 87.9761C37.4804 87.6172 33.6585 85.9161 30.8667 83.0668C28.0749 80.2174 26.4082 76.3167 26.0566 71.793L26.8414 71.732C27.1792 76.0624 28.7611 79.7869 31.4207 82.5013C34.0837 85.2055 37.7364 86.8303 41.9724 87.1751Z" fill="#DA6F25"/>
<path fill-rule="evenodd" clip-rule="evenodd" d="M37.8999 75.8887C36.3481 74.305 35.4282 72.1386 35.2283 69.6109L34.4436 69.6719C34.6606 72.3896 35.6587 74.739 37.3425 76.4576C39.0263 78.1762 41.3215 79.2016 43.9909 79.4163L44.0508 78.6153C41.5774 78.4148 39.4516 77.4724 37.8999 75.8887ZM34.3764 79.4848C32.3469 77.4135 31.1316 74.5665 30.8764 71.2514L30.0918 71.3124C30.3608 74.8209 31.6506 77.8406 33.8191 80.0537C35.9839 82.2633 38.9563 83.5798 42.3835 83.8578L42.4433 83.0568C39.1987 82.7929 36.4126 81.563 34.3764 79.4848Z" fill="#DA6F25"/>
<path d="M73.4378 27.5845L74.2225 27.5236C73.8709 22.9999 72.2042 19.0991 69.4124 16.2498C66.6207 13.4005 62.7988 11.6994 58.3664 11.3405L58.3067 12.1415C62.5495 12.4862 66.1988 14.1008 68.8584 16.8152C71.5079 19.5331 73.1 23.2611 73.4378 27.5845Z" fill="#DA6F25"/>
<path fill-rule="evenodd" clip-rule="evenodd" d="M65.9028 19.8318C63.8733 17.7605 61.084 16.5202 57.8357 16.2598L57.8955 15.4588C61.333 15.7333 64.2918 17.0498 66.4602 19.2629C68.625 21.4725 69.9151 24.506 70.1875 28.0041L69.4026 28.0651C69.1441 24.7534 67.939 21.91 65.9028 19.8318ZM62.3794 23.428C60.8279 21.8442 58.7053 20.9053 56.2285 20.7013L56.2883 19.9004C58.9512 20.1219 61.2529 21.1405 62.9368 22.8591C64.6209 24.5777 65.6255 26.9202 65.8359 29.6448L65.051 29.7058C64.8545 27.1815 63.9312 25.0117 62.3794 23.428Z" fill="#DA6F25"/>
<path d="M58.3066 87.1756L58.3663 87.9766C62.7987 87.6177 66.6206 85.9166 69.4123 83.0673C72.2041 80.2179 73.8708 76.3172 74.2225 71.7935L73.4377 71.7325C73.0999 76.0629 71.518 79.7874 68.8583 82.5018C66.1954 85.2059 62.5427 86.8308 58.3066 87.1756Z" fill="#DA6F25"/>
<path fill-rule="evenodd" clip-rule="evenodd" d="M65.903 79.4853C67.9324 77.414 69.1477 74.567 69.4028 71.252L70.1876 71.3129C69.9186 74.8214 68.6287 77.8411 66.4603 80.0541C64.2954 82.2638 61.3231 83.5803 57.8957 83.8583L57.836 83.0573C61.0807 82.7934 63.8667 81.5635 65.903 79.4853ZM62.3796 75.8892C63.9313 74.3054 64.8512 72.1391 65.0511 69.6114L65.8359 69.6723C65.6188 72.39 64.6208 74.7395 62.9369 76.458C61.2531 78.1766 58.9579 79.2021 56.2883 79.4168L56.2286 78.6158C58.7019 78.4153 60.8278 77.4729 62.3796 75.8892Z" fill="#DA6F25"/>
<path fill-rule="evenodd" clip-rule="evenodd" d="M61.4829 42.1301C61.2646 41.9292 60.9594 41.6762 60.5886 41.5273C60.5742 39.1087 60.5522 36.9059 60.5232 35.1198V34.9189C60.5232 34.7105 60.5158 34.5021 60.5158 34.3087C60.5158 34.2619 60.5151 34.2151 60.5144 34.1685L60.5129 34.0963L60.5122 34.0723V34.0703V34.0682V34.0661V34.064V34.0619V34.0598V34.0577V34.0556C60.5109 34.0115 60.5097 33.9679 60.5092 33.9249L60.5087 33.8473C60.5087 33.7965 60.5078 33.748 60.5065 33.7007C60.5044 33.6231 60.5014 33.5492 60.5014 33.4752V33.4603V33.304C60.5014 33.2445 60.5 33.185 60.4985 33.1255L60.4978 33.1031C60.4961 33.0361 60.4941 32.9691 60.4941 32.9021C60.4907 32.8123 60.4887 32.7276 60.487 32.6457L60.4863 32.6262L60.4858 32.6068C60.4843 32.5327 60.4829 32.4607 60.4795 32.3886C60.4795 32.2993 60.4724 32.1952 60.4724 32.1058C60.465 31.8677 60.4577 31.6519 60.4504 31.4733C60.2177 25.877 55.6086 24.0834 50.5922 24.0834H49.4001C44.3837 24.0834 39.7744 25.877 39.5417 31.4733C39.5346 31.6295 39.5273 31.8156 39.5273 32.0091C39.5273 32.0612 39.5273 32.1133 39.52 32.1654C39.5163 32.2535 39.5144 32.3456 39.5124 32.4406V32.4474C39.5107 32.5348 39.509 32.6246 39.5053 32.7161V32.85C39.4982 33.0435 39.4982 33.2444 39.4909 33.4603V33.5868L39.4899 33.6685L39.4873 33.7728C39.4853 33.8361 39.4836 33.8994 39.4836 33.9589C39.4836 34.0361 39.4819 34.1152 39.4802 34.1951L39.4775 34.3177L39.4763 34.4426C39.4763 34.5217 39.4743 34.6008 39.4726 34.6789C39.4709 34.7552 39.4692 34.8305 39.4692 34.904V35.1124L39.4607 35.8452L39.4599 35.9324L39.434 38.1613L39.4213 39.3615L39.4111 40.3443L39.3964 41.9664C38.9528 42.0855 38.5603 42.4055 38.3059 42.6436C37.8188 43.0827 37.768 44.0874 38.3713 44.3032C38.6403 44.3032 39.0183 44.132 39.3891 43.8864C39.331 53.1888 39.3237 64.5006 39.3237 67.6262V68.4671C39.8982 69.0104 40.0651 72.3221 40.0651 72.7611C40.0651 75.0979 44.9072 75.9165 49.4145 75.9165H50.6069C55.1069 75.9165 59.956 75.0979 59.956 72.7611C59.956 72.3295 60.1232 69.0104 60.6977 68.4671V68.3778V67.6262C60.6977 64.4559 60.6904 52.8614 60.625 43.492C60.9304 43.6706 61.2138 43.7822 61.4392 43.7822C62.028 43.5887 61.9699 42.5915 61.4829 42.1301ZM54.6345 25.2594C56.1394 25.6538 57.5351 26.2491 58.4294 27.0752C59.0473 27.6482 59.4326 28.3329 59.4326 29.1366V29.5013C59.04 29.345 58.8437 28.958 58.7565 28.7199C58.7419 28.6603 58.7202 28.6008 58.6984 28.5413V28.5338C58.5456 28.132 58.2985 27.7747 57.9787 27.4473C57.1062 26.5766 55.6884 25.9887 54.1618 25.624L54.6345 25.2594ZM56.6884 54.7409C56.685 54.8286 56.6816 54.9167 56.6774 55.0048C56.4314 61.8097 57.7363 63.7583 58.302 64.6026C58.4545 64.8303 58.5532 64.9777 58.5532 65.1184L58.7932 53.6355C58.146 53.8959 57.4553 54.0522 56.7138 54.082C56.7036 54.2958 56.6967 54.5173 56.6884 54.7409ZM58.8147 52.6383C58.3796 52.8877 57.676 52.995 57.1362 53.0773L57.134 53.0777L56.9509 53.1059C56.8845 53.1163 56.822 53.1266 56.7646 53.1369C57.2807 44.8466 59.062 40.493 59.062 40.493L58.8147 52.6383ZM58.4367 40.5451C57.1281 39.2948 52.4389 38.2083 49.9963 38.2083C47.5607 38.2083 42.8642 39.3023 41.5629 40.5376C42.4282 41.7953 43.0752 44.1619 43.4968 47.027C45.0527 45.8735 48.7966 45.7768 49.9816 45.7768C51.1667 45.7768 54.9543 45.8735 56.4956 47.0493C56.9172 44.1768 57.5644 41.8028 58.4367 40.5451ZM43.3151 55.0048C43.562 61.8257 42.2456 63.772 41.6804 64.6078C41.5297 64.8307 41.4323 64.9746 41.4323 65.1109L41.1923 53.628C41.8466 53.8661 42.53 54.0224 43.2717 54.0671L43.3151 55.0048ZM43.2204 53.1071C42.7043 44.8317 40.9231 40.493 40.9231 40.493L41.1774 52.6308C41.646 52.8805 42.4148 52.991 42.9987 53.0748L43.2204 53.1071ZM41.5559 27.0752C42.4502 26.2491 43.8459 25.6538 45.3508 25.2594L45.8161 25.624C44.2968 25.9887 42.8791 26.5766 42.0065 27.4547C41.6867 27.7747 41.4397 28.132 41.2868 28.5413V28.5487L41.2712 28.5928L41.249 28.6636L41.2287 28.7273C41.1416 28.958 40.9453 29.345 40.5527 29.5087C40.5483 29.4305 40.5466 29.3574 40.5459 29.2864L40.5454 29.1366C40.5527 28.3329 40.9306 27.6557 41.5559 27.0752ZM40.3852 72.3743C40.3852 72.6943 40.4653 72.9771 40.6252 73.2227C41.1049 73.9892 42.3046 74.4357 43.8532 74.7036L43.3442 73.9594V73.952C43.2146 73.9239 43.0976 73.8936 42.9936 73.8599C42.905 73.8312 42.8254 73.8002 42.7553 73.766C42.1518 73.4832 41.7448 73.0143 41.4467 72.4264C41.1994 71.9501 41.0395 71.3771 40.9233 70.7743L40.3635 71.0794C40.3781 71.5036 40.3852 71.9352 40.3852 72.3743ZM49.9961 69.8589C44.9724 69.8589 42.9804 68.7203 42.7478 67.9017C43.3076 66.5175 43.7002 64.2403 43.9182 61.5612C44.5798 62.164 46.7609 62.3723 49.9814 62.3723C53.2529 62.3723 55.4484 62.1565 56.0737 61.5314C56.292 64.218 56.6845 66.5026 57.2443 67.9017C57.0117 68.7054 55.0195 69.8589 49.9961 69.8589ZM59.3671 73.2375C59.5197 72.9845 59.6069 72.7091 59.6069 72.3891C59.6069 71.9426 59.6142 71.4961 59.6362 71.1017L59.0764 70.7966C58.9599 71.3994 58.8 71.9575 58.5529 72.4487C58.2548 73.0366 57.8403 73.5129 57.2441 73.7882C57.0915 73.8552 56.8952 73.9147 56.6552 73.9743V73.9817L56.1464 74.7259C57.6877 74.458 58.8801 74.0115 59.3671 73.2375Z" fill="#DA6F25"/>
</svg>
