<svg width="100" height="100" viewBox="0 0 100 100" fill="none" xmlns="http://www.w3.org/2000/svg">
<path d="M21.8606 38.4606V57.634H26.8554V49.7391H29.9167V57.634H34.9115V38.4606H29.9167V45.4962H26.8554V38.4606H21.8606Z" fill="#DA6F25"/>
<path d="M65.0828 38.4606V57.634H72.3333C73.7833 57.634 74.9112 57.3744 75.7168 56.8553C76.5224 56.3182 77.1221 55.6111 77.516 54.7338C77.9278 53.8387 78.1784 52.8183 78.2679 51.6725C78.3574 50.5089 78.4022 49.3005 78.4022 48.0473C78.4022 46.7941 78.3574 45.5947 78.2679 44.4489C78.1784 43.2853 77.9278 42.2648 77.516 41.3876C77.1221 40.4925 76.5224 39.7853 75.7168 39.2662C74.9112 38.7291 73.7833 38.4606 72.3333 38.4606H65.0828ZM70.0775 54.0356V42.0589H71.0711C71.5545 42.0589 71.9394 42.1305 72.2258 42.2738C72.5123 42.3991 72.7271 42.6766 72.8703 43.1062C73.0314 43.5359 73.1299 44.1446 73.1657 44.9323C73.2194 45.72 73.2463 46.7583 73.2463 48.0473C73.2463 49.3363 73.2194 50.3746 73.1657 51.1623C73.1299 51.95 73.0314 52.5587 72.8703 52.9884C72.7271 53.418 72.5123 53.7045 72.2258 53.8477C71.9394 53.973 71.5545 54.0356 71.0711 54.0356H70.0775Z" fill="#DA6F25"/>
<path d="M26.9677 27.4263L26.183 27.3653C26.5346 22.8416 28.2013 18.9409 30.9931 16.0915C33.7848 13.2422 37.6068 11.5411 42.0391 11.1822L42.0988 11.9832C37.856 12.328 34.2067 13.9425 31.5471 16.657C28.8976 19.3749 27.3055 23.1028 26.9677 27.4263Z" fill="#DA6F25"/>
<path fill-rule="evenodd" clip-rule="evenodd" d="M34.5029 19.6737C36.5325 17.6024 39.3218 16.3621 42.5701 16.1017L42.5103 15.3007C39.0728 15.5752 36.114 16.8918 33.9456 19.1048C31.7808 21.3144 30.4907 24.348 30.2183 27.8461L31.0032 27.907C31.2617 24.5954 32.4668 21.7519 34.5029 19.6737ZM38.0264 23.2699C39.5779 21.6861 41.7004 20.7472 44.1773 20.5432L44.1174 19.7423C41.4546 19.9638 39.1528 20.9824 37.469 22.701C35.7849 24.4196 34.7803 26.7621 34.5698 29.4867L35.3547 29.5477C35.5513 27.0234 36.4746 24.8536 38.0264 23.2699Z" fill="#DA6F25"/>
<path d="M42.0987 87.0168L42.0389 87.8178C37.6066 87.4589 33.7847 85.7578 30.9929 82.9085C28.2012 80.0592 26.5344 76.1584 26.1828 71.6347L26.9676 71.5738C27.3054 75.9041 28.8873 79.6286 31.5469 82.3431C34.2099 85.0472 37.8626 86.6721 42.0987 87.0168Z" fill="#DA6F25"/>
<path fill-rule="evenodd" clip-rule="evenodd" d="M38.0261 75.7304C36.4743 74.1467 35.5544 71.9804 35.3544 69.4526L34.5698 69.5136C34.7868 72.2313 35.7849 74.5807 37.4687 76.2993C39.1525 78.0178 41.4477 79.0434 44.1171 79.258L44.1769 78.457C41.7036 78.2565 39.5778 77.3141 38.0261 75.7304ZM34.5026 79.3266C32.4731 77.2553 31.2578 74.4083 31.0026 71.0932L30.218 71.1542C30.487 74.6627 31.7768 77.6823 33.9453 79.8954C36.11 82.1051 39.0825 83.4216 42.5097 83.6995L42.5695 82.8986C39.3249 82.6347 36.5388 81.4047 34.5026 79.3266Z" fill="#DA6F25"/>
<path d="M73.564 27.4263L74.3488 27.3653C73.9971 22.8416 72.3304 18.9409 69.5387 16.0915C66.7469 13.2422 62.925 11.5411 58.4927 11.1822L58.4329 11.9832C62.6758 12.328 66.325 13.9425 68.9847 16.657C71.6341 19.3749 73.2262 23.1028 73.564 27.4263Z" fill="#DA6F25"/>
<path fill-rule="evenodd" clip-rule="evenodd" d="M66.029 19.6735C63.9995 17.6022 61.2102 16.3619 57.9619 16.1015L58.0217 15.3005C61.4592 15.5751 64.418 16.8916 66.5864 19.1047C68.7512 21.3143 70.0413 24.3478 70.3137 27.8459L69.5288 27.9069C69.2703 24.5952 68.0652 21.7518 66.029 19.6735ZM62.5056 23.2697C60.9541 21.686 58.8315 20.7471 56.3547 20.543L56.4145 19.7421C59.0774 19.9636 61.3791 20.9822 63.063 22.7008C64.7471 24.4194 65.7517 26.762 65.9622 29.4865L65.1772 29.5475C64.9807 27.0232 64.0574 24.8534 62.5056 23.2697Z" fill="#DA6F25"/>
<path d="M58.4328 87.0168L58.4926 87.8178C62.9249 87.4589 66.7468 85.7578 69.5386 82.9085C72.3303 80.0592 73.9971 76.1584 74.3487 71.6347L73.5639 71.5738C73.2261 75.9041 71.6442 79.6286 68.9846 82.3431C66.3216 85.0472 62.6689 86.6721 58.4328 87.0168Z" fill="#DA6F25"/>
<path fill-rule="evenodd" clip-rule="evenodd" d="M62.5056 75.7303C64.0573 74.1466 64.9772 71.9802 65.1772 69.4525L65.9619 69.5134C65.7448 72.2312 64.7468 74.5806 63.0629 76.2991C61.3791 78.0177 59.0839 79.0432 56.4145 79.2579L56.3547 78.4569C58.8281 78.2564 60.9538 77.314 62.5056 75.7303ZM66.0287 79.3264C68.0583 77.2551 69.2736 74.4082 69.5287 71.0931L70.3134 71.1541C70.0444 74.6626 68.7546 77.6822 66.5861 79.8953C64.4213 82.1049 61.4489 83.4215 58.0217 83.6994L57.9619 82.8985C61.2065 82.6346 63.9926 81.4046 66.0287 79.3264Z" fill="#DA6F25"/>
<path fill-rule="evenodd" clip-rule="evenodd" d="M61.6091 41.9719C61.3908 41.771 61.0857 41.5179 60.7148 41.3691C60.7004 38.9505 60.6784 36.7477 60.6494 34.9616V34.7607C60.6494 34.6545 60.6474 34.5484 60.6455 34.4443C60.6438 34.3439 60.642 34.2454 60.642 34.1505C60.642 33.9942 60.635 33.8379 60.635 33.689C60.635 33.5551 60.6276 33.436 60.6276 33.317V33.3021V33.1458C60.6276 33.0789 60.6259 33.0118 60.624 32.9448C60.622 32.8779 60.6203 32.8109 60.6203 32.7439C60.6169 32.6541 60.6149 32.5694 60.6132 32.4874L60.6125 32.4679C60.6108 32.3871 60.6093 32.3088 60.6057 32.2304C60.6057 32.1411 60.5986 32.0369 60.5986 31.9476C60.5913 31.7095 60.5839 31.4937 60.5766 31.3151C60.344 25.7188 55.7348 23.9252 50.7185 23.9252H49.5263C44.51 23.9252 39.9006 25.7188 39.6679 31.3151C39.6608 31.4714 39.6535 31.6574 39.6535 31.8509C39.6535 31.8864 39.6535 31.9218 39.6511 31.9572L39.6486 31.9867L39.6462 32.0072C39.6389 32.1783 39.6389 32.3644 39.6315 32.5579V32.6918C39.6279 32.7896 39.6262 32.8893 39.6242 32.9918V32.999V33.0057V33.0121C39.6225 33.1061 39.6208 33.2025 39.6171 33.3021V33.4286C39.6171 33.5477 39.6098 33.6816 39.6098 33.8007C39.6098 33.8638 39.6086 33.9281 39.6071 33.9932L39.6057 34.0529L39.6049 34.08C39.6037 34.1478 39.6025 34.2161 39.6025 34.2844C39.6025 34.4407 39.5954 34.597 39.5954 34.7458V34.9542C39.5734 36.8444 39.5444 39.2184 39.5227 41.8082C39.0791 41.9272 38.6865 42.2473 38.4321 42.4854C37.945 42.9245 37.8942 43.9291 38.4975 44.145C38.7666 44.145 39.1445 43.9738 39.5153 43.7282C39.4572 53.0306 39.4499 64.3424 39.4499 67.468V68.309C40.0244 68.8522 40.1914 72.1639 40.1914 72.603C40.1914 74.9397 45.0334 75.7583 49.5407 75.7583H50.7331C55.2331 75.7583 60.0822 74.9397 60.0822 72.603C60.0822 72.1713 60.2495 68.8522 60.8239 68.309V68.2197V67.468C60.8239 64.2977 60.8166 52.7032 60.7512 43.3338C60.8554 43.3947 60.957 43.4478 61.0546 43.4914C61.1496 43.5338 61.2409 43.5671 61.3271 43.5898C61.4118 43.6121 61.4917 43.624 61.5654 43.624C62.1543 43.4305 62.0961 42.4333 61.6091 41.9719ZM54.7607 25.1011C56.2656 25.4955 57.6613 26.0909 58.5556 26.917C59.1735 27.49 59.5588 28.1747 59.5588 28.9784V29.343C59.1662 29.1868 58.9699 28.7998 58.8828 28.5616C58.8681 28.5021 58.8464 28.4426 58.8247 28.3831V28.3756C58.6718 27.9737 58.4248 27.6165 58.1049 27.2891C57.2324 26.4183 55.8147 25.8304 54.288 25.4658L54.7607 25.1011ZM56.84 53.9238C56.8256 54.2214 56.8183 54.534 56.8037 54.8466C56.5576 61.6514 57.8625 63.6 58.4282 64.4443C58.5808 64.6721 58.6794 64.8195 58.6794 64.9601L58.9194 53.4772C58.2722 53.7377 57.5815 53.894 56.84 53.9238ZM58.9409 52.4801C58.5058 52.7295 57.8024 52.8367 57.2624 52.9191C57.1257 52.9399 56.9995 52.9592 56.8908 52.9787C57.4069 44.6884 59.1882 40.3348 59.1882 40.3348L58.9409 52.4801ZM58.5629 40.3869C57.2544 39.1367 52.5651 38.0501 50.1225 38.0501C47.687 38.0501 42.9904 39.1441 41.6892 40.3795C42.5544 41.6371 43.2014 44.0037 43.623 46.8688C45.1789 45.7153 48.9228 45.6185 50.1079 45.6185C51.2929 45.6185 55.0805 45.7153 56.6218 46.8911C57.0434 44.0186 57.6906 41.6446 58.5629 40.3869ZM43.4414 54.8466C43.6882 61.6675 42.3718 63.6138 41.8066 64.4496C41.656 64.6725 41.5586 64.8165 41.5586 64.9528L41.3186 53.4698C41.9729 53.708 42.6562 53.8643 43.3979 53.9089L43.4414 54.8466ZM43.3466 52.9489C42.8305 44.6735 41.0493 40.3348 41.0493 40.3348L41.3037 52.4727C41.8344 52.7554 42.7504 52.8596 43.3466 52.9489ZM41.6821 26.917C42.5764 26.0909 43.9721 25.4955 45.477 25.1011L45.9423 25.4658C44.4231 25.8304 43.0053 26.4183 42.1328 27.2965C41.8129 27.6165 41.5659 27.9737 41.413 28.3831V28.3904C41.3913 28.45 41.3767 28.5021 41.3549 28.5691C41.2678 28.7998 41.0715 29.1868 40.6789 29.3505C40.6743 29.2675 40.6726 29.1901 40.6721 29.1149L40.6716 28.9784C40.6789 28.1747 41.0568 27.4974 41.6821 26.917ZM40.5114 72.2161C40.5114 72.5361 40.5915 72.8189 40.7514 73.0645C41.2312 73.831 42.4309 74.2775 43.9794 74.5454L43.4704 73.8012V73.7938C43.2304 73.7417 43.0341 73.6822 42.8815 73.6077C42.278 73.325 41.8711 72.8561 41.573 72.2682C41.3256 71.7919 41.1657 71.2189 41.0495 70.6161L40.4897 70.9212L40.499 71.2221L40.5039 71.4398L40.5063 71.5697C40.5097 71.7834 40.5114 71.9988 40.5114 72.2161ZM50.1223 69.7007C45.0986 69.7007 43.1066 68.5621 42.874 67.7435C43.4338 66.3593 43.8264 64.082 44.0444 61.403C44.706 62.0057 46.8872 62.2141 50.1076 62.2141C53.3791 62.2141 55.5747 61.9983 56.1999 61.3732C56.4182 64.0597 56.8107 66.3444 57.3706 67.7435C57.1379 68.5472 55.1457 69.7007 50.1223 69.7007ZM59.4934 73.0793C59.646 72.8263 59.7331 72.551 59.7331 72.231C59.7331 71.9586 59.7358 71.6862 59.7429 71.4256C59.7475 71.259 59.7539 71.0973 59.7624 70.9435L59.2026 70.6384C59.0861 71.2411 58.9262 71.7993 58.6792 72.2905C58.3811 72.8784 57.9665 73.3547 57.3703 73.63C57.2177 73.697 57.0214 73.7565 56.7815 73.8161V73.8235L56.2727 74.5677C57.8139 74.2998 59.0063 73.8533 59.4934 73.0793Z" fill="#DA6F25"/>
</svg>
