<svg width="100" height="100" viewBox="0 0 100 100" fill="none" xmlns="http://www.w3.org/2000/svg">
<path fill-rule="evenodd" clip-rule="evenodd" d="M26.1047 31.1759C26.1047 21.162 34.2327 13 44.2271 13C54.2112 13 62.3491 21.162 62.3291 31.1658C62.3291 36.369 60.1016 41.3407 56.208 44.7927L54.8232 43.2227L51.9736 40.3645L54.0508 38.2812L56.5593 40.7972C58.3855 38.4322 59.5095 35.6041 59.7905 32.6251H55.8066V29.6864H59.7905C59.4895 26.496 58.2451 23.5875 56.3286 21.2426L53.9302 23.6479L51.8533 21.5646L54.2615 19.1492C51.8833 17.1464 48.9131 15.8481 45.6619 15.5362V19.1693H42.7319V15.5362C39.4404 15.8481 36.4402 17.1867 34.052 19.2297L36.9019 22.0779L34.8247 24.1612L32.0251 21.3533C30.1587 23.6882 28.9446 26.5665 28.6436 29.7065H32.0251V32.6453H28.6436C28.9143 35.584 30.0181 38.3818 31.7942 40.7167L34.2026 38.3013L36.2798 40.3846L33.0586 43.6152L33.0486 43.6052L32.0852 44.6719C28.2822 41.23 26.1047 36.3086 26.1047 31.1759ZM13.05 40.6564L14.6355 44.7424L20.636 42.3672L21.9307 45.6985L25.2419 38.4423L17.8364 35.1714L19.0505 38.2913L13.05 40.6564Z" fill="#DA6F25"/>
<path fill-rule="evenodd" clip-rule="evenodd" d="M41.2666 30.6727C41.5074 29.2435 42.7417 28.1667 44.2269 28.1667C45.8824 28.1667 47.2271 29.5253 47.2171 31.1859C47.2171 32.8466 45.8724 34.1951 44.2166 34.1951C43.4642 34.1951 42.7718 33.9133 42.2398 33.4504L32.9881 37.2849L31.8743 34.5675L41.2666 30.6727ZM76.7081 70.3658L85.9297 67.8699L86.8025 70.9696L30.1983 86.2672L29.3653 83.1372L39.5003 80.3998C38.1856 80.0375 36.9915 79.2726 36.0784 78.1957L35.5367 78.2963C35.4061 78.3165 35.2757 78.3265 35.1453 78.3265C35.065 78.3265 34.9847 78.3265 34.9043 78.3165L33.1385 78.1152C32.7771 78.085 32.4258 77.9441 32.1148 77.7327L29.4656 75.8608C29.0643 75.579 28.7632 75.1563 28.6228 74.6833C28.5525 74.4619 27.9705 72.4692 27.8602 72.0465C27.8602 72.0415 27.8577 72.0364 27.855 72.0314C27.8526 72.0264 27.8501 72.0214 27.8501 72.0163C27.7698 71.6842 27.7498 71.3521 27.8201 71.02C27.8904 70.5469 28.0108 70.1746 28.1412 69.8625C28.2415 69.0574 28.4925 67.4975 28.8838 66.4709C29.1145 65.8168 29.6263 65.3135 30.3187 64.8104C30.9207 64.3676 31.6934 63.8845 32.5865 63.4014C34.1419 62.556 36.7908 61.308 40.7344 60.0601C43.1263 56.9441 44.8152 54.5081 45.2352 53.9022L45.3201 53.78C46.6145 51.7571 47.8187 51.1734 49.2537 50.6098C49.2669 50.6053 49.2781 50.6029 49.2884 50.6006C49.3013 50.5978 49.3128 50.5953 49.324 50.5897C53.357 49.161 67.4852 45.4031 71.1316 44.4332C71.595 44.3099 71.8892 44.2317 71.9717 44.209C72.1624 44.1486 72.3431 44.1285 72.5337 44.1285C72.7645 44.1285 72.9852 44.1688 73.2059 44.2392C73.2342 44.2473 73.2754 44.257 73.3377 44.2717C73.43 44.2934 73.5682 44.3259 73.7779 44.3801L73.8108 44.389C74.0389 44.4507 74.4405 44.5594 74.8416 44.9235L74.8482 44.9302C74.8694 44.9515 74.8877 44.9699 74.9056 44.9887C75.0091 45.0977 75.0994 45.2193 75.6644 45.9803C76.3868 46.9666 78.4239 49.7343 79.1163 50.6501C79.2869 50.7809 79.4573 50.9319 79.608 51.1231C79.8487 51.4149 79.9893 51.737 80.22 52.4314C80.2249 52.4465 80.23 52.4666 80.2349 52.4867L80.2371 52.4954L80.2383 52.5C80.2422 52.5155 80.2461 52.5304 80.25 52.5421L80.4407 53.2567C81.4241 56.125 81.5445 56.4772 81.5748 56.5779V56.598V56.6181L82.1065 58.6008L82.4578 59.9091C82.8389 61.3281 82.5582 63.2705 81.073 64.4178C80.5411 64.8305 79.6883 65.2431 79.0059 65.5249C78.9622 65.554 78.9117 65.5832 78.8553 65.6157L78.8519 65.6177L78.8443 65.6221C78.7867 65.6554 78.7227 65.6922 78.6546 65.7363C78.5945 67.0144 78.2232 68.2624 77.5508 69.309C77.3001 69.6915 77.0191 70.0437 76.7081 70.3658ZM37.002 75.7099L35.9786 75.9816V75.9917L35.1055 76.1426L33.3394 75.9413L30.6905 74.0694C30.6905 74.0694 30.0481 71.8754 29.9478 71.4829C29.9478 71.4779 29.9454 71.4729 29.9429 71.4679C29.9402 71.4628 29.9378 71.4578 29.9378 71.4528C30.0181 70.7885 30.2188 70.557 30.2188 70.557C30.2188 70.557 30.4695 68.2624 30.9012 67.2258C30.9915 66.8534 34.2525 64.3273 41.9993 61.9521C44.7889 58.3376 46.7283 55.5259 47.0572 55.0491L47.1067 54.9777C48.0298 53.4982 48.7525 53.1259 49.9966 52.6428C54.5123 51.0426 72.4739 46.3124 72.4739 46.3124C72.4839 46.3225 73.2967 46.5238 73.2967 46.5238C73.2986 46.5257 73.4524 46.7345 73.7007 47.0718L73.7994 47.2059C74.9246 48.735 77.552 52.3049 77.5914 52.3207C77.6917 52.3409 77.782 52.4113 77.8523 52.5019C77.9227 52.5824 78.0831 53.1058 78.0831 53.1058L78.2937 53.8706L78.304 53.8907C78.304 53.8907 79.4278 57.1616 79.4278 57.1717C79.5281 57.5541 80.1702 59.9494 80.3208 60.4727C80.4612 60.986 80.4712 62.0629 79.7188 62.6567C79.2471 63.0291 78.0027 63.5322 78.0027 63.5322C77.9227 63.5725 76.4175 64.4783 76.4175 64.4783L76.4375 65.0821C76.5879 67.2862 75.3338 69.3192 73.3367 69.8525C72.9957 69.9431 72.6546 69.9834 72.3233 69.9834C70.6678 69.9834 69.0823 68.9266 68.2793 67.2761L50.418 72.0868L47.0967 72.9825L46.8157 73.063L46.274 73.2039L45.1702 73.5059C45.3306 75.72 44.0865 77.763 42.0794 78.2964C41.7383 78.387 41.3973 78.4272 41.066 78.4272C39.4102 78.4373 37.8248 77.3806 37.002 75.7099ZM47.2671 75.2268C47.1065 76.1225 46.7754 76.978 46.3038 77.7227C46.0528 78.1252 45.7518 78.4875 45.4107 78.7996L70.6775 71.9761C70.0052 71.7849 69.3628 71.4829 68.7608 71.0904C68.2391 70.7382 67.7574 70.3054 67.336 69.8223L50.9898 74.2204L47.6685 75.1161L47.3875 75.1966L47.2671 75.2268Z" fill="#DA6F25"/>
</svg>
