<svg width="100" height="100" viewBox="0 0 100 100" fill="none" xmlns="http://www.w3.org/2000/svg">
<path fill-rule="evenodd" clip-rule="evenodd" d="M83.7764 47.096C83.8867 47.1866 83.957 47.3074 83.9871 47.4482C84.0061 47.5309 83.9771 47.8461 83.9604 48.0648C83.9509 48.1925 83.9458 48.2873 83.957 48.2836L83.7764 49.3V49.3302C83.7764 49.3302 83.2947 53.8088 83.2947 53.8189C83.2043 54.3321 82.6323 57.5124 82.512 58.1968C82.3916 58.8912 81.8196 60.1593 80.5854 60.431C79.8127 60.6122 78.0767 60.5115 78.0767 60.5115C77.9663 60.5216 75.6885 60.7531 75.6885 60.7531L75.3674 61.4777C74.5847 63.4805 72.9189 64.9398 71.0325 65.3323L82.9736 67.4659L82.9636 68.1402H15.0403L15.0503 55.2883L25.8574 57.2306C24.1816 56.194 23.0979 54.2315 23.0779 52.0275L21.7231 51.7859V51.7959L20.6094 51.4941L18.6426 50.2864L16.5554 46.6028C16.5554 46.6028 17.0071 43.6742 17.1074 43.1408C17.1074 43.129 17.1108 43.1172 17.1138 43.1074C17.1157 43.1005 17.1174 43.0946 17.1174 43.0904H17.1274C17.5891 42.3457 17.9602 42.2048 17.9602 42.2048C17.9602 42.2048 19.5256 39.6284 20.5994 38.6622C20.9104 38.2697 26.1584 37.1124 36.5742 38.632C42.364 35.6731 46.428 33.2779 46.438 33.2678C48.3447 32.05 49.3982 32.0098 51.1243 32.1306C57.3254 32.7646 81.0771 37.1828 81.0771 37.1828C81.0872 37.213 81.9299 37.8873 81.9299 37.8873C81.9299 37.9175 83.7361 47.0558 83.7764 47.096ZM33.905 53.98C33.1223 56.0331 31.4365 57.5025 29.51 57.8849L67.2495 64.6481C65.604 63.6316 64.5503 61.6892 64.5203 59.5153L40.8489 55.238L36.4539 54.443L36.0825 54.3725L35.3701 54.2417L33.905 53.98Z" fill="#DA6F25"/>
</svg>
