<svg width="101" height="100" viewBox="0 0 101 100" fill="none" xmlns="http://www.w3.org/2000/svg">
<path d="M62.6979 48.34L61.865 47.6254C65.7182 43.0965 67.7653 37.9235 67.7653 32.67C67.7653 27.4165 65.7182 22.2436 61.865 17.7147L62.6979 17.0001C66.7317 21.7303 68.859 27.1549 68.859 32.6801C68.859 38.1852 66.7317 43.6098 62.6979 48.34Z" fill="#DA6F25"/>
<path fill-rule="evenodd" clip-rule="evenodd" d="M57.4094 44.103L58.2422 44.8175C61.363 41.1541 63.0288 36.9574 63.0188 32.67C63.0188 28.3928 61.363 24.1859 58.2422 20.5226L57.4094 21.2372C60.3596 24.6992 61.925 28.6443 61.925 32.67C61.925 36.6857 60.3696 40.6409 57.4094 44.103ZM51.519 41.3856L52.3518 42.1001C54.7803 39.262 56.0547 36.0012 56.0547 32.6801C56.0547 29.3488 54.7803 26.088 52.3518 23.2399L51.519 23.9545C53.7769 26.5812 54.9609 29.6004 54.9609 32.67C54.9609 35.7295 53.7769 38.7387 51.519 41.3856Z" fill="#DA6F25"/>
<path d="M64.4939 50.705L63.7815 49.8696C68.4977 45.8239 73.9063 43.6902 79.4152 43.6902C84.9241 43.6902 90.3327 45.8239 95.0489 49.8696L94.3364 50.705C89.8209 46.8403 84.6632 44.7872 79.4252 44.7872C74.1672 44.7973 69.0094 46.8303 64.4939 50.705Z" fill="#DA6F25"/>
<path fill-rule="evenodd" clip-rule="evenodd" d="M79.415 50.6345C83.4187 50.6345 87.3623 52.1945 90.8142 55.1634L91.5266 54.3281C87.874 51.188 83.6897 49.5375 79.415 49.5375C75.1504 49.5375 70.9561 51.1981 67.3035 54.3281L68.0159 55.1634C71.4678 52.2045 75.4014 50.6345 79.415 50.6345ZM79.4153 57.6191C82.4658 57.6191 85.4661 58.8067 88.105 61.0712L88.8376 60.2358C85.9978 57.8104 82.7466 56.5222 79.4253 56.5222C76.1038 56.5222 72.8528 57.8003 70.0129 60.2358L70.7253 61.0712C73.3445 58.8067 76.3647 57.6191 79.4153 57.6191Z" fill="#DA6F25"/>
<path d="M59.8381 82.7795H57.8613V54.1771H5.08008V52.1945H59.8381" fill="#DA6F25"/>
<path fill-rule="evenodd" clip-rule="evenodd" d="M74.1675 37.0781L83.9512 19.5664L94.4973 37.0781H74.1675ZM92.9421 36.2026L84.0015 21.368L75.7129 36.2026H92.9421Z" fill="#DA6F25"/>
<path fill-rule="evenodd" clip-rule="evenodd" d="M84.905 25.2628H83.1892V32.2373H84.905V25.2628ZM84.0417 33.294C84.3528 33.294 84.6135 33.4047 84.8445 33.6161C85.0752 33.8274 85.1956 34.079 85.1855 34.391C85.1855 34.703 85.0652 34.9647 84.8445 35.1861C84.6135 35.4075 84.3528 35.5182 84.0317 35.5182C83.8711 35.5182 83.7305 35.4779 83.5901 35.4276C83.4597 35.3773 83.3394 35.2968 83.2288 35.1961C83.1184 35.1055 83.0483 34.9848 82.978 34.8539C82.9177 34.7231 82.8877 34.5721 82.8877 34.4212C82.8877 34.1092 83.0081 33.8475 83.2288 33.6261C83.4597 33.4047 83.7205 33.294 84.0417 33.294Z" fill="#DA6F25"/>
<path fill-rule="evenodd" clip-rule="evenodd" d="M45.8503 23.0889C45.72 23.0788 45.5693 23.0788 45.3989 23.0788H45.2683C45.2004 23.0788 45.1255 23.0764 45.0481 23.074L45.0452 23.0739C44.9634 23.0713 44.8787 23.0688 44.7969 23.0688H44.6863C44.6084 23.0688 44.5283 23.0664 44.4456 23.064L44.4414 23.0639C44.3552 23.0613 44.2661 23.0587 44.1746 23.0587H44.0642C43.9639 23.0587 43.8535 23.0587 43.7432 23.0486C43.6128 23.0486 43.4722 23.0486 43.3318 23.0386C43.2012 23.0386 43.0708 23.0386 42.9404 23.0285H42.7498C41.1443 23.0083 39.1375 22.9882 36.9397 22.9782C36.8394 22.5957 36.5686 22.2536 36.3679 22.0321C35.9966 21.6094 35.1436 21.5591 34.9629 22.0824C34.9629 22.324 35.1035 22.646 35.3142 22.9682C27.427 22.9279 17.8142 22.9178 15.165 22.9178H14.4526C13.991 23.4109 11.1814 23.5719 10.8 23.5719C8.82324 23.5719 8.13086 27.7989 8.13086 31.7139V32.7404C8.13086 36.6654 8.82324 40.8824 10.8 40.8824C11.1714 40.8824 13.991 41.0333 14.4526 41.5365H15.175C17.8643 41.5365 27.708 41.5265 35.6655 41.4862C35.5149 41.7478 35.4146 41.9995 35.4146 42.2008C35.6052 42.6939 36.448 42.6436 36.8193 42.2209C36.98 42.0296 37.2007 41.7579 37.3311 41.446C39.3882 41.4359 41.2546 41.4157 42.7598 41.3956H42.9404C43.0291 41.3956 43.115 41.3932 43.1987 41.3907L43.2036 41.3906L43.2078 41.3905L43.2112 41.3904C43.2939 41.3879 43.3743 41.3855 43.4521 41.3855C43.5825 41.3855 43.7131 41.3855 43.8435 41.3755C43.9539 41.3755 44.0542 41.3755 44.1646 41.3654H44.3052C44.4155 41.3654 44.5359 41.3654 44.6462 41.3554C44.7244 41.3554 44.8022 41.3527 44.8774 41.3501C44.9473 41.3476 45.0149 41.3453 45.0776 41.3453C45.158 41.3453 45.2383 41.3453 45.3186 41.3352C45.4133 41.3305 45.5037 41.328 45.5896 41.3256L45.5928 41.3255L45.5964 41.3254C45.6895 41.3228 45.7776 41.3203 45.8604 41.3151C50.6067 41.1138 52.1321 37.0882 52.1321 32.7304V31.6938C52.1218 27.3058 50.6067 23.2902 45.8503 23.0889ZM38.1836 24.2867C38.1936 24.2967 34.501 25.8466 27.4768 26.2995L27.4924 26.1814C27.561 25.6624 27.6558 24.9468 27.8882 24.5081L38.1836 24.2867ZM26.6641 26.3497C26.7043 25.6955 26.8347 25.0917 27.0454 24.5281L17.292 24.7394C17.4084 24.7394 17.531 24.8245 17.7209 24.9562C18.4316 25.4489 20.0835 26.5943 25.8713 26.3799L26.6641 26.3497ZM12.2346 40.5905C11.8835 40.5805 11.5122 40.5805 11.1309 40.5805C10.8599 40.5805 10.6292 40.5 10.4185 40.3692C9.7561 39.9464 9.38477 38.8998 9.15405 37.5612L9.77612 38.0041C9.81641 38.2154 9.87646 38.3865 9.93677 38.5073C10.1775 39.0205 10.5789 39.3929 11.0706 39.6446C11.4922 39.8559 11.9636 39.9968 12.4753 40.1075L12.2346 40.5905ZM9.94702 25.8868C10.1777 25.3634 10.5891 25.0011 11.0808 24.7495C11.5024 24.5281 11.9739 24.3872 12.4958 24.2865L12.2449 23.8035C11.8835 23.8135 11.5125 23.8236 11.1411 23.8236C10.8801 23.8236 10.6394 23.9041 10.4287 24.0349C9.76636 24.4677 9.38501 25.4943 9.16431 26.8328L9.78638 26.39C9.83667 26.1988 9.89673 26.0176 9.94702 25.8868ZM14.9441 38.4972C14.2517 38.316 13.2883 36.5749 13.2883 32.2071C13.2883 27.8291 14.2517 26.088 14.9441 25.8867C16.1182 26.3799 18.0547 26.7221 20.3325 26.9032C19.8208 27.4769 19.6401 29.3689 19.6401 32.1869C19.6401 35.0049 19.8108 36.907 20.3325 37.4807C18.0547 37.6719 16.1182 38.0141 14.9441 38.4972ZM26.6643 38.0443L25.8918 38.0141C20.0959 37.8076 18.4424 38.9484 17.7314 39.4388C17.5413 39.5699 17.4187 39.6546 17.3022 39.6546L27.0457 39.8659C26.8149 39.2923 26.6846 38.6985 26.6643 38.0443ZM27.5046 38.4021L27.5042 38.3982C27.4875 38.2862 27.4722 38.1833 27.4568 38.0946C34.491 38.5576 38.1936 40.1075 38.1936 40.1075L27.8882 39.8861C27.6699 39.5047 27.5754 38.8746 27.5046 38.4021ZM32.6348 37.8531C35.063 38.2255 37.0801 38.779 38.1438 39.5439C39.1973 38.4066 40.1204 34.3307 40.1204 32.1971C40.1204 30.0634 39.2073 25.9875 38.1438 24.8401C37.0801 25.5949 35.063 26.1585 32.6348 26.5309C33.6282 27.8795 33.7085 31.1604 33.7085 32.187C33.7085 33.2135 33.6282 36.5045 32.6348 37.8531ZM49.583 39.5539C49.1013 40.0974 48.5193 40.4295 47.8369 40.4295H47.5259C47.6562 40.0873 47.9875 39.9162 48.1882 39.8357C48.2383 39.8257 48.2886 39.8055 48.3386 39.7854C48.6799 39.6546 48.991 39.4432 49.2517 39.1715C49.9944 38.4267 50.5061 37.1889 50.8171 35.8604L51.1282 36.2529C50.7971 37.5612 50.2854 38.779 49.583 39.5539ZM49.2517 25.2326C50.0044 25.9975 50.5061 27.2354 50.8171 28.5539L51.1182 28.1714C50.7871 26.853 50.2854 25.6453 49.583 24.8603C49.1013 24.3168 48.5193 23.9846 47.8369 23.9846C47.7805 23.9846 47.7266 23.9821 47.6741 23.9795L47.6699 23.9793L47.6663 23.9792C47.6187 23.9768 47.5723 23.9746 47.5259 23.9746C47.6562 24.3168 47.9875 24.4879 48.1882 24.5684C48.2134 24.5784 48.2383 24.586 48.2634 24.5935C48.2886 24.6011 48.3135 24.6087 48.3386 24.6188C48.6799 24.7395 48.981 24.961 49.2517 25.2326ZM89.5703 76.1171C89.3796 75.946 89.1086 75.7246 88.7876 75.6039L88.7732 73.9906L88.7729 73.9522L88.7727 73.9121L88.7722 73.8701C88.76 72.4726 88.7488 71.1984 88.7275 70.0987V69.9276C88.7275 69.849 88.7256 69.7721 88.7234 69.6964L88.7229 69.677L88.7224 69.6585C88.7197 69.573 88.7173 69.4886 88.7173 69.4043C88.7173 69.3473 88.7153 69.2884 88.7131 69.2301L88.7126 69.2144L88.7122 69.2003L88.7119 69.1962L88.7112 69.1745L88.7109 69.1703C88.7092 69.1154 88.7073 69.0619 88.7073 69.0118C88.7073 68.9011 88.7073 68.7904 88.6973 68.6998V68.6897V68.5589C88.6973 68.5107 88.6953 68.4586 88.6931 68.4069L88.6926 68.3924L88.6921 68.3798L88.6919 68.3755L88.6912 68.3551L88.6909 68.35C88.689 68.3029 88.6873 68.2574 88.6873 68.2167C88.6873 68.1335 88.6846 68.0557 88.6819 67.9804L88.6812 67.9563L88.6809 67.9517L88.6802 67.9287C88.6787 67.8764 88.6772 67.8251 88.6772 67.7739C88.6772 67.6934 88.6772 67.6028 88.6672 67.5324C88.6631 67.448 88.6606 67.3672 88.6582 67.2892L88.658 67.2776L88.6577 67.2665L88.6575 67.2558C88.655 67.1598 88.6523 67.068 88.6472 66.9789C88.4465 62.1681 84.4026 60.6384 80.0076 60.6384H78.9539C74.5588 60.6384 70.5149 62.1782 70.3142 66.9789C70.3091 67.0473 70.3064 67.1241 70.304 67.2047L70.3037 67.214L70.3035 67.223L70.3032 67.2318C70.3008 67.297 70.2983 67.3643 70.2942 67.4317V67.5625C70.2842 67.7135 70.2842 67.8745 70.2842 68.0356V68.1362C70.2842 68.2172 70.2817 68.2981 70.2793 68.3801V68.3835V68.3869V68.3904L70.2788 68.4089L70.2783 68.4283C70.2761 68.504 70.2742 68.5808 70.2742 68.6595V68.7702C70.2742 68.8709 70.2742 68.9816 70.2639 69.0923C70.2639 69.1474 70.262 69.2043 70.26 69.2622V69.2655L70.2593 69.2871L70.259 69.291L70.2585 69.3055L70.2581 69.3211C70.2559 69.3818 70.2539 69.4433 70.2539 69.5049C70.2539 69.6358 70.2539 69.7666 70.2439 69.8974V70.0786C70.2227 71.2384 70.2114 72.6096 70.199 74.1148L70.1987 74.1562L70.1985 74.1965L70.1982 74.2356L70.1838 75.9662C69.7925 76.0668 69.4512 76.3385 69.2305 76.5498C68.8091 76.9222 68.7588 77.7878 69.2808 77.979C69.5215 77.979 69.8525 77.828 70.1738 77.6167C70.1687 78.2133 70.166 78.8232 70.1633 79.4395V79.4569V79.4737V79.49C70.1609 80.063 70.1584 80.6413 70.1536 81.2196H71.679L71.5383 74.7081C71.5374 74.7081 71.5444 74.7269 71.5586 74.7644C71.6975 75.1345 72.5198 77.3264 73.0938 81.2196H85.8577C86.4897 76.9323 87.4128 74.7081 87.4128 74.7081L87.2725 81.2196H88.7776C88.7727 80.558 88.77 79.8988 88.7676 79.2469C88.7651 78.58 88.7627 77.9209 88.7576 77.2745C89.0186 77.4254 89.2693 77.5261 89.47 77.5261C90.042 77.355 89.9917 76.4895 89.5703 76.1171ZM71.2271 65.2478C71.5681 65.117 71.7388 64.7849 71.8191 64.5836C71.8337 64.5541 71.843 64.5193 71.8547 64.4751L71.8691 64.4226C72.0098 64.0804 72.2205 63.7684 72.5015 63.4967C73.2642 62.7419 74.5083 62.2386 75.8328 61.9267L75.4314 61.6147C74.1169 61.9568 72.8928 62.4601 72.1101 63.1746C71.5681 63.6678 71.2371 64.2515 71.2371 64.9459C71.2371 65.0566 71.2371 65.1573 71.2271 65.2478ZM85.2053 80.344C83.8506 79.3376 80.5393 79.2571 79.4958 79.2571C78.4622 79.2571 75.1709 79.3376 73.8062 80.334C73.4348 77.8683 72.873 75.8353 72.1003 74.7483C73.2444 73.6815 77.3584 72.7355 79.4958 72.7355C81.6431 72.7355 85.7371 73.6614 86.8911 74.7483C86.1387 75.8353 85.5767 77.8783 85.2053 80.344ZM87.1819 64.6137C87.2622 64.805 87.4329 65.1371 87.7739 65.278V64.966C87.7739 64.2716 87.4429 63.6878 86.9011 63.1947C86.1284 62.4902 84.9041 61.9769 83.5796 61.6347L83.1782 61.9467C84.5027 62.2587 85.7471 62.7619 86.4995 63.5368C86.7805 63.8086 87.0015 64.1206 87.1318 64.4627C87.1418 64.4879 87.1494 64.5131 87.1567 64.5382C87.1643 64.5634 87.1719 64.5885 87.1819 64.6137Z" fill="#DA6F25"/>
</svg>
