<svg width="100" height="100" viewBox="0 0 100 100" fill="none" xmlns="http://www.w3.org/2000/svg">
<path fill-rule="evenodd" clip-rule="evenodd" d="M77.3901 31.6003L83.4409 35.2637L78.0225 44.2108L82.9595 47.2099L70.4966 50.4908L67.3257 37.7395L71.9617 40.5374L77.3901 31.6003ZM27.6694 74.8361C27.6694 60.0518 39.6606 48.015 54.4114 48.015C69.1619 48.015 81.1531 60.0417 81.1631 74.8058C81.1631 76.5872 80.9924 78.3182 80.6614 79.9889H72.7441V77.1709H78.5742C78.6545 76.396 78.6946 75.611 78.6946 74.8159C78.6946 71.5753 78.0725 68.4855 76.9185 65.6475L72.373 67.6804L71.3494 65.3757L75.845 63.3729C74.2192 60.3436 71.9717 57.6867 69.2822 55.5933L66.272 59.7297L64.2351 58.2402L67.2153 54.1542C63.8337 52.0608 59.9202 50.7625 55.7258 50.5411V55.5632H53.1169V50.5411C48.842 50.7625 44.8684 52.1011 41.4568 54.2649L53.0366 70.2166C53.468 70.0757 53.9297 69.9952 54.4114 69.9952C56.8696 69.9952 58.8564 71.9879 58.8564 74.4536C58.8564 76.9193 56.8596 78.912 54.4114 78.912C51.9529 78.912 49.9661 76.9092 49.9661 74.4536C49.9661 73.3767 50.3372 72.3904 50.9795 71.6155L39.4197 55.694C36.7908 57.7672 34.6033 60.3638 33.0078 63.3428L37.5935 65.3858L36.5701 67.6905L31.9441 65.6273C30.78 68.4755 30.1379 71.5853 30.1379 74.8461C30.1379 75.6311 30.178 76.4261 30.2583 77.2011H35.6367V80.0191H28.1711C27.8501 78.3384 27.6694 76.6073 27.6694 74.8361Z" fill="#DA6F25"/>
<path fill-rule="evenodd" clip-rule="evenodd" d="M22.0505 19.0403H45.0093C48.3408 19.0403 51.0601 21.7677 51.0601 25.0989V44.2108C36.8013 45.7204 25.4221 56.8816 23.5356 71.062H22.0505C18.719 71.062 15.9998 68.3346 15.9998 64.9933V25.109C15.9998 21.7677 18.719 19.0403 22.0505 19.0403ZM17.8054 65.6273L19.8826 64.017V27.3231C19.8826 24.9379 21.7087 22.9955 23.9565 22.9955H43.3533C45.6008 22.9955 47.4272 24.9379 47.4272 27.3231V42.2482L49.5044 41.8456V27.3231C49.5044 23.7905 46.7449 20.9222 43.3533 20.9222H23.9565C20.5649 20.9222 17.8054 23.7905 17.8054 27.3231V65.6273ZM22.512 47.3206H25.1812V47.7936C25.1812 49.1019 25.8936 50.2693 27.479 50.2693C29.4258 50.2693 29.9675 48.337 29.9675 46.2839C29.9675 44.251 29.4258 42.5501 27.6194 42.5501C26.4355 42.5501 25.5725 43.1942 25.3215 44.1604L22.833 44.0598L23.696 34.8712H32.115V37.1255H25.7932L25.2212 41.7349L25.2715 41.7852C26.0139 40.9399 27.0776 40.4266 28.2114 40.4266C31.864 40.4266 32.7771 43.5264 32.7771 46.2236C32.7771 49.736 31.1716 52.413 27.3987 52.413C24.2881 52.413 22.512 50.8027 22.512 47.713V47.3206ZM39.47 42.54C40.5137 42.54 41.1357 43.1238 41.4768 44.0094L44.0457 42.9527C43.4336 41.5034 42.2295 40.4165 40.062 40.4165C38.9282 40.4165 37.8645 40.9298 37.1221 41.7751L37.0718 41.7249L37.6438 37.1155H43.9656V34.8611H35.5466L34.6836 44.0497L37.1721 44.1503C37.4231 43.1841 38.2859 42.54 39.47 42.54Z" fill="#DA6F25"/>
</svg>
