<svg width="100" height="100" viewBox="0 0 100 100" fill="none" xmlns="http://www.w3.org/2000/svg">
<path fill-rule="evenodd" clip-rule="evenodd" d="M76.6135 18.0938L78.1234 25.7963L74.3524 26.5399L72.8425 18.8374L76.6135 18.0938ZM82.9769 70.4948L80.8797 59.7563L84.6526 59.0116L86.7498 69.75L82.9769 70.4948ZM77.9999 45.113L80.0971 55.8514L83.87 55.1067L81.7728 44.3682L77.9999 45.113ZM77.2273 41.1879L75.1301 30.4494L78.903 29.7047L81.0002 40.4431L77.2273 41.1879ZM89.0107 81.3892L87.5009 73.6867L83.7298 74.4302L85.2397 82.1328L89.0107 81.3892Z" fill="#DA6F25"/>
<path fill-rule="evenodd" clip-rule="evenodd" d="M23.4599 18.0735L27.2309 18.8169L25.7211 26.5194L21.9501 25.776L23.4599 18.0735ZM17.1009 70.4948L13.328 69.75L15.4252 59.0116L19.1981 59.7563L17.1009 70.4948ZM16.1978 55.1067L19.9707 55.8514L22.0679 45.113L18.295 44.3682L16.1978 55.1067ZM22.8505 41.1879L19.0776 40.4431L21.1748 29.7047L24.9477 30.4494L22.8505 41.1879ZM16.3345 74.411L12.5636 73.6675L11.0537 81.37L14.8247 82.1135L16.3345 74.411Z" fill="#DA6F25"/>
<path fill-rule="evenodd" clip-rule="evenodd" d="M73.2636 51.6144C73.5647 51.6144 74.538 52.2988 74.6183 52.6711C74.6784 52.9573 74.6485 54.0381 74.6297 54.72C74.6234 54.9494 74.6183 55.1337 74.6183 55.2274C74.6183 55.6099 74.3775 56.4251 73.956 56.566C73.4543 56.7371 70.3737 56.6163 70.3737 56.6163C70.3737 56.6163 70.4339 56.8478 70.5142 57.3812C70.5192 57.4063 70.5217 57.434 70.5242 57.4617C70.5267 57.4894 70.5292 57.5171 70.5343 57.5422C70.5383 57.587 70.544 57.6352 70.5501 57.686C70.5589 57.7605 70.5684 57.8408 70.5744 57.9246C70.5819 58.0907 70.5951 58.2625 70.6097 58.4526C70.6145 58.516 70.6196 58.5814 70.6246 58.6493C70.6271 58.6969 70.6296 58.7439 70.6321 58.7909C70.6396 58.9326 70.6471 59.0743 70.6547 59.233C70.7048 60.169 70.7048 61.3867 70.6346 62.9265C70.6256 63.2334 70.6085 63.5484 70.5906 63.8788C70.5886 63.9168 70.5865 63.955 70.5844 63.9933C70.5644 64.1846 70.5543 64.3657 70.5443 64.567C70.5316 64.7319 70.5172 64.8987 70.5025 65.0687C70.4822 65.3032 70.4614 65.5439 70.444 65.7948C70.4333 65.9016 70.4198 66.0056 70.4065 66.1082C70.3948 66.199 70.3831 66.2888 70.3737 66.3785C70.3683 66.4276 70.3599 66.4737 70.3518 66.5185C70.3449 66.5564 70.3382 66.5933 70.3336 66.6302C70.3318 66.6443 70.33 66.6592 70.3282 66.6744C70.3197 66.7458 70.31 66.8273 70.2934 66.9019C70.2633 67.0126 70.2433 67.1132 70.2232 67.2239C70.2182 67.2441 70.2132 67.2692 70.2081 67.2944C70.2031 67.3195 70.1981 67.3447 70.1931 67.3648C70.1791 67.4557 70.1555 67.5418 70.1323 67.6263C70.1221 67.6635 70.112 67.7003 70.1028 67.7372C69.4907 70.0017 68.3769 71.1892 68.3769 71.1892C68.3769 71.1892 68.2765 77.107 68.3568 77.5598C68.427 78.0127 67.4738 78.204 67.4738 78.204C67.4738 78.204 62.0652 78.204 61.6136 78.1234C61.1621 78.0429 61.0116 77.6706 61.0116 77.6706V71.1892H39.3672V77.6706C39.3672 77.6706 39.2167 78.0429 38.7652 78.1234C38.3136 78.204 32.905 78.204 32.905 78.204C32.905 78.204 31.9417 78.0127 32.022 77.5598C32.0923 77.107 32.0019 71.1892 32.0019 71.1892C32.0019 71.1892 30.2359 69.3072 29.9248 65.7948C29.3328 59.0116 30.0151 56.6163 30.0151 56.6163C30.0151 56.6163 26.9345 56.7471 26.4328 56.566C26.0214 56.415 25.7705 55.5998 25.7705 55.2274C25.7705 55.1337 25.7655 54.9488 25.7591 54.7186C25.7403 54.0343 25.7105 52.9498 25.7705 52.6711C25.8508 52.2988 27.1252 51.6144 27.1252 51.6144H31.4801C31.4801 51.6144 33.9687 45.2136 35.1628 43.8549C35.805 43.1202 38.0126 42.1138 39.5178 41.8119C41.0229 41.51 50.1944 41.2785 50.1944 41.2785C50.1944 41.2785 59.3659 41.51 60.8711 41.8119C62.3662 42.1239 64.5437 43.1706 65.226 43.8549C66.5807 45.2136 68.9087 51.6144 68.9087 51.6144H73.2636ZM33.9888 52.7718C33.9888 52.7718 33.5773 54.8953 33.6576 55.1067H66.5606C66.6409 54.8953 66.1793 52.7718 66.1793 52.7718C66.1793 52.7718 64.1222 47.1358 63.0184 46.0992C62.4063 45.5256 60.56 44.6097 59.2656 44.3481C57.9611 44.0965 50.084 43.8952 50.084 43.8952C50.084 43.8952 42.1969 44.0864 40.9025 44.3481C39.598 44.6097 37.7918 45.5558 37.1496 46.0992C36.3067 46.8037 33.9888 52.7718 33.9888 52.7718Z" fill="#DA6F25"/>
</svg>
