<svg width="100" height="100" viewBox="0 0 100 100" fill="none" xmlns="http://www.w3.org/2000/svg">
<path fill-rule="evenodd" clip-rule="evenodd" d="M62.2741 30.6146C62.5148 30.6146 63.3276 31.1782 63.3879 31.4902C63.4284 31.6938 63.4143 32.4421 63.404 32.9943C63.3989 33.2609 63.3947 33.4818 63.3979 33.5735C63.3979 33.8754 63.1972 34.5497 62.8559 34.6705C62.4345 34.8215 59.8959 34.7208 59.8959 34.7208C59.8959 34.7208 59.956 34.912 60.0163 35.3448C60.0205 35.366 60.0229 35.3854 60.0251 35.4045C60.028 35.4308 60.0305 35.4565 60.0363 35.4857C60.0463 35.5762 60.0664 35.687 60.0764 35.8077C60.0866 35.9889 60.1066 36.1801 60.1267 36.4116C60.1367 36.5626 60.1467 36.7236 60.1567 36.8947C60.187 37.6696 60.187 38.666 60.1367 39.9441C60.1279 40.1915 60.1113 40.4466 60.0939 40.7162L60.0866 40.8298C60.0664 40.9807 60.0563 41.1417 60.0463 41.3028C60.0278 41.4949 60.0131 41.6985 59.9975 41.9089C59.9877 42.0401 59.9777 42.1739 59.966 42.3092C59.966 42.3868 59.9592 42.4668 59.9497 42.5457C59.9394 42.6304 59.9262 42.7141 59.916 42.7923C59.9101 42.8336 59.9008 42.8784 59.892 42.9206C59.8857 42.9503 59.8798 42.9786 59.8757 43.0036C59.8657 43.0841 59.8557 43.1647 59.8356 43.2351C59.8317 43.2709 59.8264 43.3051 59.8198 43.3389C59.8098 43.3908 59.7976 43.442 59.7853 43.4968L59.7553 43.6176C59.7353 43.7283 59.7153 43.8289 59.685 43.9295C59.1733 45.7914 58.2602 46.7777 58.2602 46.7777C58.2602 46.7777 58.1799 51.6689 58.2402 52.0413C58.3105 52.4136 57.5178 52.5646 57.5178 52.5646C57.5178 52.5646 53.0524 52.5646 52.6811 52.5042C52.3098 52.4438 52.1794 52.1318 52.1794 52.1318V46.7777H34.3181V52.1318C34.3181 52.1318 34.1874 52.4438 33.8164 52.5042C33.445 52.5646 28.9797 52.5646 28.9797 52.5646C28.9797 52.5646 28.197 52.4136 28.2573 52.0413C28.3073 51.6689 28.237 46.7777 28.237 46.7777C28.237 46.7777 26.7722 45.2278 26.5212 42.3293C26.0295 36.7236 26.5915 34.751 26.5915 34.751C26.5915 34.751 24.0527 34.8416 23.6313 34.7007C23.3002 34.59 23.0895 33.9156 23.0895 33.6037C23.0895 33.2917 23.0292 31.8022 23.0895 31.4902C23.1496 31.1782 24.2033 30.6146 24.2033 30.6146H27.7956C27.7956 30.6146 29.8427 25.3209 30.8361 24.2037C31.3579 23.61 33.184 22.7646 34.4284 22.523C35.6726 22.2815 43.2387 22.0903 43.2387 22.0903C43.2387 22.0903 50.8046 22.2815 52.049 22.523C53.2831 22.7747 55.0793 23.6401 55.6413 24.2037C56.7551 25.3309 58.6816 30.6146 58.6816 30.6146H62.2741ZM29.843 31.5609C29.843 31.5609 29.5117 33.3221 29.572 33.4932H56.7153C56.7753 33.3221 56.394 31.5609 56.394 31.5609C56.394 31.5609 54.6882 26.9113 53.7851 26.0558C53.2934 25.5828 51.7683 24.828 50.6945 24.6066C49.6208 24.3952 43.1186 24.2342 43.1186 24.2342C43.1186 24.2342 36.6162 24.3851 35.5424 24.6066C34.4787 24.828 32.9736 25.613 32.4518 26.0558C31.7595 26.6395 29.843 31.5609 29.843 31.5609Z" fill="#DA6F25"/>
<path fill-rule="evenodd" clip-rule="evenodd" d="M74.7878 63.5046H66.7102V30.7054H74.7878V63.5046ZM65.3555 73.76C65.3555 72.3309 65.8772 71.0729 66.9409 70.0564C67.9846 69.0298 69.2588 68.5065 70.7539 68.5065C72.179 68.5065 73.4534 69.0098 74.5168 69.986C75.5806 70.9823 76.1226 72.19 76.1226 73.6292C76.1226 75.0684 75.6006 76.3163 74.5371 77.3328C73.4734 78.3795 72.219 78.8827 70.7239 78.8827C70.0015 78.8827 69.3191 78.7418 68.6567 78.47C67.9946 78.1983 67.4326 77.836 66.9309 77.4033C66.4292 76.9504 66.0479 76.4271 65.7468 75.793C65.5161 75.169 65.3555 74.4846 65.3555 73.76ZM43.2397 78.8726L55.1907 70.7005L52.0098 70.8414L49.3206 52.746H37.1487L34.4595 70.8414L31.2786 70.7005L43.2397 78.8726Z" fill="#DA6F25"/>
</svg>
