<svg width="100" height="100" viewBox="0 0 100 100" fill="none" xmlns="http://www.w3.org/2000/svg">
<path fill-rule="evenodd" clip-rule="evenodd" d="M62.2746 30.6146C62.5153 30.6146 63.3281 31.1782 63.3884 31.4902C63.4289 31.6938 63.4148 32.4421 63.4043 32.9943C63.3994 33.2609 63.3952 33.4818 63.3984 33.5735C63.3984 33.8754 63.1977 34.5497 62.8564 34.6705C62.435 34.8215 59.8964 34.7208 59.8964 34.7208C59.8964 34.7208 59.9565 34.912 60.0168 35.3448C60.0217 35.3699 60.0244 35.3926 60.0268 35.4152C60.0293 35.4379 60.0319 35.4605 60.0368 35.4857C60.0407 35.5206 60.0461 35.5585 60.0517 35.5988C60.0607 35.6631 60.0708 35.7335 60.0769 35.8077C60.0842 35.9359 60.0961 36.069 60.1098 36.2178L60.1272 36.4116C60.1372 36.5626 60.1472 36.7236 60.1572 36.8947C60.1875 37.6696 60.1875 38.666 60.1372 39.9441C60.1284 40.1915 60.1118 40.4466 60.0944 40.7163L60.0871 40.8298C60.0669 40.9807 60.0568 41.1417 60.0468 41.3028C60.03 41.4785 60.0161 41.6636 60.0019 41.8549C59.9909 42.0033 59.9797 42.1553 59.9665 42.3092C59.9665 42.438 59.9472 42.5732 59.9294 42.6995L59.9165 42.7923C59.9106 42.8336 59.9013 42.8784 59.8925 42.9206C59.8864 42.9503 59.8803 42.9786 59.8762 43.0036C59.8662 43.0841 59.8562 43.1647 59.8361 43.2351C59.8276 43.3128 59.8117 43.3831 59.7944 43.4586L59.7858 43.4968L59.7558 43.6176C59.7358 43.7282 59.7158 43.8289 59.6855 43.9295C59.1738 45.7914 58.2607 46.7777 58.2607 46.7777C58.2607 46.7777 58.1804 51.6689 58.2407 52.0413C58.311 52.4136 57.5183 52.5646 57.5183 52.5646C57.5183 52.5646 53.0529 52.5646 52.6816 52.5042C52.3103 52.4438 52.1799 52.1318 52.1799 52.1318V46.7777H34.3186V52.1318C34.3186 52.1318 34.1879 52.4438 33.8169 52.5042C33.4455 52.5646 28.9802 52.5646 28.9802 52.5646C28.9802 52.5646 28.1975 52.4136 28.2578 52.0413C28.3078 51.6689 28.2375 46.7777 28.2375 46.7777C28.2375 46.7777 26.7727 45.2278 26.5217 42.3293C26.03 36.7236 26.592 34.751 26.592 34.751C26.592 34.751 24.0532 34.8416 23.6318 34.7007C23.3007 34.59 23.09 33.9156 23.09 33.6037C23.09 33.5248 23.0861 33.3706 23.0815 33.1791C23.0673 32.6136 23.0449 31.7233 23.09 31.4902C23.1501 31.1782 24.2038 30.6146 24.2038 30.6146H27.7961C27.7961 30.6146 29.8432 25.3209 30.8366 24.2037C31.3584 23.61 33.1845 22.7646 34.4289 22.523C35.6731 22.2815 43.2392 22.0903 43.2392 22.0903C43.2392 22.0903 50.8051 22.2815 52.0495 22.523C53.2836 22.7747 55.0798 23.6401 55.6418 24.2037C56.7556 25.3309 58.6821 30.6146 58.6821 30.6146H62.2746ZM29.8435 31.5609C29.8435 31.5609 29.5122 33.3221 29.5725 33.4932H56.7158C56.7758 33.3221 56.3945 31.5609 56.3945 31.5609C56.3945 31.5609 54.6887 26.9113 53.7856 26.0558C53.2939 25.5828 51.7688 24.828 50.695 24.6066C49.6213 24.3952 43.1191 24.2342 43.1191 24.2342C43.1191 24.2342 36.6167 24.3851 35.5429 24.6066C34.4792 24.828 32.9741 25.613 32.4523 26.0558C31.76 26.6395 29.8435 31.5609 29.8435 31.5609Z" fill="#DA6F25"/>
<path fill-rule="evenodd" clip-rule="evenodd" d="M74.7876 63.5046H66.71V30.7054H74.7876V63.5046ZM65.3552 73.76C65.3552 72.3309 65.877 71.0729 66.9407 70.0564C67.9844 69.0298 69.2585 68.5065 70.7537 68.5065C72.1787 68.5065 73.4531 69.0098 74.5166 69.986C75.5803 70.9823 76.1223 72.19 76.1223 73.6292C76.1223 75.0684 75.6003 76.3163 74.5369 77.3328C73.4731 78.3795 72.2188 78.8827 70.7236 78.8827C70.0012 78.8827 69.3188 78.7418 68.6565 78.47C67.9944 78.1983 67.4324 77.836 66.9307 77.4033C66.429 76.9504 66.0476 76.4271 65.7466 75.793C65.5159 75.169 65.3552 74.4846 65.3552 73.76ZM43.2395 78.8726L55.1904 70.7005L52.0095 70.8414L49.3203 52.746H37.1484L34.4592 70.8414L31.2783 70.7005L43.2395 78.8726Z" fill="#DA6F25"/>
</svg>
