<svg width="100" height="100" viewBox="0 0 100 100" fill="none" xmlns="http://www.w3.org/2000/svg">
<path d="M19.9162 68.5607C19.9162 68.772 19.8961 69.0438 19.9965 69.1847C20.0968 69.3356 21.0099 70.0301 22.194 70.332C23.3781 70.644 24.6424 70.5937 25.0438 70.805C25.4552 70.7849 25.8867 70.805 25.8867 70.805V70.7949L26.5991 70.2313L26.9303 70.2213C27.5926 72.3046 29.5292 73.8142 31.8171 73.8142C33.2821 73.8142 34.5866 73.2103 35.5198 72.2241C36.162 71.6705 36.6537 70.966 36.9346 70.1609L37.0049 70.171L38.0886 70.1408C38.0886 70.4024 38.0786 70.6239 38.0886 70.6842L67.63 70.2615V70.2515H67.6401V70.1307C67.6401 70.02 67.6501 69.8489 67.6601 69.6376L67.6702 69.6476L68.3626 69.9898L68.6435 69.9999C68.9145 70.8855 69.4362 71.6504 70.1186 72.2442C71.0518 73.2204 72.3763 73.8343 73.8213 73.8343C76.4403 73.8343 78.5877 71.8617 78.9088 69.3256H78.9389L79.0794 68.9834L79.8821 69.4765V69.547C79.8821 69.547 79.9022 69.547 79.9323 69.557H79.9524C80.0728 69.5772 80.3036 69.5973 80.4842 69.5973C80.7351 69.5973 80.8655 68.6915 81.4876 68.4802C81.7987 67.9669 81.9894 66.9706 82.0596 66.0447V66.0245C82.1098 65.32 82.0897 64.6457 81.9793 64.2633C81.7184 63.7098 81.0562 63.4582 81.006 62.8644C80.9558 62.2706 80.8956 61.0528 80.8153 60.6402C80.8153 60.6301 80.8053 60.6201 80.8053 60.61C80.8153 60.5999 80.8254 60.5798 80.8254 60.5798C80.8254 60.5798 80.6949 59.5432 80.5645 59.3117C80.434 59.0802 80.1029 58.265 79.571 57.792C79.5209 57.7518 79.4607 57.7115 79.4105 57.6914C79.1998 57.3693 78.5576 56.4837 77.7247 56.0207C77.6745 55.9905 77.6946 56.0308 77.7247 56.1013L77.5842 56.0308L77.5341 55.9805C77.3334 55.6484 75.8683 54.3098 74.5739 53.2732C74.2628 53.0216 73.9718 52.7901 73.6808 52.5889C73.2694 52.2869 72.9483 52.0756 72.7577 52.0152V52.0253L72.7476 52.0152C72.7476 52.0152 72.557 51.7837 72.3663 51.7636C72.5469 51.5724 72.9784 51.4214 72.9784 51.1094C72.9784 50.9484 72.4165 50.8377 71.8345 50.7471C71.6438 50.727 71.4732 50.7069 71.3027 50.6767C70.9816 50.6465 70.7106 50.6263 70.5802 50.6263C70.3695 50.6163 68.0013 50.3144 65.2519 50.0627C64.7602 50.0225 64.2785 49.9621 63.817 49.9218C61.0775 49.6702 58.1876 49.4287 53.4112 49.9017C49.277 50.3144 48.093 51.2704 48.093 51.2704C48.0528 51.2906 48.0026 51.3006 47.9625 51.3409C47.9625 51.351 47.9625 51.351 47.9725 51.361C47.9625 51.361 47.9625 51.3711 47.9725 51.3711C42.1325 54.2696 38.49 56.3931 37.9481 56.846C37.928 56.8561 37.8979 56.8762 37.8678 56.8863C37.7976 56.8963 37.5568 56.9265 37.4865 56.9668C37.2156 57.007 36.8243 57.0674 36.3426 57.1479C36.3928 57.1278 36.4429 57.1278 36.4429 57.1278C34.9578 57.3593 33.6333 57.5907 32.4191 57.8222C28.4957 58.567 23.6891 59.7545 22.3646 61.2742L22.3345 61.3044H22.3445C22.3245 61.3246 22.3044 61.3547 22.2743 61.3849C20.3075 64.0016 20.3075 64.5451 20.157 65.2194C20.0065 65.8937 20.0266 67.2725 20.0366 67.3329C20.0567 67.3832 20.2473 67.4134 20.2473 67.4134L20.1671 68.2386C20.1771 68.1984 19.9162 68.3594 19.9162 68.5607V68.5607Z" fill="#DA6F25"/>
<path fill-rule="evenodd" clip-rule="evenodd" d="M52 32.348C51.4478 32.348 51 32.7957 51 33.348V43.0378C51 43.59 51.4478 44.0378 52 44.0378H55.9746C56.5269 44.0378 56.9746 43.59 56.9746 43.0378V33.348C56.9746 32.7957 56.5269 32.348 55.9746 32.348H52ZM52.7073 34.5688C52.155 34.5688 51.7073 35.0166 51.7073 35.5688V40.8169C51.7073 41.3692 52.155 41.8169 52.7073 41.8169H53.7705C54.3228 41.8169 54.7705 41.3692 54.7705 40.8169V35.5688C54.7705 35.0166 54.3228 34.5688 53.7705 34.5688H52.7073Z" fill="#DA6F25"/>
<rect x="53.2568" y="43.4596" width="1.46108" height="10.7153" fill="#DA6F25"/>
<path d="M38.5241 48.2994L37.9313 48.8173C34.9462 45.4002 33.3264 41.4797 33.245 37.4915C33.1636 33.5032 34.6233 29.5828 37.4689 26.1657L38.0829 26.6836C35.3598 29.9555 33.959 33.692 34.0366 37.4915C34.1237 41.2861 35.6723 45.0323 38.5241 48.2994Z" fill="#DA6F25"/>
<path fill-rule="evenodd" clip-rule="evenodd" d="M38.2599 37.4915C38.2008 34.5922 39.267 31.7318 41.3543 29.2294L40.7403 28.7115C38.5307 31.359 37.4004 34.3938 37.4635 37.4915C37.5268 40.5842 38.7907 43.6286 41.0987 46.2714L41.6915 45.7534C39.507 43.2511 38.3194 40.4003 38.2599 37.4915ZM43.2945 37.4916C43.2491 35.2749 44.0639 33.1017 45.6516 31.1898L45.0376 30.672C43.3323 32.7291 42.449 35.086 42.4981 37.4915C42.547 39.8972 43.5172 42.2542 45.316 44.3114L45.9089 43.7934C44.2434 41.8864 43.3397 39.7083 43.2945 37.4916Z" fill="#DA6F25"/>
<path d="M69.451 48.2994L70.0438 48.8173C73.0289 45.4002 74.6487 41.4797 74.7301 37.4915C74.8115 33.5032 73.3518 29.5828 70.5061 26.1657L69.8922 26.6836C72.6153 29.9555 74.0161 33.692 73.9385 37.4915C73.8514 41.2861 72.3028 45.0323 69.451 48.2994Z" fill="#DA6F25"/>
<path fill-rule="evenodd" clip-rule="evenodd" d="M69.7154 37.4913C69.7745 34.5921 68.7083 31.7316 66.6211 29.2293L67.2349 28.7114C69.4449 31.3589 70.575 34.3937 70.5118 37.4913C70.4488 40.5841 69.1846 43.6286 66.8765 46.2712L66.2837 45.7534C68.4683 43.251 69.6561 40.4002 69.7154 37.4913ZM64.6807 37.4915C64.7259 35.2747 63.9112 33.1015 62.3235 31.1897L62.9375 30.6718C64.6429 32.7288 65.5262 35.0859 65.4771 37.4915C65.428 39.897 64.4581 42.2541 62.659 44.3111L62.0662 43.7932C63.7317 41.8863 64.6355 39.7082 64.6807 37.4915Z" fill="#DA6F25"/>
</svg>
