<svg width="100" height="100" viewBox="0 0 100 100" fill="none" xmlns="http://www.w3.org/2000/svg">
<path fill-rule="evenodd" clip-rule="evenodd" d="M22.5007 13.3472L18.1411 17.6247L24.4595 24.0568L20.9053 27.5501L32.0178 27.8273L32.144 16.5078L28.8113 19.7793L22.5007 13.3472ZM51.0042 21.0546C57.7568 21.0546 64.1147 23.7003 68.8931 28.4927C73.6792 33.2851 76.3091 39.6539 76.3169 46.4345C76.3169 53.7062 73.1973 60.6374 67.7634 65.4536L65.8364 63.2673L61.8638 59.2829L64.7544 56.3837L68.2532 59.8928C70.7964 56.6054 72.376 52.6606 72.7629 48.494H67.2185V44.3908H72.7708C72.3679 40.042 70.7017 35.9625 67.9453 32.588L64.5964 35.9467L61.7058 33.0475L65.0784 29.6651C61.6663 26.7817 57.512 25.0311 53.0735 24.6271V29.7047H48.9822V24.6271C44.4883 25.0469 40.2866 26.8293 36.8511 29.776L49.543 42.5055C50.0012 42.3313 50.4988 42.2362 51.02 42.2362C53.334 42.2362 55.2139 44.1136 55.2139 46.4424C55.2139 48.7634 53.334 50.6486 51.02 50.6486C48.7058 50.6486 46.8262 48.7713 46.8262 46.4424C46.8262 46.1731 46.8577 45.9117 46.8972 45.6582L33.9919 32.7148C31.291 36.0655 29.6641 40.0895 29.269 44.3829H33.9919V48.4861H29.269C29.4902 50.91 30.1062 53.2627 31.1172 55.4806C31.8123 57.0174 32.6572 58.4432 33.6682 59.7581L37.0327 56.3837L39.9233 59.2829L35.4216 63.798L35.4058 63.7822L34.0552 65.2714C31.4568 62.9187 29.4033 60.1067 27.958 56.9144C26.4575 53.6191 25.6992 50.0862 25.6992 46.4345C25.6992 39.6618 28.3372 33.2851 33.1155 28.4927C37.8857 23.6924 44.2515 21.0546 51.0042 21.0546Z" fill="#DA6F25"/>
<path d="M18.169 73.3918V81.9598H19.249V74.8318H19.273L21.949 81.9598H22.921L25.597 74.8318H25.621V81.9598H26.701V73.3918H25.141L22.429 80.5918L19.729 73.3918H18.169ZM28.6461 73.3918V81.9598H29.7861V73.3918H28.6461ZM31.6916 73.3918V81.9598H32.7716V75.0838H32.7956L37.2716 81.9598H38.5196V73.3918H37.4396V80.3398H37.4156L32.9036 73.3918H31.6916ZM40.4237 80.6278V81.9598H41.7557V80.6278H40.4237ZM51.9994 75.8998H53.0794C53.0634 75.4278 52.9714 75.0238 52.8034 74.6878C52.6434 74.3438 52.4194 74.0598 52.1314 73.8358C51.8514 73.6118 51.5234 73.4478 51.1474 73.3438C50.7714 73.2398 50.3634 73.1878 49.9234 73.1878C49.5314 73.1878 49.1474 73.2398 48.7714 73.3438C48.4034 73.4398 48.0714 73.5918 47.7754 73.7998C47.4874 73.9998 47.2554 74.2598 47.0794 74.5798C46.9034 74.8918 46.8154 75.2638 46.8154 75.6958C46.8154 76.0878 46.8914 76.4158 47.0434 76.6798C47.2034 76.9358 47.4114 77.1478 47.6674 77.3158C47.9314 77.4758 48.2274 77.6078 48.5554 77.7118C48.8834 77.8078 49.2154 77.8958 49.5514 77.9758C49.8954 78.0478 50.2314 78.1198 50.5594 78.1918C50.8874 78.2638 51.1794 78.3598 51.4354 78.4798C51.6994 78.5918 51.9074 78.7398 52.0594 78.9238C52.2194 79.1078 52.2994 79.3478 52.2994 79.6438C52.2994 79.9558 52.2354 80.2118 52.1074 80.4118C51.9794 80.6118 51.8114 80.7718 51.6034 80.8918C51.3954 81.0038 51.1594 81.0838 50.8954 81.1318C50.6394 81.1798 50.3834 81.2038 50.1274 81.2038C49.8074 81.2038 49.4954 81.1638 49.1914 81.0838C48.8874 81.0038 48.6194 80.8798 48.3874 80.7118C48.1634 80.5438 47.9794 80.3318 47.8354 80.0758C47.6994 79.8118 47.6314 79.4998 47.6314 79.1398H46.5514C46.5514 79.6598 46.6434 80.1118 46.8274 80.4958C47.0194 80.8718 47.2754 81.1838 47.5954 81.4318C47.9234 81.6718 48.2994 81.8518 48.7234 81.9718C49.1554 82.0918 49.6114 82.1518 50.0914 82.1518C50.4834 82.1518 50.8754 82.1038 51.2674 82.0078C51.6674 81.9198 52.0274 81.7758 52.3474 81.5758C52.6674 81.3678 52.9274 81.1038 53.1274 80.7838C53.3354 80.4558 53.4394 80.0638 53.4394 79.6078C53.4394 79.1838 53.3594 78.8318 53.1994 78.5518C53.0474 78.2718 52.8394 78.0398 52.5754 77.8558C52.3194 77.6718 52.0274 77.5278 51.6994 77.4238C51.3714 77.3118 51.0354 77.2158 50.6914 77.1358C50.3554 77.0558 50.0234 76.9838 49.6954 76.9198C49.3674 76.8478 49.0714 76.7598 48.8074 76.6558C48.5514 76.5518 48.3434 76.4198 48.1834 76.2598C48.0314 76.0918 47.9554 75.8758 47.9554 75.6118C47.9554 75.3318 48.0074 75.0998 48.1114 74.9158C48.2234 74.7238 48.3674 74.5718 48.5434 74.4598C48.7274 74.3478 48.9354 74.2678 49.1674 74.2198C49.3994 74.1718 49.6354 74.1478 49.8754 74.1478C50.4674 74.1478 50.9514 74.2878 51.3274 74.5678C51.7114 74.8398 51.9354 75.2838 51.9994 75.8998ZM55.9647 77.4958V74.3518H58.1967C58.8447 74.3518 59.3167 74.4878 59.6127 74.7598C59.9167 75.0238 60.0687 75.4118 60.0687 75.9238C60.0687 76.4358 59.9167 76.8278 59.6127 77.0998C59.3167 77.3718 58.8447 77.5038 58.1967 77.4958H55.9647ZM54.8247 73.3918V81.9598H55.9647V78.4558H58.5807C59.4447 78.4638 60.0967 78.2438 60.5367 77.7958C60.9847 77.3478 61.2087 76.7238 61.2087 75.9238C61.2087 75.1238 60.9847 74.5038 60.5367 74.0638C60.0967 73.6158 59.4447 73.3918 58.5807 73.3918H54.8247ZM62.6059 73.3918V81.9598H68.5579V80.9998H63.7459V78.0358H68.1979V77.0758H63.7459V74.3518H68.5219V73.3918H62.6059ZM69.9419 73.3918V81.9598H75.8939V80.9998H71.0819V78.0358H75.5339V77.0758H71.0819V74.3518H75.8579V73.3918H69.9419ZM78.4178 80.9998V74.3518H80.3378C80.8658 74.3518 81.3098 74.4278 81.6698 74.5798C82.0298 74.7238 82.3218 74.9398 82.5458 75.2278C82.7778 75.5078 82.9418 75.8518 83.0378 76.2598C83.1418 76.6598 83.1938 77.1158 83.1938 77.6278C83.1938 78.1558 83.1378 78.6078 83.0258 78.9838C82.9218 79.3518 82.7858 79.6598 82.6178 79.9078C82.4498 80.1558 82.2578 80.3518 82.0418 80.4958C81.8338 80.6398 81.6218 80.7518 81.4058 80.8318C81.1898 80.9038 80.9858 80.9518 80.7938 80.9758C80.6018 80.9918 80.4418 80.9998 80.3138 80.9998H78.4178ZM77.2778 73.3918V81.9598H80.2178C80.9298 81.9598 81.5458 81.8598 82.0658 81.6598C82.5858 81.4598 83.0138 81.1718 83.3498 80.7958C83.6858 80.4118 83.9338 79.9438 84.0938 79.3918C84.2538 78.8318 84.3338 78.1918 84.3338 77.4718C84.3338 76.0958 83.9778 75.0718 83.2658 74.3998C82.5538 73.7278 81.5378 73.3918 80.2178 73.3918H77.2778Z" fill="#DA6F25"/>
</svg>
