<svg width="100" height="100" viewBox="0 0 100 100" fill="none" xmlns="http://www.w3.org/2000/svg">
<path fill-rule="evenodd" clip-rule="evenodd" d="M19 74.705L48.8188 21.2949L81.0001 74.705H19ZM76.2111 71.9941L48.9676 26.7598L23.661 71.9941H76.2111Z" fill="#DA6F25"/>
<path fill-rule="evenodd" clip-rule="evenodd" d="M51.7141 38.6287H46.4783V59.9116H51.7141V38.6287ZM49.0964 63.135C50.0329 63.135 50.8416 63.4765 51.544 64.1169C52.2464 64.7573 52.6082 65.5258 52.5869 66.4651C52.5869 67.4044 52.2038 68.2155 51.544 68.8773C50.8204 69.5391 50.0329 69.8806 49.0538 69.8806C48.5856 69.8806 48.1386 69.7739 47.7129 69.6031C47.3085 69.4323 46.9467 69.1975 46.6061 68.8986C46.2656 68.6211 46.0315 68.2582 45.8399 67.8526C45.6697 67.4684 45.5632 67.0201 45.5632 66.5505C45.5632 65.6112 45.9463 64.8 46.6061 64.1383C47.3298 63.4765 48.1173 63.135 49.0964 63.135Z" fill="#DA6F25"/>
</svg>
