<svg width="100" height="100" viewBox="0 0 100 100" fill="none" xmlns="http://www.w3.org/2000/svg">
<path d="M84.0072 35.0245L77.9564 31.3611L72.5177 40.2981L67.8918 37.5003L71.0627 50.2516L83.5255 46.9707L78.5886 43.9716" fill="#DA6F25"/>
<path fill-rule="evenodd" clip-rule="evenodd" d="M31.3196 62.1001C29.3508 65.8344 28.2354 70.0879 28.2354 74.5968C28.2354 76.3681 28.416 78.0992 28.7371 79.7799H36.2026V76.9619H30.8242C30.7439 76.187 30.7039 75.3919 30.7039 74.6069C30.7039 71.3461 31.3459 68.2363 32.51 65.3881L37.136 67.4513L38.1594 65.1466L33.5737 63.1035C33.6672 62.9289 33.7627 62.7555 33.8604 62.5835C32.9971 62.47 32.1494 62.308 31.3196 62.1001ZM44.3723 61.4966L51.5454 71.3763C50.9031 72.1512 50.532 73.1375 50.532 74.2144C50.532 76.67 52.5188 78.6728 54.9773 78.6728C57.4355 78.6728 59.4224 76.6801 59.4224 74.2144C59.4224 71.7587 57.4355 69.756 54.9773 69.756C54.4956 69.756 54.0339 69.8365 53.6025 69.9774L46.7344 60.5102C45.97 60.8817 45.1816 61.2115 44.3723 61.4966ZM53.6829 55.2788V55.3139H56.2917V51.7502C55.5361 53.0112 54.6614 54.1926 53.6829 55.2788ZM57.0674 50.3453C60.9685 50.6771 64.6089 51.9411 67.7812 53.9049L64.801 57.991L66.8379 59.4804L69.8481 55.3441C72.5376 57.4374 74.7852 60.0944 76.4109 63.1237L71.9153 65.1265L72.939 67.4312L77.4844 65.3982C78.6384 68.2363 79.2605 71.326 79.2605 74.5667C79.2605 75.3617 79.2205 76.1467 79.1401 76.9217H73.3101V79.7396H81.2273C81.5583 78.069 81.729 76.338 81.729 74.5566C81.7197 60.8617 71.3879 49.5167 58.1082 47.9583C57.8062 48.7773 57.4583 49.574 57.0674 50.3453Z" fill="#DA6F25"/>
<path fill-rule="evenodd" clip-rule="evenodd" d="M46.162 24.4589C41.801 21.968 36.7385 21.3333 31.9072 22.6596C27.0756 23.9859 23.049 27.1246 20.5688 31.4847C18.0907 35.8531 17.4653 40.9276 18.7956 45.7733C20.1257 50.619 23.2626 54.6606 27.6154 57.1537C31.9765 59.6447 37.039 60.2794 41.8703 58.9531C46.7016 57.6268 50.7284 54.4881 53.2087 50.1279C55.6867 45.7596 56.3122 40.6851 54.9819 35.8394C53.6515 30.9938 50.5229 26.9498 46.162 24.4589ZM22.2343 32.4358C24.4582 28.5157 28.0734 25.7012 32.4152 24.5093C36.757 23.3174 41.3027 23.8916 45.216 26.1269C49.1296 28.3622 51.9423 31.991 53.1376 36.3456C53.2817 36.8694 53.4008 37.4 53.4936 37.9291L41.2319 38.5314C40.1801 36.5227 37.8464 35.4382 35.5776 36.061C33.3007 36.686 31.8417 38.8206 31.9838 41.0965L21.1518 46.8427C20.9592 46.3323 20.7885 45.807 20.6425 45.275C19.4448 40.9122 20.0129 36.364 22.2343 32.4358ZM41.3627 57.103C45.7043 55.9112 49.3198 53.0966 51.5436 49.1766C52.8847 46.8368 53.6164 44.2593 53.7345 41.6214L41.5917 42.2086C41.1279 43.7795 39.8874 45.0794 38.1982 45.5432C36.5168 46.0047 34.797 45.5262 33.5925 44.431L22.8434 50.128C24.2773 52.3134 26.2201 54.1479 28.5619 55.4855C32.4753 57.7208 37.0209 58.2949 41.3627 57.103Z" fill="#DA6F25"/>
</svg>
