<svg width="100" height="100" viewBox="0 0 100 100" fill="none" xmlns="http://www.w3.org/2000/svg">
<path d="M81.037 36.0296L74.9862 32.3662L69.5475 41.3032L64.9216 38.5054L68.0925 51.2567L80.5553 47.9757L75.6184 44.9766" fill="#DA6F25"/>
<path d="M52.007 48.7809C37.2563 48.7809 25.2651 60.8176 25.2651 75.6019C25.2651 77.3732 25.4458 79.1042 25.7669 80.785H33.2325V77.967H27.854C27.7738 77.192 27.7336 76.397 27.7336 75.612C27.7336 72.3512 28.3758 69.2413 29.5398 66.3932L34.1657 68.4563L35.1892 66.1516L30.6035 64.1086C32.1989 61.1296 34.3865 58.5331 37.0155 56.4598L48.5752 72.3814C47.933 73.1563 47.5617 74.1426 47.5617 75.2195C47.5617 77.6751 49.5485 79.6779 52.007 79.6779C54.4654 79.6779 56.4522 77.6852 56.4522 75.2195C56.4522 72.7638 54.4654 70.761 52.007 70.761C51.5253 70.761 51.0637 70.8415 50.6322 70.9824L39.0525 55.0207C42.4642 52.8569 46.4378 51.5183 50.7125 51.2969V56.3189H53.3215V51.2969C57.5159 51.5183 61.4293 52.8166 64.8109 54.91L61.8307 58.996L63.8677 60.4855L66.878 56.3491C69.5673 58.4425 71.815 61.0994 73.4406 64.1287L68.9451 66.1315L69.9687 68.4362L74.5143 66.4032C75.6682 69.2413 76.2904 72.331 76.2904 75.5717C76.2904 76.3668 76.2502 77.1518 76.1699 77.9267H70.3399V80.7447H78.2571C78.5882 79.074 78.7588 77.343 78.7588 75.5616C78.7488 60.8076 66.7576 48.7809 52.007 48.7809Z" fill="#DA6F25"/>
<path fill-rule="evenodd" clip-rule="evenodd" d="M20.952 56.3496C20.952 55.4903 20.8841 54.7705 20.9839 54.0768C21.0265 53.7809 21.3754 53.4641 21.6599 53.2854C23.0471 52.4141 24.5541 51.7185 25.8456 50.7191C30.029 47.4822 32.5087 43.2209 32.6443 37.6855C32.6827 36.1138 32.0989 35.7211 30.765 36.3334C26.9147 38.101 22.7742 37.0646 20.5645 33.7798C18.1547 30.1972 18.494 25.4271 21.3814 22.2974C25.0694 18.3001 31.1377 18.1805 35.3224 21.9981C37.8291 24.2849 39.0202 27.2376 39.3172 30.5961C40.313 41.8477 34.6107 51.1217 24.2324 55.1957C23.2053 55.5987 22.152 55.9297 20.952 56.3496" fill="#DA6F25"/>
</svg>
