<svg width="100" height="100" viewBox="0 0 100 100" fill="none" xmlns="http://www.w3.org/2000/svg">
<circle cx="50" cy="50" r="36" fill="black"/>
<path fill-rule="evenodd" clip-rule="evenodd" d="M50.0971 71.8604C62.1165 71.8604 71.8601 62.1168 71.8601 50.0974C71.8601 38.078 62.1165 28.3343 50.0971 28.3343C38.0777 28.3343 28.334 38.078 28.334 50.0974C28.334 62.1168 38.0777 71.8604 50.0971 71.8604ZM50.0971 75.2848C64.0077 75.2848 75.2845 64.008 75.2845 50.0974C75.2845 36.1868 64.0077 24.91 50.0971 24.91C36.1865 24.91 24.9097 36.1868 24.9097 50.0974C24.9097 64.008 36.1865 75.2848 50.0971 75.2848Z" fill="#DA6F25"/>
<path fill-rule="evenodd" clip-rule="evenodd" d="M25.5322 34.4318L22.5666 32.7196C21.9521 32.365 21.1669 32.5754 20.8124 33.1896C20.4577 33.8038 20.6682 34.5892 21.2825 34.9438L24.2481 36.656C24.8621 37.0106 25.6476 36.8001 26.002 36.186C26.3567 35.5717 26.1463 34.7863 25.5322 34.4318ZM74.1929 64.0089C73.8382 64.6231 74.0487 65.4085 74.663 65.763L77.6286 67.4752C78.2426 67.8299 79.0281 67.6194 79.3826 67.0052C79.7373 66.391 79.5268 65.6056 78.9127 65.2511L75.9471 63.5389C75.3326 63.1842 74.5474 63.3947 74.1929 64.0089ZM65.7631 25.532C65.4086 26.1462 64.6231 26.3566 64.0091 26.002C63.3948 25.6474 63.1843 24.862 63.539 24.2479L65.2512 21.2822C65.6057 20.6681 66.3909 20.4576 67.0054 20.8123C67.6195 21.1668 67.8299 21.9522 67.4752 22.5664L65.7631 25.532ZM34.9438 78.9126C34.5893 79.5268 33.8039 79.7372 33.1898 79.3826C32.5755 79.028 32.365 78.2426 32.7197 77.6284L34.4319 74.6628C34.7864 74.0487 35.5716 73.8382 36.1861 74.1928C36.8002 74.5474 37.0106 75.3327 36.656 75.947L34.9438 78.9126ZM65.2512 78.9126C65.6057 79.5268 66.3911 79.7372 67.0052 79.3826C67.6195 79.028 67.8299 78.2426 67.4752 77.6284L65.7631 74.6628C65.4086 74.0487 64.6234 73.8382 64.0089 74.1929C63.3948 74.5474 63.1843 75.3327 63.539 75.947L65.2512 78.9126ZM36.656 24.2479C37.0106 24.8621 36.8002 25.6474 36.1859 26.002C35.5718 26.3566 34.7864 26.1462 34.4319 25.532L32.7197 22.5664C32.365 21.9522 32.5755 21.1668 33.1896 20.8123C33.8041 20.4576 34.5893 20.6681 34.9438 21.2823L36.656 24.2479ZM74.1929 36.186C73.8382 35.5717 74.0487 34.7864 74.663 34.4318L77.6286 32.7196C78.2426 32.365 79.0281 32.5754 79.3826 33.1896C79.7373 33.8038 79.5268 34.5892 78.9127 34.9438L75.9471 36.6559C75.3326 37.0106 74.5474 36.8001 74.1929 36.186ZM20.8124 67.0052C20.4577 66.391 20.6682 65.6057 21.2825 65.2511L24.2481 63.5389C24.8621 63.1843 25.6476 63.3947 26.002 64.0089C26.3567 64.6231 26.1463 65.4085 25.5322 65.7631L22.5666 67.4752C21.9521 67.8299 21.1669 67.6194 20.8124 67.0052ZM23.1299 39.0693C23.7974 39.3086 24.1448 40.0437 23.9057 40.7113C23.6664 41.379 22.9311 41.7262 22.2635 41.487L19.04 40.3318C18.3725 40.0925 18.0251 39.3574 18.2642 38.6898C18.5035 38.0221 19.2388 37.6748 19.9064 37.9141L23.1299 39.0693ZM61.5054 18.2641C62.1732 18.5034 62.5203 19.2386 62.281 19.9061L61.1258 23.1299C60.8867 23.7974 60.1514 24.1447 59.4839 23.9054C58.8161 23.6662 58.4687 22.931 58.708 22.2634L59.8632 19.0398C60.1025 18.3721 60.8378 18.0249 61.5054 18.2641ZM40.7115 76.2894C41.3793 76.5287 41.7265 77.2638 41.4871 77.9314L40.332 81.1551C40.0929 81.8227 39.3576 82.17 38.69 81.9307C38.0222 81.6915 37.6749 80.9563 37.9142 80.2887L39.0694 77.0651C39.3087 76.3974 40.044 76.0501 40.7115 76.2894ZM69.8974 71.4713L72.1114 74.0835C72.57 74.6245 72.5031 75.4348 71.9622 75.8934C71.4213 76.3519 70.611 76.2851 70.1522 75.7441L67.9382 73.1318C67.4796 72.5909 67.5465 71.7805 68.0874 71.322C68.6283 70.8635 69.4387 70.9303 69.8974 71.4713ZM28.233 24.3014C28.7739 23.8429 29.5842 23.9096 30.043 24.4507L32.257 27.063C32.7156 27.604 32.6487 28.4143 32.1078 28.8729C31.5669 29.3314 30.7565 29.2646 30.2978 28.7235L28.0838 26.1113C27.6252 25.5703 27.6921 24.76 28.233 24.3014ZM73.132 32.2568C72.5911 32.7153 71.7808 32.6486 71.322 32.1075C70.8637 31.5665 70.9303 30.7561 71.4712 30.2976L74.0836 28.0835C74.6245 27.625 75.4348 27.6917 75.8936 28.2328C76.3522 28.7738 76.2853 29.5841 75.7444 30.0427L73.132 32.2568ZM28.7237 69.8972L26.1114 72.1113C25.5704 72.5698 24.7601 72.5031 24.3014 71.962C23.843 71.421 23.9097 70.6106 24.4506 70.1521L27.063 67.938C27.6039 67.4795 28.4142 67.5462 28.873 68.0873C29.3315 68.6283 29.2646 69.4386 28.7237 69.8972ZM57.1689 81.8769C57.2956 82.5747 56.8326 83.2431 56.1345 83.3697C55.4369 83.4963 54.7685 83.0333 54.6418 82.3354L54.0305 78.9661C53.904 78.2682 54.367 77.5999 55.0648 77.4733C55.7627 77.3467 56.4311 77.8099 56.5576 78.5076L57.1689 81.8769ZM46.1643 21.2286C46.291 21.9265 45.828 22.5948 45.1299 22.7214C44.4323 22.848 43.7639 22.385 43.6372 21.6872L43.0259 18.3178C42.8994 17.6199 43.3624 16.9517 44.0602 16.8251C44.7581 16.6984 45.4265 17.1616 45.553 17.8593L46.1643 21.2286ZM81.8773 43.0259C82.5749 42.8992 83.2433 43.3623 83.3698 44.06C83.4964 44.7578 83.0333 45.4262 82.3356 45.5528L78.9662 46.1642C78.2684 46.2909 77.6002 45.8278 77.4735 45.1299C77.3468 44.4322 77.8098 43.7638 78.5079 43.6372L81.8773 43.0259ZM21.229 54.0306C21.9266 53.9039 22.595 54.367 22.7215 55.0647C22.8481 55.7625 22.385 56.4309 21.6873 56.5575L18.3179 57.1689C17.62 57.2955 16.9518 56.8325 16.8252 56.1346C16.6985 55.4369 17.1615 54.7686 17.8596 54.6419L21.229 54.0306ZM76.0773 71.7436C76.5313 71.1987 76.4575 70.389 75.9126 69.935L73.2819 67.743C72.737 67.289 71.9271 67.3627 71.4731 67.9076C71.0192 68.4524 71.0929 69.2621 71.6378 69.7161L74.2686 71.9081C74.8135 72.3621 75.6234 72.2884 76.0773 71.7436ZM28.5574 30.4787C29.1022 30.9327 29.176 31.7424 28.7221 32.2873C28.2681 32.8322 27.4582 32.9059 26.9133 32.4519L24.2825 30.2599C23.7377 29.8059 23.6639 28.9961 24.1179 28.4513C24.5718 27.9064 25.3817 27.8327 25.9266 28.2867L28.5574 30.4787ZM69.935 24.2824C70.389 23.7375 71.1989 23.6639 71.7436 24.1178C72.2885 24.5718 72.3622 25.3815 71.9083 25.9264L69.7162 28.5572C69.2623 29.1021 68.4526 29.1758 67.9077 28.7218C67.3628 28.2678 67.289 27.4581 67.743 26.9132L69.935 24.2824ZM30.4788 71.6376C30.9327 71.0927 31.7426 71.0191 32.2873 71.473C32.8322 71.927 32.906 72.7367 32.452 73.2816L30.2599 75.9125C29.806 76.4573 28.9963 76.531 28.4514 76.077C27.9065 75.623 27.8327 74.8133 28.2867 74.2685L30.4788 71.6376ZM61.353 76.971C61.1081 76.3053 60.3703 75.9643 59.7046 76.2092C59.0391 76.4541 58.698 77.1922 58.9428 77.8578L60.1251 81.0714C60.3701 81.7372 61.1083 82.0782 61.7738 81.8333C62.4392 81.5884 62.7803 80.8502 62.5354 80.1847L61.353 76.971ZM40.491 23.9856C39.8255 24.2304 39.0873 23.8894 38.8424 23.2237L37.66 20.01C37.4153 19.3444 37.7564 18.6063 38.4219 18.3614C39.0875 18.1166 39.8253 18.4576 40.0703 19.1232L41.2526 22.3371C41.4976 23.0026 41.1565 23.7406 40.491 23.9856ZM22.3371 58.9424C23.0028 58.6975 23.7406 59.0386 23.9856 59.7041C24.2305 60.3697 23.8894 61.1078 23.2239 61.3527L20.01 62.5351C19.3443 62.78 18.6066 62.4389 18.3616 61.7733C18.1166 61.1077 18.4577 60.3696 19.1232 60.1247L22.3371 58.9424ZM80.1849 37.6597C80.8506 37.4148 81.5884 37.7558 81.8334 38.4215C82.0783 39.087 81.7372 39.8251 81.0718 40.07L77.8579 41.2524C77.1922 41.4973 76.4544 41.1562 76.2094 40.4906C75.9645 39.825 76.3056 39.0869 76.971 38.842L80.1849 37.6597ZM43.8771 78.5611C43.9979 77.8621 44.6624 77.3935 45.3611 77.5142C46.0602 77.635 46.5288 78.2994 46.408 78.9982L45.8251 82.3726C45.7043 83.0715 45.0401 83.5401 44.3411 83.4194C43.6422 83.2987 43.1736 82.6343 43.2942 81.9354L43.8771 78.5611ZM56.9006 18.2593L56.3176 21.6337C56.1968 22.3325 55.5326 22.8012 54.8337 22.6804C54.1348 22.5597 53.6662 21.8953 53.7868 21.1964L54.3697 17.8221C54.4907 17.1231 55.1549 16.6546 55.8536 16.7753C56.5528 16.896 57.0214 17.5605 56.9006 18.2593ZM82.3728 54.3696C83.0717 54.4904 83.5403 55.1547 83.4195 55.8536C83.2987 56.5524 82.6345 57.0211 81.9358 56.9004L78.5614 56.3175C77.8623 56.1968 77.3939 55.5324 77.5145 54.8335C77.6353 54.1347 78.2995 53.666 78.9984 53.7867L82.3728 54.3696ZM21.6338 43.8771C22.3327 43.9978 22.8013 44.6622 22.6805 45.361C22.5597 46.0599 21.8955 46.5286 21.1968 46.4079L17.8224 45.825C17.1232 45.7042 16.6549 45.0399 16.7754 44.341C16.8963 43.6421 17.5605 43.1735 18.2594 43.2942L21.6338 43.8771ZM50.0976 16.2818C50.8068 16.2818 51.3817 16.8567 51.3817 17.5659V20.9903C51.3817 21.6995 50.8068 22.2744 50.0976 22.2744C49.3884 22.2744 48.8135 21.6995 48.8135 20.9903V17.5659C48.8135 16.8567 49.3884 16.2818 50.0976 16.2818ZM82.6291 48.8133C83.3382 48.8133 83.9132 49.3882 83.9132 50.0974C83.9132 50.8066 83.3382 51.3815 82.6291 51.3815H79.2047C78.4955 51.3815 77.9206 50.8066 77.9206 50.0974C77.9206 49.3882 78.4955 48.8133 79.2047 48.8133H82.6291ZM22.2746 50.0974C22.2746 50.8066 21.6996 51.3815 20.9905 51.3815H17.5661C16.857 51.3815 16.282 50.8066 16.282 50.0974C16.282 49.3882 16.857 48.8133 17.5661 48.8133H20.9905C21.6996 48.8133 22.2746 49.3882 22.2746 50.0974ZM50.0976 77.9204C50.8068 77.9204 51.3817 78.4953 51.3817 79.2045V82.6289C51.3817 83.3381 50.8068 83.913 50.0976 83.913C49.3884 83.913 48.8135 83.3381 48.8135 82.6289V79.2045C48.8135 78.4953 49.3884 77.9204 50.0976 77.9204ZM81.931 61.5052C81.6915 62.1728 80.9564 62.52 80.2888 62.2808L77.0653 61.1255C76.3975 60.8863 76.0504 60.1511 76.2895 59.4835C76.529 58.8158 77.2641 58.4686 77.9316 58.7079L81.1552 59.863C81.8229 60.1024 82.1701 60.8375 81.931 61.5052Z" fill="#DA6F25"/>
<path fill-rule="evenodd" clip-rule="evenodd" d="M50.0975 31.2955C47.5934 31.2955 41.5002 31.6293 38.8292 36.3036C37.883 38.196 38.0802 41.5756 38.233 44.1946C38.2824 45.0412 38.3271 45.8083 38.3271 46.42C38.3271 47.2887 38.4778 47.764 38.6433 48.2859C38.9549 49.2685 39.319 50.4167 38.8292 54.6668C39.2954 56.9095 40.0812 58.0055 41.7506 58.8402L40.4986 60.5096C39.6051 61.0457 38.2525 61.5053 36.9323 61.9539C35.1691 62.5529 33.4637 63.1324 32.9864 63.8483C31.8735 65.5177 31.7343 68.4391 42.168 72.6126C42.2707 72.6537 42.3851 72.7001 42.5101 72.7508C44.0781 73.3867 47.3145 74.6993 50.0975 74.6993V72.1952V31.2955ZM40.9156 38.3903C42.1676 35.4689 47.8713 33.6604 50.0972 33.7995V61.3443H47.5931C47.5931 61.3443 44.5869 57.4803 42.4801 55.7686C41.102 54.6488 41.3287 53.5066 41.5768 52.2568C41.7079 51.5961 41.845 50.9053 41.7541 50.172C41.6464 49.3041 41.5071 48.3455 41.3634 47.3572C40.8479 43.8106 40.2767 39.8811 40.9156 38.3903ZM50.0973 64.683H48.4304C47.6217 64.683 46.837 64.3937 46.2483 63.8392C45.1383 62.7937 43.8372 61.4374 43.8372 60.9269C43.1416 61.3443 41.7504 62.5963 41.7504 64.2657C42.446 66.3524 44.338 70.7762 46.3412 71.7779H50.0973V64.683ZM34.6556 65.5177L39.2464 63.8483C39.942 65.7959 41.4166 69.7746 41.7504 70.1085C39.5246 69.1347 34.9895 66.8532 34.6556 65.5177Z" fill="#DA6F25"/>
<path fill-rule="evenodd" clip-rule="evenodd" d="M50.0973 31.2955C52.6014 31.2955 58.6946 31.6293 61.3656 36.3036C62.3118 38.196 62.1146 41.5756 61.9619 44.1946C61.9125 45.0412 61.8677 45.8083 61.8677 46.42C61.8677 47.2887 61.717 47.764 61.5515 48.2859C61.2399 49.2685 60.8758 50.4167 61.3656 54.6668C60.8995 56.9095 60.1136 58.0055 58.4442 58.8402L59.6962 60.5096C60.5897 61.0457 61.9423 61.5053 63.2626 61.9539C65.0257 62.5529 66.7312 63.1324 67.2084 63.8483C68.3213 65.5177 68.4605 68.4391 58.0269 72.6126C57.9241 72.6537 57.8097 72.7001 57.6847 72.7508C56.1167 73.3867 52.8803 74.6993 50.0973 74.6993V72.1952V31.2955ZM59.2792 38.3903C58.0272 35.4689 52.3234 33.6604 50.0976 33.7995V61.3442H52.6017C52.6017 61.3442 55.6079 57.4803 57.7147 55.7685C59.0928 54.6488 58.8661 53.5065 58.618 52.2568C58.4869 51.5961 58.3497 50.9053 58.4407 50.1719C58.5483 49.3041 58.6877 48.3455 58.8313 47.3572C59.3469 43.8105 59.9181 39.8811 59.2792 38.3903ZM50.0974 64.683H51.7644C52.5731 64.683 53.3578 64.3937 53.9465 63.8392C55.0565 62.7936 56.3576 61.4374 56.3576 60.9269C57.0532 61.3442 58.4443 62.5963 58.4443 64.2656C57.7487 66.3524 55.8568 70.7762 53.8535 71.7778H50.0974V64.683ZM65.5392 65.5177L60.9484 63.8483C60.2528 65.7959 58.7782 69.7746 58.4443 70.1085C60.6702 69.1347 65.2053 66.8532 65.5392 65.5177Z" fill="#DA6F25"/>
</svg>
