<svg width="100" height="100" viewBox="0 0 100 100" fill="none" xmlns="http://www.w3.org/2000/svg">
<path d="M81.037 36.0296L74.9862 32.3662L69.5475 41.3032L64.9216 38.5054L68.0925 51.2567L80.5553 47.9757L75.6184 44.9766" fill="#DA6F25"/>
<path d="M52.007 48.7809C37.2563 48.7809 25.2651 60.8176 25.2651 75.6019C25.2651 77.3732 25.4458 79.1042 25.7669 80.7849H33.2325V77.967H27.854C27.7738 77.192 27.7336 76.3969 27.7336 75.6119C27.7336 72.3511 28.3758 69.2413 29.5398 66.3932L34.1657 68.4563L35.1892 66.1516L30.6035 64.1086C32.1989 61.1296 34.3865 58.533 37.0155 56.4598L48.5752 72.3813C47.933 73.1563 47.5617 74.1426 47.5617 75.2194C47.5617 77.6751 49.5485 79.6779 52.007 79.6779C54.4654 79.6779 56.4522 77.6852 56.4522 75.2194C56.4522 72.7638 54.4654 70.761 52.007 70.761C51.5253 70.761 51.0637 70.8415 50.6322 70.9824L39.0525 55.0206C42.4642 52.8568 46.4378 51.5183 50.7125 51.2969V56.3189H53.3215V51.2969C57.5159 51.5183 61.4293 52.8166 64.8109 54.9099L61.8307 58.996L63.8677 60.4855L66.878 56.3491C69.5673 58.4425 71.815 61.0994 73.4406 64.1287L68.9451 66.1315L69.9687 68.4362L74.5143 66.4032C75.6682 69.2413 76.2904 72.331 76.2904 75.5717C76.2904 76.3667 76.2502 77.1518 76.1699 77.9267H70.3399V80.7447H78.2571C78.5882 79.074 78.7588 77.343 78.7588 75.5616C78.7488 60.8075 66.7576 48.7809 52.007 48.7809V48.7809Z" fill="#DA6F25"/>
<path fill-rule="evenodd" clip-rule="evenodd" d="M20.9891 45.1345C20.9891 44.2752 20.9212 43.5554 21.021 42.8617C21.0636 42.5658 21.4125 42.249 21.697 42.0703C23.0842 41.199 24.5912 40.5034 25.8827 39.5041C30.0661 36.2671 32.5459 32.0058 32.6814 26.4704C32.7198 24.8987 32.136 24.506 30.8021 25.1183C26.9518 26.8859 22.8113 25.8495 20.6016 22.5647C18.1918 18.9821 18.5312 14.212 21.4185 11.0823C25.1065 7.08506 31.1748 6.96545 35.3595 10.783C37.8662 13.0698 39.0573 16.0225 39.3543 19.381C40.3501 30.6326 34.6478 39.9066 24.2695 43.9806C23.2424 44.3836 22.1891 44.7147 20.9891 45.1345" fill="#DA6F25"/>
<path d="M55.2009 21.0324C51.818 20.0849 48.6083 19.8087 45.7898 20.2511L44.3778 11.2676C48.7682 10.5877 53.4726 11.0008 58.4146 12.5073L60.359 7.33911L72.9794 22.7879L53.339 25.9887L55.2009 21.0324Z" fill="#DA6F25"/>
</svg>
