<svg width="101" height="100" viewBox="0 0 101 100" fill="none" xmlns="http://www.w3.org/2000/svg">
<path d="M67.3376 32.9834C66.2173 32.9839 65.1006 33.1079 64.0076 33.3534C62.8213 29.7528 60.4313 26.6705 57.2396 24.6249C54.0479 22.5793 50.2491 21.6951 46.4821 22.1211C42.7151 22.5471 39.2097 24.2572 36.5554 26.9639C33.9011 29.6707 32.2598 33.2088 31.9076 36.9834C30.1347 37.0117 28.3848 37.3888 26.7577 38.0933C25.1306 38.7979 23.6582 39.816 22.4246 41.0895C19.9332 43.6616 18.5655 47.118 18.6226 50.6984C18.6796 54.2789 20.1566 57.69 22.7287 60.1814C25.3007 62.6728 28.7571 64.0405 32.3376 63.9834H34.9776C35.4644 67.8475 37.3439 71.4013 40.2636 73.9786C43.1834 76.556 46.943 77.9799 50.8376 77.9834C51.4558 77.9815 52.0734 77.9448 52.6876 77.8734C53.218 77.8124 53.7025 77.5432 54.0344 77.125C54.3664 76.7068 54.5186 76.1739 54.4576 75.6435C54.3966 75.113 54.1273 74.6285 53.7091 74.2966C53.2909 73.9647 52.758 73.8124 52.2276 73.8734C50.2209 74.1006 48.1893 73.8176 46.321 73.0507C44.4528 72.2838 42.8083 71.0578 41.5399 69.4863C40.2715 67.9148 39.4203 66.0486 39.065 64.0606C38.7097 62.0725 38.862 60.027 39.5076 58.1134C39.6938 58.3115 39.9184 58.4695 40.1677 58.5778C40.417 58.6861 40.6857 58.7425 40.9576 58.7434C41.2202 58.7434 41.4803 58.6917 41.7229 58.5912C41.9656 58.4907 42.1861 58.3434 42.3718 58.1577C42.5575 57.9719 42.7048 57.7515 42.8053 57.5088C42.9058 57.2662 42.9576 57.0061 42.9576 56.7434V52.0834C42.9618 51.7896 42.9013 51.4984 42.7803 51.2306C42.6592 50.9627 42.4806 50.7249 42.2572 50.534C42.0338 50.343 41.7711 50.2036 41.4877 50.1258C41.2043 50.0479 40.9072 50.0335 40.6176 50.0834L36.0276 50.8834C35.7649 50.9182 35.5117 51.0044 35.2824 51.1371C35.053 51.2698 34.8521 51.4463 34.691 51.6566C34.5299 51.8669 34.4118 52.1069 34.3434 52.3629C34.275 52.6189 34.2578 52.8858 34.2926 53.1484C34.3274 53.4111 34.4136 53.6643 34.5462 53.8936C34.6789 54.123 34.8554 54.3239 35.0657 54.485C35.4905 54.8104 36.0271 54.9537 36.5576 54.8834C35.7545 56.4836 35.2271 58.2078 34.9976 59.9834H32.3376C31.0279 59.9974 29.7295 59.7404 28.5239 59.2285C27.3184 58.7167 26.2317 57.9611 25.332 57.0092C24.4324 56.0574 23.7394 54.9297 23.2964 53.6972C22.8534 52.4647 22.67 51.1538 22.7578 49.8471C22.8457 48.5403 23.2027 47.2658 23.8066 46.1036C24.4105 44.9414 25.2482 43.9166 26.2671 43.0937C27.286 42.2707 28.464 41.6673 29.7272 41.3214C30.9905 40.9754 32.3116 40.8944 33.6076 41.0834L35.9676 41.3934L35.8376 38.7234C35.8376 38.6434 35.8376 38.5634 35.8376 38.4834C35.8291 35.3614 36.9901 32.3494 39.0919 30.0408C41.1938 27.7323 44.084 26.2946 47.1931 26.011C50.3022 25.7275 53.4048 26.6186 55.8896 28.5088C58.3744 30.3991 60.0612 33.1514 60.6176 36.2234L61.0476 38.5734L63.2876 37.7334C64.8622 37.1437 66.5471 36.9067 68.2234 37.0392C69.8996 37.1718 71.5264 37.6706 72.9888 38.5005C74.4512 39.3304 75.7136 40.4712 76.687 41.8423C77.6603 43.2135 78.3209 44.7815 78.622 46.4358C78.9231 48.0901 78.8575 49.7904 78.4297 51.4165C78.0019 53.0427 77.2224 54.5552 76.1463 55.8472C75.0701 57.1392 73.7235 58.1792 72.2014 58.8939C70.6794 59.6086 69.019 59.9805 67.3376 59.9834H66.7076C66.4334 57.8152 65.718 55.7261 64.6054 53.8451C63.4928 51.964 62.0066 50.3308 60.2386 49.0461C58.4705 47.7615 56.4579 46.8528 54.3251 46.3759C52.1923 45.899 49.9844 45.8642 47.8376 46.2734C47.3259 46.3813 46.8768 46.6853 46.5865 47.1203C46.2963 47.5553 46.1879 48.0866 46.2847 48.6005C46.3814 49.1144 46.6756 49.57 47.1042 49.8696C47.5328 50.1692 48.0617 50.2891 48.5776 50.2034C50.6404 49.8093 52.7706 49.9634 54.7553 50.6504C56.74 51.3374 58.5095 52.5333 59.8872 54.1185C61.2649 55.7037 62.2024 57.6227 62.6061 59.6837C63.0098 61.7448 62.8654 63.8757 62.1876 65.8634C62.0011 65.6624 61.7752 65.5018 61.5241 65.3917C61.2729 65.2816 61.0018 65.2243 60.7276 65.2234C60.1971 65.2234 59.6884 65.4342 59.3134 65.8092C58.9383 66.1843 58.7276 66.693 58.7276 67.2234V71.8334C58.7091 71.9896 58.7091 72.1473 58.7276 72.3034V72.3934C58.7529 72.4959 58.7864 72.5962 58.8276 72.6934L58.8976 72.8334C58.9365 72.9061 58.9799 72.9762 59.0276 73.0434L59.1576 73.2034L59.2376 73.2934H59.2976L59.3676 73.3734L59.5076 73.4734H59.5776C59.676 73.5357 59.7798 73.5892 59.8876 73.6334C60.1256 73.7312 60.3802 73.7822 60.6376 73.7835H60.9776L65.5676 72.9834C66.098 72.9145 66.5793 72.6376 66.9056 72.2138C67.2319 71.79 67.3765 71.2539 67.3076 70.7234C67.2386 70.193 66.9618 69.7117 66.5379 69.3854C66.1141 69.0591 65.578 68.9145 65.0476 68.9834C65.8763 67.4212 66.4374 65.7311 66.7076 63.9834H67.3376C71.4484 63.9834 75.3909 62.3504 78.2977 59.4436C81.2045 56.5368 82.8376 52.5943 82.8376 48.4834C82.8376 44.3726 81.2045 40.4301 78.2977 37.5233C75.3909 34.6165 71.4484 32.9834 67.3376 32.9834V32.9834Z" fill="#DA6F25"/>
</svg>
