<svg width="100" height="100" viewBox="0 0 100 100" fill="none" xmlns="http://www.w3.org/2000/svg">
<path d="M66.6083 32.9834C65.4881 32.9839 64.3713 33.1079 63.2783 33.3534C62.092 29.7528 59.7021 26.6705 56.5104 24.6249C53.3186 22.5793 49.5199 21.6951 45.7529 22.1211C41.9859 22.5471 38.4805 24.2572 35.8262 26.9639C33.1719 29.6707 31.5306 33.2088 31.1783 36.9834C29.4055 37.0117 27.6555 37.3888 26.0285 38.0933C24.4014 38.7979 22.929 39.816 21.6953 41.0895C19.2039 43.6616 17.8363 47.118 17.8933 50.6984C17.9503 54.2789 19.4273 57.69 21.9994 60.1814C24.5715 62.6728 28.0279 64.0405 31.6083 63.9834H34.2483C34.7351 67.8475 36.6146 71.4013 39.5344 73.9786C42.4541 76.556 46.2137 77.9799 50.1083 77.9834C50.7266 77.9815 51.3442 77.9448 51.9583 77.8734C52.4887 77.8124 52.9732 77.5432 53.3052 77.125C53.6371 76.7068 53.7893 76.1739 53.7283 75.6435C53.6673 75.113 53.3981 74.6285 52.9799 74.2966C52.5617 73.9647 52.0287 73.8124 51.4983 73.8734C49.4916 74.1006 47.46 73.8176 45.5918 73.0507C43.7235 72.2838 42.079 71.0578 40.8107 69.4863C39.5423 67.9148 38.691 66.0486 38.3358 64.0606C37.9805 62.0725 38.1327 60.027 38.7783 58.1134C38.9645 58.3115 39.1891 58.4695 39.4384 58.5778C39.6877 58.6861 39.9565 58.7425 40.2283 58.7434C40.491 58.7434 40.751 58.6917 40.9937 58.5912C41.2363 58.4907 41.4568 58.3434 41.6425 58.1577C41.8282 57.9719 41.9756 57.7515 42.0761 57.5088C42.1766 57.2662 42.2283 57.0061 42.2283 56.7434V52.0834C42.2326 51.7896 42.1721 51.4984 42.051 51.2306C41.93 50.9627 41.7514 50.7249 41.528 50.534C41.3046 50.343 41.0418 50.2036 40.7584 50.1258C40.475 50.0479 40.1779 50.0335 39.8883 50.0834L35.2983 50.8834C35.0357 50.9182 34.7825 51.0044 34.5531 51.1371C34.3238 51.2698 34.1228 51.4463 33.9617 51.6566C33.8006 51.8669 33.6825 52.1069 33.6141 52.3629C33.5458 52.6189 33.5285 52.8858 33.5633 53.1484C33.5981 53.4111 33.6843 53.6643 33.817 53.8936C33.9496 54.123 34.1262 54.3239 34.3365 54.485C34.7613 54.8104 35.2979 54.9537 35.8283 54.8834C35.0252 56.4836 34.4978 58.2078 34.2683 59.9834H31.6083C30.2987 59.9974 29.0003 59.7404 27.7947 59.2285C26.5891 58.7167 25.5024 57.9611 24.6028 57.0092C23.7032 56.0574 23.0101 54.9297 22.5671 53.6972C22.1241 52.4647 21.9408 51.1538 22.0286 49.8471C22.1164 48.5403 22.4735 47.2658 23.0774 46.1036C23.6813 44.9414 24.519 43.9166 25.5379 43.0937C26.5567 42.2707 27.7348 41.6673 28.998 41.3214C30.2612 40.9754 31.5823 40.8944 32.8783 41.0834L35.2383 41.3934L35.1083 38.7234C35.1083 38.6434 35.1083 38.5634 35.1083 38.4834C35.0998 35.3614 36.2608 32.3494 38.3627 30.0408C40.4645 27.7323 43.3547 26.2946 46.4639 26.011C49.573 25.7275 52.6756 26.6186 55.1604 28.5088C57.6451 30.3991 59.3319 33.1514 59.8883 36.2234L60.3183 38.5734L62.5583 37.7334C64.133 37.1437 65.8179 36.9067 67.4941 37.0392C69.1704 37.1718 70.7971 37.6706 72.2595 38.5005C73.7219 39.3304 74.9844 40.4712 75.9577 41.8423C76.9311 43.2135 77.5916 44.7815 77.8927 46.4358C78.1938 48.0901 78.1282 49.7904 77.7004 51.4165C77.2727 53.0427 76.4932 54.5552 75.417 55.8472C74.3409 57.1392 72.9942 58.1792 71.4722 58.8939C69.9502 59.6086 68.2898 59.9805 66.6083 59.9834H65.9783C65.7042 57.8152 64.9888 55.7261 63.8762 53.8451C62.7636 51.964 61.2774 50.3308 59.5093 49.0461C57.7412 47.7615 55.7287 46.8528 53.5959 46.3759C51.463 45.899 49.2551 45.8642 47.1083 46.2734C46.5966 46.3813 46.1475 46.6853 45.8573 47.1203C45.567 47.5553 45.4586 48.0866 45.5554 48.6005C45.6522 49.1144 45.9464 49.57 46.375 49.8696C46.8035 50.1692 47.3324 50.2891 47.8483 50.2034C49.9112 49.8093 52.0414 49.9634 54.0261 50.6504C56.0107 51.3374 57.7803 52.5333 59.158 54.1185C60.5357 55.7037 61.4732 57.6227 61.8768 59.6837C62.2805 61.7448 62.1362 63.8757 61.4583 65.8634C61.2718 65.6624 61.046 65.5018 60.7948 65.3917C60.5437 65.2816 60.2725 65.2243 59.9983 65.2234C59.4679 65.2234 58.9592 65.4342 58.5841 65.8092C58.209 66.1843 57.9983 66.693 57.9983 67.2234V71.8334C57.9798 71.9896 57.9798 72.1473 57.9983 72.3034V72.3934C58.0237 72.4959 58.0571 72.5962 58.0983 72.6934L58.1683 72.8334C58.2073 72.9061 58.2507 72.9762 58.2983 73.0434L58.4283 73.2034L58.5083 73.2934H58.5683L58.6383 73.3734L58.7783 73.4734H58.8483C58.9468 73.5357 59.0505 73.5892 59.1583 73.6334C59.3963 73.7312 59.651 73.7822 59.9083 73.7835H60.2483L64.8383 72.9834C65.3687 72.9145 65.8501 72.6376 66.1764 72.2138C66.5027 71.79 66.6473 71.2539 66.5783 70.7234C66.5094 70.193 66.2325 69.7117 65.8087 69.3854C65.3848 69.0591 64.8487 68.9145 64.3183 68.9834C65.147 67.4212 65.7082 65.7311 65.9783 63.9834H66.6083C70.7192 63.9834 74.6617 62.3504 77.5685 59.4436C80.4753 56.5368 82.1083 52.5943 82.1083 48.4834C82.1083 44.3726 80.4753 40.4301 77.5685 37.5233C74.6617 34.6165 70.7192 32.9834 66.6083 32.9834Z" fill="#DA6F25"/>
</svg>
