<svg width="100" height="100" viewBox="0 0 100 100" fill="none" xmlns="http://www.w3.org/2000/svg">
<path fill-rule="evenodd" clip-rule="evenodd" d="M55.8601 35.6716L52.9102 36.3258C53.7129 40.3917 53.4922 44.6187 52.2678 48.5437C51.0437 52.4688 48.8862 55.961 45.9963 58.6381L47.9631 61.134C51.2644 58.0845 53.7429 54.0891 55.1277 49.6105C56.5325 45.132 56.7834 40.3112 55.8601 35.6716ZM62.9243 36.8592L59.9744 37.5134C60.8975 42.2133 60.6465 47.0844 59.2417 51.6234C57.8369 56.1623 55.3284 60.1879 51.9868 63.2877L53.9536 65.7836C57.7065 62.3115 60.5161 57.7927 62.0916 52.7002C63.667 47.6077 63.958 42.1328 62.9243 36.8592ZM46.0869 36.4462L49.0369 35.792C49.7695 39.4352 49.5688 43.2093 48.4548 46.7318C47.3611 50.2441 45.4146 53.3741 42.8357 55.7693L40.8689 53.2734C43.0564 51.2505 44.6819 48.6238 45.6052 45.6549C46.5283 42.696 46.689 39.5157 46.0869 36.4462Z" fill="#DA6F25"/>
<path fill-rule="evenodd" clip-rule="evenodd" d="M29.2278 26C33.3521 26 36.543 27.248 38.6702 29.6935C40.637 31.958 41.6404 35.1282 41.6404 39.1337C41.6404 43.1494 40.4563 46.4907 38.2188 48.8155C35.9409 51.1906 32.5693 52.4487 28.4954 52.4487H22.6553V70.6245H15.0291V26H29.2278ZM32.0181 44.9005C33.3428 43.6525 34.0151 41.7605 34.0151 39.2545C34.0151 34.1822 31.8074 31.9278 26.8203 31.9278H22.646V46.5309H27.322C29.2588 46.5309 30.8843 45.9673 32.0181 44.9005ZM85.6924 72.8487C85.6924 71.7819 84.8296 70.9063 83.7559 70.9063H61.5999C60.5361 70.9063 59.6631 71.7819 59.6631 72.8487C59.6631 73.9155 60.5361 74.7911 61.5999 74.7911H83.7559C84.8196 74.7911 85.6924 73.9155 85.6924 72.8487ZM72.6777 33.2462L82.8125 68.3802H62.543L62.6533 68.0179L72.6777 33.2462Z" fill="#DA6F25"/>
</svg>
