<svg width="100" height="100" viewBox="0 0 100 100" fill="none" xmlns="http://www.w3.org/2000/svg">
<path fill-rule="evenodd" clip-rule="evenodd" d="M55.8599 35.6716L52.9099 36.3258C53.7126 40.3917 53.4919 44.6187 52.2676 48.5437C51.0435 52.4688 48.886 55.9611 45.9961 58.6381L47.9629 61.134C51.2642 58.0846 53.7427 54.0891 55.1274 49.6105C56.5322 45.132 56.7832 40.3112 55.8599 35.6716ZM62.9241 36.8593L59.9741 37.5134C60.8972 42.2134 60.6462 47.0845 59.2415 51.6234C57.8367 56.1624 55.3281 60.188 51.9866 63.2877L53.9534 65.7837C57.7063 62.3115 60.5159 57.7927 62.0913 52.7003C63.6667 47.6078 63.9578 42.1329 62.9241 36.8593ZM46.0867 36.4462L49.0366 35.792C49.7693 39.4352 49.5686 43.2092 48.4546 46.7317C47.3608 50.2441 45.4143 53.3741 42.8354 55.7694L40.8687 53.2734C43.0562 51.2506 44.6816 48.6238 45.605 45.6549C46.5281 42.696 46.6887 39.5157 46.0867 36.4462Z" fill="#DA6F25"/>
<path fill-rule="evenodd" clip-rule="evenodd" d="M29.2278 26C33.3521 26 36.543 27.2479 38.6702 29.6936C40.637 31.958 41.6404 35.1282 41.6404 39.1338C41.6404 43.1493 40.4563 46.4906 38.2188 48.8154C35.9409 51.1907 32.5693 52.4486 28.4954 52.4486H22.6553V70.6245H15.0291V26H29.2278ZM32.0181 44.9005C33.3428 43.6525 34.0151 41.7604 34.0151 39.2544C34.0151 34.1821 31.8074 31.9277 26.8203 31.9277H22.646V46.5309H27.322C29.2588 46.5309 30.8843 45.9673 32.0181 44.9005ZM85.6924 72.8486C85.6924 71.7819 84.8296 70.9062 83.7559 70.9062H61.5999C60.5361 70.9062 59.6631 71.7819 59.6631 72.8486C59.6631 73.9154 60.5361 74.791 61.5999 74.791H83.7559C84.8196 74.791 85.6924 73.9154 85.6924 72.8486ZM72.6777 33.2462L82.8125 68.3802H62.543L62.6533 68.0179L72.6777 33.2462Z" fill="#DA6F25"/>
</svg>
