<svg width="100" height="100" viewBox="0 0 100 100" fill="none" xmlns="http://www.w3.org/2000/svg">
<path fill-rule="evenodd" clip-rule="evenodd" d="M65.7302 32.0487C64.8372 32.9444 63.603 33.508 62.2283 33.508C60.8738 33.508 59.6294 32.9545 58.7163 32.0487C57.8132 31.153 57.2512 29.895 57.2512 28.5162C57.2512 28.279 57.2896 28.0342 57.3259 27.8018L57.3416 27.701C57.7329 25.3459 59.7698 23.5344 62.2283 23.5344C64.6968 23.5344 66.7236 25.3459 67.115 27.701C67.1653 27.9626 67.1953 28.2444 67.1953 28.5162C67.1953 29.895 66.6335 31.1429 65.7302 32.0487ZM69.5837 34.4842C70.7078 34.4842 71.6108 35.3296 71.7412 36.4064C71.7412 36.4631 71.7493 36.5159 71.7573 36.5696L71.7578 36.5726L71.7583 36.576L71.7598 36.5852C71.7639 36.6123 71.7681 36.6397 71.7712 36.6681V52.2676C71.7712 52.8715 71.5105 53.425 71.1191 53.8174C70.7278 54.1999 70.1858 54.4415 69.5938 54.4415C69.0017 54.4415 68.46 54.1999 68.0686 53.8174C67.6672 53.425 67.4163 52.8715 67.4163 52.2676V38.6205H66.8645V67.7563C66.8645 68.9641 65.8911 69.9402 64.687 69.9402C63.4829 69.9402 62.5095 68.954 62.5095 67.7563V52.489H61.9575V67.7563C61.9575 68.9641 60.9741 69.9402 59.78 69.9402C58.5759 69.9402 57.6025 68.954 57.6025 67.7563V38.6205H57.0508V52.2676C57.0508 52.8715 56.7898 53.425 56.3984 53.8174C56.0071 54.1999 55.4653 54.4415 54.8733 54.4415C54.2812 54.4415 53.7395 54.1999 53.3481 53.8174C52.9468 53.425 52.6958 52.8715 52.6958 52.2676V36.6681C52.6958 36.5876 52.7058 36.497 52.7158 36.4064C52.8464 35.3195 53.7595 34.4842 54.8733 34.4842H69.5837ZM43.3035 50.7579C43.2031 49.9427 42.5208 49.3188 41.6777 49.3188H30.5999C29.7668 49.3188 29.0745 49.9528 28.9741 50.7579L28.9707 50.7815C28.9619 50.8422 28.9541 50.8968 28.9541 50.9592V62.7042C28.9541 63.157 29.1448 63.5797 29.4458 63.8716C29.7468 64.1635 30.1482 64.3446 30.5999 64.3446C31.0513 64.3446 31.4526 64.1635 31.7537 63.8716C32.0547 63.5696 32.2454 63.157 32.2454 62.7042V52.4286H32.6567V74.3685C32.6567 75.2743 33.3894 76.009 34.2925 76.009C35.1956 76.009 35.928 75.2743 35.928 74.3685V62.8752H36.3394V74.3685C36.3394 75.2743 37.072 76.009 37.9751 76.009C38.8782 76.009 39.6106 75.2743 39.6106 74.3685V52.4286H40.0222V62.7042C40.0222 63.157 40.2126 63.5797 40.5139 63.8716C40.8149 64.1635 41.2163 64.3446 41.6677 64.3446C42.1194 64.3446 42.5208 64.1635 42.8218 63.8716C43.1228 63.5696 43.3135 63.157 43.3135 62.7042V50.9592C43.3193 50.9173 43.3147 50.879 43.3101 50.8399C43.3066 50.8134 43.3035 50.7865 43.3035 50.7579ZM38.7874 47.4771C38.1052 48.1514 37.1819 48.5741 36.1484 48.5741C35.125 48.5741 34.1816 48.1514 33.4993 47.4771C32.8169 46.8028 32.3955 45.8568 32.3955 44.8201C32.3955 44.649 32.4219 44.4844 32.4478 44.321L32.4658 44.2062C32.7668 42.4249 34.292 41.0662 36.1484 41.0662C38.0149 41.0662 39.53 42.4349 39.8311 44.2062C39.8711 44.4075 39.8914 44.6088 39.8914 44.8201C39.8914 45.8568 39.4697 46.7927 38.7874 47.4771Z" fill="#DA6F25"/>
<path fill-rule="evenodd" clip-rule="evenodd" d="M19.0393 85.5089H53.9089V78.8766H80.5205V15.0295H45.6506V30.4982H19.0393V85.5089ZM50.4473 82.0375H22.5012V33.9709H49.1125V18.5023H77.0586V75.4052H50.4473V82.0375Z" fill="#DA6F25"/>
</svg>
