<svg width="100" height="100" viewBox="0 0 100 100" fill="none" xmlns="http://www.w3.org/2000/svg">
<path d="M61.1514 23.1465C61.1514 23.9717 60.3586 24.646 59.3953 24.646H40.1894C39.2261 24.646 38.4333 23.9717 38.4333 23.1465V20.5298C38.4333 19.7045 39.2261 19.0302 40.1894 19.0302H59.3953C60.3586 19.0302 61.1514 19.7045 61.1514 20.5298V23.1465Z" fill="#DA6F25"/>
<path fill-rule="evenodd" clip-rule="evenodd" d="M48.0464 41.101V42.8521H50.2439V44.1806C49.9629 44.4221 49.6118 44.6234 49.2004 44.8046C48.8091 44.9656 48.4077 45.0562 47.9963 45.0562C47.1833 45.0562 46.5212 44.7442 46.0195 44.1302C45.5078 43.5164 45.2568 42.5905 45.2568 41.3525C45.2568 40.2053 45.5078 39.3498 45.9995 38.7661C46.491 38.1723 47.1633 37.8905 48.0063 37.8905C48.5581 37.8905 49.0198 38.0314 49.3911 38.3333C49.7725 38.6252 50.0232 39.0378 50.1536 39.541L52.0703 39.1586C51.8896 38.2025 51.4583 37.4577 50.7859 36.9142C50.1135 36.3708 49.1904 36.0991 48.0063 36.0991C47.0933 36.0991 46.3306 36.2701 45.7185 36.6123C44.9158 37.0652 44.3137 37.7194 43.8921 38.5547C43.4807 39.39 43.27 40.3663 43.27 41.4431C43.27 42.4395 43.4607 43.3654 43.832 44.2108C44.2031 45.0562 44.7551 45.7204 45.4976 46.1733C46.2502 46.6262 47.1133 46.8577 48.1167 46.8577C48.9094 46.8577 49.6721 46.6967 50.4446 46.3746C51.2073 46.0526 51.7893 45.6802 52.2007 45.2474V41.101H48.0464ZM25.0776 46.6765V36.2701H32.1519V38.0314H26.9941V40.3361H31.7908V42.0872H26.9941V44.9254H32.3225V46.6765H25.0776ZM33.998 46.6765V36.2701H35.8745L39.7778 43.2144V36.2701H41.574V46.6765H39.6375L35.7942 39.8932V46.6765H33.998ZM53.9167 46.6765V36.2701H55.8433V46.6765H53.9167ZM57.6895 36.2701V46.6765H59.4856V39.8932L63.3289 46.6765H65.2654V36.2701H63.4692V43.2144L59.5659 36.2701H57.6895ZM67.2925 46.6765V36.2701H74.3667V38.0314H69.209V40.3361H74.0056V42.0872H69.209V44.9254H74.5374V46.6765H67.2925ZM25.4187 59.6895L23.0806 59.921C23.2412 61.2695 23.7227 62.2759 24.5054 62.9905C25.3081 63.6849 26.4722 64.0372 27.9773 64.0372C29.011 64.0372 29.884 63.8762 30.5764 63.5944C31.2788 63.3025 31.8105 62.8496 32.1919 62.2559C32.5732 61.662 32.7639 61.0079 32.7639 60.3235C32.7639 59.5687 32.6133 58.9346 32.2922 58.4214C31.9812 57.9182 31.5396 57.5156 30.9778 57.2137C30.4158 56.9218 29.5427 56.6299 28.3687 56.3582C27.1946 56.0663 26.4622 55.8047 26.1511 55.5531C25.9104 55.3619 25.7898 55.1103 25.7898 54.8285C25.7898 54.5266 25.9204 54.285 26.1711 54.0938C26.5625 53.8019 27.1145 53.661 27.8169 53.661C28.4993 53.661 29.001 53.812 29.342 54.0737C29.6731 54.3353 29.9041 54.7781 30.0044 55.3921L32.4126 55.2814C32.3726 54.1844 31.9812 53.3088 31.2185 52.6445C30.4658 51.9803 29.332 51.6482 27.8369 51.6482C26.9138 51.6482 26.1411 51.7991 25.4888 52.0709C24.8367 52.3427 24.335 52.7452 23.9937 53.2786C23.6626 53.812 23.4819 54.3856 23.4819 54.9895C23.4819 55.9355 23.8533 56.7407 24.5857 57.4049C25.1074 57.8679 26.0107 58.2604 27.3052 58.5824C28.3186 58.824 28.9607 58.9951 29.2417 59.0957C29.5032 59.1832 29.7146 59.2822 29.8757 59.3929C29.9158 59.4205 29.9526 59.4487 29.9866 59.4777C30.0359 59.5199 30.0786 59.5637 30.1147 59.6089C30.2754 59.8002 30.3655 60.0518 30.3655 60.3336C30.3655 60.7764 30.1648 61.1588 29.7734 61.491C29.3823 61.8231 28.8003 61.9841 28.0176 61.9841C27.2849 61.9841 26.7031 61.8029 26.2715 61.4305C25.8501 61.0582 25.5591 60.4846 25.4187 59.6895ZM37.5103 63.8259V53.8724H33.968V51.8394H43.4507V53.8724H39.9084V63.8259H37.5103ZM51.9097 63.8259H54.5388L49.7424 51.8495H47.1936L42.5476 63.8259H45.1064L46.0999 61.0984H50.8662L51.9097 63.8259ZM50.1133 59.0856L48.4675 54.6473L46.8521 59.0856H50.1133ZM55.833 51.8495V63.8158H58.2512V58.824H58.7329C59.2749 58.824 59.6863 58.8642 59.937 58.9548C60.188 59.0353 60.4287 59.2064 60.6597 59.4479C60.8904 59.6895 61.3218 60.2833 61.9338 61.2092L63.6799 63.8158H66.5598L65.0947 61.4809C64.5127 60.555 64.0613 59.9008 63.7202 59.5385C63.3889 59.1762 62.9475 58.8441 62.4358 58.5321C63.4792 58.3812 64.262 58.0088 64.7937 57.425C65.3257 56.8413 65.5864 56.1066 65.5864 55.2009C65.5864 54.4963 65.426 53.8724 65.0747 53.3188C64.7336 52.7653 64.272 52.3929 63.6899 52.1716C63.1079 51.9602 62.1848 51.8495 60.9104 51.8495H55.833ZM58.2412 56.9117H60.0173C61.1714 56.9117 61.8938 56.8715 62.1848 56.7709C62.4658 56.6702 62.6965 56.5092 62.8672 56.2676C63.0376 56.0261 63.1079 55.7242 63.1079 55.3619C63.1079 54.9492 62.9976 54.6373 62.7869 54.3856C62.5662 54.1441 62.2751 53.973 61.8738 53.9127C61.6731 53.8925 61.0911 53.8724 60.1177 53.8724H58.2412V56.9117ZM70.5537 53.8724V63.8259H72.9619V53.8724H76.4941V51.8394H67.0115V53.8724H70.5537ZM27.8569 77.0602L30.1951 76.8287C30.3354 77.6238 30.6265 78.1974 31.0479 78.5698C31.4795 78.9422 32.0613 79.1234 32.7939 79.1234C33.5767 79.1234 34.1587 78.9623 34.5498 78.6302C34.9412 78.2981 35.1418 77.9156 35.1418 77.4728C35.1418 77.191 35.0518 76.9395 34.8911 76.7482C34.7305 76.557 34.4395 76.3759 34.0181 76.235C33.8555 76.1768 33.5723 76.095 33.166 75.9896C32.8701 75.9128 32.5088 75.8235 32.0815 75.7217C30.7871 75.3997 29.8838 75.0071 29.3621 74.5442C28.6296 73.8799 28.2583 73.0748 28.2583 72.1288C28.2583 71.5249 28.439 70.9513 28.77 70.4178C29.1113 69.8845 29.613 69.4819 30.2651 69.2101C30.9175 68.9384 31.6902 68.7875 32.6133 68.7875C34.1084 68.7875 35.2422 69.1196 35.9949 69.7838C36.7476 70.4481 37.1489 71.3237 37.189 72.4207L34.7808 72.5314C34.6804 71.9174 34.4495 71.4746 34.1184 71.213C33.7773 70.9513 33.2756 70.8003 32.5933 70.8003C31.8909 70.8003 31.3389 70.9412 30.9475 71.2331C30.6968 71.4243 30.5662 71.6658 30.5662 71.9678C30.5662 72.1438 30.6133 72.308 30.7073 72.4531C30.7637 72.5403 30.8372 72.6206 30.9275 72.6924C31.2385 72.944 31.9709 73.2056 33.145 73.4975C34.3191 73.7793 35.1921 74.0611 35.7542 74.353C36.3159 74.6549 36.7576 75.0574 37.0686 75.5607C37.3896 76.0739 37.5403 76.708 37.5403 77.4628C37.5403 78.1472 37.3496 78.8013 36.9683 79.3951C36.5869 79.9889 36.0552 80.4418 35.3528 80.7336C34.6604 81.0154 33.7874 81.1765 32.7537 81.1765C31.2485 81.1765 30.0845 80.8242 29.2817 80.1298C28.489 79.4253 28.0276 78.4088 27.8569 77.0602ZM42.2869 71.0117V80.9652H44.6851V71.0117H48.2273V68.9788H38.7446V71.0117H42.2869ZM48.9993 75.0474C48.9993 73.8196 49.1899 72.8032 49.5513 71.9678C49.822 71.364 50.1934 70.8104 50.665 70.3273C51.1367 69.8442 51.6584 69.4819 52.2002 69.2505C52.9429 68.9284 53.8057 68.7775 54.769 68.7775C56.5251 68.7775 57.9299 69.331 58.9937 70.4179C60.0471 71.5049 60.5791 73.0346 60.5791 74.977C60.5791 76.9093 60.0471 78.429 59.0037 79.5159C57.96 80.6028 56.5552 81.1564 54.8093 81.1564C53.0332 81.1564 51.6182 80.6129 50.5747 79.526C49.521 78.4492 48.9993 76.9496 48.9993 75.0474ZM52.4011 78.0566C51.7791 77.3521 51.468 76.3256 51.468 74.9669C51.468 73.5881 51.7791 72.5515 52.3611 71.8772C52.9731 71.1928 53.7759 70.8506 54.7693 70.8506C55.7627 70.8506 56.5554 71.1928 57.1575 71.8671C57.7595 72.5515 58.0605 73.5781 58.0605 74.9468C58.0605 76.3356 57.7495 77.3723 57.1375 78.0667C56.5254 78.7611 55.7327 79.1033 54.7793 79.1033C53.8162 79.1033 53.0234 78.751 52.4011 78.0566ZM62.4561 80.9651V68.9888H66.3293C67.7944 68.9888 68.7476 69.0391 69.1992 69.1699C69.8816 69.3511 70.4536 69.7436 70.915 70.3373C71.3767 70.9412 71.6074 71.7162 71.6074 72.6722C71.6074 73.4069 71.4771 74.0309 71.2161 74.524C70.9553 75.0172 70.614 75.4198 70.2026 75.7016C69.7913 75.9834 69.3799 76.1746 68.9482 76.2752C68.3765 76.3859 67.5435 76.4564 66.4497 76.4564H64.8643V80.9752L62.4561 80.9651ZM64.864 74.4033V71.0117H66.0281C66.8909 71.0117 67.4829 71.0419 67.7639 71.0922C67.949 71.1264 68.1221 71.1866 68.28 71.2717C68.4478 71.362 68.5981 71.4805 68.7273 71.6256C68.978 71.9074 69.1086 72.2597 69.1086 72.7025C69.1086 73.0547 69.0283 73.3668 68.8376 73.6284C68.647 73.8901 68.3962 74.0914 68.075 74.2121C67.7639 74.3329 67.1218 74.4033 66.1785 74.4033H64.864Z" fill="#DA6F25"/>
</svg>
