<svg width="100" height="100" viewBox="0 0 100 100" fill="none" xmlns="http://www.w3.org/2000/svg">
<path fill-rule="evenodd" clip-rule="evenodd" d="M43.3105 55.8158L65.5972 15.9013L89.6597 55.8158H43.3105ZM86.0674 53.8231L65.6873 20.0074L46.8025 53.8231H86.0674Z" fill="#DA6F25"/>
<path fill-rule="evenodd" clip-rule="evenodd" d="M63.8613 44.7653H67.7747V28.874H63.8613V44.7653ZM63.9719 47.9355C63.4502 48.4387 63.1992 49.0425 63.1992 49.737C63.1992 50.0892 63.2795 50.4213 63.3999 50.7132C63.5403 51.0252 63.731 51.2768 63.9719 51.4982C64.2126 51.6995 64.4836 51.8806 64.8047 52.0115C65.1257 52.1423 65.457 52.2128 65.8081 52.2128C66.5308 52.2128 67.1428 51.9712 67.6545 51.468C68.1763 50.9648 68.4272 50.361 68.4272 49.6665C68.4272 48.9721 68.1562 48.3884 67.6445 47.9053C67.1228 47.4323 66.5105 47.1907 65.8181 47.1907C65.0957 47.1907 64.4736 47.4423 63.9719 47.9355Z" fill="#DA6F25"/>
<path fill-rule="evenodd" clip-rule="evenodd" d="M37.0193 30.5145C36.7786 30.293 36.4375 30.0213 36.0462 29.8603C36.0259 27.2436 36.0059 24.8785 35.9659 22.9462V22.7248C35.9659 22.6077 35.9634 22.4958 35.9607 22.3853V22.3817V22.3785V22.3754V22.3722V22.369V22.3658V22.3627V22.3595V22.3563V22.3531V22.35V22.3468V22.3436C35.9583 22.2491 35.9558 22.1556 35.9558 22.0605C35.9558 21.9849 35.9537 21.9048 35.9512 21.8254L35.9507 21.8062L35.9505 21.802L35.9497 21.7748L35.9495 21.7699L35.9488 21.7417V21.7368L35.9485 21.7318L35.9478 21.7032V21.699V21.6951V21.6913V21.6876V21.6839V21.6802C35.9468 21.6412 35.9458 21.6034 35.9458 21.5674C35.9458 21.4265 35.9458 21.2957 35.9356 21.1749V21.1649V21.0038C35.9356 20.9373 35.9334 20.8663 35.9309 20.7961L35.9305 20.7795L35.9302 20.7751L35.9295 20.7507L35.9292 20.7456L35.9285 20.7204L35.9283 20.7154L35.9275 20.6897V20.6855V20.6816V20.6778V20.6743V20.6707V20.6672V20.664C35.9266 20.6318 35.9256 20.6006 35.9256 20.571L35.9244 20.4458L35.9239 20.4189L35.9234 20.394L35.9229 20.371L35.9224 20.3497L35.9219 20.3303L35.9214 20.3123L35.9209 20.2955L35.9204 20.2796L35.9202 20.2732L35.9195 20.2457V20.2419V20.238V20.2345V20.2311V20.228V20.225V20.2224V20.2197V20.2171V20.2145V20.2119C35.9175 20.1469 35.9156 20.0829 35.9156 20.0175C35.9156 19.9169 35.9156 19.8062 35.9056 19.7056C35.9016 19.6059 35.8992 19.5093 35.897 19.4159L35.8965 19.4008L35.8963 19.3861L35.896 19.3721L35.8958 19.3583C35.8933 19.2371 35.8907 19.1214 35.8855 19.0111C35.6346 12.9726 30.5572 11.0403 25.0284 11.0403H23.7137C18.1949 11.0403 13.1072 12.9726 12.8565 19.0111C12.8511 19.0948 12.8487 19.1895 12.8462 19.2908L12.846 19.2972L12.8455 19.3143C12.8433 19.4008 12.8409 19.4918 12.8365 19.5848V19.7458C12.8265 19.937 12.8265 20.1282 12.8265 20.3396V20.4704C12.8265 20.5443 12.8245 20.6194 12.8225 20.6956V20.6993V20.7031V20.7072V20.7114V20.7158V20.7203V20.7251V20.73V20.7352V20.7405V20.746L12.8218 20.7803L12.8216 20.7875C12.8189 20.9006 12.8162 21.0163 12.8162 21.1346V21.2655C12.8162 21.3963 12.8162 21.5272 12.8062 21.6781C12.8062 21.7348 12.8042 21.7938 12.8023 21.8539V21.8577V21.8614V21.8651V21.8688V21.8728V21.877V21.8813L12.8016 21.9068L12.8013 21.9109V21.9149V21.9189V21.923V21.927L12.8008 21.9465C12.7984 22.0283 12.7962 22.111 12.7962 22.1914C12.7962 22.3524 12.7962 22.5235 12.7862 22.6845V22.916C12.7674 24.1717 12.753 25.6212 12.7373 27.2015L12.7364 27.2921L12.7344 27.4977L12.7342 27.5289L12.7312 27.8194C12.7234 28.6228 12.7151 29.4567 12.7058 30.3132C12.2141 30.444 11.7828 30.7862 11.5118 31.0378C10.98 31.5108 10.9197 32.5877 11.5821 32.8393C11.8831 32.8393 12.2945 32.6481 12.7058 32.3864C12.6526 40.0027 12.6399 48.8659 12.6324 54.1692L12.6321 54.298V54.3735V54.4517V54.5328L12.6319 54.6174C12.6299 56.0883 12.6282 57.2509 12.6258 57.9896V58.8954C13.2478 59.4791 13.4385 63.062 13.4385 63.525C13.4385 66.051 18.7666 66.9166 23.7237 66.9166H25.0484C30.0054 66.9166 35.3335 66.0309 35.3335 63.525C35.3335 63.0519 35.5242 59.4791 36.1465 58.8954V58.7948V57.9796C36.1465 54.5477 36.1365 42.058 36.0662 31.9435C36.3973 32.1348 36.7183 32.2656 36.9693 32.2656C37.6114 32.0744 37.5513 30.9976 37.0193 30.5145ZM29.4832 12.3185C31.139 12.7512 32.6841 13.3853 33.6575 14.281C34.3399 14.8949 34.7613 15.6396 34.7613 16.5052V16.8977C34.3299 16.7166 34.1092 16.3039 34.0188 16.0624C33.9988 15.9919 33.9786 15.9315 33.9485 15.8712C33.7879 15.4384 33.5071 15.0559 33.1558 14.7037C32.2127 13.7375 30.6473 13.0934 28.9815 12.711L29.4832 12.3185ZM31.742 43.8746L31.741 43.8948C31.7334 44.0616 31.7259 44.231 31.721 44.403C31.4517 51.7533 32.8929 53.8511 33.514 54.755C33.6805 54.9971 33.7879 55.1536 33.7879 55.3025L34.0489 42.9236C33.3365 43.2054 32.5838 43.3765 31.761 43.4067C31.7561 43.5604 31.7493 43.7164 31.742 43.8746ZM34.0689 41.8568C33.583 42.1248 32.7964 42.2421 32.2051 42.3303C32.0638 42.3513 31.9334 42.3708 31.8211 42.3902C32.3931 33.4431 34.3496 28.7432 34.3496 28.7432L34.0689 41.8568ZM33.6673 28.8136C32.2124 27.4549 27.0547 26.2875 24.3655 26.2875C21.6761 26.2875 16.5083 27.465 15.0835 28.8136C16.0469 30.1722 16.7493 32.7285 17.221 35.8283C18.9268 34.5703 23.0711 34.4697 24.3655 34.4697C25.66 34.4697 29.8343 34.5703 31.5301 35.8384C31.9915 32.7386 32.7041 30.1722 33.6673 28.8136ZM17.01 44.403C17.2793 51.762 15.8377 53.8548 15.2168 54.7563C15.0506 54.9977 14.9432 55.1537 14.9432 55.3025L14.6822 42.9236C15.3946 43.1852 16.1473 43.3463 16.97 43.3966C16.99 43.7186 17 44.0609 17.01 44.403ZM14.4078 28.7871C14.3965 28.7579 14.3909 28.7432 14.3914 28.7432L14.6724 41.8568C15.2056 42.1287 16.0728 42.2455 16.7163 42.3323L16.9202 42.36C16.3802 33.9325 14.5972 29.2812 14.4078 28.7871ZM13.9698 16.4951C13.9698 15.6194 14.3912 14.8848 15.0735 14.2709C16.0669 13.3751 17.5923 12.7411 19.2478 12.3083L19.7495 12.7009C18.084 13.0934 16.5186 13.7274 15.5652 14.6734C15.2141 15.0156 14.9532 15.3981 14.7725 15.8409C14.7525 15.9113 14.7325 15.9717 14.7022 16.0321C14.6018 16.2837 14.3811 16.7064 13.9598 16.8674C13.9698 16.7668 13.9698 16.6259 13.9698 16.4951ZM13.7891 63.1223C13.7891 63.4645 13.8694 63.7765 14.0501 64.0382C14.5818 64.8835 15.8965 65.3666 17.6023 65.6384L17.0403 64.8333C16.7693 64.7628 16.5486 64.7024 16.388 64.6219C15.7359 64.32 15.2842 63.8067 14.9532 63.1827C14.6822 62.6694 14.5015 62.0555 14.3711 61.4014L13.7591 61.7234C13.7791 62.1763 13.7891 62.6494 13.7891 63.1223ZM24.3655 60.405C18.8367 60.405 16.6392 59.1671 16.3882 58.3016C17.0003 56.8021 17.4319 54.3464 17.6726 51.458C18.385 52.1223 20.7933 52.3436 24.3555 52.3436C27.958 52.3436 30.3763 52.1021 31.0586 51.4278C31.2994 54.3263 31.731 56.792 32.3431 58.2916C32.0921 59.1772 29.8946 60.405 24.3655 60.405ZM34.691 64.0382C34.8514 63.7665 34.9517 63.4645 34.9517 63.1224C34.9517 62.6494 34.9517 62.1864 34.982 61.7335L34.3699 61.4114C34.2393 62.0555 34.0586 62.6594 33.7879 63.1928C33.4666 63.8268 33.0152 64.3301 32.3528 64.632C32.1824 64.7125 31.9615 64.7729 31.7007 64.8433L31.1387 65.6484C32.8445 65.3566 34.149 64.8735 34.691 64.0382ZM54.0777 63.8873C53.8567 64.1288 53.586 64.471 53.4253 64.8635C50.8164 64.8836 48.4583 64.9037 46.5318 64.944H46.3108C46.1941 64.944 46.0826 64.9466 45.9725 64.9492C45.8645 64.9517 45.7579 64.9541 45.6487 64.9541C45.5672 64.9541 45.4803 64.9567 45.3948 64.9592L45.3909 64.9594L45.3863 64.9595L45.3809 64.9597C45.3028 64.9619 45.2266 64.9641 45.157 64.9641C45.0164 64.9641 44.886 64.9641 44.7657 64.9742H44.595C44.5235 64.9742 44.4468 64.9768 44.3714 64.9794L44.3675 64.9795L44.3626 64.9797C44.293 64.982 44.2249 64.9843 44.1636 64.9843C44.0606 64.9843 43.9656 64.9869 43.8731 64.9895C43.7852 64.9919 43.6995 64.9943 43.6116 64.9943C43.5113 64.9943 43.4009 64.9943 43.3006 65.0044C43.1932 65.0088 43.0891 65.0111 42.9893 65.0134L42.9751 65.0137L42.9605 65.014L42.9544 65.0142C42.8335 65.0168 42.7181 65.0193 42.6082 65.0245C36.5874 65.2761 34.6609 70.3686 34.6609 75.9139V77.2324C34.6609 82.7676 36.5874 87.8702 42.6082 88.1218C42.6932 88.1271 42.7896 88.1296 42.8926 88.1323L42.8948 88.1323L42.8973 88.1324C42.9873 88.1348 43.0826 88.1373 43.1802 88.1419H43.3406C43.5313 88.152 43.722 88.152 43.9327 88.152H44.0633C44.1663 88.152 44.2715 88.1544 44.3792 88.1569C44.492 88.1594 44.6075 88.162 44.7254 88.162H44.856C44.9864 88.162 45.1167 88.162 45.2674 88.1721C45.3465 88.1721 45.4305 88.1746 45.5157 88.1771L45.5237 88.1773C45.6087 88.1797 45.6951 88.1822 45.7791 88.1822C45.9397 88.1822 46.1101 88.1822 46.2708 88.1923H46.5015C47.8467 88.2122 49.4151 88.2277 51.1289 88.2447L51.1436 88.2448C52.0203 88.2535 52.9349 88.2626 53.877 88.2728C54.0074 88.7659 54.3484 89.1987 54.5994 89.4704C55.0711 90.0038 56.1448 90.0642 56.3955 89.4C56.3955 89.098 56.2049 88.6854 55.9441 88.2728C57.409 88.2828 58.9244 88.2929 60.4495 88.2929V86.3706L52.2915 86.5417C52.2915 86.5426 52.3103 86.5354 52.3479 86.521C52.7676 86.3608 55.5225 85.3089 60.4495 84.5792V68.4866C55.0811 67.6915 52.2915 66.5241 52.2915 66.5241L60.4495 66.6952V64.8434L55.5025 64.8735C55.6932 64.5414 55.8235 64.2194 55.8235 63.9678C55.6228 63.2935 54.5491 63.3539 54.0777 63.8873ZM40.471 87.0147C40.3103 86.592 39.889 86.3706 39.638 86.27C39.5779 86.2398 39.5176 86.2197 39.4475 86.1995C39.0059 86.0184 38.6245 85.7567 38.2835 85.4045C37.3401 84.4484 36.708 82.8784 36.3167 81.2077L35.9253 81.7109C36.3567 83.3715 36.9891 84.9012 37.8821 85.8976C38.4942 86.582 39.2266 87.0046 40.0996 87.0046C40.23 87.0046 40.3606 87.0046 40.471 87.0147ZM59.3758 69.3924C58.1114 71.0932 58.011 75.2799 58.011 76.5782C58.011 77.8765 58.1114 82.033 59.3658 83.7439C56.2752 84.2169 53.7264 84.9214 52.3716 85.8876C51.0271 84.4484 49.8531 79.2653 49.8531 76.558C49.8531 73.8608 51.0171 68.6879 52.3716 67.2286C53.7264 68.2148 56.2852 68.9294 59.3758 69.3924ZM39.668 66.9065C39.9087 66.8159 40.3201 66.5945 40.5008 66.1617H40.1094C39.2464 66.1617 38.5039 66.5844 37.8919 67.2688C36.9988 68.2451 36.3665 69.7949 35.9351 71.4555L36.3265 71.9587C36.7078 70.288 37.3499 68.718 38.3133 67.772C38.6646 67.4197 39.0457 67.1379 39.4773 66.9769C39.5374 66.9468 39.5977 66.9266 39.668 66.9065Z" fill="#DA6F25"/>
<path fill-rule="evenodd" clip-rule="evenodd" d="M26.8945 65.0849C26.8945 70.2579 31.0889 74.4647 36.2466 74.4647C41.4043 74.4647 45.5989 70.2579 45.5989 65.0849C45.5989 59.9119 41.4043 55.7051 36.2466 55.7051C31.0889 55.7051 26.8945 59.9119 26.8945 65.0849ZM27.8074 65.095C27.8074 60.4252 31.6003 56.631 36.2463 56.631C40.9023 56.631 44.6853 60.4252 44.6853 65.095C44.6853 69.7647 40.9023 73.5589 36.2463 73.5589C31.5903 73.5589 27.8074 69.7546 27.8074 65.095Z" fill="#DA6F25"/>
<path fill-rule="evenodd" clip-rule="evenodd" d="M29.4033 65.0849C29.4033 61.3008 32.4639 58.2211 36.2468 58.2211C40.0298 58.2211 43.1003 61.3008 43.0903 65.0849C43.0903 68.869 40.0298 71.9487 36.2468 71.9487C32.4739 71.9487 29.4033 68.869 29.4033 65.0849ZM42.0964 65.095C42.0964 61.8644 39.4673 59.2275 36.2463 59.2275C33.0254 59.2275 30.4062 61.8442 30.3962 65.095C30.3962 68.3256 33.0254 70.9623 36.2463 70.9623C39.4673 70.9623 42.0964 68.3256 42.0964 65.095Z" fill="#DA6F25"/>
<path d="M36.2465 68.9194C38.3579 68.9194 40.0696 67.2026 40.0696 65.0849C40.0696 62.9672 38.3579 61.2505 36.2465 61.2505C34.135 61.2505 32.4233 62.9672 32.4233 65.0849C32.4233 67.2026 34.135 68.9194 36.2465 68.9194Z" fill="#DA6F25"/>
</svg>
