<svg width="100" height="100" viewBox="0 0 100 100" fill="none" xmlns="http://www.w3.org/2000/svg">
<path d="M5.08027 44.7428C5.08027 44.934 5.0602 45.1957 5.15051 45.3366C5.24082 45.4775 6.09375 46.1317 7.20757 46.4135C8.31136 46.7053 9.49543 46.655 9.86671 46.8664C10.248 46.8462 10.6594 46.8664 10.6594 46.8664V46.8563L11.3217 46.333L11.6328 46.3229C12.2449 48.2653 14.0611 49.6743 16.1984 49.6743C17.5631 49.6743 18.7873 49.1107 19.6603 48.1848C20.2524 47.6715 20.714 47.0173 20.9849 46.2525L21.0451 46.2625L22.0586 46.2323C22.0586 46.494 22.0485 46.6852 22.0586 46.7355L49.6333 46.343V46.333H49.6433V46.2223C49.6433 46.1216 49.6533 45.9505 49.6634 45.7593L49.6834 45.7694L50.3256 46.0914L50.5966 46.1015C50.8575 46.9268 51.3291 47.6413 51.9713 48.1948C52.8443 49.1107 54.0685 49.6843 55.4332 49.6843C57.8816 49.6843 59.8885 47.8426 60.1895 45.4775H60.2196L60.3501 45.1555L61.0926 45.6184V45.6788C61.0926 45.6788 61.1127 45.6788 61.1428 45.6889H61.1629C61.2732 45.709 61.494 45.7291 61.6646 45.7291C61.8954 45.7291 62.0258 44.8837 62.5978 44.6925C62.8988 44.2094 63.0694 43.2835 63.1296 42.4079V42.3878C63.1798 41.7336 63.1597 41.0996 63.0594 40.7474C62.8185 40.224 62.1964 40.0026 62.1462 39.439C62.0961 38.8855 62.0459 37.7583 61.9757 37.3658C61.9757 37.3557 61.9656 37.3457 61.9656 37.3356C61.9757 37.3255 61.9857 37.3054 61.9857 37.3054C61.9857 37.3054 61.8653 36.3392 61.7449 36.1279C61.6244 35.9166 61.3134 35.1517 60.8217 34.6988C60.7715 34.6585 60.7213 34.6283 60.6712 34.6082C60.4805 34.3063 59.8684 33.481 59.1058 33.0483C59.0556 33.0181 59.0757 33.0583 59.1058 33.1187C59.0657 33.0986 59.0155 33.0684 58.9753 33.0583L58.9252 33.008C58.7446 32.696 57.3698 31.4481 56.1557 30.4718C55.8647 30.2404 55.5937 30.0189 55.3228 29.8378C54.9415 29.556 54.6405 29.3547 54.4598 29.3044V29.3145L54.4498 29.3044C54.4498 29.3044 54.2792 29.093 54.0886 29.0729C54.2491 28.9018 54.6605 28.7509 54.6605 28.4691C54.6605 28.3181 54.1387 28.2074 53.5969 28.1269C53.4263 28.1068 53.2557 28.0866 53.1052 28.0665C52.8042 28.0363 52.5433 28.0162 52.4329 28.0162C52.2422 28.0061 50.0246 27.7243 47.4558 27.4928C46.9942 27.4526 46.5326 27.4023 46.1112 27.362C43.5624 27.1305 40.8531 26.8991 36.3978 27.3419C32.5345 27.7243 31.4308 28.62 31.4308 28.62L31.3103 28.6804C31.3103 28.6905 31.3103 28.6905 31.3204 28.7005C31.3103 28.7005 31.3103 28.7106 31.3204 28.7106C25.8717 31.4179 22.46 33.4005 21.9582 33.8232C21.9382 33.8333 21.9081 33.8534 21.888 33.8635C21.8278 33.8735 21.597 33.9037 21.5267 33.9339C21.2659 33.9742 20.9046 34.0245 20.4631 34.0949C20.5133 34.0748 20.5534 34.0748 20.5534 34.0748C19.1686 34.2862 17.9344 34.5076 16.8005 34.7189C13.1379 35.4133 8.65254 36.5305 7.4183 37.9395L7.38819 37.9696H7.39823C7.37816 37.9898 7.35809 38.02 7.33802 38.0401C5.50172 40.4656 5.50172 40.9889 5.3512 41.6129C5.21072 42.2369 5.23079 43.5351 5.24082 43.5855C5.26089 43.6358 5.43148 43.6559 5.43148 43.6559L5.36123 44.4308C5.33113 44.4007 5.08027 44.5415 5.08027 44.7428Z" fill="#DA6F25"/>
<path d="M23.7847 57.5649H46.2619V51.2345L57.5908 62.607L46.2619 73.9695V67.6492H23.7847" fill="#DA6F25"/>
<path fill-rule="evenodd" clip-rule="evenodd" d="M63.4607 56.7597L78.6028 29.6469L94.9287 56.7597H63.4607ZM92.491 55.4011L78.6533 32.4346L65.8293 55.4011H92.491Z" fill="#DA6F25"/>
<path fill-rule="evenodd" clip-rule="evenodd" d="M80.0583 38.4631H77.4092V49.2619H80.0583V38.4631ZM78.7336 50.8923C79.2053 50.8923 79.6267 51.0634 79.9778 51.3855C80.3391 51.7075 80.5098 52.1101 80.4998 52.5932C80.4998 53.0662 80.3391 53.4788 79.9878 53.811C79.6367 54.1431 79.2253 54.3141 78.7336 54.3141C78.4927 54.3141 78.272 54.2538 78.0613 54.1733C77.8506 54.0827 77.6699 53.972 77.4993 53.821C77.3289 53.6801 77.2083 53.499 77.1079 53.2876C77.0076 53.0762 76.9675 52.8549 76.9675 52.6133C76.9675 52.1403 77.1282 51.7277 77.4792 51.3956C77.8306 51.0634 78.2419 50.8923 78.7336 50.8923Z" fill="#DA6F25"/>
</svg>
