<svg width="100" height="100" viewBox="0 0 100 100" fill="none" xmlns="http://www.w3.org/2000/svg">
<path fill-rule="evenodd" clip-rule="evenodd" d="M37.8579 66.0534V74.9703L79.1096 74.9803V79.1268H21.0803V74.9803H29.2283V66.6573L25.1143 66.9391C23.7996 67.0397 22.6558 66.0333 22.5654 64.7149L21.0903 43.3185C21.0703 43.1172 21.0803 42.9058 21.1204 42.7045L24.4919 24.901C24.6926 23.8241 25.5959 23.019 26.6794 22.9486L68.4028 20.0501C69.4866 19.9797 70.48 20.6338 70.8311 21.6704L76.5911 38.6084C76.6611 38.8097 76.7114 39.011 76.7214 39.2223L78.2166 60.8603C78.3169 62.1787 77.3135 63.326 75.999 63.4166L71.3931 63.7386V72.9977H62.7734V64.3324L37.8579 66.0534ZM28.8674 27.6085L25.8972 43.2884L27.1816 61.9676L73.28 58.7671L71.9753 39.8566L66.908 24.9717L28.8674 27.6085Z" fill="#DA6F25"/>
</svg>
