<svg width="100" height="100" viewBox="0 0 100 100" fill="none" xmlns="http://www.w3.org/2000/svg">
<path fill-rule="evenodd" clip-rule="evenodd" d="M57.562 39.4758C57.261 39.2041 56.8393 38.8619 56.3276 38.6606C56.3076 35.3898 56.2776 32.4108 56.2373 29.9954V29.7236C56.2373 29.59 56.2351 29.4564 56.2329 29.3249L56.2322 29.2958V29.2881C56.2297 29.155 56.2273 29.0244 56.2273 28.8984C56.2273 28.7914 56.2246 28.6844 56.2222 28.5787C56.2197 28.4756 56.2173 28.3738 56.2173 28.2744C56.2173 28.1864 56.2151 28.1031 56.2129 28.0223L56.2122 28.0079L56.21 27.9308C56.2085 27.8771 56.2073 27.8242 56.2073 27.7712V27.751V27.5397C56.2073 27.4838 56.2063 27.4279 56.2048 27.3719C56.2019 27.2467 56.1973 27.1215 56.1973 26.9962C56.1924 26.8747 56.1899 26.7603 56.1875 26.6494L56.1868 26.6306L56.1824 26.4447C56.1811 26.3969 56.1794 26.3494 56.1772 26.3018C56.1772 26.181 56.167 26.0402 56.167 25.9194C56.157 25.5973 56.147 25.3055 56.137 25.0639C55.8159 17.4957 49.4541 15.0702 42.5303 15.0702H40.8845C33.9609 15.0702 27.5991 17.4957 27.2778 25.0639C27.2678 25.2753 27.2578 25.5269 27.2578 25.7885C27.2578 25.859 27.2578 25.9294 27.2478 25.9999L27.2436 26.1235L27.2395 26.3087L27.239 26.3297L27.2383 26.351L27.2375 26.3721L27.2341 26.5341C27.2324 26.6035 27.2305 26.6736 27.2278 26.7446V26.9258C27.2178 27.1874 27.2178 27.4592 27.2078 27.751V27.9221C27.2078 28.0832 27.1975 28.2643 27.1975 28.4254C27.1975 28.4883 27.1965 28.5522 27.1953 28.6167L27.1926 28.7448C27.1902 28.8555 27.1875 28.9675 27.1875 29.0795C27.1875 29.1865 27.1848 29.2935 27.1824 29.3991V29.4028C27.1799 29.5046 27.1775 29.6053 27.1775 29.7035V29.9853L27.1638 31.1363C27.136 33.4778 27.103 36.2594 27.0771 39.2544C26.4651 39.4154 25.9233 39.8482 25.572 40.1702C24.8997 40.764 24.8296 42.1227 25.6623 42.4146C26.0337 42.4146 26.5554 42.183 27.0671 41.851C26.9868 54.4312 26.9768 69.7287 26.9768 73.9557V75.0929C27.7695 75.8276 28.0005 80.3062 28.0005 80.9C28.0005 84.0601 34.6833 85.1672 40.9048 85.1672H42.5503C48.7617 85.1672 55.4546 84.0601 55.4546 80.9C55.4546 80.3162 55.6855 75.8276 56.4783 75.0929V74.9722V73.9557C56.4783 69.6683 56.4683 53.9883 56.3779 41.3176C56.7993 41.5591 57.1907 41.7101 57.5017 41.7101C58.3144 41.4484 58.2341 40.0998 57.562 39.4758ZM48.1094 16.6605C50.1865 17.1939 52.113 17.9991 53.3472 19.1162C54.2002 19.8911 54.7319 20.817 54.7319 21.9039V22.3971C54.1902 22.1857 53.9192 21.6624 53.7988 21.3404C53.7915 21.3112 53.783 21.282 53.7734 21.2529C53.7644 21.2247 53.7546 21.1965 53.7444 21.1684L53.7185 21.0988V21.0887C53.5078 20.5453 53.1667 20.0622 52.7251 19.6194C51.521 18.4419 49.5642 17.6468 47.457 17.1537L48.1094 16.6605ZM50.9536 56.2773C50.9465 56.479 50.9392 56.683 50.9294 56.887C50.5896 66.0898 52.3909 68.7249 53.1716 69.8667C53.3821 70.1746 53.5183 70.374 53.5183 70.5642L53.8494 55.0352C52.9563 55.3875 52.0032 55.5988 50.9795 55.639C50.9692 55.8474 50.9614 56.061 50.9536 56.2773ZM53.8796 53.6866C53.279 54.0239 52.3079 54.1689 51.563 54.2803L51.5564 54.2812L51.541 54.2834L51.2808 54.3229C51.199 54.3357 51.1216 54.3483 51.0498 54.3609C51.7622 43.1494 54.2207 37.2619 54.2207 37.2619L53.8796 53.6866ZM53.3577 37.3323C51.5515 35.6415 45.0791 34.1722 41.7075 34.1722C38.3459 34.1722 31.8638 35.6516 30.0676 37.3223C31.2617 39.0231 32.1548 42.2235 32.7368 46.0982C34.8843 44.5383 40.052 44.4075 41.6875 44.4075C43.3232 44.4075 48.551 44.5383 50.6785 46.1284C51.2605 42.2437 52.1536 39.0332 53.3577 37.3323ZM32.4861 56.887C32.8267 66.1114 31.0098 68.7435 30.2295 69.8737L30.2273 69.8765L30.2236 69.8814C30.0984 70.0634 30.0002 70.2063 29.9429 70.3317C29.9067 70.411 29.887 70.4833 29.887 70.5541L29.5559 55.0251C30.459 55.3472 31.4023 55.5585 32.4258 55.619L32.4861 56.887ZM32.3552 54.3207C31.6428 43.1293 29.1843 37.2619 29.1843 37.2619L29.5356 53.6766C30.1821 54.0141 31.2429 54.1635 32.0486 54.277L32.3552 54.3207ZM30.0576 19.1162C31.2917 17.9991 33.2185 17.1939 35.2956 16.6605L35.9377 17.1537C33.8406 17.6468 31.8838 18.4419 30.6797 19.6295C30.4924 19.8129 30.3232 20.0055 30.1743 20.2086C29.9722 20.4845 29.8076 20.78 29.6863 21.0988V21.1089L29.6716 21.1498C29.6492 21.2143 29.6311 21.2755 29.6062 21.3504C29.4856 21.6624 29.2148 22.1857 28.6728 22.4072C28.6687 22.3315 28.6663 22.2593 28.6648 22.1892L28.6633 22.0738L28.6628 21.9039C28.6728 20.817 29.1946 19.9012 30.0576 19.1162ZM28.4419 80.3768C28.4419 80.8096 28.5522 81.192 28.7732 81.5241C29.4353 82.5607 31.0911 83.1646 33.2285 83.5269L32.5259 82.5205V82.5104C32.449 82.4941 32.3755 82.4772 32.3054 82.4597L32.249 82.4453C32.1965 82.4316 32.146 82.4175 32.0972 82.4028L32.0207 82.379C31.907 82.3422 31.8044 82.3024 31.7131 82.2588C30.8804 81.8763 30.3184 81.2423 29.907 80.4473C29.5659 79.8032 29.345 79.0282 29.1846 78.213L28.4119 78.6257C28.4319 79.1993 28.4419 79.783 28.4419 80.3768ZM41.7073 76.9751C34.7734 76.9751 32.0239 75.4353 31.7029 74.3282C32.4756 72.4563 33.0173 69.3766 33.3184 65.7536C34.2314 66.5688 37.2419 66.8506 41.6873 66.8506C46.2026 66.8506 49.2331 66.5587 50.0959 65.7133C50.397 69.3465 50.939 72.4362 51.7117 74.3282C51.3904 75.4152 48.6411 76.9751 41.7073 76.9751ZM54.6418 81.5443C54.8525 81.2021 54.9729 80.8297 54.9729 80.397C54.9729 79.7931 54.9829 79.1893 55.0132 78.6559L54.2405 78.2432C54.0798 79.0584 53.8591 79.8132 53.5178 80.4775C53.1064 81.2725 52.5347 81.9166 51.7117 82.289C51.501 82.3796 51.23 82.4601 50.8989 82.5406V82.5507L50.1965 83.5571C52.3237 83.1948 53.9695 82.5909 54.6418 81.5443Z" fill="#DA6F25"/>
<path d="M58.134 79.4912C58.134 80.2963 58.7963 80.9606 59.5991 80.9606H73.6573C74.4601 80.9606 75.1224 80.2963 75.1224 79.4912C75.1224 79.4912 59.5288 45.6353 59.3783 45.1522C58.7863 44.5585 58.134 44.9107 58.134 45.7158V79.4912H58.134Z" fill="#DA6F25"/>
</svg>
