<svg width="100" height="100" viewBox="0 0 100 100" fill="none" xmlns="http://www.w3.org/2000/svg">
<path fill-rule="evenodd" clip-rule="evenodd" d="M19 74.705L48.8188 21.2949L81 74.705H19ZM76.2109 71.9941L48.9675 26.7599L23.6609 71.9941H76.2109Z" fill="#DA6F25"/>
<path fill-rule="evenodd" clip-rule="evenodd" d="M51.7141 38.6287H46.4783V59.9116H51.7141V38.6287ZM49.0964 63.1349C50.033 63.1349 50.8416 63.4765 51.5439 64.1169C52.2463 64.7573 52.6082 65.5258 52.5869 66.4651C52.5869 67.4043 52.2039 68.2155 51.5439 68.8773C50.8203 69.539 50.033 69.8806 49.0537 69.8806C48.5854 69.8806 48.1387 69.7739 47.7129 69.6031C47.3086 69.4323 46.9468 69.1975 46.6062 68.8986C46.2656 68.6211 46.0315 68.2582 45.8398 67.8526C45.6697 67.4684 45.5632 67.0201 45.5632 66.5505C45.5632 65.6112 45.9463 64.8 46.6062 64.1382C47.3298 63.4765 48.1172 63.1349 49.0964 63.1349Z" fill="#DA6F25"/>
</svg>
