<svg width="100" height="100" viewBox="0 0 100 100" fill="none" xmlns="http://www.w3.org/2000/svg">
<path d="M47.5585 24.6711L46.9767 23.1988C55.2681 19.8665 63.6091 19.452 71.1074 21.993C78.6058 24.534 84.9859 29.9371 89.5339 37.6203L88.1769 38.4356C83.8143 31.0809 77.7375 25.9081 70.6003 23.4895C63.4471 21.0867 55.4713 21.4868 47.5585 24.6711Z" fill="#DA6F25"/>
<path fill-rule="evenodd" clip-rule="evenodd" d="M67.8877 31.4645C73.3333 33.3099 77.992 37.2583 81.3172 42.8907L82.6741 42.0754C79.1541 36.1113 74.2237 31.9327 68.398 29.9585C62.5914 27.9908 56.1109 28.3238 49.6966 30.9002L50.2784 32.3725C56.3489 29.9347 62.4231 29.6128 67.8877 31.4645ZM64.6644 40.9773C68.827 42.3878 72.3643 45.3931 74.9134 49.6892L76.2703 48.8739C73.5328 44.2588 69.6983 41.0042 65.1746 39.4712C60.6509 37.9383 55.6312 38.1818 50.6487 40.1914L51.2305 41.6637C55.8565 39.799 60.5018 39.5667 64.6644 40.9773Z" fill="#DA6F25"/>
<path fill-rule="evenodd" clip-rule="evenodd" d="M71.0518 78.4196C71.7261 78.6842 72.283 79.14 72.6934 79.5075C73.5731 80.3014 73.6902 82.1097 72.5762 82.4625C72.1512 82.4625 71.6234 82.242 71.0665 81.9333L71.1104 90.225H67.9442L68.2374 76.5525C68.2374 76.5525 66.2879 81.2276 64.9686 90.225H38.1585C36.928 81.9238 35.1732 77.3019 34.9205 76.6363C34.8992 76.5804 34.8885 76.5525 34.8897 76.5525L35.1829 90.225H31.9874L32.0313 82.6684C31.3423 83.1094 30.6536 83.4182 30.1551 83.4182C29.0411 83.0212 29.1583 81.2129 30.0379 80.419C30.5069 79.9926 31.2252 79.4193 32.046 79.1988C32.0565 78.1 32.066 77.0232 32.0753 75.9744V75.95C32.1055 72.5458 32.1331 69.4376 32.178 66.8347V66.4524C32.1927 66.1878 32.1927 65.9084 32.1927 65.6291C32.1927 65.3351 32.2073 65.041 32.2073 64.7617C32.2178 64.5915 32.2208 64.4289 32.2217 64.2685L32.222 64.0854V63.8502C32.222 63.468 32.2366 63.1004 32.2366 62.7476V62.527C32.2366 62.1742 32.2366 61.8361 32.2513 61.5273V61.248C32.2701 61.0226 32.2767 60.8093 32.283 60.6117C32.2864 60.5 32.2899 60.3933 32.2952 60.2924C32.7203 50.1923 41.2222 46.9727 50.4422 46.9727H52.6409C61.8758 46.9727 70.3629 50.1923 70.7879 60.2924C70.8077 60.5309 70.8143 60.783 70.8209 61.053L70.8211 61.068C70.824 61.1926 70.8272 61.3211 70.8318 61.4538C70.8465 61.6155 70.8465 61.8067 70.8465 61.9684C70.8465 62.1482 70.8521 62.3281 70.8563 62.518C70.8589 62.6386 70.8611 62.7633 70.8611 62.8946L70.8624 63.0111C70.8636 63.0861 70.866 63.1643 70.8685 63.2433L70.8726 63.4001C70.8746 63.4731 70.8758 63.5453 70.8758 63.615V63.8943V63.909C70.8904 64.1148 70.8904 64.3354 70.8904 64.5706C70.8904 64.6323 70.8914 64.6967 70.8929 64.7629L70.8975 64.9595C70.9012 65.1029 70.9051 65.2503 70.9051 65.3939C70.9051 65.5778 70.9088 65.7581 70.9124 65.9401L70.9158 66.1068L70.9183 66.2684C70.9193 66.3435 70.9197 66.4194 70.9197 66.4965V66.864C70.9651 69.3616 70.993 72.2886 71.0235 75.503L71.0518 78.4196ZM34.1568 56.7052C34.8751 56.4259 35.2415 55.7349 35.4026 55.3086C35.4254 55.2632 35.4442 55.21 35.4632 55.153L35.4913 55.0673C35.5003 55.0402 35.5098 55.0126 35.5201 54.9851C35.8133 54.25 36.253 53.6031 36.8392 53.0298C38.4371 51.4567 41.0462 50.3982 43.8314 49.7366L42.981 49.075C40.2108 49.7954 37.6602 50.8539 36.0037 52.3535C34.8751 53.3826 34.1714 54.6176 34.1714 56.0731C34.1714 56.2936 34.1714 56.5141 34.1568 56.7052ZM63.5176 88.402C60.6739 86.2849 53.7112 86.1085 51.5418 86.1085C49.3724 86.1085 42.4537 86.2849 39.5953 88.3726C38.8184 83.1976 37.6309 78.9194 36.0186 76.6553C38.4227 74.406 47.0562 72.4359 51.5565 72.4359C56.0565 72.4359 64.6756 74.3913 67.0943 76.6553C65.4818 78.9194 64.2945 83.2123 63.5176 88.402ZM67.6661 55.3673C67.8275 55.7643 68.1939 56.4699 68.9122 56.764V56.1024C68.9122 54.6469 68.2232 53.412 67.0799 52.3829C65.4527 50.898 62.8729 49.8248 60.1024 49.1044L59.2523 49.766C62.0374 50.4128 64.6465 51.4861 66.2296 53.1033C66.816 53.6913 67.2703 54.3382 67.5489 55.0586C67.5928 55.1468 67.6221 55.2497 67.6661 55.3673Z" fill="#DA6F25"/>
<path fill-rule="evenodd" clip-rule="evenodd" d="M21.7532 9.7749C19.5439 9.7749 17.7532 11.5658 17.7532 13.7749V42.9727C17.7532 45.1818 19.5439 46.9727 21.7532 46.9727H36.7952C39.0044 46.9727 40.7952 45.1818 40.7952 42.9727V13.7749C40.7952 11.5658 39.0044 9.7749 36.7952 9.7749H21.7532ZM29.2742 22.1173C31.8503 22.1173 33.9385 20.0291 33.9385 17.453C33.9385 14.877 31.8503 12.7887 29.2742 12.7887C26.6982 12.7887 24.6099 14.877 24.6099 17.453C24.6099 20.0291 26.6982 22.1173 29.2742 22.1173ZM33.9385 28.4816C33.9385 31.0577 31.8503 33.146 29.2742 33.146C26.6982 33.146 24.6099 31.0577 24.6099 28.4816C24.6099 25.9056 26.6982 23.8173 29.2742 23.8173C31.8503 23.8173 33.9385 25.9056 33.9385 28.4816ZM29.2742 44.1744C31.8503 44.1744 33.9385 42.0861 33.9385 39.51C33.9385 36.934 31.8503 34.8457 29.2742 34.8457C26.6982 34.8457 24.6099 36.934 24.6099 39.51C24.6099 42.0861 26.6982 44.1744 29.2742 44.1744Z" fill="#DA6F25"/>
</svg>
