<svg width="100" height="100" viewBox="0 0 100 100" fill="none" xmlns="http://www.w3.org/2000/svg">
<path fill-rule="evenodd" clip-rule="evenodd" d="M31.2908 14.7992L27.5198 14.0557L26.01 21.7581L29.781 22.5016L31.2908 14.7992ZM74.0471 21.7982L72.5374 14.0955L68.7664 14.8392L70.2761 22.5417L74.0471 21.7982ZM76.8018 55.738L78.8989 66.4765L82.6719 65.7318L80.5747 54.9933L76.8018 55.738ZM76.0195 51.8231L73.9224 41.0846L77.6953 40.3398L79.7925 51.0783L76.0195 51.8231ZM71.0623 26.4211L73.1594 37.1595L76.9324 36.4148L74.8352 25.6763L71.0623 26.4211ZM83.439 69.6843L84.9487 77.3868L81.178 78.1303L79.6682 70.4278L83.439 69.6843ZM21.1406 66.4765L17.3677 65.7318L19.4648 54.9933L23.2378 55.738L21.1406 66.4765ZM20.238 51.0783L24.011 51.8231L26.1082 41.0846L22.3352 40.3398L20.238 51.0783ZM26.8904 37.1595L23.1174 36.4148L25.2146 25.6763L28.9875 26.4211L26.8904 37.1595ZM20.3748 70.403L16.6038 69.6594L15.094 77.3618L18.865 78.1055L20.3748 70.403Z" fill="#DA6F25"/>
<path fill-rule="evenodd" clip-rule="evenodd" d="M49.8501 41.8092C26.0081 41.8092 49.8501 9.09058 49.8501 9.09058C49.8501 9.09058 73.6919 41.8092 49.8501 41.8092ZM64.5603 76.0878L68.3032 78.2516C69.0457 78.6743 69.2966 79.6304 68.855 80.4153C68.574 80.9186 68.0523 81.2004 67.5105 81.2004C67.2495 81.2004 66.9785 81.1299 66.7378 80.989L62.9949 78.8253L62.9849 83.5353C62.9849 84.4008 62.2825 85.0952 61.4294 85.0952C60.5667 85.0952 59.8743 84.4008 59.8743 83.5353L59.8943 77.0338L51.385 72.1024V81.9351L57.0444 85.1858C57.7871 85.6185 58.0479 86.5746 57.6165 87.3194C57.3254 87.8226 56.8037 88.1044 56.2617 88.1044C56.001 88.1044 55.73 88.0339 55.4893 87.8931L51.385 85.528V89.8656C51.385 90.7311 50.6926 91.4256 49.8296 91.4256C48.9668 91.4256 48.2744 90.7311 48.2744 89.8656V85.5582L44.2305 87.883C43.4778 88.3157 42.5347 88.0541 42.1033 87.3093C41.6716 86.5545 41.9326 85.6085 42.6751 85.1757L48.2644 81.9552V72.0923L39.7752 77.0036L39.7952 83.5051C39.7952 84.3605 39.1028 85.065 38.24 85.065C37.387 85.065 36.6846 84.3605 36.6846 83.5051L36.6746 78.795L32.9417 80.9589C32.7009 81.0997 32.4299 81.1702 32.169 81.1702C31.6372 81.1702 31.1155 80.8884 30.8245 80.3852C30.3931 79.6404 30.6538 78.6843 31.3965 78.2516L35.1292 76.0878L31.0652 73.7227C30.3228 73.2899 30.0718 72.3339 30.5034 71.5891C30.9348 70.8444 31.8882 70.5927 32.6306 71.0255L38.24 74.2963L46.739 69.375L38.26 64.4636L32.6506 67.7345C32.3999 67.8754 32.1289 67.9459 31.8679 67.9459C31.3362 67.9459 30.8145 67.6741 30.5234 67.1709C30.092 66.4261 30.3428 65.4701 31.0855 65.0373L35.1492 62.6722L31.4165 60.5084C30.6738 60.0757 30.4131 59.1196 30.8445 58.3748C31.2759 57.6301 32.2293 57.3684 32.9719 57.8011L36.7046 59.965L36.7146 55.2549C36.7146 54.3894 37.417 53.695 38.27 53.695C39.1331 53.695 39.8254 54.3894 39.8254 55.2549L39.8052 61.7564L48.2744 66.6577V56.835L42.6851 53.6145C41.9426 53.1817 41.6816 52.2256 42.1133 51.4809C42.5447 50.7361 43.4981 50.4744 44.2405 50.9072L48.2844 53.2321V48.9246C48.2844 48.0591 48.9768 47.3646 49.8398 47.3646C50.7026 47.3646 51.395 48.0591 51.395 48.9246V53.2723L55.4993 50.9072C56.2517 50.4744 57.1951 50.7261 57.6265 51.4809C58.0579 52.2357 57.7971 53.1817 57.0544 53.6145L51.395 56.8652V66.6778L59.8943 61.7564L59.8743 55.2549C59.8743 54.3995 60.5667 53.695 61.4294 53.695C62.2825 53.695 62.9849 54.3995 62.9849 55.2549L62.9949 59.965L66.7278 57.8011C67.4702 57.3684 68.4236 57.6301 68.855 58.3748C69.2866 59.1196 69.0256 60.0757 68.283 60.5084L64.5503 62.6722L68.6143 65.0373C69.3567 65.4701 69.6077 66.4261 69.176 67.1709C68.8853 67.6641 68.3633 67.9459 67.8316 67.9459C67.5606 67.9459 67.2998 67.8754 67.0488 67.7345L61.4397 64.4636L52.9504 69.375L61.4497 74.2963L67.0588 71.0255C67.8015 70.5927 68.7546 70.8444 69.1863 71.5891C69.6177 72.3339 69.3667 73.2899 68.6243 73.7227L64.5603 76.0878Z" fill="#DA6F25"/>
</svg>
