<svg width="100" height="100" viewBox="0 0 100 100" fill="none" xmlns="http://www.w3.org/2000/svg">
<path fill-rule="evenodd" clip-rule="evenodd" d="M50.3621 55.479H49.9307C47.1008 55.479 44.813 53.1743 44.813 50.3463V28.3661C44.813 25.5381 47.1108 23.2334 49.9307 23.2334H50.3621C53.1816 23.2334 55.4797 25.528 55.4797 28.3661V50.3463C55.4797 53.1743 53.1816 55.479 50.3621 55.479ZM45.2244 62.8359C45.2244 60.1085 47.4419 57.9044 50.1414 57.9044C52.8506 57.9044 55.0481 60.1085 55.0581 62.8359C55.0581 65.5632 52.8606 67.7673 50.1414 67.7673C47.4219 67.7673 45.2244 65.5432 45.2244 62.8359Z" fill="#DA6F25"/>
<path d="M78.6391 23.9278C78.609 23.8775 78.5589 23.0522 78.5288 23.0019V21.7137C78.5288 19.1876 76.3513 18.0403 73.8326 18.0403C71.314 18.0403 69.287 19.1977 69.287 21.7137L69.7185 25.1456C69.7185 25.7897 69.8489 26.4137 70.1098 26.9974C70.3808 27.6214 70.7621 28.1548 71.4946 29.1914C73.642 32.2308 79.6024 40.1714 79.6024 48.0818C79.6024 52.8523 78.3782 58.1561 76.552 62.1616C75.0368 65.4627 72.478 68.1297 69.9092 70.4646L69.6683 70.6055H30.4135L30.1727 70.4646C27.6139 68.1297 25.0551 65.4627 23.5299 62.1616C21.6936 58.1661 20.4694 52.8724 20.4694 48.0818C20.4694 40.1815 26.4399 32.2408 28.5772 29.1914C29.3097 28.1447 29.681 27.6214 29.962 26.9974C30.2229 26.4137 30.3533 25.7897 30.3533 25.1456L30.7848 21.7137C30.7848 19.1876 28.7478 18.0403 26.2392 18.0403C23.7306 18.0403 21.5431 19.1977 21.5431 21.7137V23.0019C21.513 23.0522 21.4628 23.8876 21.4327 23.9278C18.8338 27.6214 12.0806 37.4239 12.0806 48.2227C12.0806 54.3317 13.2847 60.0582 15.6829 65.2614C17.6296 69.5085 20.3891 73.3429 23.6704 76.4427V81.978H32.0391V76.8855H35.6515V81.978H42.9466V76.8855H46.559V81.978H52.9007V76.8855H56.5232V81.978H64.1795V76.8855H67.7919V81.978H76.4015V76.4527C79.6927 73.353 82.4422 69.5085 84.3889 65.2714C86.7771 60.0683 87.9912 54.3317 87.9912 48.2328C87.9812 37.4339 81.2481 27.6214 78.6391 23.9278Z" fill="#DA6F25"/>
</svg>
