<svg width="100" height="100" viewBox="0 0 100 100" fill="none" xmlns="http://www.w3.org/2000/svg">
<path d="M78.5586 23.8875C78.5285 23.8372 78.4783 23.012 78.4482 22.9616V21.6734C78.4482 19.1473 76.2707 18 73.7521 18C71.2334 18 69.2064 19.1574 69.2064 21.6734L69.6379 25.1053C69.6379 25.7494 69.7684 26.3734 70.0293 26.9571C70.3002 27.5811 70.6815 28.1145 71.414 29.1511C73.5614 32.1905 79.5219 40.1311 79.5219 48.0416C79.5219 52.812 78.2977 58.1158 76.4614 62.1213C74.9462 65.4224 72.3874 68.0894 69.8186 70.4243L69.5777 70.5652H30.333L30.0921 70.4243C27.5333 68.0894 24.9746 65.4224 23.4493 62.1213C21.613 58.1259 20.3888 52.8321 20.3888 48.0416C20.3888 40.1412 26.3593 32.2005 28.4967 29.1511C29.2292 28.1044 29.6004 27.5811 29.8814 26.9571C30.1423 26.3734 30.2728 25.7494 30.2728 25.1053L30.7042 21.6734C30.7042 19.1473 28.6672 18 26.1586 18C23.64 18 21.4625 19.1574 21.4625 21.6734V22.9616C21.4324 23.012 21.3822 23.8473 21.3521 23.8875C18.7632 27.5811 12 37.3836 12 48.1825C12 54.2914 13.2041 60.0179 15.6024 65.2211C17.5491 69.4682 20.3085 73.3026 23.5898 76.4024V81.9377H31.9585V76.8452H35.5709V81.9377H42.866V76.8452H46.4784V81.9377H52.8202V76.8452H56.4426V81.9377H64.0989V76.8452H67.7113V81.9377H76.3209V76.4125C79.6122 73.3127 82.3616 69.4682 84.3083 65.2312C86.6965 60.028 87.9107 54.2914 87.9107 48.1925C87.9107 37.3937 81.1675 27.5811 78.5586 23.8875Z" fill="#DA6F25"/>
<path fill-rule="evenodd" clip-rule="evenodd" d="M69.8789 61.1653C68.2231 63.4901 65.6643 64.6676 62.2727 64.6676C58.3391 64.6676 55.7402 63.4096 54.1348 60.6923C52.6396 58.1964 51.9473 54.3418 51.9473 48.5649C51.9473 42.7881 52.6497 38.9335 54.1448 36.4376C55.7705 33.7303 58.3794 32.4623 62.333 32.4623C66.176 32.4623 68.8955 33.7203 70.4006 36.1961C71.6348 38.2391 71.7754 40.6746 71.7754 42.3151V43.2007H66.2764V42.3654C66.2764 40.2721 65.7847 36.7798 62.4734 36.7798H62.2727C59.0518 36.7798 57.426 38.5914 57.426 48.4442C57.426 58.4681 59.1318 60.3602 62.2727 60.3602C63.9084 60.3602 65.0422 59.5751 65.7246 57.9548C66.2063 56.8075 66.437 55.308 66.437 53.3655V52.5302H71.9358V53.4964C71.9358 56.6263 71.2234 59.2833 69.8789 61.1653ZM41.3508 37.7963V64.0839H35.8621V37.7963H28.6472V33.056H48.4351V37.7963H41.3508Z" fill="#DA6F25"/>
</svg>
