<svg width="100" height="100" viewBox="0 0 100 100" fill="none" xmlns="http://www.w3.org/2000/svg">
<path fill-rule="evenodd" clip-rule="evenodd" d="M36.5601 34.3835H34.1419V47.4569H36.5601V34.3835ZM49.9261 84.3722C45.2901 84.3722 40.7747 81.8763 36.8814 77.1663C32.7972 72.2147 30.5496 66.3876 29.5762 63.3583C28.7534 60.7819 28.2315 58.3765 28.0911 56.4139C27.9104 54.0288 28.3018 52.5192 29.2752 51.8147C29.6966 51.5127 30.7903 50.7277 37.5638 50.1239C41.4671 49.7816 46.3138 49.5905 51.2105 49.5905C55.8465 49.5905 60.0408 49.7515 63.3221 50.0735C68.6304 50.5768 70.0452 51.3417 70.6673 51.875C71.6807 52.7606 72.022 54.532 71.701 57.3097C71.44 59.6748 70.6973 62.5632 69.6238 65.4717C67.7974 70.3629 65.1785 74.8516 62.2583 78.0922C58.4854 82.2588 54.3413 84.3722 49.9261 84.3722ZM30.7002 53.7671C30.5196 54.0087 30.2085 55.317 30.7903 58.467C31.3423 61.3555 32.4361 64.6766 33.9012 67.8066C35.888 72.0638 41.417 81.9569 49.916 81.9569C53.398 81.9569 56.7395 80.3264 59.8704 77.0958C63.2217 73.6338 65.4395 69.276 66.7139 66.2266C67.948 63.2878 68.8211 60.2787 69.2024 57.7626C69.6138 54.995 69.2325 53.8979 69.0718 53.7268C68.9917 53.6564 68.1087 52.9922 63.0913 52.5192C59.8804 52.2072 55.7762 52.0461 51.2105 52.0461C46.3741 52.0461 41.6077 52.2373 37.7644 52.5594C32.135 53.0425 30.9009 53.6464 30.7002 53.7671ZM41.4265 34.3835H43.8448V47.4569H41.4265V34.3835ZM51.1299 34.3835H48.7117V47.4569H51.1299V34.3835ZM56.0069 34.3835H58.4251V47.4569H56.0069V34.3835ZM65.7205 34.3835H63.3023V47.4569H65.7205V34.3835Z" fill="#DA6F25"/>
<path d="M71.6795 27.1977L68.9401 15.4427L65.9097 20.3339C61.2838 18.4016 55.805 17.3549 50.0151 17.3247C44.4159 17.2945 38.8367 18.2406 34.2108 20.0118L31.351 15.02L28.2002 26.6743L39.8201 29.8345L37.0406 24.9735C40.8637 23.635 45.3892 22.9305 49.975 22.9607C54.6109 22.9908 59.1465 23.7759 62.8893 25.1949L59.9392 29.9553L71.6795 27.1977Z" fill="#DA6F25"/>
</svg>
