<svg width="100" height="100" viewBox="0 0 100 100" fill="none" xmlns="http://www.w3.org/2000/svg">
<path d="M84.0741 34.8145L78.0233 31.1511L72.5846 40.0881L67.9587 37.2903L71.1296 50.0416L83.5924 46.7607L78.6555 43.7615" fill="#DA6F25"/>
<path fill-rule="evenodd" clip-rule="evenodd" d="M22.6123 53.8458C22.6123 53.8458 27.5693 53.8458 27.9907 53.7754C28.301 53.7209 28.4553 53.4979 28.5234 53.3995C28.5434 53.3707 28.5559 53.3527 28.5627 53.3527V47.4148H41.5774C45.6313 45.3617 50.217 44.2043 55.0737 44.2043C55.6155 44.2043 56.1675 44.2144 56.7192 44.2446C56.8599 43.7213 56.9902 43.1274 57.0405 42.4633C57.5823 36.2335 56.9602 34.0395 56.9602 34.0395C56.9602 34.0395 59.7898 34.1502 60.2515 33.9892C60.6228 33.8483 60.8535 33.1036 60.8535 32.7614C60.8535 32.6752 60.8579 32.5054 60.8635 32.2941C60.8801 31.6664 60.906 30.6724 60.8535 30.4164C60.7832 30.0641 59.6094 29.4503 59.6094 29.4503H55.6155C55.6155 29.4503 53.4883 23.5929 52.2439 22.345C51.6218 21.7209 49.625 20.7548 48.2502 20.4831C46.8655 20.2114 38.4668 20 38.4668 20C38.4668 20 30.0579 20.2114 28.6831 20.4831C27.3083 20.7548 25.2715 21.6807 24.6894 22.345C23.5957 23.5728 21.3179 29.4503 21.3179 29.4503H17.324C17.0432 29.4503 16.1501 30.0742 16.0798 30.4164C16.0273 30.6724 16.0532 31.6664 16.0698 32.2941C16.0754 32.5054 16.0798 32.6752 16.0798 32.7614C16.0798 33.1036 16.3105 33.8583 16.6819 33.9892C17.1435 34.1502 19.9731 34.0395 19.9731 34.0395C19.9731 34.0395 19.3411 36.2335 19.8928 42.4633C20.1738 45.6838 21.7893 47.4148 21.7893 47.4148C21.7893 47.4148 21.8696 52.8394 21.7996 53.2621C21.7292 53.6848 22.6123 53.8458 22.6123 53.8458ZM53.4485 32.6608H23.2849C23.2048 32.4695 23.5962 30.5272 23.5962 30.5272C23.5962 30.5272 25.7234 25.0623 26.4961 24.4081C27.0781 23.925 28.7539 23.0495 29.938 22.8079C31.1218 22.5664 38.3467 22.3853 38.3467 22.3853C38.3467 22.3853 45.5715 22.5664 46.7556 22.8079C47.9397 23.0394 49.6455 23.8949 50.1975 24.4081C51.2009 25.3542 53.0974 30.5272 53.0974 30.5272C53.0974 30.5272 53.5288 32.4595 53.4485 32.6608Z" fill="#DA6F25"/>
<path d="M55.0441 47.5658C40.2934 47.5658 28.3022 59.6025 28.3022 74.3868C28.3022 76.1581 28.4829 77.8891 28.804 79.5699H36.2696V76.7519H30.8911C30.8109 75.977 30.7707 75.1819 30.7707 74.3969C30.7707 71.1361 31.4129 68.0263 32.5769 65.1781L37.2028 67.2413L38.2263 64.9366L33.6406 62.8935C35.2361 59.9145 37.4236 57.318 40.0526 55.2448L51.6123 71.1663C50.9701 71.9412 50.5988 72.9275 50.5988 74.0044C50.5988 76.46 52.5856 78.4628 55.0441 78.4628C57.5025 78.4628 59.4893 76.4701 59.4893 74.0044C59.4893 71.5487 57.5025 69.5459 55.0441 69.5459C54.5624 69.5459 54.1008 69.6265 53.6694 69.7674L42.0896 53.8056C45.5013 51.6418 49.475 50.3033 53.7496 50.0818V55.1039H56.3586V50.0818C60.553 50.3033 64.4664 51.6015 67.848 53.6949L64.8678 57.7809L66.9048 59.2704L69.9151 55.1341C72.6044 57.2274 74.8521 59.8843 76.4777 62.9137L71.9822 64.9164L73.0058 67.2211L77.5514 65.1882C78.7053 68.0263 79.3275 71.116 79.3275 74.3566C79.3275 75.1517 79.2873 75.9367 79.2071 76.7116H73.377V79.5296H81.2942C81.6254 77.859 81.7959 76.1279 81.7959 74.3466C81.7859 59.5925 69.7947 47.5658 55.0441 47.5658Z" fill="#DA6F25"/>
</svg>
