<svg width="100" height="100" viewBox="0 0 100 100" fill="none" xmlns="http://www.w3.org/2000/svg">
<path d="M75.4418 64.5056H75.4217C73.5553 64.4955 71.729 63.7709 70.2841 62.4525C69.1502 61.4159 68.3073 60.0471 67.8256 58.5274L61.6946 58.4268L61.7347 55.8302L68.8592 55.9409C69.4713 55.951 70.0031 56.3938 70.1135 56.9977C70.6553 59.8358 72.893 61.8889 75.4217 61.8989H75.4317C77.9504 61.8989 80.1881 59.8559 80.75 57.0379C80.75 57.0279 80.76 57.0077 80.76 56.9977L80.9808 56.0718C81.0912 55.6088 81.4424 55.2465 81.8939 55.1257C82.1649 55.0452 84.543 54.381 84.6735 54.3407C84.7437 54.3206 84.8039 54.3105 84.8742 54.3005C86.0081 54.1596 87.0817 53.9482 87.4731 53.7872C88.2959 53.445 88.4866 52.3078 88.4866 51.9455L88.5066 46.6517C88.4866 46.2391 88.2457 42.6864 88.1554 41.2976V39.9691C88.1454 39.8081 88.1354 39.6269 88.1253 39.4961C87.9146 39.2948 87.8243 39.0633 87.6938 38.7614C87.6136 38.5702 87.5132 38.3085 87.3828 37.9865C87.1319 37.3424 86.7807 36.4668 86.4094 35.4905C85.6468 33.5482 84.7738 31.2636 84.2219 29.8546C84.0814 29.4923 83.9711 29.1904 83.8808 28.969C83.6901 28.8583 83.5295 28.7677 83.3991 28.7073C80.0978 28.6872 54.3192 28.4859 47.4155 28.9891C45.6595 29.1803 44.646 29.3514 42.8799 30.9717C42.8599 30.9919 38.4949 34.7156 32.2434 39.4558C32.0227 39.6169 31.7718 39.7074 31.5009 39.7175C19.881 40.0697 14.4022 42.153 13.5492 42.6562C12.7665 43.713 11.733 46.1284 11.4019 46.9838C11.3115 47.2153 11.161 47.4166 10.9603 47.5575C10.9302 47.5877 10.8199 47.7185 10.6794 48.0204C10.6894 48.7652 10.7195 50.6573 10.7295 51.5228L13.4589 54.8339L15.5561 55.6591L16.5495 55.7497H16.6499L18.2955 55.7598C18.9177 55.7598 19.4495 56.2127 19.5699 56.8165C20.1118 59.6748 22.3394 61.748 24.8781 61.758H24.8882C27.4269 61.758 29.6545 59.6949 30.2165 56.8668C30.3369 56.263 30.8687 55.8202 31.4908 55.8202L33.2669 55.8302H44.8868V58.4268H32.4742C31.3604 61.9291 28.3099 64.3647 24.8681 64.3647H24.848C21.3962 64.3546 18.3457 61.8889 17.2519 58.3563H16.8104C16.7101 58.3664 16.5997 58.3765 16.4994 58.3664L15.1146 58.2456C14.9942 58.2356 14.8637 58.2054 14.7534 58.1551L12.1745 57.1285C11.9638 57.048 11.7932 56.9172 11.6427 56.7461L8.40155 52.8311C8.21089 52.5996 8.10051 52.3279 8.10051 52.026C8.10051 51.8851 8.03027 48.4431 8.03027 47.7789V47.7286C8.03027 47.5072 8.08045 47.2858 8.19082 47.1046C8.47179 46.4303 8.79289 46.0177 9.04375 45.7459C9.40499 44.8502 10.4686 42.3442 11.452 41.0359C11.6929 40.6736 12.1444 40.3314 13.3385 39.8685C14.3118 39.486 15.5963 39.1036 17.0312 38.7614C19.7204 38.1374 24.2961 37.3424 30.949 37.1109C36.7389 32.7128 40.8329 29.2407 41.0938 29.0193C43.4218 26.9058 44.9972 26.5938 47.1346 26.3724H47.1647C54.5902 25.8189 82.5462 26.0705 83.7302 26.0906C83.9911 26.0906 84.242 26.1812 84.4527 26.3221C84.533 26.3623 84.7638 26.5032 85.3659 26.8253C85.5866 26.9461 85.7873 27.0568 85.9579 27.3285C85.9579 27.3386 85.9679 27.3386 85.9679 27.3486C86.0382 27.4593 86.0382 27.4593 86.5901 28.8985C87.4229 31.0522 89.5101 36.4567 90.0319 37.7248C90.2225 37.916 90.363 38.1374 90.4834 38.389C90.5537 38.54 90.644 38.7513 90.7042 39.8685V41.1667C91.0554 46.5611 91.0554 46.5611 91.0554 46.6115L91.0353 51.9555C91.0353 53.133 90.4734 55.3472 88.4163 56.2026C87.5634 56.5549 85.9579 56.7964 85.2254 56.887C84.9544 56.9675 84.0915 57.209 83.2787 57.4405L83.2486 57.5915C82.8673 59.5137 81.8839 61.2548 80.4991 62.5128C79.1244 63.7809 77.2981 64.5056 75.4418 64.5056Z" fill="#DA6F25"/>
<path fill-rule="evenodd" clip-rule="evenodd" d="M53.3054 40.4219L59.3362 50.8987H55.7236V54.2601H50.887V50.8987H47.2747L53.3054 40.4219ZM53.3057 73.8953L59.3364 63.4286H55.7239V60.0571H50.8872V63.4286H47.2749L53.3057 73.8953Z" fill="#DA6F25"/>
</svg>
