<svg width="100" height="100" viewBox="0 0 100 100" fill="none" xmlns="http://www.w3.org/2000/svg">
<path d="M20.2134 50.1993C20.2134 42.0712 23.3449 34.4408 29.0175 28.7014C30.034 27.673 30.0176 26.0308 29.0175 25.0024C28.5257 24.5047 27.8699 24.2393 27.1977 24.2393C26.5091 24.2393 25.8533 24.5213 25.3778 25.0024C18.7215 31.7204 15.0654 40.6778 15.0654 50.1993C15.0654 59.7207 18.7215 68.6615 25.3778 75.3962C25.8697 75.8938 26.5255 76.1592 27.1977 76.1592C27.8863 76.1592 28.5421 75.8772 29.0175 75.3962C30.034 74.3677 30.034 72.7255 29.0175 71.6971C23.3285 65.9577 20.2134 58.3273 20.2134 50.1993Z" fill="#DA6F25"/>
<path fill-rule="evenodd" clip-rule="evenodd" d="M22.5088 50.1992C22.5088 34.7062 34.969 22.116 50.2654 22.116C65.562 22.116 78.022 34.7062 78.022 50.1992C78.022 65.6757 65.5784 78.2824 50.2654 78.2824C34.9526 78.2824 22.5088 65.6922 22.5088 50.1992ZM72.8416 50.1992C72.8252 37.6257 62.6931 27.3744 50.2659 27.3578C37.8384 27.3744 27.7063 37.6257 27.6899 50.2158C27.7063 62.7728 37.8384 73.024 50.2659 73.0573C62.6931 73.024 72.8252 62.7728 72.8416 50.1992Z" fill="#DA6F25"/>
<path fill-rule="evenodd" clip-rule="evenodd" d="M75.1536 25.0024C74.6616 24.5047 74.0059 24.2393 73.3337 24.2393C72.645 24.2393 71.9893 24.5213 71.4976 25.0024C70.481 26.0308 70.481 27.673 71.4976 28.7014C71.5039 28.7078 71.5103 28.7117 71.5156 28.715C71.5242 28.7205 71.5303 28.7244 71.5303 28.7346C77.1865 34.474 80.3015 42.1044 80.3015 50.1993C80.3015 58.3273 77.1702 65.9577 71.4976 71.6971C70.481 72.7255 70.481 74.3677 71.4976 75.4127C71.9893 75.9104 72.645 76.1758 73.3174 76.1758C73.9895 76.1758 74.6616 75.8938 75.1372 75.4127C81.7935 68.6781 85.4495 59.7372 85.4495 50.2158C85.4824 40.6779 81.8098 31.7204 75.1536 25.0024ZM29.8376 59.0737C29.9524 59.2396 30.1326 59.3226 30.3457 59.3226H33.2805C33.5757 59.3226 33.8215 59.1235 33.8872 58.8581L34.8052 55.3249H38.7563L39.6252 58.8581C39.6909 59.1401 39.9368 59.3391 40.2319 59.3391H43.2485C43.355 59.3391 43.4568 59.31 43.5483 59.2596C43.6262 59.2169 43.6968 59.1589 43.7568 59.0903C43.7993 59.0352 43.8328 58.971 43.8555 58.9028C43.8652 58.8741 43.873 58.8448 43.8787 58.8151L43.8855 58.7714C43.8906 58.7302 43.8918 58.6887 43.8889 58.6479C43.8879 58.6321 43.8862 58.6165 43.8838 58.601C43.8823 58.5907 43.8804 58.5806 43.8782 58.5705L43.8716 58.5429L38.9368 40.5286C38.8547 40.2466 38.6252 40.0641 38.3301 40.0641H35.3625C35.084 40.0641 34.8381 40.2631 34.7561 40.5286L29.7556 58.5263C29.6899 58.7088 29.7229 58.9244 29.8376 59.0737ZM36.8054 47.6116L35.8872 51.1116H37.6743L36.8054 47.6116ZM45.6916 59.3225H52.0854C54.5283 59.3225 57.3647 57.7964 57.3647 53.467C57.3647 51.3604 56.676 49.7182 55.4302 48.7892C56.2827 47.8935 56.7417 46.6494 56.7417 45.14C56.7417 41.756 55.1023 40.0475 51.9053 40.0475H45.708C45.3635 40.0475 45.085 40.3295 45.085 40.6778V58.6756C45.0686 59.0571 45.3472 59.3225 45.6916 59.3225ZM51.7415 51.3106H49.2166V54.9931H51.6921C52.4626 54.9931 53.2004 54.7775 53.2004 53.2514C53.2004 51.5262 52.4136 51.3106 51.7415 51.3106ZM51.5283 47.3461H49.2166V44.3935H51.2988C52.1677 44.3935 52.6594 44.6257 52.6594 45.8366C52.6758 47.1968 52.02 47.3461 51.5283 47.3461ZM70.3328 53.351C70.3328 57.2325 67.9226 59.7538 64.2175 59.7538C62.4795 59.7538 60.9221 59.1401 59.8401 58.0287C58.6103 56.768 57.9709 54.9434 57.9873 52.7372C57.9873 52.3889 58.2661 52.1068 58.6103 52.1068H61.4138C61.7583 52.1068 62.0369 52.3889 62.0369 52.7372C62.0369 55.076 63.4797 55.4244 64.3323 55.4244C65.0371 55.4244 66.2668 55.2253 66.2668 53.8154C66.2668 52.6708 65.3159 52.2893 63.6272 51.7253C63.5007 51.6774 63.3667 51.6294 63.2288 51.5814C63.0803 51.5298 62.9275 51.4783 62.7747 51.4268C60.5122 50.5974 58.4299 49.3533 58.4299 45.7039C58.4299 41.7063 61.2336 39.6162 63.988 39.6162C66.8242 39.6162 69.8574 41.2916 69.8901 45.9694C69.9065 45.986 69.9065 46.0191 69.9065 46.0523C69.9065 46.4006 69.6277 46.6826 69.2834 46.6826H66.4636C66.1357 46.6826 65.8569 46.4172 65.8406 46.0688C65.7585 44.3271 64.988 43.9622 63.8567 43.9622C63.4468 43.9622 62.4961 44.0949 62.4961 45.3722C62.4961 46.2016 62.5779 46.3011 65.7095 47.3959L66.1028 47.5286L66.1343 47.5395C67.2139 47.9146 70.3328 48.998 70.3328 53.351Z" fill="#DA6F25"/>
</svg>
