<svg width="103" height="100" viewBox="0 0 103 100" fill="none" xmlns="http://www.w3.org/2000/svg">
<path fill-rule="evenodd" clip-rule="evenodd" d="M65.2805 67.5765C66.1257 67.6255 66.9917 67.6757 67.9421 67.4909L68.2332 69.1112C67.0491 69.3326 66.0156 69.2722 65.0923 69.2119C63.8782 69.1313 62.9048 69.071 61.8713 69.6245C61.5703 69.7855 61.2593 69.9465 60.9482 70.1075C61.1489 71.3555 61.0283 72.5632 60.7576 73.3784C60.1052 75.3007 59.3928 76.0857 55.3289 78.2696C52.2883 76.7902 51.0842 75.9247 50.4119 74.8679C47.542 76.0253 44.5518 77.1223 41.5415 78.1287C40.3374 81.1882 39.1433 84.5698 38.752 86.3813L37.1865 86.0392C37.5479 84.3886 38.511 81.5505 39.5647 78.7829C35.6614 80.0308 31.7578 81.1178 28.0752 81.9632L27.7141 80.3931C31.7578 79.4773 36.0527 78.2596 40.3174 76.8506C41.0898 74.9182 41.8525 73.1771 42.3843 72.1103C43.3777 70.0069 44.4514 69.0911 45.4951 68.2155C46.2576 67.5714 46.9802 66.9575 47.7529 65.8303C49.7798 62.8714 51.6562 58.2017 52.78 53.5822C52.5793 53.5218 52.3787 53.4614 52.1479 53.3406C51.8945 53.2067 51.668 53.1103 51.4543 53.0193C51.042 52.8438 50.6777 52.6888 50.2615 52.3242C49.5188 51.6599 48.957 51.1165 48.967 50.1201C48.9729 49.6797 49.1157 49.38 49.2688 49.0588C49.3745 48.8369 49.4854 48.6046 49.5591 48.3086C49.5925 48.1716 49.6277 48.0468 49.6609 47.9284C49.7766 47.516 49.8699 47.1831 49.7998 46.6983C49.7195 46.1448 49.5288 45.8428 49.2078 45.3799L50.6328 44.3835C51.2949 45.2088 52.3787 45.2692 53.2117 45.0578C53.0518 44.6372 52.8523 44.2465 52.6428 43.8361L52.6396 43.83C52.2283 43.0148 51.7966 42.1594 51.5559 40.9718C51.0442 38.6067 51.616 34.1181 52.1279 30.5251C51.4856 30.2233 51.0039 29.6295 50.8735 28.9048C48.5908 29.4371 47.5366 30.6707 46.2761 32.1458L46.2678 32.1556L46.0906 32.3611C45.4939 33.0539 44.8726 33.7755 44.0601 34.4804C43.2373 35.205 42.2639 36.1007 41.2305 37.0669C42.3042 38.9791 42.2739 41.3542 41.8325 42.6927C41.1802 44.615 40.4678 45.4 36.4038 47.584C34.1963 46.5172 32.9619 45.7623 32.1895 45.0276C28.0352 48.2482 23.6902 50.7944 19.8569 50.7944H18.3218V56.7524C19.2649 57.0543 20.7803 57.326 22.155 56.4706C23.4392 58.4432 23.4392 61.0297 22.9678 62.4487C22.3354 64.3106 21.6531 65.1057 17.9204 67.1386V77.1223H16.3149V66.726C13.0837 65.0453 12.542 64.1697 11.95 62.4487C11.4783 61.0196 11.3979 58.3828 12.7627 56.4706C14.2175 57.3864 15.8232 57.0241 16.7163 56.7021V50.7944H15.4419C14.8323 50.7944 14.3323 51.0739 13.6345 51.4638L13.6257 51.4687L13.5981 51.4842C12.5393 52.0753 11.2283 52.8073 9.00977 52.8073V51.197C10.8259 51.197 11.8496 50.6233 12.833 50.0698L12.8669 50.0507C13.6287 49.6238 14.4133 49.1841 15.4319 49.1841H16.967C19.7366 45.9334 21.1614 42.0084 22.6667 37.8619C23.8206 34.6817 25.0146 31.3907 26.8711 28.4218C28.1555 26.3888 29.5503 24.7484 30.9751 23.2991C30.7947 22.9771 30.6943 22.6047 30.6943 22.2122C30.6943 21.9908 30.7244 21.7794 30.7844 21.5781C28.7676 19.5854 27.0015 17.3512 25.2356 15.0565L26.5098 14.0703C28.1956 16.2642 29.8813 18.3978 31.7778 20.3C32.0991 20.1088 32.4805 19.998 32.8918 19.998C33.3433 19.998 33.7546 20.1289 34.106 20.3604C34.1611 20.3101 34.2163 20.2622 34.2715 20.2144C34.3267 20.1666 34.3818 20.1188 34.437 20.0685C36.4641 18.267 38.3806 16.5561 40.1567 14.2615L41.4211 15.2477C39.5818 17.6281 37.5476 19.4415 35.5874 21.1889L35.5007 21.2661C35.425 21.337 35.3469 21.4053 35.2688 21.4736C35.1914 21.5411 35.114 21.6087 35.0391 21.6788C35.0793 21.8499 35.0994 22.0209 35.0994 22.2021C35.0994 22.494 35.0391 22.7758 34.9387 23.0374C38.5913 25.7245 42.585 27.0329 47.1506 27.0329C48.0037 27.0329 48.7361 26.9222 49.4487 26.8115C50.2615 26.6807 51.0442 26.5699 51.8066 26.6706C52.158 26.4291 52.5793 26.2881 53.041 26.2881C53.7031 26.2881 54.3054 26.58 54.7068 27.053C56.1118 27.1292 57.2112 27.3585 58.2688 27.579L58.4495 27.6166C59.8645 27.9186 61.3293 28.2305 63.5972 28.2305V29.8408C61.1589 29.8408 59.6035 29.5187 58.1084 29.1967L57.9424 29.1623C57.0786 28.9828 56.2378 28.8082 55.2285 28.7136C55.1482 29.5992 54.5361 30.3339 53.7234 30.6057C53.2517 33.957 52.6597 38.5061 53.1113 40.6296C53.312 41.6159 53.6731 42.3405 54.0544 43.0953C54.3054 43.5885 54.5562 44.0917 54.7668 44.6553C55.6399 45.088 57.406 45.39 58.3591 44.2527L59.8545 45.2189C59.4028 45.5711 59.2825 45.9536 59.1921 46.5172C59.1125 47.0194 59.2158 47.3512 59.3469 47.7726C59.3811 47.8831 59.4175 47.9998 59.4529 48.1274C59.5295 48.4041 59.6296 48.6279 59.7246 48.8404C59.8782 49.1844 60.0188 49.4987 60.0249 49.9591C60.0344 50.9164 59.5083 51.4275 58.8352 52.0814L58.7305 52.1833C58.3145 52.5862 57.9236 52.731 57.4668 52.9001C57.2732 52.9716 57.0679 53.0476 56.844 53.1494C56.6252 53.2518 56.4263 53.3157 56.2378 53.3763C55.9072 53.4824 55.6082 53.5784 55.2886 53.8539C55.2373 53.8982 55.1895 53.9385 55.1445 53.9763C54.8723 54.2053 54.7026 54.3481 54.4958 54.7798C54.4058 54.6289 54.3154 54.5182 54.2251 54.4175C53.041 59.0672 51.1345 63.7168 49.0774 66.726C48.1843 68.0343 47.3113 68.7791 46.5286 69.4333C45.5352 70.2686 44.6824 70.9932 43.8394 72.7846L43.8293 72.8047C43.428 73.5898 42.9062 74.7773 42.3342 76.1561C44.8528 75.2906 47.3413 74.3647 49.7498 73.3985C49.7498 73.3935 49.7473 73.3885 49.7449 73.3835C49.7422 73.3784 49.7397 73.3734 49.7397 73.3683C49.2681 71.9392 49.1877 69.3024 50.5525 67.3902C52.7097 68.7288 55.1985 67.3097 55.1985 67.3097C55.2107 67.3097 55.2588 67.3309 55.3376 67.3656C55.9038 67.6152 58.0596 68.5653 59.9446 67.3902C60.1755 67.7425 60.3662 68.1148 60.5166 68.4973C60.6167 68.442 60.717 68.3893 60.8171 68.3365C60.9177 68.2836 61.0181 68.2307 61.1187 68.1752C62.5537 67.4104 63.8982 67.4909 65.1926 67.5714L65.2805 67.5765ZM44.9824 31.1389L45.0337 31.0789L45.0496 31.0604C45.8066 30.1711 46.5459 29.3027 47.5425 28.6031C47.4019 28.6132 47.2715 28.6132 47.1311 28.6132C42.1338 28.6132 37.7788 27.1639 33.8052 24.1849C33.5242 24.3158 33.2131 24.3862 32.8821 24.3862C32.6411 24.3862 32.4204 24.356 32.2097 24.2856C30.8049 25.6946 29.4502 27.2847 28.2061 29.2472C26.4399 32.0753 25.2759 35.2857 24.1521 38.3855C22.8174 42.0891 21.4326 45.8934 19.0044 49.1541H19.8372C23.2087 49.1541 27.303 46.7186 31.2063 43.6893C31.0557 43.3773 30.9253 43.0452 30.7949 42.6628C30.3232 41.2336 30.2429 38.5968 31.6077 36.6846C33.7651 38.0232 36.2537 36.6041 36.2537 36.6041C36.2651 36.6041 36.311 36.6243 36.3867 36.6576C36.7107 36.8002 37.5806 37.183 38.6218 37.2482C38.8059 37.0745 38.99 36.9036 39.1709 36.7357C39.3254 36.5924 39.4775 36.4513 39.6252 36.3123L39.8506 36.1027C40.9998 35.0342 42.0735 34.0358 42.9968 33.2326C43.7673 32.5576 44.3862 31.835 44.9824 31.1389Z" fill="#DA6F25"/>
<path d="M85.5732 25.0706L86.8275 23.9938C92.8884 31.0991 96.0894 39.2511 96.0894 47.5439C96.0894 55.8368 92.8884 63.9888 86.8275 71.0941L85.5732 70.0172C91.3732 63.2139 94.4437 55.4443 94.4437 47.5439C94.4236 39.6536 91.3631 31.864 85.5732 25.0706Z" fill="#DA6F25"/>
<path fill-rule="evenodd" clip-rule="evenodd" d="M85.6638 47.5439C85.6638 53.5723 83.3259 59.5203 78.8806 64.7234L80.135 65.8003C84.8411 60.2952 87.3196 53.985 87.3196 47.5439C87.3196 41.1129 84.821 34.7825 80.135 29.2875L78.8806 30.3643C83.3159 35.5675 85.6638 41.4953 85.6638 47.5439ZM75.1975 47.5439C75.1975 52.1533 73.4114 56.6721 70.0298 60.6475L71.2842 61.7244C74.9165 57.4471 76.8533 52.5458 76.8533 47.5439C76.8533 42.5421 74.9365 37.6408 71.2842 33.3635L70.0298 34.4404C73.4114 38.4057 75.1975 42.9345 75.1975 47.5439Z" fill="#DA6F25"/>
</svg>
