<svg width="104" height="100" viewBox="0 0 104 100" fill="none" xmlns="http://www.w3.org/2000/svg">
<path d="M37.2541 53.2403C37.2541 53.4517 37.234 53.7234 37.3344 53.8844C37.4347 54.0354 38.3478 54.7298 39.5419 55.0418C40.726 55.3538 41.9903 55.3035 42.4018 55.5249C42.8132 55.5047 43.2447 55.5249 43.2447 55.5249V55.5148L43.9571 54.9512L44.2882 54.9412C44.9505 57.0244 46.8972 58.5341 49.1951 58.5341C50.6601 58.5341 51.9746 57.9302 52.9078 56.9339C53.55 56.3803 54.0417 55.6758 54.3227 54.8606L54.3929 54.8707L55.4767 54.8405C55.4767 55.1122 55.4666 55.3236 55.4767 55.384L85.0783 54.9613V54.9512H85.0883V54.8305C85.0883 54.7197 85.0984 54.5487 85.1084 54.3373L85.1285 54.3474L85.8209 54.6896L86.1018 54.6996C86.3728 55.5853 86.8945 56.3501 87.5769 56.9439C88.5101 57.9202 89.8346 58.5441 91.2896 58.5441C93.9187 58.5441 96.066 56.5716 96.3871 54.0253H96.4172L96.5577 53.6831L97.3605 54.1763V54.2467C97.3605 54.2467 97.3806 54.2467 97.4107 54.2568H97.4307C97.5511 54.2769 97.7819 54.297 97.9726 54.297C98.2234 54.297 98.3539 53.3913 98.976 53.1799C99.2971 52.6667 99.4778 51.6703 99.548 50.7343V50.7142C99.5982 50.0097 99.5781 49.3354 99.4677 48.953C99.2068 48.3894 98.5446 48.1478 98.4944 47.5541C98.4442 46.9603 98.384 45.7425 98.3037 45.3299C98.3037 45.3198 98.2937 45.3097 98.2937 45.2997C98.3037 45.2896 98.3138 45.2695 98.3138 45.2695C98.3138 45.2695 98.1833 44.2329 98.0529 44.0014C97.9224 43.7699 97.5913 42.9547 97.0595 42.4716C97.0093 42.4314 96.9491 42.3911 96.8989 42.371C96.6882 42.0489 96.046 41.1633 95.2131 40.7004C95.1629 40.6702 95.183 40.7104 95.2131 40.7809L95.0726 40.7104L95.0225 40.6601C94.8218 40.328 93.3567 38.9894 92.0523 37.9327C91.7412 37.6811 91.4502 37.4496 91.1592 37.2483C90.7478 36.9464 90.4267 36.7351 90.236 36.6747V36.6847L90.226 36.6747C90.226 36.6747 90.0353 36.4432 89.8447 36.4231C90.0253 36.2319 90.4568 36.0809 90.4568 35.7689C90.4568 35.6079 89.8949 35.4972 89.3129 35.4066C89.1222 35.3865 88.9516 35.3663 88.781 35.3361C88.4599 35.306 88.179 35.2858 88.0585 35.2858C87.8478 35.2758 85.4797 34.9738 82.7202 34.7222C82.2285 34.682 81.7268 34.6216 81.2853 34.5813C78.5459 34.3297 75.6459 34.0882 70.8595 34.5612C66.7153 34.9738 65.5312 35.9299 65.5312 35.9299C65.491 35.9501 65.4409 35.9702 65.4007 36.0004C65.4007 36.0104 65.4007 36.0104 65.4108 36.0205C65.4007 36.0205 65.4007 36.0306 65.4108 36.0306C59.5607 38.9391 55.9081 41.0727 55.3663 41.5155C55.3462 41.5256 55.3161 41.5457 55.286 41.5558C55.2158 41.5659 54.9749 41.5961 54.9047 41.6363C54.6338 41.6766 54.2324 41.737 53.7608 41.8175C53.8109 41.7973 53.8611 41.7973 53.8611 41.7973C52.376 42.0288 51.0515 42.2603 49.8373 42.4918C45.9038 43.2365 41.0872 44.4342 39.7727 45.9538L39.7426 45.984H39.7527C39.7326 46.0042 39.7125 46.0344 39.6824 46.0646C37.7056 48.6812 37.7056 49.2348 37.5551 49.9091C37.4046 50.5834 37.4247 51.9722 37.4347 52.0225C37.4548 52.0729 37.6454 52.1031 37.6454 52.1031L37.5651 52.9283C37.525 52.878 37.2541 53.029 37.2541 53.2403Z" fill="#DA6F25"/>
<path d="M83.0312 67.4811H58.8983V60.6877L46.7366 72.8956L58.8983 85.0934V78.3101H83.0312" fill="#DA6F25"/>
<path d="M27.5209 48.9328C27.26 48.3692 26.5978 48.1276 26.5476 47.5339C26.4974 46.9401 26.4372 45.7223 26.3569 45.3097C26.3569 45.2996 26.3469 45.2895 26.3469 45.2795C26.3569 45.2694 26.367 45.2493 26.367 45.2493C26.367 45.2493 26.2365 44.2127 26.1061 43.9812C25.9756 43.7497 25.6445 42.9345 25.1127 42.4515C25.0625 42.4112 25.0023 42.3709 24.9521 42.3508C24.7414 42.0288 24.0992 41.1431 23.2663 40.6802C23.2161 40.65 23.2362 40.6902 23.2663 40.7607L23.1258 40.6902L23.0757 40.6399C22.875 40.3078 21.4099 38.9692 20.1055 37.9125C19.7944 37.6609 19.5034 37.4294 19.2124 37.2281C18.801 36.9262 18.4799 36.7149 18.2892 36.6545V36.6646L18.2792 36.6545C18.2792 36.6545 18.0885 36.423 17.8979 36.4029C18.0785 36.2117 18.51 36.0607 18.51 35.7487C18.51 35.5877 17.9481 35.477 17.3661 35.3864C17.1754 35.3663 17.0048 35.3461 16.8342 35.316C16.5131 35.2858 16.2322 35.2656 16.1117 35.2656C15.901 35.2556 13.5329 34.9536 10.7734 34.702C10.2817 34.6618 9.78 34.6014 9.33849 34.5611C7.03056 34.3498 4.62229 34.1384 1.06006 34.3599V55.1222L13.1415 54.9411V54.931H13.1516V54.8103C13.1516 54.6996 13.1616 54.5285 13.1717 54.3171L13.1817 54.3272L13.8741 54.6694L14.155 54.6794C14.426 55.5651 14.9478 56.3299 15.6301 56.9237C16.5633 57.9 17.8878 58.5239 19.3428 58.5239C21.9719 58.5239 24.1192 56.5514 24.4403 54.0051H24.4705L24.6109 53.6629L25.4137 54.1561V54.2265C25.4137 54.2265 25.4338 54.2265 25.4639 54.2366H25.4839C25.6043 54.2567 25.8351 54.2769 26.0258 54.2769C26.2767 54.2769 26.4071 53.3711 27.0292 53.1597C27.3503 52.6465 27.531 51.6501 27.6012 50.7141V50.694C27.6514 49.9895 27.6313 49.3152 27.5209 48.9328Z" fill="#DA6F25"/>
<path fill-rule="evenodd" clip-rule="evenodd" d="M26.7283 35.4166L38.6392 14.0706L51.5034 35.4166H26.7283ZM49.5664 34.3398L38.679 16.2645L28.5742 34.3398H49.5664Z" fill="#DA6F25"/>
<path fill-rule="evenodd" clip-rule="evenodd" d="M39.7925 21.0048H37.7053V29.509H39.7925V21.0048ZM38.7493 30.7971C39.1206 30.7971 39.4517 30.928 39.7227 31.1796C40.0137 31.4312 40.144 31.7532 40.144 32.1356C40.144 32.5081 40.0037 32.8301 39.7327 33.0918C39.4517 33.3534 39.1206 33.4843 38.7393 33.4843C38.5486 33.4843 38.3779 33.434 38.2075 33.3735C38.0369 33.3131 37.8965 33.2225 37.7659 33.1018C37.6355 32.9911 37.5352 32.8401 37.4548 32.6791C37.3745 32.5081 37.3445 32.3369 37.3445 32.1458C37.3445 31.7733 37.4849 31.4513 37.7559 31.1896C38.0369 30.928 38.3679 30.7971 38.7493 30.7971Z" fill="#DA6F25"/>
</svg>
