<svg width="100" height="100" viewBox="0 0 100 100" fill="none" xmlns="http://www.w3.org/2000/svg">
<path d="M33.2005 72.9378L31.5869 65.9878H31.5401L29.9264 72.9378H33.2005ZM33.6449 63.3031L38.065 78.7618H34.557L33.7852 75.4926H29.3418L28.57 78.7618H25.062L29.4821 63.3031H33.6449Z" fill="#DA6F25"/>
<path d="M42.3836 63.3031H39.0159V74.0853C39.0159 75.1245 39.1641 75.9689 39.4603 76.6184C39.7565 77.2679 40.1541 77.7731 40.653 78.134C41.1519 78.4804 41.721 78.7113 42.3602 78.8268C42.9995 78.9423 43.6621 79 44.3481 79C45.0341 79 45.6967 78.9351 46.3359 78.8051C46.9752 78.6752 47.5442 78.4226 48.0432 78.0474C48.5421 77.6721 48.9396 77.1669 49.2359 76.5318C49.5321 75.8823 49.6802 75.0668 49.6802 74.0853V63.3031H46.3126V74.0853C46.3126 74.475 46.2814 74.8358 46.219 75.1678C46.1722 75.4853 46.0709 75.7668 45.915 76.0122C45.7747 76.2431 45.5798 76.4308 45.3303 76.5751C45.0809 76.705 44.7535 76.77 44.3481 76.77C43.9583 76.77 43.6309 76.705 43.3658 76.5751C43.1164 76.4308 42.9137 76.2431 42.7578 76.0122C42.6175 75.7668 42.5161 75.4853 42.4538 75.1678C42.407 74.8358 42.3836 74.475 42.3836 74.0853V63.3031Z" fill="#DA6F25"/>
<path d="M61.586 63.3031H50.9217V65.8579H54.57V78.7618H57.9377V65.8579H61.586V63.3031Z" fill="#DA6F25"/>
<path d="M66.0638 71.0325C66.0638 69.9932 66.0872 69.1128 66.134 68.3911C66.1963 67.6694 66.3055 67.0776 66.4614 66.6157C66.6329 66.1538 66.8667 65.8218 67.163 65.6198C67.4748 65.4032 67.8802 65.295 68.3791 65.295C68.878 65.295 69.2756 65.4032 69.5718 65.6198C69.8836 65.8218 70.1175 66.1538 70.2734 66.6157C70.4449 67.0776 70.554 67.6694 70.6008 68.3911C70.6632 69.1128 70.6943 69.9932 70.6943 71.0325C70.6943 72.0717 70.6632 72.9594 70.6008 73.6955C70.554 74.4172 70.4449 75.009 70.2734 75.4709C70.1175 75.9184 69.8836 76.2503 69.5718 76.4668C69.2756 76.6689 68.878 76.77 68.3791 76.77C67.8802 76.77 67.4748 76.6689 67.163 76.4668C66.8667 76.2503 66.6329 75.9184 66.4614 75.4709C66.3055 75.009 66.1963 74.4172 66.134 73.6955C66.0872 72.9594 66.0638 72.0717 66.0638 71.0325ZM62.6961 71.0325C62.6961 72.2161 62.7507 73.2986 62.8598 74.2801C62.9846 75.2616 63.2418 76.106 63.6316 76.8133C64.037 77.5205 64.6138 78.0618 65.3622 78.4371C66.1106 78.8124 67.1162 79 68.3791 79C69.6419 79 70.6476 78.8124 71.3959 78.4371C72.1443 78.0618 72.7134 77.5205 73.1032 76.8133C73.5085 76.106 73.7658 75.2616 73.8749 74.2801C73.9996 73.2986 74.062 72.2161 74.062 71.0325C74.062 69.8633 73.9996 68.788 73.8749 67.8065C73.7658 66.8106 73.5085 65.959 73.1032 65.2517C72.7134 64.5444 72.1443 63.9959 71.3959 63.6062C70.6476 63.2021 69.6419 63 68.3791 63C67.1162 63 66.1106 63.2021 65.3622 63.6062C64.6138 63.9959 64.037 64.5444 63.6316 65.2517C63.2418 65.959 62.9846 66.8106 62.8598 67.8065C62.7507 68.788 62.6961 69.8633 62.6961 71.0325Z" fill="#DA6F25"/>
<path fill-rule="evenodd" clip-rule="evenodd" d="M25 57.2577V59.6759H29.1636L29.2329 59.4141H38.0732V57.2577H25ZM41.0835 59.4141C40.9658 58.5282 40.8501 57.4848 40.7402 56.2538C40.3982 52.3505 40.207 47.5038 40.207 42.607C40.207 37.9711 40.3679 33.7767 40.6899 30.4955C41.1934 25.1871 41.958 23.7723 42.4915 23.1503C43.3772 22.1368 45.1484 21.7955 47.9263 22.1166C50.2913 22.3776 53.1797 23.1202 56.0881 24.1937C60.9795 26.0201 65.468 28.639 68.7087 31.5592C72.8752 35.3321 74.9888 39.4762 74.9888 43.8915C74.9888 48.5275 72.4929 53.0428 67.7827 56.9361C66.6719 57.8525 65.5168 58.6763 64.3594 59.4141H59.4614C64.0986 57.0899 72.5735 51.7679 72.5735 43.9017C72.5735 40.4198 70.9429 37.0782 67.7124 33.9474C64.2502 30.5961 59.8926 28.3783 56.843 27.1039C53.9043 25.8697 50.895 24.9967 48.3792 24.6153C45.6113 24.204 44.5144 24.5853 44.3433 24.746C44.2729 24.826 43.6086 25.7091 43.1357 30.7264C42.8237 33.9374 42.6626 38.0416 42.6626 42.6073C42.6626 47.4437 42.8538 52.2101 43.176 56.0533C43.2927 57.4148 43.4167 58.5192 43.5391 59.4141H41.0835ZM25 52.3912V49.973H38.0732V52.3912H25ZM25 42.6879V45.1061H38.0732V42.6879H25ZM25 37.8109V35.3927H38.0732V37.8109H25ZM25 28.0973V30.5155H38.0732V28.0973H25Z" fill="#DA6F25"/>
</svg>
