<svg width="100" height="100" viewBox="0 0 100 100" fill="none" xmlns="http://www.w3.org/2000/svg">
<path fill-rule="evenodd" clip-rule="evenodd" d="M52.3816 61.4435L50.1138 65.4792L47.8662 61.4938C40.4707 61.1718 33.2458 59.0281 26.874 55.244L27.5464 54.1067C33.4968 57.6292 40.2097 59.6923 47.1035 60.1251L43.6316 53.9155H48.0869V52.0536C42.4675 51.7618 36.9988 50.1213 32.1621 47.2429L32.6738 46.3674C37.3601 49.1451 42.6582 50.7453 48.0869 51.017V43.2877H52.1709V50.9868C57.3787 50.6245 62.4463 49.0444 66.9517 46.3674L67.4634 47.2429C62.7974 50.0106 57.5593 51.641 52.1609 52.0033V53.8954H56.6162L53.1543 60.0647C59.8271 59.5514 66.3096 57.5184 72.0693 54.0865L72.7415 55.2238C66.5503 58.9073 59.5562 61.0309 52.3816 61.4435ZM48.9897 75.6239H51.2476V84.7722H48.9897V75.6239ZM50.1135 86.1611C49.6921 86.1611 49.3408 86.3019 49.0598 86.5938C48.7588 86.8756 48.6184 87.2178 48.6184 87.6304C48.6184 87.7371 48.6296 87.838 48.6521 87.9363C48.6626 87.9824 48.6755 88.0278 48.6912 88.073C48.7051 88.1135 48.7209 88.1537 48.7388 88.194C48.8191 88.3752 48.9294 88.5261 49.0701 88.6469C49.1221 88.6916 49.1768 88.7335 49.2344 88.7726C49.2869 88.8084 49.3416 88.8419 49.3984 88.8731C49.4478 88.9001 49.4988 88.9254 49.5515 88.9489C49.7322 89.0294 49.9229 89.0596 50.1235 89.0596C50.5449 89.0596 50.8962 88.9186 51.1772 88.6268C51.4783 88.345 51.6187 88.0028 51.6187 87.5902C51.6187 87.1977 51.4683 86.8555 51.1672 86.5737C50.8562 86.2919 50.5149 86.1611 50.1135 86.1611Z" fill="#DA6F25"/>
<path fill-rule="evenodd" clip-rule="evenodd" d="M78.7119 59.8533L79.5847 61.3328C70.8647 66.5057 60.9407 69.3237 50.7959 69.5049L63.8308 91.1227H37.1692L49.2305 69.4948C38.9453 69.3942 28.8606 66.5661 20.0203 61.3227L20.8933 59.8433C29.6333 65.0263 39.6177 67.7839 49.8025 67.7839C59.9875 67.7839 69.9819 65.0464 78.7119 59.8533ZM50.0435 70.5314L39.176 89.9855H61.7637L50.0435 70.5314Z" fill="#DA6F25"/>
<path fill-rule="evenodd" clip-rule="evenodd" d="M72.2295 6.02014C72.2495 16.1648 72.2595 24.7194 72.2595 28.2217C72.2595 28.9866 72.2595 29.4898 72.2795 29.7313V29.9225C71.0957 31.0195 70.7444 37.7525 70.7444 38.6381C70.7444 43.3884 60.71 45.0389 51.3779 45.0389H48.8894C39.5574 45.0389 29.5227 43.3784 29.5227 38.6381C29.5227 37.7625 29.1616 31.0296 27.9875 29.9225V28.2116C27.9875 24.7093 27.9976 16.1548 28.0176 6.01007H32.0315L32.3926 23.0789C32.3926 22.7973 32.5957 22.5016 32.9097 22.0443C33.9761 20.4913 36.323 17.0737 36.3462 6.01007H63.2888V6.02014H63.9009C63.9241 17.0837 66.271 20.5013 67.3374 22.0544C67.6514 22.5117 67.8545 22.8074 67.8545 23.089L68.2156 6.02014H72.2295ZM30.1948 37.8229C30.1948 38.467 30.3652 39.0306 30.6863 39.5338C31.7 41.0938 34.1685 42.0096 37.3594 42.5631L36.3057 41.0535V41.0434C35.804 40.9226 35.3926 40.8019 35.0815 40.661C33.8472 40.1075 32.9944 39.1413 32.3823 37.9537C31.8804 36.9775 31.5393 35.8201 31.2986 34.5923L30.1445 35.1961C30.1746 36.0516 30.1948 36.9272 30.1948 37.8229ZM50.1233 32.6902C39.7175 32.6902 35.5835 30.3754 35.1118 28.7249C36.2356 25.9975 37.0283 21.6095 37.48 16.4164C39.6475 17.2115 44.0325 17.5134 50.033 17.5134C56.1841 17.5235 60.6394 17.2115 62.7568 16.3661C63.2183 21.5693 64.011 25.9975 65.135 28.7249C64.6633 30.3754 60.5291 32.6902 50.1233 32.6902ZM69.5398 39.5338C69.8508 39.0306 70.0315 38.467 70.0315 37.8229C70.0315 36.9171 70.0515 36.0415 70.0818 35.1961L68.9277 34.5923C68.687 35.8201 68.3457 36.9574 67.844 37.9537C67.2419 39.1413 66.3892 40.0974 65.1448 40.661C64.8337 40.8019 64.4124 40.9226 63.9207 41.0434V41.0535L62.8669 42.5631C66.0679 42.0096 68.5264 41.1038 69.5398 39.5338Z" fill="#DA6F25"/>
</svg>
