<svg width="100" height="100" viewBox="0 0 100 100" fill="none" xmlns="http://www.w3.org/2000/svg">
<path fill-rule="evenodd" clip-rule="evenodd" d="M44.2659 50.1706V69.7756C44.2659 71.3758 45.4299 72.6741 47.0254 72.6741C47.3865 72.6741 47.7378 72.6036 48.0588 72.4828V78.0383C48.0588 79.8901 48.9719 81.1783 50.2664 81.1783C51.5708 81.1783 52.4841 79.8901 52.4841 78.0383V76.5387C52.8052 76.6595 53.1562 76.7299 53.5176 76.7299C55.113 76.7299 56.2571 75.4316 56.2571 73.8314V49.1239H65.2578V45.2995H62.9099V35.185C62.9099 35.1183 62.9021 35.0594 62.8943 35.0018L62.8938 34.9987C62.8867 34.9442 62.8796 34.8909 62.8796 34.8328C62.7092 33.3936 61.5051 32.2866 60.02 32.2866H54.24C54.3203 32.2161 54.4006 32.1356 54.481 32.0551C55.5647 30.9681 56.2471 29.4585 56.2471 27.7979C56.2471 27.4658 56.2068 27.1337 56.1567 26.8116C55.675 23.9634 53.2366 21.7795 50.2563 21.7795C47.2861 21.7795 44.8276 23.9634 44.3562 26.8116L44.3379 26.9276L44.3376 26.9298C44.2922 27.2146 44.2458 27.5063 44.2458 27.7979C44.2458 29.4585 44.918 30.9782 46.0117 32.0551C46.082 32.1257 46.1528 32.1886 46.23 32.2574L46.2361 32.2629L46.2627 32.2866H40.4929C39.0178 32.2866 37.8037 33.4037 37.6331 34.8328C37.6296 34.8745 37.625 34.915 37.6204 34.9551C37.6116 35.0312 37.603 35.106 37.603 35.185V45.2995H35.2549V49.1239H44.2458V50.1706H44.2659ZM56.2771 44.3837V37.7615H57.4109V45.2895H56.2771V44.3837ZM43.0718 37.7615V45.2895H44.2659V37.7615H43.0718Z" fill="#DA6F25"/>
<path fill-rule="evenodd" clip-rule="evenodd" d="M28.0793 85.8275V14.0397H72.4617V85.8275H28.0793ZM31.1909 82.7081H69.3621V17.15H31.1909V82.7081Z" fill="#DA6F25"/>
</svg>
