<svg width="100" height="100" viewBox="0 0 100 100" fill="none" xmlns="http://www.w3.org/2000/svg">
<path d="M16.6793 49.6958C16.6793 40.8393 20.1211 32.5162 26.3625 26.2563C27.4763 25.1392 27.4663 23.3377 26.3625 22.2206C25.8207 21.6771 25.1082 21.3853 24.3556 21.3853C23.603 21.3853 22.8806 21.6872 22.3487 22.2206C15.0336 29.5473 10.9998 39.3196 10.9998 49.7058C10.9998 60.0921 15.0236 69.8442 22.3487 77.1911C22.8906 77.7346 23.603 78.0264 24.3556 78.0264C25.1182 78.0264 25.8307 77.7245 26.3625 77.1911C27.4763 76.074 27.4763 74.2725 26.3625 73.1554C20.1211 66.8652 16.6793 58.5422 16.6793 49.6958Z" fill="#DA6F25"/>
<path fill-rule="evenodd" clip-rule="evenodd" d="M19.208 49.6958C19.208 32.8081 32.915 19.0705 49.7429 19.0705C66.5806 19.0705 80.2778 32.8081 80.2778 49.6958C80.2778 66.5733 66.5806 80.321 49.7429 80.321C32.905 80.321 19.208 66.5834 19.208 49.6958ZM74.5781 49.6857C74.5579 35.9783 63.4197 24.797 49.7427 24.7769C36.0657 24.8071 24.9275 35.9783 24.9075 49.7058C24.9275 63.4032 36.0657 74.5845 49.7427 74.6147C63.4097 74.5744 74.5579 63.4032 74.5781 49.6857Z" fill="#DA6F25"/>
<path d="M77.127 22.2105C76.5852 21.667 75.8727 21.3752 75.1201 21.3752C74.3676 21.3752 73.6451 21.6771 73.0932 22.2105C71.9794 23.3276 71.9794 25.1291 73.0932 26.2462C73.1032 26.2563 73.1233 26.2663 73.1333 26.2865C79.3547 32.5464 82.7764 40.8594 82.7764 49.6857C82.7764 58.5421 79.3346 66.8652 73.0932 73.1251C71.9794 74.2423 71.9794 76.0437 73.0932 77.1709C73.635 77.7144 74.3475 78.0063 75.1001 78.0063C75.8627 78.0063 76.5751 77.7043 77.107 77.1709C84.4221 69.8342 88.4559 60.0719 88.4559 49.6857C88.486 39.3095 84.4522 29.5473 77.127 22.2105V22.2105Z" fill="#DA6F25"/>
<path fill-rule="evenodd" clip-rule="evenodd" d="M58.6138 65.1844C58.9348 65.3052 59.2058 65.5267 59.3965 65.6978C59.8179 66.0802 59.8682 66.9357 59.2961 67.0967C59.0955 67.0967 58.8447 66.996 58.5837 66.845C58.5889 67.4914 58.5913 68.1506 58.594 68.8174V68.8391V68.8603C58.5964 69.4982 58.5989 70.1431 58.6038 70.7902H57.0986L57.239 64.2787C57.239 64.2787 56.3159 66.5029 55.6838 70.7902H42.9199C42.2878 66.5029 41.3545 64.2787 41.3645 64.2787L41.5051 70.7902H39.9797C39.9846 70.2007 39.9871 69.6113 39.9895 69.0275V69.0101L39.9941 68.0572C39.9956 67.7646 39.9976 67.4744 40 67.1873C39.8169 67.3077 39.6306 67.4086 39.4595 67.4731C39.3306 67.5217 39.2104 67.5496 39.1069 67.5496C38.585 67.3583 38.6353 66.4928 39.0566 66.1204C39.2773 65.9091 39.6187 65.6374 40.01 65.5367L40.0244 63.8062C40.0369 62.2536 40.0481 60.84 40.0701 59.6492V59.468C40.0801 59.3372 40.0801 59.2064 40.0801 59.0755C40.0801 59.0038 40.0828 58.932 40.0852 58.8616V58.8577C40.0876 58.7911 40.0901 58.7259 40.0901 58.6629C40.1003 58.5522 40.1003 58.4415 40.1003 58.3408V58.2301C40.1003 58.049 40.1104 57.8779 40.1104 57.7068V57.6061C40.1104 57.4451 40.1104 57.2841 40.1204 57.1331V57.0023C40.1233 56.9571 40.1252 56.9119 40.127 56.8674L40.1321 56.7158C40.134 56.6569 40.1365 56.6008 40.1404 56.5494C40.3411 51.7488 44.385 50.209 48.78 50.209H49.8337C54.2288 50.209 58.2727 51.7387 58.4734 56.5494C58.4834 56.7205 58.4834 56.9017 58.4934 57.103C58.5034 57.1734 58.5034 57.264 58.5034 57.3445C58.5034 57.4854 58.5134 57.6263 58.5134 57.7873C58.5134 57.8364 58.5159 57.8927 58.5183 57.9504L58.519 57.963C58.5212 58.0195 58.5234 58.0768 58.5234 58.1295V58.2603V58.2805C58.5334 58.371 58.5334 58.4818 58.5334 58.5925C58.5334 58.649 58.5359 58.71 58.5383 58.7725V58.7769V58.7809L58.5391 58.7951L58.5422 58.9055L58.5435 58.9849C58.5435 59.0884 58.5471 59.192 58.55 59.2977L58.5518 59.3636C58.553 59.4113 58.5537 59.4594 58.5537 59.5083V59.6794C58.5754 60.8005 58.5869 62.1031 58.5994 63.5326V63.5712L58.6138 65.1844ZM41.5083 54.446C41.5706 54.3487 41.6147 54.2518 41.6458 54.1743C41.6558 54.134 41.6758 54.0736 41.6958 54.0132C41.8364 53.671 42.0471 53.3591 42.3281 53.0873C43.0908 52.3325 44.335 51.8293 45.6594 51.5173L45.2581 51.2053C43.9436 51.5475 42.7195 52.0507 41.9368 52.7653C41.3948 53.2584 41.0637 53.8422 41.0637 54.5366C41.0637 54.5986 41.0637 54.6574 41.062 54.7131C41.0605 54.7568 41.0581 54.7986 41.0537 54.8385C41.2634 54.7581 41.4087 54.6015 41.5083 54.446ZM55.0312 69.9348C53.6765 68.9284 50.3652 68.8479 49.3218 68.8479C48.2881 68.8479 44.9968 68.9284 43.6321 69.9247C43.2607 67.459 42.699 65.4261 41.9263 64.3391C43.0703 63.2723 47.1843 62.3263 49.3218 62.3263C51.469 62.3263 55.563 63.2522 56.717 64.3391C55.9644 65.416 55.4026 67.4691 55.0312 69.9348ZM57.0083 54.2045C57.0886 54.3957 57.2593 54.7278 57.6003 54.8687V54.5567C57.6003 53.8623 57.2693 53.2786 56.7275 52.7854C55.9548 52.0809 54.7305 51.5676 53.406 51.2255L53.0046 51.5375C54.3291 51.8494 55.5735 52.3527 56.3259 53.1276C56.6069 53.3994 56.8279 53.7113 56.9583 54.0535C56.9783 54.1038 56.9883 54.1541 57.0083 54.2045Z" fill="#DA6F25"/>
<path fill-rule="evenodd" clip-rule="evenodd" d="M37.5513 47.693L49.4722 26.3569L62.3264 47.693H37.5513ZM60.3997 46.6262L49.5122 28.5509L39.4075 46.6262H60.3997Z" fill="#DA6F25"/>
<path fill-rule="evenodd" clip-rule="evenodd" d="M50.6169 33.2811H48.5298V41.7853H50.6169V33.2811ZM49.5825 43.0735C49.9539 43.0735 50.2849 43.2043 50.5559 43.4559C50.8369 43.7176 50.9773 44.0296 50.9773 44.412C50.9773 44.7844 50.8369 45.1064 50.5659 45.3681C50.2849 45.6297 49.9539 45.7606 49.5725 45.7606C49.3818 45.7606 49.2012 45.7203 49.0408 45.6499C48.9294 45.6105 48.8311 45.5583 48.7397 45.4933C48.6912 45.4586 48.6445 45.4202 48.5991 45.3781C48.4688 45.2674 48.3684 45.1165 48.2881 44.9555C48.2078 44.7844 48.1777 44.6133 48.1777 44.422C48.1777 44.0497 48.3181 43.7276 48.5891 43.466C48.8701 43.2043 49.2012 43.0735 49.5825 43.0735Z" fill="#DA6F25"/>
</svg>
