<svg width="100" height="100" viewBox="0 0 100 100" fill="none" xmlns="http://www.w3.org/2000/svg">
<path fill-rule="evenodd" clip-rule="evenodd" d="M66.3415 36.7872H54.3703V31.423C59.227 31.4129 64.4451 30.5474 64.4451 28.0717C64.4451 27.6087 64.6257 24.0963 65.2478 23.5126V23.422V22.6269C65.2478 20.5738 65.2478 15.1895 65.2278 9.04028H63.281L63.1306 19.9498C63.1306 19.803 63.0615 19.6486 62.9546 19.4097C62.5561 18.5184 61.6318 16.4516 61.8059 9.22144V9.03021H45.8513C45.8513 9.09058 45.8513 9.151 45.8613 9.22144C46.0669 16.4512 44.9624 18.5181 44.4861 19.4095C44.3584 19.6485 44.2759 19.803 44.2759 19.9498L44.0952 9.04028H42.1284C42.1084 15.1895 42.1084 20.5738 42.1084 22.6269V23.5226C42.7305 24.1063 42.9111 27.6087 42.9111 28.0817C42.9111 30.5172 47.9485 31.3928 52.7449 31.423V36.7872H40.7737C39.6098 36.7872 38.6565 37.7433 38.6565 38.9108V64.8562H68.4687V38.9208C68.4587 37.7433 67.5056 36.7872 66.3415 36.7872ZM34.3159 90.4618L34.3188 90.4628C34.3396 90.4701 34.354 90.4752 34.3618 90.4796L42.3794 90.4896L42.2439 90.4192C40.6116 89.5703 36.4814 87.4229 36.218 85.0852C36.0078 82.6271 37.3891 82.1919 39.1929 81.6236C39.3684 81.5684 39.5478 81.5118 39.7302 81.452C40.8332 81.0903 41.7722 80.8235 42.5932 80.5903C44.8786 79.941 46.2478 79.552 47.6875 78.1006C48.7109 77.054 49.4236 75.5846 49.4133 74.4272C49.3933 72.8975 49.1526 71.8508 46.7241 69.5763H40.7336C41.0671 69.8481 41.406 70.092 41.7319 70.3265L41.7383 70.3311L41.7427 70.3342C43.1387 71.338 44.3027 72.1751 43.8645 74.3165C43.3325 76.0375 40.9143 76.6212 38.7268 77.0942C33.4888 78.2415 31.9936 80.3751 31.3113 82.9113C30.8096 84.7933 31.0102 87.1282 32.5354 88.9901C33.5229 90.1857 34.1396 90.4005 34.3159 90.4618ZM52.9097 90.4618L52.9126 90.4628C52.9333 90.4701 52.9477 90.4752 52.9556 90.4796L60.9731 90.4896L60.8376 90.4192C59.2053 89.5703 55.0752 87.4229 54.8118 85.0852C54.6015 82.6271 55.9829 82.1919 57.7866 81.6236C57.9621 81.5684 58.1416 81.5118 58.324 81.452C59.427 81.0903 60.366 80.8235 61.187 80.5903C63.4724 79.941 64.8415 79.552 66.2812 78.1006C67.3047 77.054 68.0173 75.5846 68.0071 74.4272C67.987 72.8975 67.7463 71.8508 65.3179 69.5763H59.3274C59.6609 69.8481 59.9997 70.092 60.3257 70.3265L60.332 70.3311L60.3364 70.3342C61.7324 71.338 62.8965 72.1751 62.4582 74.3165C61.9263 76.0375 59.508 76.6212 57.3205 77.0942C52.0825 78.2415 50.5874 80.3751 49.905 82.9113C49.4033 84.7933 49.604 87.1282 51.1291 88.9901C52.1167 90.1857 52.7334 90.4005 52.9097 90.4618ZM63.5015 25.9883C63.3711 26.6224 63.2004 27.2162 62.9294 27.7395C62.6084 28.3635 62.167 28.8667 61.5246 29.1586C61.354 29.229 61.1433 29.2994 60.8826 29.3599V29.3699L60.3306 30.1549C61.9963 29.8731 63.2908 29.4001 63.8125 28.5748C63.9831 28.3132 64.0735 28.0213 64.0735 27.6791C64.0735 27.2061 64.0735 26.7432 64.1035 26.3104L63.5015 25.9883ZM43.5132 28.5648C43.3425 28.3031 43.2522 28.0012 43.2522 27.6691C43.2522 27.2061 43.2422 26.7432 43.2222 26.2903L43.8242 25.9682C43.9546 26.6123 44.1252 27.2162 44.3962 27.7194C44.7173 28.3433 45.1589 28.8466 45.811 29.1384C45.9717 29.2189 46.1924 29.2793 46.4534 29.3397V29.3498L47.0051 30.1348C45.3293 29.853 44.0349 29.3799 43.5132 28.5648ZM47.0754 22.9388C46.8445 24.2874 46.4231 25.4348 45.811 26.1392C46.062 26.5519 48.2092 27.1255 53.6479 27.1255C59.0867 27.1255 61.2441 26.5519 61.4949 26.1392C60.8928 25.4348 60.4614 24.2874 60.2305 22.9288C59.5583 23.2408 57.1802 23.3514 53.6379 23.3514C50.146 23.3514 47.7878 23.2408 47.0754 22.9388Z" fill="#DA6F25"/>
</svg>
