<svg width="100" height="100" viewBox="0 0 100 100" fill="none" xmlns="http://www.w3.org/2000/svg">
<path d="M39.2063 63.9127C39.2063 58.8203 41.1831 54.0297 44.7854 50.4167C45.4276 49.7726 45.4176 48.736 44.7854 48.0918C44.4744 47.7799 44.0629 47.6088 43.6315 47.6088C43.2 47.6088 42.7886 47.7799 42.4775 48.0918C38.263 52.3087 35.9451 57.9346 35.9451 63.9127C35.9451 69.8908 38.263 75.5067 42.4775 79.7336C42.7886 80.0456 43.2 80.2167 43.6315 80.2167C44.0629 80.2167 44.4744 80.0456 44.7854 79.7336C45.4276 79.0895 45.4276 78.0529 44.7854 77.4088C41.1831 73.7957 39.2063 69.0052 39.2063 63.9127Z" fill="#DA6F25"/>
<path fill-rule="evenodd" clip-rule="evenodd" d="M40.6614 63.9127C40.6614 54.1907 48.5586 46.2803 58.2417 46.2803C67.9351 46.2803 75.822 54.1907 75.822 63.9127C75.822 73.6347 67.9351 81.5452 58.2417 81.5452C48.5483 81.5452 40.6614 73.6347 40.6614 63.9127ZM72.541 63.9127C72.531 56.0224 66.1089 49.5814 58.2419 49.5713C50.365 49.5814 43.9529 56.0224 43.9429 63.9228C43.9529 71.8131 50.375 78.2441 58.2419 78.2642C66.1089 78.2441 72.531 71.803 72.541 63.9127Z" fill="#DA6F25"/>
<path fill-rule="evenodd" clip-rule="evenodd" d="M31.73 41.8016C30.9575 43.5125 30.4758 45.3844 30.1648 47.357C29.6631 47.7193 29.9438 81.243 29.9541 81.233H20.0801V57.3306C20.085 57.1231 20.0923 56.9108 20.0996 56.6973C20.1072 56.4756 20.115 56.2527 20.1201 56.0323L20.123 55.9454C20.2927 50.2402 20.4849 43.7845 23.1506 37.8967C24.6758 34.5251 26.8936 31.6267 29.7432 29.3019C32.1213 27.3696 35.0012 25.7693 38.3328 24.5314L36.5166 18.0602L58.3916 23.6458L42.6274 39.8592L40.8916 33.6697C36.3459 35.4913 33.3958 38.1181 31.73 41.8016ZM72.8521 47.6088C73.2834 47.6088 73.6948 47.7798 74.0059 48.0919C78.2205 52.3087 80.5483 57.9346 80.5283 63.9228C80.5283 69.9009 78.2104 75.5167 73.9958 79.7437C73.6848 80.0557 73.2834 80.2267 72.8418 80.2267C72.4104 80.2267 71.999 80.0557 71.688 79.7437C71.0457 79.0995 71.0457 78.0629 71.688 77.4188C75.2903 73.8058 77.2671 69.0153 77.2671 63.9228C77.2671 58.8404 75.3003 54.0499 71.718 50.4468C71.7112 50.433 71.7043 50.4287 71.6975 50.424C71.6943 50.4219 71.6912 50.4198 71.688 50.4167C71.0457 49.7726 71.0457 48.736 71.688 48.0919C72.009 47.7798 72.4204 47.6088 72.8521 47.6088Z" fill="#DA6F25"/>
</svg>
