<svg width="100" height="100" viewBox="0 0 100 100" fill="none" xmlns="http://www.w3.org/2000/svg">
<path fill-rule="evenodd" clip-rule="evenodd" d="M83.6394 58.1287H84.0308C86.6096 58.1287 88.7168 56.0252 88.7168 53.4286V33.3204C88.7168 30.7339 86.6196 28.6205 84.0308 28.6205H83.6394C81.0605 28.6205 78.9534 30.7239 78.9534 33.3204V53.4286C78.9534 56.0252 81.0505 58.1287 83.6394 58.1287ZM52.5928 52.8751C67.3433 52.8751 79.3345 64.9119 79.3345 79.6962C79.3345 81.4674 79.1538 83.1985 78.8328 84.8792H71.3672V82.0612H76.7456C76.8259 81.2863 76.866 80.4912 76.866 79.7062C76.866 76.4454 76.2239 73.3356 75.0598 70.4874L70.4338 72.5506L69.4104 70.2459L73.9961 68.2029C72.4006 65.2239 70.2131 62.6273 67.5842 60.5541L56.0244 76.4756C56.6667 77.2505 57.0378 78.2368 57.0378 79.3137C57.0378 81.7693 55.051 83.7722 52.5928 83.7722C50.1443 83.7722 48.1475 81.7794 48.1475 79.3137C48.1475 76.848 50.1343 74.8553 52.5928 74.8553C53.0745 74.8553 53.5359 74.9358 53.9675 75.0767L65.5471 59.125C62.1355 56.9612 58.1619 55.6226 53.8872 55.4012V60.4233H51.2781V55.4012C47.0837 55.6226 43.1704 56.9209 39.7888 59.0143L42.769 63.1003L40.7319 64.5898L37.7217 60.4534C35.0325 62.5468 32.7847 65.2037 31.1592 68.233L35.6545 70.2358L34.6311 72.5405L30.0854 70.5076C28.9314 73.3456 28.3093 76.4354 28.3093 79.676C28.3093 80.4711 28.3494 81.2561 28.4297 82.031H34.2598V84.849H26.3425C26.0115 83.1783 25.8408 81.4473 25.8408 79.666C25.8508 64.9018 37.842 52.8751 52.5928 52.8751ZM79.3347 64.8615C79.3347 62.3656 81.3616 60.3528 83.8301 60.3528C86.3086 60.3528 88.3157 62.3656 88.3257 64.8615C88.3257 67.3574 86.3186 69.3703 83.8301 69.3703C81.3416 69.3703 79.3347 67.3373 79.3347 64.8615Z" fill="#DA6F25"/>
<path d="M32.9451 57.3637C31.1289 54.6363 28.9815 52.4826 27.0348 50.5402C23.1013 46.595 20.2616 43.7469 20.1612 37.6681C20.0709 32.1731 22.5294 27.8153 26.7338 25.9937C29.112 24.9671 31.9016 24.8262 34.8116 25.6012C37.571 26.3258 40.4007 27.8656 43.1201 30.0898L39.4274 33.884L58.7036 38.8255L53.3352 19.613L49.4819 23.5682C45.5585 20.2068 41.4142 17.9423 37.1195 16.8051C32.2327 15.5169 27.3961 15.8087 23.1415 17.6404C19.4287 19.2406 16.3482 21.958 14.2208 25.4905C12.0935 29.023 11.0098 33.2902 11.0901 37.8191C11.1603 42.2071 12.234 46.0415 14.3714 49.5539C16.1776 52.5128 18.4353 54.7772 20.6128 56.9712C23.2418 59.608 25.5297 61.9027 26.8643 65.1232C28.4798 62.2146 30.5268 59.598 32.9451 57.3637Z" fill="#DA6F25"/>
</svg>
