<svg width="100" height="100" viewBox="0 0 100 100" fill="none" xmlns="http://www.w3.org/2000/svg">
<path fill-rule="evenodd" clip-rule="evenodd" d="M76.387 24.658C76.6983 24.658 77.6917 25.3524 77.7718 25.7348C77.8421 26.1273 77.7718 27.9791 77.7518 28.3515C77.7518 28.744 77.491 29.5693 77.0694 29.7202C76.5477 29.8914 73.4068 29.7706 73.4068 29.7706C73.4068 29.7706 73.4671 30.0121 73.5474 30.5555C73.5525 30.5862 73.555 30.6196 73.5577 30.6515C73.5601 30.6824 73.5626 30.712 73.5674 30.7367C73.5718 30.7901 73.5782 30.8455 73.5848 30.9028C73.5931 30.9752 73.6019 31.0507 73.6075 31.1292C73.6377 31.3305 73.6578 31.5922 73.6778 31.8639C73.6878 32.045 73.6978 32.2463 73.7078 32.4577C73.7581 33.4238 73.7581 34.6517 73.6878 36.2318C73.6788 36.5594 73.6614 36.887 73.6436 37.2295L73.6377 37.3388C73.6177 37.53 73.6075 37.7213 73.5975 37.9225C73.5674 38.3251 73.5274 38.7377 73.4971 39.1705C73.4859 39.2882 73.4717 39.3997 73.4578 39.5084C73.4466 39.5948 73.4358 39.6796 73.4271 39.7643C73.417 39.8549 73.3968 39.9253 73.3868 40.0159L73.3838 40.0406C73.3748 40.1245 73.365 40.2153 73.3467 40.2977C73.3167 40.4084 73.2964 40.5191 73.2764 40.6298C73.2713 40.6499 73.2664 40.675 73.2615 40.7003C73.2564 40.7255 73.2513 40.7506 73.2464 40.7707C73.2164 40.9016 73.1761 41.0323 73.146 41.1531C72.524 43.4578 71.3799 44.6857 71.3799 44.6857C71.3799 44.6857 71.2796 50.7343 71.3599 51.1972C71.4302 51.6602 70.4568 51.8514 70.4568 51.8514C70.4568 51.8514 64.9278 51.8514 64.4661 51.7708C64.0047 51.6903 63.8541 51.3079 63.8541 51.3079V44.6857H41.7381V51.3079C41.7381 51.3079 41.5877 51.6903 41.126 51.7708C40.6644 51.8514 35.1356 51.8514 35.1356 51.8514C35.1356 51.8514 34.1522 51.6602 34.2325 51.1972C34.3126 50.7343 34.2122 44.6857 34.2122 44.6857C34.2122 44.6857 32.4161 42.7634 32.095 39.1705C31.483 32.2161 32.1854 29.7806 32.1854 29.7806C32.1854 29.7806 29.0345 29.9215 28.5228 29.7303C28.0914 29.5693 27.8404 28.744 27.8404 28.3616C27.8404 27.9691 27.7601 26.1172 27.8404 25.7348C27.9207 25.3524 28.9141 24.658 29.2252 24.658H33.6805C33.6805 24.658 36.209 18.1062 37.4434 16.7173C38.0958 15.9827 40.3633 14.946 41.8987 14.634C43.4439 14.322 52.8062 14.0906 52.8062 14.0906C52.8062 14.0906 62.1783 14.322 63.7137 14.634C65.2488 14.946 67.4766 16.0229 68.169 16.7173C69.5438 18.1062 71.9319 24.658 71.9319 24.658H76.387ZM36.2378 25.8455C36.2378 25.8455 35.8065 28.0194 35.8968 28.2408H69.5023C69.5823 28.0194 69.1109 25.8455 69.1109 25.8455C69.1109 25.8455 67.0035 20.0787 65.8797 19.022C65.2676 18.4384 63.3611 17.5023 62.0464 17.2407C60.732 16.979 52.6744 16.7777 52.6744 16.7777C52.6744 16.7777 44.6168 16.979 43.3023 17.2407C41.9776 17.5023 40.1211 18.4685 39.469 19.022C38.616 19.7466 36.2378 25.8455 36.2378 25.8455Z" fill="#DA6F25"/>
<path fill-rule="evenodd" clip-rule="evenodd" d="M50.6477 83.4529C52.2331 85.3651 53.1465 85.5161 53.2468 85.5663V85.5865H64.656L64.4053 85.4553C62.0459 84.2224 56.2532 81.1951 55.8857 77.8874C55.5835 74.3873 57.5637 73.7634 60.1323 72.9542C60.3777 72.8768 60.6284 72.7978 60.883 72.7144C62.4626 72.1952 63.8069 71.8134 64.9812 71.4797C68.2229 70.5587 70.1716 70.0052 72.2119 67.944C73.6667 66.4545 74.6804 64.3712 74.6704 62.7207C74.6501 60.5468 74.3091 59.0573 70.8471 55.8167H62.3178C62.7983 56.2079 63.2866 56.5583 63.7566 56.8955C65.7402 58.3189 67.3979 59.5085 66.7732 62.5596C66.0305 65.0153 62.5788 65.8406 59.468 66.5149C52.0024 68.1553 49.8652 71.1947 48.9018 74.7977C48.1894 77.4747 48.4702 80.806 50.6477 83.4529ZM26.7119 85.5469C26.7378 85.5555 26.7558 85.5615 26.7658 85.5665V85.5866H38.175L37.9243 85.4554C35.5649 84.2225 29.7722 81.1953 29.4048 77.8875C29.1025 74.3875 31.0827 73.7635 33.6513 72.9543C33.8967 72.877 34.1474 72.7979 34.4021 72.7145C35.9817 72.1953 37.3259 71.8135 38.5002 71.4798C41.7419 70.5588 43.6907 70.0053 45.7309 67.9441C47.1858 66.4546 48.1994 64.3713 48.1894 62.7208C48.1692 60.5469 47.8281 59.0574 44.3662 55.8168H35.8369C36.3174 56.2081 36.8056 56.5584 37.2756 56.8956C39.2593 58.319 40.917 59.5086 40.2922 62.5598C39.5495 65.0154 36.0979 65.8407 32.987 66.515C25.5215 68.1555 23.3843 71.1948 22.4209 74.7978C21.7085 77.4749 21.9892 80.8061 24.1667 83.453C25.5945 85.1749 26.4773 85.4687 26.7119 85.5469Z" fill="#DA6F25"/>
</svg>
