<svg width="100" height="100" viewBox="0 0 100 100" fill="none" xmlns="http://www.w3.org/2000/svg">
<path d="M27.7582 58.3472H27.718C27.1661 58.327 26.7045 57.8943 26.6544 57.3408L24.3163 32.2206L23.0821 43.4522C23.0219 44.0158 22.5503 44.4385 21.9883 44.4385H6.10379C5.49169 44.4385 5 43.9453 5 43.3314C5 42.7175 5.49169 42.2244 6.10379 42.2244H21.005L23.3129 21.15C23.3731 20.5864 23.8447 20.1637 24.4066 20.1637H24.4167C24.9786 20.1637 25.4502 20.6065 25.5104 21.1701L28.0492 48.4742L30.9491 30.4292C31.0294 29.8958 31.491 29.5033 32.0228 29.5033H32.0429C32.5747 29.5033 33.0262 29.8756 33.1266 30.399L35.4445 42.4961L41.1742 8.00618C41.2645 7.47277 41.7161 7.09034 42.2479 7.08027C42.7797 7.07021 43.2413 7.45265 43.3417 7.97598L49.8942 42.2344H65.0061L67.2738 26.6048C67.3541 26.0512 67.8358 25.6386 68.3977 25.6587C68.9596 25.6789 69.4212 26.1016 69.4714 26.6652C70.0835 33.4585 70.9164 42.3854 71.5084 48.595C72.1406 45.9582 72.7828 43.5629 72.9233 43.0597C73.0537 42.5766 73.4852 42.2445 73.9869 42.2445H93.4337C94.0458 42.2445 94.5375 42.7376 94.5375 43.3516C94.5375 43.9655 94.0458 44.4586 93.4337 44.4586H74.8398C73.7461 48.605 72.3011 54.5832 72.3111 56.0324C72.3212 56.9684 71.6288 57.2502 71.2575 57.2703C70.8863 57.2904 70.234 57.0992 70.0935 56.274C70.0835 56.2035 70.0634 56.1129 70.0534 55.9821C70.0233 55.7607 69.9832 55.4487 69.943 55.026C69.8627 54.2611 69.7423 53.1339 69.6018 51.6847C69.361 49.2492 69.0399 45.8475 68.6385 41.5803C68.468 39.7385 68.2974 37.8968 68.1368 36.1657L67.0732 43.5226C66.9929 44.0661 66.5313 44.4687 65.9794 44.4687H48.9911C48.4592 44.4687 48.0077 44.0963 47.9073 43.573L42.3483 14.4875L36.6286 48.9674C36.5383 49.5008 36.0868 49.8832 35.5549 49.8933H35.5449C35.0131 49.8933 34.5615 49.5209 34.4612 48.9976L32.1532 36.991L28.8519 57.4213C28.7616 57.9547 28.3 58.3472 27.7582 58.3472Z" fill="#DA6F25"/>
<path fill-rule="evenodd" clip-rule="evenodd" d="M65.5076 55.1269C61.303 50.91 55.7139 48.5952 49.7734 48.5952C43.833 48.5952 38.2439 50.92 34.0396 55.1269C29.835 59.3438 27.5271 64.9495 27.5271 70.9075C27.5271 76.8655 29.845 82.4712 34.0396 86.6881C38.2439 90.905 43.833 93.2197 49.7734 93.2197C55.7139 93.2197 61.303 90.895 65.5076 86.6881C69.7119 82.4712 72.0198 76.8655 72.0198 70.9075C72.0198 64.9495 69.7119 59.3438 65.5076 55.1269ZM35.6455 56.7371C39.4185 52.953 44.4358 50.8697 49.7739 50.8697C55.1123 50.8697 60.1296 52.953 63.9026 56.7371C67.6755 60.5212 69.7527 65.5533 69.7527 70.9075C69.7527 71.5516 69.7224 72.1957 69.6624 72.8297L55.4536 69.6696C54.8816 67.0428 52.5535 65.0703 49.7639 65.0703C46.9644 65.0703 44.6262 67.0529 44.0745 69.6998L29.8857 72.87C29.8254 72.2259 29.7954 71.5717 29.7954 70.9175C29.7954 65.5533 31.8726 60.5313 35.6455 56.7371ZM49.7739 90.9453C55.1123 90.9453 60.1296 88.862 63.9026 85.0778C66.1704 82.8235 67.8159 80.1061 68.7793 77.1271L54.7109 73.9871C53.6875 75.6376 51.8611 76.7346 49.7839 76.7346C47.717 76.7346 45.9006 75.6477 44.8672 74.0173L30.7888 77.1573C31.7422 80.1061 33.3877 82.8134 35.6455 85.0778C39.4185 88.862 44.4358 90.9453 49.7739 90.9453Z" fill="#DA6F25"/>
</svg>
