<svg width="100" height="100" viewBox="0 0 100 100" fill="none" xmlns="http://www.w3.org/2000/svg">
<path fill-rule="evenodd" clip-rule="evenodd" d="M77.2937 53.5282H77.6851C80.2639 53.5282 82.3711 51.4247 82.3711 48.8282V28.72C82.3711 26.1335 80.2739 24.02 77.6851 24.02H77.2937C74.7148 24.02 72.6077 26.1234 72.6077 28.72V48.8282C72.6077 51.4147 74.7048 53.5282 77.2937 53.5282ZM44.7622 44.7523C59.5127 44.7523 71.5039 56.789 71.5039 71.5733C71.5039 73.3445 71.3232 75.0756 71.0022 76.7563H63.5366V73.9384H68.915C68.9954 73.1634 69.0354 72.3683 69.0354 71.5833C69.0354 68.3226 68.3933 65.2127 67.2292 62.3646L62.6033 64.4277L61.5798 62.123L66.1655 60.08C64.5701 57.101 62.3826 54.5045 59.7537 52.4312L48.1938 68.3527C48.8362 69.1277 49.2073 70.114 49.2073 71.1909C49.2073 73.6465 47.2205 75.6493 44.7622 75.6493C42.3137 75.6493 40.3169 73.6566 40.3169 71.1909C40.3169 68.7251 42.3037 66.7324 44.7622 66.7324C45.2439 66.7324 45.7053 66.8129 46.137 66.9538L57.7166 51.0021C54.3049 48.8383 50.3313 47.4998 46.0566 47.2784V52.3004H43.4475V47.2784C39.2532 47.4998 35.3398 48.798 31.9583 50.8914L34.9385 54.9775L32.9014 56.467L29.8911 52.3306C27.2019 54.424 24.9541 57.0809 23.3286 60.1102L27.824 62.113L26.8005 64.4177L22.2549 62.3847C21.1008 65.2228 20.4788 68.3125 20.4788 71.5532C20.4788 72.3482 20.5188 73.1332 20.5991 73.9081H26.4292V76.7261H18.512C18.1809 75.0555 18.0103 73.3245 18.0103 71.5431C18.0203 56.7789 30.0115 44.7523 44.7622 44.7523ZM72.989 60.251C72.989 57.7551 75.0159 55.7423 77.4844 55.7423C79.9629 55.7423 81.98 57.7551 81.98 60.251C81.98 62.7469 79.9729 64.7598 77.4844 64.7598C74.9958 64.7598 72.989 62.7269 72.989 60.251Z" fill="#DA6F25"/>
</svg>
