<svg width="100" height="100" viewBox="0 0 100 100" fill="none" xmlns="http://www.w3.org/2000/svg">
<path fill-rule="evenodd" clip-rule="evenodd" d="M26.1047 31.1759C26.1047 21.162 34.2327 13 44.2271 13C54.2112 13 62.3491 21.162 62.3291 31.1658C62.3291 36.369 60.1016 41.3407 56.208 44.7927L54.8232 43.2227L51.9736 40.3645L54.0508 38.2812L56.5593 40.7972C58.3855 38.4322 59.5095 35.6041 59.7905 32.6251H55.8066V29.6864H59.7905C59.4895 26.496 58.2451 23.5875 56.3286 21.2426L53.9302 23.6479L51.8533 21.5646L54.2615 19.1492C51.8833 17.1465 48.9131 15.8481 45.6619 15.5361V19.1693H42.7319V15.5361C39.4404 15.8481 36.4402 17.1866 34.052 19.2297L36.9019 22.0779L34.8247 24.1611L32.0251 21.3533C30.1587 23.6881 28.9446 26.5665 28.6436 29.7065H32.0251V32.6453H28.6436C28.9143 35.584 30.0181 38.3818 31.7942 40.7167L34.2026 38.3013L36.2798 40.3846L33.0586 43.6152L33.0486 43.6052L32.0852 44.6719C28.2822 41.23 26.1047 36.3086 26.1047 31.1759ZM13.05 40.6564L14.6355 44.7424L20.636 42.3672L21.9307 45.6985L25.2419 38.4423L17.8364 35.1714L19.0505 38.2913L13.05 40.6564Z" fill="#DA6F25"/>
<path fill-rule="evenodd" clip-rule="evenodd" d="M41.2669 30.6727C41.5076 29.2435 42.742 28.1667 44.2271 28.1667C45.8826 28.1667 47.2273 29.5253 47.2173 31.1859C47.2173 32.8466 45.8726 34.1951 44.2168 34.1951C43.4644 34.1951 42.772 33.9133 42.24 33.4504L32.9883 37.2849L31.8746 34.5675L41.2669 30.6727ZM76.7083 70.3658L85.93 67.8699L86.8028 70.9696L30.1985 86.2672L29.3655 83.1372L39.5005 80.3998C38.1858 80.0375 36.9917 79.2726 36.0787 78.1957L35.5369 78.2963C35.4063 78.3165 35.2759 78.3265 35.1456 78.3265L35.0782 78.3263L35.0159 78.325C34.9788 78.3236 34.9417 78.3211 34.9046 78.3165L33.1385 78.1152C32.7774 78.085 32.4261 77.9441 32.115 77.7327L29.4659 75.8608C29.0645 75.579 28.7635 75.1563 28.6231 74.6833C28.5528 74.4619 27.9707 72.4692 27.8604 72.0465C27.8604 72.041 27.8575 72.0355 27.8548 72.03L27.8526 72.0247C27.8514 72.0219 27.8504 72.0191 27.8504 72.0163C27.7701 71.6842 27.75 71.3521 27.8204 71.02C27.8453 70.8524 27.8765 70.6975 27.9122 70.5535C27.9773 70.2908 28.0572 70.0641 28.1414 69.8625C28.2417 69.0574 28.4927 67.4975 28.8841 66.4709C29.1148 65.8168 29.6265 65.3135 30.3189 64.8104C30.9209 64.3676 31.6937 63.8845 32.5867 63.4014C34.1421 62.556 36.7911 61.308 40.7347 60.0601C43.1265 56.9441 44.8152 54.5081 45.2354 53.9021L45.3204 53.78C46.6148 51.7571 47.8189 51.1734 49.254 50.6098C49.284 50.5997 49.304 50.5997 49.3243 50.5897C53.3543 49.162 67.4646 45.4086 71.1238 44.4354L71.1319 44.4332L71.7757 44.2618L71.972 44.209C72.1626 44.1486 72.3433 44.1285 72.534 44.1285C72.575 44.1285 72.6158 44.1298 72.6563 44.1323C72.7288 44.1367 72.8003 44.1451 72.8714 44.157C72.9258 44.1661 72.9798 44.1774 73.0337 44.1905C73.0735 44.2003 73.1133 44.2111 73.1531 44.2228L73.2061 44.2392C73.2425 44.2496 73.3003 44.2627 73.396 44.2854L73.5425 44.3208C73.6089 44.337 73.6868 44.3565 73.7781 44.3801C73.9988 44.4405 74.4205 44.5411 74.8418 44.9235C74.8658 44.9476 74.886 44.9679 74.9058 44.9886C75.0093 45.0977 75.0997 45.2193 75.6646 45.9803C76.387 46.9666 78.4241 49.7343 79.1165 50.6501C79.2872 50.7809 79.4576 50.9319 79.6082 51.1231C79.8489 51.4149 79.9895 51.737 80.2203 52.4314C80.2303 52.4616 80.2403 52.512 80.2503 52.5421L80.441 53.2567L81.1426 55.3042C81.3619 55.9443 81.4681 56.2556 81.5218 56.4157C81.5538 56.5106 81.5672 56.5524 81.575 56.5779V56.598V56.6181L82.1067 58.6008L82.4581 59.9091C82.8392 61.3281 82.5584 63.2705 81.0733 64.4178C80.5413 64.8305 79.6885 65.2431 79.0061 65.5249C78.9624 65.554 78.9119 65.5832 78.8555 65.6157L78.7728 65.6638C78.7354 65.6859 78.6958 65.7098 78.6548 65.7363C78.5948 67.0144 78.2234 68.2624 77.5511 69.309C77.3003 69.6915 77.0193 70.0437 76.7083 70.3658ZM37.0022 75.7099L35.9788 75.9816V75.9917L35.1058 76.1426L33.3396 75.9413L30.6907 74.0694C30.6907 74.0694 30.0484 71.8754 29.948 71.4829C29.948 71.478 29.9456 71.4731 29.9432 71.4681C29.9407 71.463 29.938 71.4579 29.938 71.4528C30.0184 70.7885 30.219 70.557 30.219 70.557C30.219 70.557 30.4698 68.2624 30.9014 67.2258C30.9917 66.8534 34.2527 64.3273 41.9996 61.9521C44.7891 58.3376 46.7286 55.5259 47.0572 55.0491L47.107 54.9777C48.0301 53.4982 48.7527 53.1259 49.9969 52.6428C54.5125 51.0426 72.4742 46.3124 72.4742 46.3124C72.4842 46.3225 73.2969 46.5238 73.2969 46.5238C73.2991 46.5259 73.4939 46.7906 73.7996 47.2059C74.9249 48.735 77.5523 52.3049 77.5916 52.3207C77.6224 52.3269 77.6521 52.3378 77.681 52.3527C77.7457 52.386 77.8038 52.4391 77.8526 52.5019C77.8868 52.541 77.9422 52.6849 77.99 52.8224C78.0408 52.9677 78.0833 53.1058 78.0833 53.1058L78.294 53.8706L78.3042 53.8907C78.3042 53.8907 79.428 57.1616 79.428 57.1717C79.5284 57.5541 80.1705 59.9494 80.3211 60.4727C80.4615 60.986 80.4715 62.0629 79.719 62.6567C79.2474 63.0291 78.003 63.5322 78.003 63.5322C77.9229 63.5725 76.4178 64.4783 76.4178 64.4783L76.4378 65.0821C76.5882 67.2862 75.334 69.3192 73.337 69.8525C72.9959 69.9431 72.6548 69.9834 72.3235 69.9834C70.668 69.9834 69.0826 68.9266 68.2796 67.2761L50.4183 72.0868L47.097 72.9825L46.816 73.063L46.2742 73.2039L45.1705 73.5059C45.3309 75.72 44.0867 77.763 42.0796 78.2964C41.7386 78.387 41.3975 78.4272 41.0662 78.4272C39.4104 78.4373 37.825 77.3806 37.0022 75.7099ZM47.2674 75.2268C47.1067 76.1225 46.7757 76.978 46.304 77.7227C46.053 78.1252 45.752 78.4875 45.4109 78.7996L70.6778 71.9761C70.0054 71.7849 69.3631 71.4829 68.761 71.0904C68.2393 70.7382 67.7576 70.3054 67.3362 69.8223L50.99 74.2204L47.6687 75.1161L47.3877 75.1966L47.2674 75.2268Z" fill="#DA6F25"/>
</svg>
