<svg width="100" height="100" viewBox="0 0 100 100" fill="none" xmlns="http://www.w3.org/2000/svg">
<path fill-rule="evenodd" clip-rule="evenodd" d="M76.6135 18.0938L78.1233 25.7963L74.3523 26.5399L72.8425 18.8373L76.6135 18.0938ZM82.9768 70.4948L80.8796 59.7563L84.6526 59.0116L86.7498 69.7501L82.9768 70.4948ZM77.9998 45.113L80.0969 55.8514L83.8699 55.1067L81.7727 44.3682L77.9998 45.113ZM77.2273 41.1879L75.1301 30.4494L78.9031 29.7047L81.0002 40.4431L77.2273 41.1879ZM89.0105 81.3892L87.5007 73.6867L83.7297 74.4302L85.2395 82.1328L89.0105 81.3892Z" fill="#DA6F25"/>
<path fill-rule="evenodd" clip-rule="evenodd" d="M23.46 18.0735L27.231 18.817L25.7212 26.5195L21.9502 25.776L23.46 18.0735ZM17.1011 70.4948L13.3281 69.7501L15.4253 59.0116L19.1982 59.7563L17.1011 70.4948ZM16.1978 55.1067L19.9707 55.8514L22.0679 45.113L18.2949 44.3682L16.1978 55.1067ZM22.8506 41.1879L19.0776 40.4431L21.1748 29.7047L24.9478 30.4494L22.8506 41.1879ZM16.3345 74.411L12.5635 73.6675L11.0537 81.37L14.8247 82.1135L16.3345 74.411Z" fill="#DA6F25"/>
<path fill-rule="evenodd" clip-rule="evenodd" d="M73.2637 51.6144C73.5647 51.6144 74.5381 52.2988 74.6185 52.6711C74.6783 52.9573 74.6487 54.0381 74.6299 54.7201C74.6236 54.9495 74.6185 55.1337 74.6185 55.2275C74.6185 55.6099 74.3775 56.4251 73.9561 56.566C73.4544 56.7371 70.3738 56.6163 70.3738 56.6163C70.3738 56.6163 70.4339 56.8478 70.5142 57.3812C70.5191 57.4064 70.5218 57.434 70.5242 57.4617C70.5267 57.4894 70.5293 57.5171 70.5342 57.5422C70.5384 57.5872 70.544 57.6356 70.5501 57.6865C70.5591 57.761 70.5686 57.841 70.5745 57.9246C70.5821 58.0908 70.5953 58.2625 70.6097 58.4527L70.6246 58.6493L70.6331 58.8099C70.6402 58.9453 70.6475 59.0814 70.6548 59.233C70.7049 60.1689 70.7049 61.3867 70.6346 62.9265C70.6255 63.2335 70.6084 63.5484 70.5906 63.8788L70.5845 63.9933C70.5645 64.1846 70.5545 64.3657 70.5442 64.567C70.5315 64.7337 70.5169 64.9022 70.502 65.0741C70.482 65.3069 70.4612 65.5458 70.4439 65.7948C70.4332 65.9016 70.4197 66.0056 70.4065 66.1082C70.3948 66.199 70.3831 66.2888 70.3738 66.3785C70.3685 66.4276 70.3599 66.4736 70.3519 66.5184C70.3448 66.5563 70.3382 66.5932 70.3335 66.6301L70.3282 66.6743C70.3196 66.7458 70.3101 66.8273 70.2935 66.9019C70.2635 67.0126 70.2432 67.1132 70.2232 67.2239C70.2183 67.2441 70.2132 67.2692 70.2081 67.2944C70.2032 67.3196 70.1983 67.3447 70.1932 67.3649C70.1792 67.4554 70.1558 67.5411 70.1326 67.6254C70.1224 67.6628 70.1121 67.7 70.1028 67.7372C69.4908 70.0016 68.377 71.1892 68.377 71.1892C68.377 71.1892 68.2767 77.1069 68.3567 77.5599C68.427 78.0128 67.4737 78.204 67.4737 78.204C67.4737 78.204 62.0652 78.204 61.6136 78.1234C61.1622 78.0429 61.0115 77.6705 61.0115 77.6705V71.1892H39.3672V77.6705C39.3672 77.6705 39.2168 78.0429 38.7652 78.1234C38.3138 78.204 32.9051 78.204 32.9051 78.204C32.9051 78.204 31.9417 78.0128 32.022 77.5599C32.0923 77.1069 32.002 71.1892 32.002 71.1892C32.002 71.1892 30.2359 69.3073 29.9248 65.7948C29.3328 59.0116 30.0152 56.6163 30.0152 56.6163C30.0152 56.6163 26.9346 56.7471 26.4329 56.566C26.0215 56.415 25.7706 55.5998 25.7706 55.2275C25.7706 55.1337 25.7654 54.9489 25.7591 54.7186C25.7403 54.0343 25.7105 52.9498 25.7706 52.6711C25.8509 52.2988 27.1253 51.6144 27.1253 51.6144H31.4803C31.4803 51.6144 33.9688 45.2136 35.1629 43.8549C35.805 43.1202 38.0127 42.1138 39.5179 41.8119C41.023 41.51 50.1944 41.2785 50.1944 41.2785C50.1944 41.2785 59.366 41.51 60.8711 41.8119C62.3663 42.1239 64.5437 43.1706 65.2261 43.8549C66.5806 45.2136 68.9087 51.6144 68.9087 51.6144H73.2637ZM33.9888 52.7717C33.9888 52.7717 33.5774 54.8953 33.6578 55.1066H66.5606C66.6409 54.8953 66.1792 52.7717 66.1792 52.7717C66.1792 52.7717 64.1224 47.1358 63.0184 46.0992C62.4063 45.5255 60.5601 44.6097 59.2657 44.348C57.9612 44.0964 50.084 43.8951 50.084 43.8951C50.084 43.8951 42.1971 44.0864 40.9026 44.348C39.5979 44.6097 37.7918 45.5557 37.1497 46.0992C36.3067 46.8037 33.9888 52.7717 33.9888 52.7717Z" fill="#DA6F25"/>
</svg>
