<svg width="100" height="100" viewBox="0 0 100 100" fill="none" xmlns="http://www.w3.org/2000/svg">
<path fill-rule="evenodd" clip-rule="evenodd" d="M19.0703 10.01H24.1477V17.065H19.0703V10.01ZM24.147 76.2021H19.0696V61.3574H24.147V76.2021ZM19.0696 56.4864H24.147V41.6417H19.0696V56.4864ZM24.147 36.7808H19.0696V21.9361H24.147V36.7808ZM24.147 81.0731H19.0696V88.1281H24.147V81.0731Z" fill="#DA6F25"/>
<path fill-rule="evenodd" clip-rule="evenodd" d="M79.1665 10.0201V22.9325C77.8921 21.4531 76.1963 20.1649 74.0891 19.0779V10.0201H79.1665ZM78.4609 42.7554C78.6506 42.1954 78.8538 41.5956 79.1365 40.7662L79.1765 40.6756V89.1044H74.0991V55.3894C74.3679 54.6113 74.637 53.7825 74.9033 52.962C75.1536 52.1907 75.4014 51.4268 75.6445 50.7197C77.0593 50.9511 78.3838 48.5659 77.1396 46.6235C77.8091 44.6807 78.1123 43.7853 78.4609 42.7554Z" fill="#DA6F25"/>
<path fill-rule="evenodd" clip-rule="evenodd" d="M70.3867 19.2087L68.8416 18.6552C62.3391 16.3203 55.5359 16.4511 52.696 23.4659L52.6577 23.5646L52.5957 23.7284C52.5464 23.8594 52.4941 23.998 52.4351 24.1401C52.4197 24.1941 52.3987 24.2421 52.376 24.2932L52.355 24.3414C52.2647 24.5629 52.1743 24.7943 52.084 25.0459L52.0632 25.0975C52.0491 25.1315 52.0337 25.167 52.0137 25.207C51.9446 25.3915 51.8699 25.5819 51.7891 25.7872L51.7126 25.9819C51.7126 25.9919 51.7026 26.002 51.7026 26.0121L51.7126 25.9919C51.6926 26.0322 51.6726 26.1026 51.6626 26.1429C51.6123 26.2939 51.542 26.465 51.4819 26.616C51.4016 26.8172 51.3313 27.0084 51.2512 27.2298C51.1709 27.4211 51.1106 27.6123 51.0303 27.8136C51.0151 27.8594 50.9973 27.9053 50.9795 27.9511L50.9443 28.0443L50.9299 28.0853C50.0369 30.4806 48.9331 33.4797 47.729 36.7707C47.0869 36.7204 46.4546 36.9317 46.0132 37.1229C45.1902 37.4651 44.6584 38.703 45.3408 39.2565C45.6919 39.3874 46.2639 39.337 46.8459 39.2062C42.5613 51.0115 37.4136 65.3831 35.9988 69.3685L35.8945 69.6663L35.8335 69.8396L35.7715 70.0134C35.7217 70.152 35.6831 70.2575 35.657 70.3283L35.6174 70.4354C36.1091 71.3914 34.8247 75.6788 34.624 76.2424C33.5703 79.2214 39.4807 82.5022 45.3308 84.5956L46.1035 84.8674L46.8862 85.1391C52.7361 87.2325 59.3789 88.4603 60.4526 85.4812C60.6533 84.9277 62.3794 80.7914 63.3628 80.3687C63.3628 80.3687 63.3728 80.3284 63.4028 80.258C63.4531 80.107 63.5635 79.785 63.7439 79.3019L64.5647 76.9909C66.6375 71.1564 71.0142 58.8364 74.5913 48.5659C74.9023 48.9282 75.2334 49.2201 75.5144 49.3107C76.3674 49.2804 76.7588 47.9922 76.3272 47.1972C76.1365 46.8449 75.8455 46.3719 75.4441 46.0196C76.5178 42.93 77.4912 40.1221 78.2539 37.8475C78.2839 37.7569 78.304 37.6664 78.3442 37.5859C78.4346 37.3141 78.5247 37.0525 78.605 36.8009C78.6409 36.6984 78.6741 36.5984 78.7073 36.4985C78.7393 36.4021 78.7712 36.3058 78.8057 36.2071C78.8272 36.1377 78.8508 36.0683 78.8748 35.9996L78.9041 35.9151C78.9255 35.8536 78.9465 35.7931 78.9663 35.7341L78.9763 35.7139C78.9963 35.6435 79.0164 35.5831 79.0466 35.5127L79.0798 35.4096L79.1091 35.3213L79.1555 35.1821C79.1751 35.1216 79.1929 35.063 79.207 35.0094C79.2261 34.9546 79.2439 34.901 79.2612 34.8482L79.2971 34.738L79.2986 34.7336L79.3008 34.7261C79.3418 34.5999 79.3816 34.4776 79.428 34.3553C79.4429 34.3104 79.4592 34.264 79.4753 34.2179L79.4924 34.1686C79.5137 34.1075 79.5335 34.0478 79.5483 33.993L79.6143 33.7889C79.6523 33.6715 79.6882 33.5602 79.7217 33.4543C79.7534 33.3541 79.7827 33.2588 79.8091 33.1677C82.0669 25.9719 76.8992 21.5436 70.3867 19.2087ZM55.054 20.9599C55.415 19.9334 56.2178 19.239 57.2815 18.7961C58.8169 18.1722 60.8938 18.0614 63.0313 18.2527L63.4626 18.9371C61.3154 18.6955 59.2183 18.7861 57.6929 19.5007C57.1311 19.7623 56.6494 20.1045 56.2781 20.5473V20.5574C56.2278 20.6279 56.1677 20.6882 56.1274 20.7587C55.9067 21.0102 55.4653 21.4128 54.8933 21.433L54.938 21.3027L54.9534 21.2578L54.9592 21.2419L55.0029 21.1151L55.031 21.0317L55.054 20.9599ZM63.1816 36.8815C60.021 35.7442 53.4382 34.9491 51.1704 35.9253C51.7324 37.9281 51.4917 41.2493 50.739 45.0938C53.2878 44.349 58.2046 45.9693 59.73 46.5229C61.2651 47.0765 66.1519 48.9584 67.6169 51.1625C69.4634 47.7004 71.3799 44.973 73.0857 43.7854C71.9419 41.5814 66.3425 38.0187 63.1816 36.8815ZM50.398 35.5731C50.398 35.5731 50.7393 41.9236 47.6587 52.6822L47.5344 52.6183C46.7947 52.2384 45.7517 51.7029 45.2202 51.1222L50.398 35.5731ZM35.2461 75.8701C35.0957 76.2626 35.0857 76.6651 35.1758 77.0476C35.4468 78.2452 36.7915 79.3825 38.668 80.4593L38.3367 79.2818V79.2718C38.0557 79.0906 37.825 78.9095 37.6646 78.7585C37.0222 78.1245 36.7012 77.3395 36.5808 76.4538C36.4905 75.7192 36.5305 74.9241 36.6509 74.0988L35.7981 74.2196C35.6274 74.753 35.4468 75.3065 35.2461 75.8701ZM39.9021 67.1243L44.8088 52.3904C45.5515 53.0043 46.3643 53.5176 47.3076 53.9201L47.2407 54.1408L47.1948 54.2887C47.1074 54.5692 47.0168 54.8511 46.9263 55.1379C44.1567 63.898 41.5798 65.7701 40.4634 66.5812C40.291 66.7063 40.1536 66.8061 40.0554 66.9021C39.9807 66.9753 39.929 67.0462 39.9021 67.1243ZM44.7183 63.7427C43.2231 67.0337 41.688 69.751 40.3333 71.2506C40.2629 72.3879 42.3401 74.7731 48.8525 77.118C55.365 79.4629 58.4756 78.9396 59.1379 78.0037C59.0376 75.9707 59.5693 72.891 60.5024 69.3787C59.4087 69.8819 56.4688 69.1271 52.2141 67.6073C48.0298 66.0978 45.3003 64.8196 44.7183 63.7427ZM60.1914 84.797C60.051 85.2096 59.8101 85.5116 59.499 85.7531C58.5256 86.518 56.7695 86.5281 54.6423 86.1456L55.6458 85.4411V85.4311C55.9768 85.4612 56.2678 85.4713 56.4888 85.4612C57.3918 85.3807 58.1343 84.9781 58.7866 84.3743C59.3284 83.8711 59.8001 83.227 60.2214 82.5124L60.8035 83.1565C60.7009 83.4161 60.5984 83.6805 60.498 83.9473C60.3923 84.2286 60.2893 84.5128 60.1914 84.797ZM62.0063 74.3225C62.1008 74.68 62.1619 74.9103 62.0981 75.0851L67.6172 60.5927C66.6538 60.6229 65.7004 60.5021 64.717 60.1901C64.5667 60.5726 64.406 60.955 64.2456 61.3575C60.8367 69.9009 61.6545 72.9922 62.0063 74.3225ZM68.0886 59.3347C67.4063 59.454 66.4541 59.2651 65.7283 59.1211C65.5361 59.0829 65.3599 59.048 65.2087 59.0227C69.644 48.717 73.9287 44.017 73.9287 44.017L68.0886 59.3347ZM79.4075 30.209C79.4578 30.068 79.5178 29.907 79.5681 29.746C79.9292 28.7195 79.7488 27.6728 79.2068 26.6664C78.4241 25.2172 76.8689 23.7981 75.1028 22.6005L74.3301 22.852C76.1362 24.0195 77.7117 25.4184 78.4441 26.9381C78.7251 27.5017 78.8757 28.0653 78.8857 28.649V28.6591C78.8857 28.7497 78.8757 28.8201 78.8757 28.9107C78.8958 29.2428 78.9761 29.8265 79.4075 30.209Z" fill="#DA6F25"/>
</svg>
