<svg width="100" height="100" viewBox="0 0 100 100" fill="none" xmlns="http://www.w3.org/2000/svg">
<path fill-rule="evenodd" clip-rule="evenodd" d="M44.7412 81.9478L37.4663 81.9981L51.916 38.9033L53.4915 38.853L44.7412 81.9478ZM72.2556 81.9478L79.5308 81.9981L65.0911 38.9033L63.4956 38.853L72.2556 81.9478ZM57.9866 46.6628H59.4617L60.0435 59.6959H57.5149L57.9866 46.6628ZM59.1409 38.853H58.2378L58.0071 45.274H59.4319L59.1409 38.853ZM60.9368 81.998H56.7925L57.4749 61.9905H60.0837L60.9368 81.998Z" fill="#DA6F25"/>
<path d="M29.7199 40.292C29.7199 29.6542 38.3295 21.0191 48.9359 21.0191C49.4878 21.0191 50.0197 21.0392 50.5615 21.0896C47.5712 19.1673 44.019 18.0602 40.216 18.0602C29.6096 18.0602 21 26.6953 21 37.3331C21 47.4275 28.7366 55.7103 38.5904 56.5356C33.2621 53.1138 29.7199 47.1155 29.7199 40.292Z" fill="#DA6F25"/>
</svg>
