<svg width="100" height="100" viewBox="0 0 100 100" fill="none" xmlns="http://www.w3.org/2000/svg">
<path d="M28.0741 48.6556L27.0505 47.4479C33.8338 41.6309 41.6005 38.5613 49.5177 38.5613C57.4349 38.5613 65.2116 41.6309 71.9848 47.4479L70.9613 48.6556C64.469 43.0902 57.0536 40.1414 49.5177 40.1414C41.9718 40.1615 34.5463 43.1002 28.0741 48.6556Z" fill="#DA6F25"/>
<path fill-rule="evenodd" clip-rule="evenodd" d="M49.5078 48.5651C55.2576 48.5651 60.9373 50.8094 65.8943 55.0767L66.9177 53.8689C61.6697 49.3501 55.6589 46.975 49.5078 46.975C43.377 46.975 37.3462 49.3702 32.0981 53.8689L33.1216 55.0767C38.0886 50.8195 43.738 48.5651 49.5078 48.5651ZM49.5081 58.6091C53.9033 58.6091 58.218 60.3201 62.011 63.5708L63.0347 62.3632C58.9607 58.8708 54.2844 57.019 49.5081 57.019C44.7317 57.019 40.0557 58.8608 35.9817 62.3632L37.0051 63.5708C40.7881 60.3201 45.113 58.6091 49.5081 58.6091Z" fill="#DA6F25"/>
<path fill-rule="evenodd" clip-rule="evenodd" d="M34.8972 32.2107L48.9556 7.03015L64.1277 32.2107H34.8972ZM61.8699 30.9326L49.0256 9.60657L37.0947 30.9326H61.8699Z" fill="#DA6F25"/>
<path fill-rule="evenodd" clip-rule="evenodd" d="M50.3203 15.2024H47.8518V25.2363H50.3203V15.2024ZM49.6909 26.8688C49.8879 26.9468 50.0706 27.0645 50.24 27.219C50.5713 27.5209 50.7417 27.8832 50.7317 28.326C50.7317 28.7688 50.5513 29.1512 50.24 29.4633C49.8989 29.7753 49.5276 29.9363 49.0662 29.9363C48.8838 29.9363 48.7083 29.902 48.5396 29.8446C48.5039 29.8325 48.4688 29.8195 48.4338 29.8054C48.2432 29.7249 48.0728 29.6143 47.9121 29.4733C47.7515 29.3425 47.6411 29.1714 47.5508 28.9802C47.4707 28.799 47.4204 28.5876 47.4204 28.3662C47.4204 27.9235 47.6011 27.541 47.9121 27.229C48.2532 26.917 48.6245 26.756 49.0862 26.756C49.3018 26.756 49.5029 26.7943 49.6909 26.8688Z" fill="#DA6F25"/>
<path fill-rule="evenodd" clip-rule="evenodd" d="M62.9938 84.4438C63.4553 84.6249 63.8366 84.9369 64.1176 85.1885C64.7197 85.732 64.8 86.9698 64.0373 87.2114C63.7463 87.2114 63.3852 87.0604 63.0038 86.8491L63.0339 92.5253H60.8664L61.0671 83.1656C61.0671 83.1656 59.7326 86.366 58.8295 92.5253H40.4765C39.634 86.8422 38.4326 83.6782 38.2597 83.2229L38.2546 83.2097L38.2502 83.1979C38.2421 83.1764 38.238 83.1656 38.2387 83.1656L38.4394 92.5253H36.2519L36.2822 87.3523C35.8105 87.6542 35.3388 87.8656 34.9977 87.8656C34.235 87.5939 34.3154 86.356 34.9174 85.8125C35.2385 85.5206 35.7302 85.1281 36.2922 84.9772L36.3117 82.8185C36.3325 80.4625 36.3515 78.3117 36.3825 76.5132V76.2515C36.3925 76.0704 36.3925 75.8792 36.3925 75.6879C36.3925 75.5935 36.3947 75.499 36.3972 75.4056L36.3976 75.3834V75.3799V75.3765C36.4001 75.2809 36.4025 75.1863 36.4025 75.0942C36.4125 74.9331 36.4125 74.7822 36.4125 74.6312V74.4702C36.4125 74.3548 36.4147 74.2414 36.4167 74.1299L36.4172 74.103L36.4177 74.0777L36.4179 74.0702L36.4186 74.0315C36.4206 73.9243 36.4225 73.8189 36.4225 73.7153V73.5644C36.4225 73.3229 36.4225 73.0914 36.4326 72.88V72.6888C36.4448 72.5388 36.4494 72.3964 36.4538 72.2643L36.454 72.2589L36.4543 72.2533L36.4548 72.2358C36.457 72.1656 36.4592 72.0984 36.4626 72.0347C36.7536 65.1205 42.5737 62.9165 48.8854 62.9165H50.3906C56.7121 62.9165 62.5222 65.1205 62.8132 72.0347C62.8268 72.201 62.8312 72.3769 62.8359 72.5656C62.8378 72.6509 62.84 72.7388 62.8432 72.8297C62.8532 72.9404 62.8532 73.0712 62.8532 73.1819C62.8532 73.2656 62.8552 73.3494 62.8569 73.4352L62.8571 73.442L62.8578 73.4767C62.8605 73.5845 62.8632 73.6962 62.8632 73.816C62.8632 73.8809 62.8652 73.9514 62.8671 74.0234L62.8679 74.0506L62.8681 74.0547C62.8708 74.1404 62.8735 74.2274 62.8735 74.3091V74.5004V74.5104C62.8835 74.6513 62.8835 74.8023 62.8835 74.9633C62.8835 75.0441 62.8857 75.1315 62.8881 75.2216L62.8884 75.2296L62.8889 75.2478L62.8893 75.2684C62.8913 75.3542 62.8935 75.4415 62.8935 75.5269C62.8935 75.649 62.8959 75.7689 62.8984 75.8898V75.8932V75.8969C62.9011 76.0226 62.9035 76.1496 62.9035 76.2817V76.5333C62.934 78.2168 62.9528 80.1853 62.9733 82.3459L62.9738 82.3914L62.9938 84.4438ZM37.737 69.579C38.2287 69.3878 38.4794 68.9148 38.59 68.6229C38.6081 68.5869 38.6223 68.5434 38.6374 68.4972L38.6393 68.4914C38.6489 68.4622 38.6589 68.4318 38.6701 68.4015C38.8708 67.8983 39.1718 67.4555 39.5734 67.063C40.6672 65.9861 42.4533 65.2615 44.3598 64.8086L43.7778 64.3557C41.8813 64.8489 40.1352 65.5735 39.0014 66.6C38.2287 67.3045 37.747 68.1499 37.747 69.1462C37.747 69.2972 37.747 69.4482 37.737 69.579ZM57.8361 91.2773C55.8893 89.8281 51.123 89.7073 49.6379 89.7073C48.1528 89.7073 43.4164 89.8281 41.4599 91.2572C40.9279 87.7147 40.1152 84.7859 39.0114 83.2361C40.6572 81.6962 46.5673 80.3477 49.6479 80.3477C52.7285 80.3477 58.6288 81.6862 60.2844 83.2361C59.1806 84.7859 58.3679 87.7247 57.8361 91.2773ZM60.676 68.6631C60.7863 68.9349 61.0373 69.418 61.529 69.6192V69.1663C61.529 68.17 61.0573 67.3246 60.2746 66.6201C59.1608 65.6036 57.3947 64.869 55.4982 64.3758L54.9162 64.8287C56.8227 65.2715 58.6088 66.0062 59.6926 67.1132C60.0939 67.5158 60.405 67.9586 60.5956 68.4518C60.6161 68.4927 60.632 68.5383 60.6494 68.5885C60.6577 68.6124 60.6662 68.6372 60.676 68.6631Z" fill="#DA6F25"/>
</svg>
