<svg width="100" height="100" viewBox="0 0 100 100" fill="none" xmlns="http://www.w3.org/2000/svg">
<path d="M28.0741 48.6556L27.0505 47.4479C33.8338 41.6308 41.6005 38.5612 49.5177 38.5612C57.4349 38.5612 65.2116 41.6308 71.9848 47.4479L70.9613 48.6556C64.469 43.0901 57.0536 40.1413 49.5177 40.1413C41.9718 40.1614 34.5463 43.1002 28.0741 48.6556Z" fill="#DA6F25"/>
<path fill-rule="evenodd" clip-rule="evenodd" d="M49.5078 48.5651C55.2576 48.5651 60.9373 50.8094 65.8943 55.0766L66.9177 53.8689C61.6697 49.35 55.6589 46.9749 49.5078 46.9749C43.377 46.9749 37.3462 49.3702 32.0981 53.8689L33.1216 55.0766C38.0886 50.8195 43.738 48.5651 49.5078 48.5651ZM49.5081 58.6091C53.9033 58.6091 58.218 60.3199 62.011 63.5707L63.0347 62.363C58.9607 58.8707 54.2844 57.0189 49.5081 57.0189C44.7317 57.0189 40.0557 58.8607 35.9817 62.363L37.0051 63.5707C40.7881 60.3199 45.113 58.6091 49.5081 58.6091Z" fill="#DA6F25"/>
<path fill-rule="evenodd" clip-rule="evenodd" d="M34.8972 32.2107L48.9556 7.03015L64.1277 32.2107H34.8972ZM61.8699 30.9326L49.0256 9.60657L37.0947 30.9326H61.8699Z" fill="#DA6F25"/>
<path fill-rule="evenodd" clip-rule="evenodd" d="M50.3206 15.2024H47.8521V25.2364H50.3206V15.2024ZM49.0864 26.756C49.5278 26.756 49.9092 26.917 50.2402 27.2189C50.5715 27.5209 50.7419 27.8832 50.7319 28.326C50.7319 28.7688 50.5515 29.1512 50.2402 29.4633C49.8992 29.7752 49.5278 29.9363 49.0664 29.9363C48.8455 29.9363 48.6348 29.8859 48.4341 29.8054C48.2434 29.7249 48.073 29.6142 47.9124 29.4733C47.7517 29.3425 47.6414 29.1714 47.551 28.9802C47.4709 28.799 47.4207 28.5876 47.4207 28.3663C47.4207 27.9234 47.6013 27.541 47.9124 27.229C48.2534 26.917 48.6248 26.756 49.0864 26.756Z" fill="#DA6F25"/>
<path fill-rule="evenodd" clip-rule="evenodd" d="M62.9938 84.4438C63.4553 84.625 63.8366 84.937 64.1176 85.1886C64.7197 85.7321 64.8 86.9699 64.0373 87.2115C63.7463 87.2115 63.3852 87.0605 63.0038 86.8492L63.0339 92.5254H60.8664L61.0671 83.1657C61.0671 83.1657 59.7326 86.3661 58.8295 92.5254H40.4765C39.634 86.8423 38.4326 83.6782 38.2597 83.223L38.2546 83.2097L38.2502 83.1979C38.2421 83.1765 38.238 83.1657 38.2387 83.1657L38.4394 92.5254H36.2519L36.2822 87.3524C35.8105 87.6543 35.3388 87.8657 34.9977 87.8657C34.235 87.5939 34.3154 86.356 34.9174 85.8126C35.2385 85.5207 35.7302 85.1282 36.2922 84.9772L36.3117 82.8185C36.3325 80.4626 36.3515 78.3118 36.3825 76.5132V76.2516C36.3925 76.0704 36.3925 75.8792 36.3925 75.688C36.3925 75.5936 36.3947 75.4991 36.3972 75.4057L36.3976 75.3835V75.3799V75.3766C36.4001 75.2809 36.4025 75.1863 36.4025 75.0942C36.4125 74.9332 36.4125 74.7822 36.4125 74.6313V74.4702C36.4125 74.3549 36.4147 74.2415 36.4167 74.13L36.4172 74.1031L36.4177 74.0778L36.4179 74.0703L36.4186 74.0316C36.4206 73.9243 36.4225 73.819 36.4225 73.7154V73.5645C36.4225 73.3229 36.4225 73.0914 36.4326 72.8801V72.6889C36.4448 72.5388 36.4494 72.3965 36.4538 72.2644L36.454 72.259L36.4543 72.2534L36.4548 72.2358C36.457 72.1656 36.4592 72.0985 36.4626 72.0347C36.7536 65.1206 42.5737 62.9166 48.8854 62.9166H50.3906C56.7121 62.9166 62.5222 65.1206 62.8132 72.0347C62.8268 72.201 62.8312 72.377 62.8359 72.5657C62.8378 72.6509 62.84 72.7389 62.8432 72.8298C62.8532 72.9405 62.8532 73.0713 62.8532 73.182C62.8532 73.2657 62.8552 73.3494 62.8569 73.4353L62.8571 73.4421L62.8578 73.4768C62.8605 73.5846 62.8632 73.6963 62.8632 73.816C62.8632 73.8809 62.8652 73.9514 62.8671 74.0234L62.8679 74.0507L62.8681 74.0548C62.8708 74.1404 62.8735 74.2274 62.8735 74.3092V74.5004V74.5105C62.8835 74.6514 62.8835 74.8024 62.8835 74.9634C62.8835 75.0441 62.8857 75.1316 62.8881 75.2216L62.8884 75.2297L62.8889 75.2479L62.8893 75.2685C62.8913 75.3542 62.8935 75.4416 62.8935 75.527C62.8935 75.6491 62.8959 75.7689 62.8984 75.8899V75.8932V75.897C62.9011 76.0227 62.9035 76.1497 62.9035 76.2818V76.5334C62.934 78.2169 62.9528 80.1854 62.9733 82.346L62.9738 82.3915L62.9938 84.4438ZM37.737 69.5791C38.2287 69.3879 38.4794 68.9149 38.59 68.623C38.6081 68.5869 38.6223 68.5435 38.6374 68.4973L38.6393 68.4915C38.6489 68.4622 38.6589 68.4319 38.6701 68.4016C38.8708 67.8984 39.1718 67.4556 39.5734 67.063C40.6672 65.9861 42.4533 65.2615 44.3598 64.8087L43.7778 64.3558C41.8813 64.8489 40.1352 65.5735 39.0014 66.6001C38.2287 67.3046 37.747 68.15 37.747 69.1463C37.747 69.2973 37.747 69.4482 37.737 69.5791ZM57.8361 91.2774C55.8893 89.8282 51.123 89.7074 49.6379 89.7074C48.1528 89.7074 43.4164 89.8282 41.4599 91.2573C40.9279 87.7147 40.1152 84.786 39.0114 83.2361C40.6572 81.6963 46.5673 80.3477 49.6479 80.3477C52.7285 80.3477 58.6288 81.6863 60.2844 83.2361C59.1806 84.786 58.3679 87.7247 57.8361 91.2774ZM60.676 68.6632C60.7863 68.9349 61.0373 69.418 61.529 69.6193V69.1664C61.529 68.17 61.0573 67.3246 60.2746 66.6202C59.1608 65.6037 57.3947 64.869 55.4982 64.3759L54.9162 64.8287C56.8227 65.2715 58.6088 66.0062 59.6926 67.1133C60.0939 67.5159 60.405 67.9587 60.5956 68.4518C60.6161 68.4928 60.632 68.5383 60.6494 68.5886C60.6577 68.6124 60.6662 68.6373 60.676 68.6632Z" fill="#DA6F25"/>
</svg>
