<svg width="100" height="100" viewBox="0 0 100 100" fill="none" xmlns="http://www.w3.org/2000/svg">
<path fill-rule="evenodd" clip-rule="evenodd" d="M50 72.8793C62.6359 72.8793 72.8793 62.6359 72.8793 50C72.8793 37.3641 62.6359 27.1208 50 27.1208C37.3641 27.1208 27.1208 37.3641 27.1208 50C27.1208 62.6359 37.3641 72.8793 50 72.8793ZM50 76.4793C64.6241 76.4793 76.4793 64.6241 76.4793 50C76.4793 35.3759 64.6241 23.5208 50 23.5208C35.3759 23.5208 23.5208 35.3759 23.5208 50C23.5208 64.6241 35.3759 76.4793 50 76.4793Z" fill="#DA6F25"/>
<path fill-rule="evenodd" clip-rule="evenodd" d="M24.1746 33.5309L21.0569 31.7309C20.4109 31.3581 19.5854 31.5793 19.2127 32.225C18.8399 32.8707 19.0611 33.6964 19.7069 34.0691L22.8246 35.8691C23.4702 36.2419 24.2959 36.0207 24.6686 35.375C25.0414 34.7293 24.8202 33.9036 24.1746 33.5309ZM75.3311 64.625C74.9583 65.2707 75.1795 66.0964 75.8253 66.4691L78.943 68.2691C79.5885 68.6419 80.4143 68.4207 80.7869 67.775C81.1598 67.1293 80.9385 66.3036 80.293 65.9309L77.1753 64.1309C76.5293 63.7581 75.7038 63.9793 75.3311 64.625ZM66.4689 24.1746C66.0962 24.8203 65.2705 25.0415 64.6249 24.6688C63.9792 24.296 63.7579 23.4703 64.1308 22.8246L65.9308 19.7069C66.3034 19.0613 67.129 18.84 67.7749 19.2128C68.4205 19.5856 68.6418 20.4112 68.2689 21.057L66.4689 24.1746ZM34.0689 80.2931C33.6962 80.9388 32.8705 81.16 32.225 80.7872C31.5792 80.4144 31.3579 79.5888 31.7308 78.9431L33.5308 75.8254C33.9034 75.1797 34.729 74.9584 35.375 75.3312C36.0205 75.704 36.2418 76.5296 35.8689 77.1754L34.0689 80.2931ZM65.9308 80.2931C66.3034 80.9388 67.1292 81.16 67.7747 80.7872C68.4205 80.4145 68.6418 79.5888 68.2689 78.9431L66.4689 75.8254C66.0962 75.1797 65.2707 74.9584 64.6247 75.3313C63.9792 75.704 63.7579 76.5297 64.1308 77.1754L65.9308 80.2931ZM35.8689 22.8246C36.2418 23.4704 36.0205 24.296 35.3747 24.6688C34.7292 25.0415 33.9034 24.8203 33.5308 24.1746L31.7308 21.0569C31.3579 20.4112 31.5792 19.5856 32.2247 19.2128C32.8707 18.84 33.6962 19.0613 34.0689 19.7069L35.8689 22.8246ZM75.3311 35.375C74.9583 34.7293 75.1795 33.9037 75.8253 33.5309L78.943 31.7309C79.5885 31.3581 80.4143 31.5793 80.7869 32.225C81.1598 32.8708 80.9385 33.6964 80.293 34.0691L77.1753 35.8691C76.5293 36.242 75.7038 36.0207 75.3311 35.375ZM19.2127 67.775C18.8399 67.1293 19.0611 66.3037 19.7069 65.9309L22.8246 64.1309C23.4702 63.7581 24.2959 63.9793 24.6686 64.625C25.0414 65.2708 24.8202 66.0964 24.1746 66.4691L21.0569 68.2691C20.4109 68.642 19.5854 68.4207 19.2127 67.775ZM21.6491 38.4062C22.3509 38.6578 22.7161 39.4307 22.4647 40.1325C22.2131 40.8344 21.4401 41.1995 20.7383 40.948L17.3495 39.7335C16.6477 39.482 16.2825 38.7091 16.5338 38.0073C16.7854 37.3054 17.5584 36.9403 18.2602 37.1918L21.6491 38.4062ZM61.9928 16.534C62.6949 16.7856 63.0598 17.5584 62.8083 18.2602L61.5938 21.6493C61.3425 22.3511 60.5695 22.7162 59.8677 22.4647C59.1656 22.2131 58.8004 21.4403 59.052 20.7384L60.2665 17.3494C60.518 16.6475 61.291 16.2825 61.9928 16.534ZM40.1325 77.5354C40.8345 77.7869 41.1995 78.5598 40.9479 79.2616L39.7334 82.6506C39.4821 83.3525 38.7091 83.7176 38.0073 83.466C37.3052 83.2145 36.9401 82.4416 37.1916 81.7398L38.4061 78.3509C38.6577 77.6489 39.4307 77.2838 40.1325 77.5354ZM70.8153 72.4702L73.1429 75.2163C73.6249 75.7851 73.5546 76.637 72.986 77.1191C72.4173 77.6011 71.5655 77.5309 71.0832 76.9621L68.7556 74.2159C68.2735 73.6471 68.3438 72.7953 68.9125 72.3132C69.4811 71.8311 70.333 71.9014 70.8153 72.4702ZM27.0139 22.8809C27.5826 22.3989 28.4344 22.4691 28.9167 23.0379L31.2443 25.7841C31.7264 26.3529 31.6561 27.2048 31.0874 27.6869C30.5188 28.1689 29.6669 28.0987 29.1846 27.5298L26.857 24.7836C26.375 24.2149 26.4453 23.363 27.0139 22.8809ZM74.2158 31.2444C73.6471 31.7264 72.7953 31.6562 72.313 31.0874C71.8311 30.5186 71.9012 29.6667 72.4698 29.1847L75.2162 26.857C75.7849 26.375 76.6367 26.4452 77.119 27.014C77.6011 27.5827 77.5308 28.4346 76.9622 28.9167L74.2158 31.2444ZM27.5298 70.8153L24.7835 73.143C24.2148 73.625 23.3629 73.5548 22.8806 72.986C22.3988 72.4172 22.4689 71.5653 23.0375 71.0833L25.7839 68.7556C26.3525 68.2736 27.2044 68.3438 27.6867 68.9126C28.1688 69.4813 28.0985 70.3332 27.5298 70.8153ZM57.434 83.4095C57.5671 84.1431 57.0804 84.8457 56.3465 84.9788C55.6131 85.1119 54.9104 84.6251 54.7772 83.8915L54.1345 80.3494C54.0016 79.6157 54.4883 78.9131 55.222 78.78C55.9556 78.6469 56.6583 79.1338 56.7913 79.8673L57.434 83.4095ZM45.8649 19.6506C45.9981 20.3842 45.5114 21.0868 44.7775 21.2199C44.044 21.353 43.3414 20.8662 43.2082 20.1326L42.5655 16.5905C42.4326 15.8568 42.9193 15.1542 43.6529 15.0211C44.3866 14.888 45.0893 15.375 45.2222 16.1084L45.8649 19.6506ZM83.4096 42.5658C84.143 42.4326 84.8457 42.9194 84.9787 43.6529C85.1118 44.3865 84.6249 45.0893 83.8915 45.2224L80.3492 45.8651C79.6156 45.9982 78.9131 45.5114 78.78 44.7778C78.6468 44.0442 79.1335 43.3416 79.8674 43.2085L83.4096 42.5658ZM19.6507 54.1349C20.3841 54.0018 21.0868 54.4886 21.2197 55.2221C21.3529 55.9557 20.866 56.6584 20.1325 56.7915L16.5903 57.4342C15.8566 57.5673 15.1542 57.0805 15.021 56.3469C14.8879 55.6133 15.3746 54.9107 16.1084 54.7776L19.6507 54.1349ZM77.3122 72.7564C77.7894 72.1836 77.7119 71.3323 77.139 70.8551L74.3733 68.5506C73.8005 68.0733 72.9491 68.1508 72.4718 68.7236C71.9946 69.2964 72.0721 70.1477 72.645 70.625L75.4107 72.9294C75.9835 73.4067 76.8349 73.3292 77.3122 72.7564ZM27.3549 29.3751C27.9278 29.8523 28.0053 30.7036 27.5281 31.2764C27.0508 31.8492 26.1994 31.9267 25.6266 31.4494L22.8609 29.145C22.288 28.6677 22.2105 27.8164 22.6877 27.2436C23.165 26.6708 24.0164 26.5934 24.5892 27.0707L27.3549 29.3751ZM70.8549 22.8609C71.3321 22.2881 72.1835 22.2107 72.7562 22.6879C73.329 23.1652 73.4065 24.0164 72.9293 24.5892L70.6248 27.355C70.1476 27.9278 69.2963 28.0053 68.7235 27.528C68.1507 27.0508 68.0731 26.1995 68.5504 25.6267L70.8549 22.8609ZM29.3749 72.645C29.8521 72.0721 30.7036 71.9947 31.2762 72.4719C31.849 72.9492 31.9266 73.8005 31.4493 74.3733L29.1448 77.1391C28.6676 77.7119 27.8164 77.7894 27.2435 77.3121C26.6707 76.8348 26.5931 75.9836 27.0704 75.4108L29.3749 72.645ZM61.8327 78.2519C61.5751 77.5521 60.7995 77.1936 60.0997 77.4511C59.4001 77.7085 59.0415 78.4845 59.2988 79.1842L60.5418 82.5627C60.7993 83.2625 61.5754 83.621 62.275 83.3636C62.9746 83.1062 63.3332 82.3301 63.0757 81.6305L61.8327 78.2519ZM39.9007 22.5489C39.201 22.8063 38.425 22.4478 38.1675 21.748L36.9245 18.3694C36.6672 17.6697 37.0258 16.8938 37.7254 16.6363C38.4252 16.3789 39.2008 16.7374 39.4583 17.4372L40.7013 20.8158C40.9589 21.5155 40.6003 22.2914 39.9007 22.5489ZM20.8156 59.2986C21.5155 59.0412 22.2911 59.3997 22.5486 60.0995C22.8062 60.7991 22.4476 61.5752 21.7479 61.8326L18.3692 63.0756C17.6694 63.333 16.8937 62.9745 16.6362 62.2748C16.3787 61.575 16.7373 60.7991 17.4369 60.5416L20.8156 59.2986ZM81.6305 36.9243C82.3303 36.6669 83.1059 37.0254 83.3635 37.7252C83.621 38.4248 83.2624 39.2009 82.5628 39.4583L79.184 40.7013C78.4842 40.9588 77.7086 40.6002 77.451 39.9005C77.1935 39.2007 77.5521 38.4248 78.2517 38.1674L81.6305 36.9243ZM43.4604 79.9236C43.5875 79.1888 44.286 78.6961 45.0205 78.823C45.7555 78.9499 46.2481 79.6484 46.1211 80.3831L45.5083 83.9306C45.3813 84.6653 44.683 85.158 43.9482 85.0311C43.2135 84.9042 42.7208 84.2057 42.8476 83.471L43.4604 79.9236ZM57.1518 16.5289L56.539 20.0764C56.412 20.811 55.7137 21.3038 54.979 21.1768C54.2442 21.0499 53.7516 20.3514 53.8783 19.6167L54.4912 16.0693C54.6184 15.3345 55.3167 14.8419 56.0512 14.9688C56.7862 15.0957 57.2788 15.7943 57.1518 16.5289ZM83.9306 54.4914C84.6653 54.6183 85.158 55.3167 85.031 56.0514C84.904 56.7861 84.2057 57.2789 83.4711 57.1519L79.9236 56.5391C79.1886 56.4122 78.6962 55.7138 78.823 54.979C78.95 54.2443 79.6483 53.7516 80.3831 53.8785L83.9306 54.4914ZM20.0763 43.4607C20.811 43.5876 21.3037 44.286 21.1767 45.0207C21.0497 45.7554 20.3514 46.2482 19.6168 46.1213L16.0693 45.5084C15.3344 45.3815 14.8419 44.6831 14.9687 43.9483C15.0957 43.2136 15.794 42.7209 16.5288 42.8479L20.0763 43.4607ZM50 14.45C50.7455 14.45 51.35 15.0544 51.35 15.8V19.4C51.35 20.1456 50.7455 20.75 50 20.75C49.2544 20.75 48.65 20.1456 48.65 19.4V15.8C48.65 15.0544 49.2544 14.45 50 14.45ZM84.1999 48.65C84.9455 48.65 85.5499 49.2544 85.5499 50C85.5499 50.7456 84.9455 51.35 84.1999 51.35H80.5999C79.8544 51.35 79.2499 50.7456 79.2499 50C79.2499 49.2544 79.8544 48.65 80.5999 48.65H84.1999ZM20.75 50C20.75 50.7456 20.1455 51.35 19.4 51.35H15.8C15.0544 51.35 14.45 50.7456 14.45 50C14.45 49.2544 15.0544 48.65 15.8 48.65H19.4C20.1455 48.65 20.75 49.2544 20.75 50ZM50 79.25C50.7455 79.25 51.35 79.8544 51.35 80.6V84.2C51.35 84.9456 50.7455 85.55 50 85.55C49.2544 85.55 48.65 84.9456 48.65 84.2V80.6C48.65 79.8544 49.2544 79.25 50 79.25ZM83.4661 61.9929C83.2143 62.6948 82.4415 63.0598 81.7397 62.8083L78.3508 61.5938C77.6488 61.3422 77.2838 60.5693 77.5352 59.8675C77.787 59.1656 78.5598 58.8006 79.2616 59.0521L82.6504 60.2665C83.3525 60.5181 83.7174 61.291 83.4661 61.9929Z" fill="#DA6F25"/>
<path fill-rule="evenodd" clip-rule="evenodd" d="M49.9999 30.2338C47.3674 30.2338 40.9616 30.5848 38.1535 35.4988C37.1589 37.4882 37.3662 41.0412 37.5266 43.7945C37.5786 44.6844 37.6257 45.4909 37.6257 46.134C37.6257 47.0472 37.7841 47.5469 37.9582 48.0956C38.2858 49.1287 38.6684 50.3357 38.1535 54.8038C38.6437 57.1615 39.4699 58.3138 41.2248 59.1913L39.9086 60.9462C38.9692 61.5098 37.5473 61.993 36.1594 62.4646C34.3059 63.0944 32.5129 63.7036 32.0112 64.4562C30.8413 66.2112 30.6948 69.2825 41.6635 73.67L42.0236 73.8155C43.6723 74.4841 47.0744 75.8638 49.9999 75.8638V73.2313L49.9997 72.7925H46.051C43.945 71.7395 41.956 67.0887 41.2248 64.895C41.2248 63.14 42.6872 61.8237 43.4186 61.385C43.4186 61.9218 44.7863 63.3475 45.9533 64.4467C46.5722 65.0296 47.3972 65.3337 48.2473 65.3337H49.9997V61.8238H47.3671C47.3671 61.8238 44.2067 57.7617 41.9919 55.9621C40.5429 54.7849 40.7814 53.584 41.0422 52.2702C41.1801 51.5756 41.3242 50.8494 41.2287 50.0784C41.1157 49.1662 40.9692 48.1586 40.8181 47.1197C40.2761 43.3911 39.6755 39.2599 40.3471 37.6925C41.6633 34.6213 47.6596 32.72 49.9997 32.8663L49.9999 30.2338ZM33.7661 66.2112L38.5922 64.4562C39.3237 66.5037 40.8737 70.6865 41.2248 71.0375C38.8847 70.0137 34.1171 67.6152 33.7661 66.2112Z" fill="#DA6F25"/>
<path fill-rule="evenodd" clip-rule="evenodd" d="M49.9996 30.2338C52.6321 30.2338 59.0379 30.5848 61.846 35.4988C62.8406 37.4882 62.6334 41.0412 62.473 43.7945C62.421 44.6844 62.3738 45.4909 62.3738 46.134C62.3738 47.0472 62.2154 47.5469 62.0413 48.0956C61.7137 49.1287 61.3311 50.3357 61.846 54.8038C61.3558 57.1615 60.5296 58.3138 58.7747 59.1913L60.0909 60.9462C61.0303 61.5098 62.4522 61.993 63.8401 62.4646C65.6937 63.0944 67.4866 63.7036 67.9883 64.4562C69.1583 66.2112 69.3047 69.2825 58.336 73.67L57.9759 73.8155C56.3272 74.4841 52.9251 75.8638 49.9996 75.8638V73.2313V72.7925H53.9483C56.0543 71.7395 58.0433 67.0887 58.7745 64.895C58.7745 63.14 57.3121 61.8237 56.5806 61.385C56.5806 61.9218 55.2129 63.3475 54.046 64.4467C53.4271 65.0296 52.6021 65.3337 51.752 65.3337H49.9996V61.8238H52.6321C52.6321 61.8238 55.7925 57.7617 58.0074 55.9621C59.4564 54.7849 59.2178 53.584 58.9571 52.2702C58.8191 51.5756 58.6751 50.8494 58.7706 50.0784C58.8836 49.1662 59.0301 48.1586 59.1812 47.1197C59.7232 43.3911 60.3238 39.2599 59.6522 37.6925C58.336 34.6213 52.3397 32.72 49.9996 32.8663V30.2338ZM66.2332 66.2112L61.407 64.4562C60.6756 66.5037 59.1255 70.6865 58.7745 71.0375C61.1146 70.0137 65.8821 67.6152 66.2332 66.2112Z" fill="#DA6F25"/>
</svg>
