<svg width="100" height="100" viewBox="0 0 100 100" fill="none" xmlns="http://www.w3.org/2000/svg">
<path fill-rule="evenodd" clip-rule="evenodd" d="M65.73 32.0487C64.8369 32.9445 63.6028 33.5081 62.228 33.5081C60.8735 33.5081 59.6292 32.9545 58.7161 32.0487C57.813 31.153 57.251 29.895 57.251 28.5162C57.251 28.2791 57.2893 28.0341 57.3257 27.8016L57.3413 27.701C57.7327 25.3459 59.7695 23.5344 62.228 23.5344C64.6965 23.5344 66.7234 25.3459 67.1147 27.701C67.165 27.9626 67.1951 28.2445 67.1951 28.5162C67.1951 29.895 66.6333 31.1429 65.73 32.0487ZM69.5835 34.4843C70.7075 34.4843 71.6106 35.3296 71.741 36.4065C71.741 36.4655 71.7495 36.5203 71.7581 36.5762L71.7595 36.5853C71.7637 36.6123 71.7678 36.6398 71.771 36.6682V52.2677C71.771 52.8715 71.5103 53.425 71.1189 53.8175C70.7275 54.2 70.1855 54.4415 69.5935 54.4415C69.0015 54.4415 68.4597 54.2 68.0684 53.8175C67.667 53.425 67.416 52.8715 67.416 52.2677V38.6206H66.8643V67.7563C66.8643 68.9641 65.8909 69.9403 64.6868 69.9403C63.4827 69.9403 62.5093 68.9541 62.5093 67.7563V52.489H61.9573V67.7563C61.9573 68.9641 60.9739 69.9403 59.7798 69.9403C58.5757 69.9403 57.6023 68.9541 57.6023 67.7563V38.6206H57.0505V52.2677C57.0505 52.8715 56.7896 53.425 56.3982 53.8175C56.0068 54.2 55.4651 54.4415 54.873 54.4415C54.281 54.4415 53.7393 54.2 53.3479 53.8175C52.9465 53.425 52.6956 52.8715 52.6956 52.2677V36.6682C52.6956 36.5876 52.7056 36.4971 52.7156 36.4065C52.8462 35.3196 53.7593 34.4843 54.873 34.4843H69.5835ZM43.3032 50.7579C43.2029 49.9427 42.5205 49.3187 41.6775 49.3187H30.5996C29.7666 49.3187 29.0742 49.9528 28.9739 50.7579L28.9705 50.7814C28.9661 50.8116 28.9619 50.8405 28.959 50.8695C28.9558 50.8987 28.9539 50.928 28.9539 50.9592V62.7041C28.9539 63.157 29.1445 63.5797 29.4456 63.8716C29.7466 64.1633 30.1479 64.3445 30.5996 64.3445C31.051 64.3445 31.4524 64.1633 31.7534 63.8716C32.0544 63.5696 32.2451 63.157 32.2451 62.7041V52.4286H32.6565V74.3684C32.6565 75.2742 33.3892 76.0089 34.2922 76.0089C35.1953 76.0089 35.9277 75.2742 35.9277 74.3684V62.8751H36.3391V74.3684C36.3391 75.2742 37.0718 76.0089 37.9749 76.0089C38.8779 76.0089 39.6104 75.2742 39.6104 74.3684V52.4286H40.022V62.7041C40.022 63.157 40.2124 63.5797 40.5137 63.8716C40.8147 64.1633 41.2161 64.3445 41.6675 64.3445C42.1191 64.3445 42.5205 64.1633 42.8215 63.8716C43.1226 63.5696 43.3132 63.157 43.3132 62.7041V50.9592C43.3164 50.937 43.3167 50.9159 43.3154 50.895C43.3125 50.8497 43.3032 50.8062 43.3032 50.7579ZM38.7871 47.4771C38.105 48.1514 37.1816 48.574 36.1482 48.574C35.1248 48.574 34.1814 48.1514 33.499 47.4771C32.8167 46.8027 32.3953 45.8567 32.3953 44.8201C32.3953 44.6489 32.4216 44.4843 32.4475 44.3209L32.4656 44.2062C32.7666 42.4248 34.2917 41.0662 36.1482 41.0662C38.0146 41.0662 39.5298 42.4349 39.8308 44.2062C39.8708 44.4075 39.8911 44.6088 39.8911 44.8201C39.8911 45.8567 39.4695 46.7927 38.7871 47.4771Z" fill="#DA6F25"/>
<path fill-rule="evenodd" clip-rule="evenodd" d="M19.0393 85.5089H53.9089V78.8767H80.5205V15.0295H45.6506V30.4982H19.0393V85.5089ZM50.4473 82.0375H22.5012V33.9709H49.1125V18.5023H77.0586V75.4052H50.4473V82.0375Z" fill="#DA6F25"/>
</svg>
