<svg width="100" height="100" viewBox="0 0 100 100" fill="none" xmlns="http://www.w3.org/2000/svg">
<path fill-rule="evenodd" clip-rule="evenodd" d="M43.3105 55.8157L65.5972 15.9012L89.6597 55.8157H43.3105ZM86.0674 53.823L65.6873 20.0074L46.8025 53.823H86.0674Z" fill="#DA6F25"/>
<path fill-rule="evenodd" clip-rule="evenodd" d="M63.8611 44.7653H67.7744V28.8739H63.8611V44.7653ZM63.9717 47.9354C63.45 48.4386 63.199 49.0425 63.199 49.7369C63.199 50.0891 63.2793 50.4213 63.3997 50.7131C63.54 51.0251 63.7307 51.2767 63.9717 51.4982C64.2124 51.6995 64.4834 51.8806 64.8044 52.0114C65.1255 52.1422 65.4568 52.2126 65.8079 52.2126C66.5305 52.2126 67.1426 51.9712 67.6543 51.4679C68.176 50.9647 68.427 50.3608 68.427 49.6665C68.427 48.972 68.156 48.3883 67.6443 47.9053C67.1226 47.4323 66.5103 47.1907 65.8179 47.1907C65.0955 47.1907 64.4734 47.4423 63.9717 47.9354Z" fill="#DA6F25"/>
<path fill-rule="evenodd" clip-rule="evenodd" d="M37.0196 30.5144C36.7788 30.2931 36.4378 30.0214 36.0464 29.8602C36.0415 29.2144 36.0367 28.5839 36.0313 27.9714C36.0152 26.1025 35.9964 24.4016 35.9661 22.9462V22.7247L35.9654 22.604C35.9644 22.5298 35.9627 22.4573 35.961 22.3853C35.959 22.3037 35.9571 22.2228 35.9563 22.141L35.9561 22.0605C35.9561 21.8995 35.9461 21.7184 35.9461 21.5674C35.9461 21.4265 35.9461 21.2957 35.9358 21.1749V21.1648V21.0038C35.9358 20.9424 35.9339 20.8772 35.9317 20.8123C35.929 20.7283 35.9258 20.6449 35.9258 20.571C35.9258 20.4738 35.9236 20.3837 35.9214 20.2959L35.9207 20.2795V20.2733L35.918 20.17L35.9165 20.0945L35.9158 20.0176C35.9158 19.9169 35.9158 19.8062 35.9058 19.7056C35.8958 19.454 35.8958 19.2224 35.8858 19.0111C35.6348 12.9727 30.5574 11.0403 25.0286 11.0403H23.7139C18.1951 11.0403 13.1075 12.9727 12.8567 19.0111C12.8467 19.1721 12.8467 19.3734 12.8367 19.5847V19.7458C12.8267 19.937 12.8267 20.1282 12.8267 20.3396V20.4705C12.8267 20.5737 12.8243 20.6793 12.8218 20.7874L12.8177 20.9858L12.8164 21.1346V21.2655C12.8164 21.3964 12.8164 21.5271 12.8064 21.6781L12.8059 21.7396C12.805 21.7992 12.8033 21.861 12.8016 21.9233V21.927L12.8008 21.946C12.7986 22.028 12.7964 22.1107 12.7964 22.1914L12.7962 22.3425L12.7954 22.4124C12.7945 22.5039 12.792 22.5958 12.7864 22.6846V22.916C12.7564 24.959 12.7364 27.5154 12.7061 30.3132C12.2144 30.444 11.783 30.7861 11.512 31.0378C10.9803 31.5109 10.92 32.5876 11.5823 32.8392C11.8833 32.8392 12.2947 32.6481 12.7061 32.3864C12.6529 40.0028 12.6399 48.8658 12.6324 54.1691V54.298L12.6292 56.5767L12.626 57.9896V58.8954C13.2481 59.4791 13.4388 63.062 13.4388 63.5249C13.4388 66.051 18.7669 66.9166 23.7239 66.9166H25.0486C30.0057 66.9166 35.3338 66.0309 35.3338 63.5249C35.3338 63.0519 35.5245 59.4791 36.1468 58.8954V58.7948V57.9796C36.1468 54.5477 36.1368 42.0581 36.0664 31.9436C36.2056 32.0239 36.3431 32.0936 36.4742 32.1473C36.6551 32.2216 36.824 32.2656 36.9695 32.2656C37.6116 32.0745 37.5516 30.9976 37.0196 30.5144ZM29.4834 12.3185C31.1392 12.7512 32.6844 13.3853 33.6578 14.281C34.3401 14.8949 34.7615 15.6396 34.7615 16.5051V16.8977C34.3301 16.7166 34.1094 16.3038 34.0191 16.0624C33.9991 15.9919 33.9788 15.9315 33.9488 15.8711C33.7881 15.4384 33.5074 15.0559 33.156 14.7037C32.2129 13.7375 30.6475 13.0934 28.9817 12.7109L29.4834 12.3185ZM31.7422 43.8746L31.7303 44.1464C31.7268 44.2313 31.7237 44.3169 31.7212 44.4031C31.4519 51.7533 32.8931 53.851 33.5142 54.755C33.6807 54.9972 33.7881 55.1537 33.7881 55.3025L34.0491 42.9236C33.3367 43.2053 32.584 43.3765 31.7613 43.4066C31.7564 43.5603 31.7493 43.7163 31.7422 43.8746ZM34.0691 41.8568C33.4671 42.1888 32.4034 42.2896 31.8213 42.3901C32.3933 33.4431 34.3499 28.7432 34.3499 28.7432L34.0691 41.8568ZM33.6675 28.8136C32.2127 27.455 27.055 26.2875 24.3658 26.2875C21.6763 26.2875 16.5086 27.465 15.0838 28.8136C16.0472 30.1722 16.7496 32.7285 17.2212 35.8284C18.927 34.5703 23.0713 34.4696 24.3658 34.4696C25.6602 34.4696 29.8345 34.5703 31.5303 35.8384C31.9917 32.7386 32.7044 30.1722 33.6675 28.8136ZM17.0103 44.4031C17.2796 51.7621 15.8379 53.8547 15.2171 54.7562C15.0508 54.9977 14.9434 55.1537 14.9434 55.3025L14.6824 42.9236C15.3948 43.1853 16.1475 43.3463 16.9703 43.3966C16.9903 43.7186 17.0003 44.0608 17.0103 44.4031ZM14.408 28.7871C14.3968 28.7578 14.3912 28.7432 14.3916 28.7432L14.6726 41.8568C14.7122 41.8771 14.7539 41.8964 14.7972 41.9149C14.8316 41.9298 14.8672 41.9442 14.9036 41.958L14.9781 41.9851L15.035 42.0045L15.0945 42.0238C15.1297 42.0348 15.1656 42.0454 15.2017 42.0558C15.3677 42.103 15.5442 42.1431 15.7229 42.1779C16.065 42.2445 16.4153 42.2917 16.7168 42.3323L16.9204 42.36C16.3804 33.9325 14.5975 29.2811 14.408 28.7871ZM13.97 16.495C13.97 15.6195 14.3914 14.8848 15.0738 14.2709C16.0672 13.3751 17.5926 12.7411 19.2481 12.3083L19.7498 12.7008C18.0843 13.0934 16.5188 13.7274 15.5655 14.6735C15.2144 15.0156 14.9534 15.3981 14.7727 15.8408C14.7527 15.9114 14.7327 15.9717 14.7024 16.0321C14.6021 16.2837 14.3814 16.7064 13.96 16.8674C13.97 16.7667 13.97 16.6259 13.97 16.495ZM13.7893 63.1223C13.7893 63.4645 13.8697 63.7765 14.0503 64.0382C14.5821 64.8835 15.8968 65.3667 17.6026 65.6384L17.0406 64.8333C16.9158 64.8008 16.8016 64.7705 16.699 64.7394C16.5791 64.7029 16.4749 64.6653 16.3885 64.6219C15.7361 64.3199 15.2845 63.8068 14.9534 63.1827C14.6824 62.6694 14.5017 62.0555 14.3714 61.4014L13.7593 61.7234C13.7698 61.9617 13.7776 62.2056 13.7828 62.4521C13.7871 62.6741 13.7893 62.8982 13.7893 63.1223ZM24.3658 60.405C18.837 60.405 16.6394 59.1671 16.3885 58.3015C17.0005 56.802 17.4322 54.3463 17.6729 51.4579C18.3853 52.1222 20.7935 52.3436 24.3558 52.3436C27.9583 52.3436 30.3765 52.1021 31.0589 51.4277C31.2996 54.3262 31.7312 56.792 32.3433 58.2915C32.0923 59.1771 29.8948 60.405 24.3658 60.405ZM34.6912 64.0382C34.8516 63.7665 34.9519 63.4646 34.9519 63.1224C34.9519 62.6494 34.9519 62.1864 34.9822 61.7335L34.3702 61.4115C34.2395 62.0557 34.0589 62.6594 33.7881 63.1929C33.4668 63.8269 33.0154 64.3301 32.3531 64.6321C32.3194 64.6479 32.284 64.6631 32.2466 64.6776C32.178 64.7041 32.1031 64.7289 32.0223 64.7533C31.9236 64.7831 31.8162 64.8123 31.701 64.8434L31.139 65.6486C32.8448 65.3567 34.1492 64.8735 34.6912 64.0382ZM54.0779 63.8873C53.857 64.1288 53.5862 64.4709 53.4256 64.8635C50.8167 64.8837 48.4585 64.9038 46.532 64.944H46.3111C46.1944 64.944 46.0828 64.9465 45.9727 64.9491L45.8433 64.9519C45.7788 64.9532 45.7144 64.9541 45.649 64.9541C45.5674 64.9541 45.4805 64.9567 45.3951 64.9592C45.3125 64.9617 45.2312 64.9641 45.1573 64.9641C45.0166 64.9641 44.8863 64.9641 44.7659 64.9742H44.5953C44.5237 64.9742 44.4471 64.9768 44.3716 64.9794L44.264 64.9828L44.1954 64.984L44.1639 64.9843C44.0608 64.9843 43.9659 64.9869 43.8733 64.9896L43.7351 64.993C43.6944 64.9939 43.6534 64.9944 43.6119 64.9944C43.5115 64.9944 43.4012 64.9944 43.3008 65.0044C43.0501 65.0144 42.8191 65.0144 42.6084 65.0245C36.5877 65.2761 34.6612 70.3687 34.6612 75.9139V77.2324C34.6612 82.7677 36.5877 87.8702 42.6084 88.1218C42.6726 88.1259 42.7434 88.1283 42.8186 88.1304L42.8863 88.1322C42.9795 88.1345 43.0789 88.1371 43.1805 88.142H43.3409C43.5315 88.152 43.7222 88.152 43.9329 88.152H44.0635C44.1665 88.152 44.2718 88.1544 44.3797 88.157C44.4925 88.1595 44.6077 88.1621 44.7256 88.1621H44.8562L44.9808 88.1625C45.0711 88.1631 45.1646 88.1653 45.2676 88.1721C45.3289 88.1721 45.3931 88.1736 45.4585 88.1754L45.5262 88.1772L45.6497 88.1805C45.6932 88.1815 45.7366 88.1821 45.7793 88.1821C45.94 88.1821 46.1104 88.1821 46.271 88.1923H46.5017C47.2134 88.2028 47.9876 88.212 48.8125 88.2211L50.0601 88.234L51.1565 88.2449L51.1787 88.2452C52.045 88.2538 52.9478 88.2627 53.8772 88.2727C54.0076 88.7659 54.3487 89.1986 54.5996 89.4705C55.0713 90.0038 56.1451 90.0642 56.3958 89.3999C56.3958 89.098 56.2051 88.6854 55.9444 88.2727C57.4092 88.2828 58.9246 88.2928 60.4497 88.2928V86.3706L52.2918 86.5417C52.2918 86.5426 52.3106 86.5354 52.3479 86.5211C52.7666 86.3612 55.5215 85.3091 60.4497 84.5792V68.4866C55.0813 67.6915 52.2918 66.524 52.2918 66.524L60.4497 66.6952V64.8434L55.5027 64.8735C55.6934 64.5415 55.8238 64.2194 55.8238 63.9678C55.6231 63.2935 54.5494 63.3539 54.0779 63.8873ZM40.4712 87.0146C40.3106 86.5919 39.8892 86.3706 39.6382 86.2699C39.6226 86.2621 39.607 86.2549 39.5911 86.2482L39.5516 86.2325L39.5164 86.2203L39.4639 86.2042L39.4478 86.1995C39.0061 86.0183 38.6248 85.7566 38.2837 85.4044C37.3404 84.4484 36.7083 82.8783 36.3169 81.2076L35.9256 81.7108C36.357 83.3715 36.9893 84.9012 37.8824 85.8976C38.4944 86.5819 39.2268 87.0046 40.0999 87.0046L40.2107 87.0049L40.3172 87.0065C40.3489 87.0072 40.3799 87.0084 40.41 87.0101L40.4712 87.0146ZM59.376 69.3923C58.1116 71.0931 58.0113 75.2799 58.0113 76.5781C58.0113 77.8765 58.1116 82.033 59.366 83.7438C56.2754 84.2168 53.7266 84.9214 52.3719 85.8875C51.0274 84.4484 49.8533 79.2653 49.8533 76.558C49.8533 73.8608 51.0174 68.6879 52.3719 67.2285C53.7266 68.2148 56.2854 68.9293 59.376 69.3923ZM39.6683 66.9065C39.909 66.8159 40.3204 66.5945 40.501 66.1617H40.1097C39.2466 66.1617 38.5042 66.5845 37.8921 67.2688C36.9991 68.245 36.3667 69.7949 35.9353 71.4554L36.3267 71.9587C36.708 70.2881 37.3501 68.718 38.3135 67.772C38.6648 67.4198 39.0459 67.1379 39.4776 66.9769C39.5376 66.9468 39.5979 66.9266 39.6683 66.9065Z" fill="#DA6F25"/>
<path fill-rule="evenodd" clip-rule="evenodd" d="M26.8945 65.0848C26.8945 70.2578 31.0889 74.4647 36.2466 74.4647C41.4043 74.4647 45.5989 70.2578 45.5989 65.0848C45.5989 59.9119 41.4043 55.7051 36.2466 55.7051C31.0889 55.7051 26.8945 59.9119 26.8945 65.0848ZM27.8074 65.095C27.8074 60.4252 31.6003 56.631 36.2463 56.631C40.9023 56.631 44.6853 60.4252 44.6853 65.095C44.6853 69.7648 40.9023 73.559 36.2463 73.559C31.5903 73.559 27.8074 69.7546 27.8074 65.095Z" fill="#DA6F25"/>
<path fill-rule="evenodd" clip-rule="evenodd" d="M29.4033 65.0848C29.4033 61.3007 32.4639 58.2211 36.2468 58.2211C40.0298 58.2211 43.1003 61.3007 43.0903 65.0848C43.0903 68.869 40.0298 71.9486 36.2468 71.9486C32.4739 71.9486 29.4033 68.869 29.4033 65.0848ZM42.0964 65.0949C42.0964 61.8643 39.4673 59.2275 36.2463 59.2275C33.0254 59.2275 30.4062 61.8442 30.3962 65.0949C30.3962 68.3255 33.0254 70.9623 36.2463 70.9623C39.4673 70.9623 42.0964 68.3255 42.0964 65.0949Z" fill="#DA6F25"/>
<path d="M36.2465 68.9194C38.3579 68.9194 40.0696 67.2026 40.0696 65.0849C40.0696 62.9672 38.3579 61.2505 36.2465 61.2505C34.135 61.2505 32.4233 62.9672 32.4233 65.0849C32.4233 67.2026 34.135 68.9194 36.2465 68.9194Z" fill="#DA6F25"/>
</svg>
