<svg width="100" height="100" viewBox="0 0 100 100" fill="none" xmlns="http://www.w3.org/2000/svg">
<path fill-rule="evenodd" clip-rule="evenodd" d="M57.5618 39.4758C57.2605 39.2041 56.8391 38.8619 56.3274 38.6606C56.3074 35.3898 56.2773 32.4108 56.2371 29.9954V29.7236C56.2371 29.6113 56.2353 29.4989 56.2334 29.3878L56.2329 29.3553L56.2324 29.3246L56.2319 29.2958L56.2317 29.2881L56.231 29.2451V29.2386V29.2322V29.2257V29.2196V29.2135V29.2074V29.2017C56.229 29.0983 56.227 28.9969 56.227 28.8984C56.227 28.7993 56.2248 28.7001 56.2224 28.6021L56.2219 28.5787V28.575V28.5715V28.5681V28.5649V28.562V28.5591V28.5565V28.5541V28.5518C56.2195 28.4581 56.217 28.365 56.217 28.2744L56.2158 28.1623L56.2153 28.1376L56.2148 28.1143L56.2143 28.0927L56.2139 28.073L56.2134 28.0547L56.2129 28.0378L56.2124 28.0223L56.2119 28.0079L56.2117 28.0011C56.2092 27.923 56.207 27.8471 56.207 27.7712V27.751V27.5397C56.207 27.4491 56.2046 27.3585 56.2021 27.2679C56.1995 27.1774 56.197 27.0868 56.197 26.9962C56.1934 26.8985 56.1909 26.8054 56.1887 26.715L56.1882 26.6995L56.188 26.6854L56.1877 26.6725L56.1875 26.6606L56.1873 26.6494L56.1868 26.6306C56.1843 26.5186 56.1819 26.4102 56.177 26.3018C56.177 26.2468 56.1748 26.1876 56.1726 26.1281L56.1719 26.1106L56.1711 26.0931C56.1689 26.0336 56.1667 25.9744 56.1667 25.9194C56.1567 25.5973 56.1467 25.3055 56.1367 25.0639C55.8157 17.4957 49.4539 15.0702 42.53 15.0702H40.8843C33.9607 15.0702 27.5989 17.4957 27.2776 25.0639C27.2676 25.2753 27.2576 25.5269 27.2576 25.7885C27.2576 25.859 27.2576 25.9294 27.2476 25.9999C27.2427 26.1125 27.2402 26.23 27.2378 26.351L27.2373 26.3721L27.2371 26.3826L27.2368 26.3935L27.2366 26.4048L27.2363 26.417L27.2361 26.4299L27.2358 26.444L27.2353 26.4597C27.2331 26.553 27.2307 26.6482 27.2275 26.7446V26.9258C27.2227 27.0524 27.2202 27.1815 27.2178 27.3139L27.2173 27.3385L27.217 27.3492L27.2168 27.3608L27.2165 27.3732L27.2163 27.3865L27.2161 27.401L27.2158 27.417L27.2153 27.4352C27.2131 27.5381 27.2107 27.6431 27.2075 27.751V27.9221C27.2075 27.9957 27.2053 28.0734 27.2031 28.1514L27.2024 28.1738C27.1997 28.2593 27.1973 28.3448 27.1973 28.4254C27.1973 28.521 27.1948 28.6191 27.1924 28.718V28.7202V28.7227V28.7253V28.7281V28.7311V28.7343V28.7376V28.7411V28.7449C27.1897 28.8555 27.1873 28.9675 27.1873 29.0795C27.1873 29.1786 27.1851 29.2776 27.1826 29.3757L27.1821 29.3991V29.4028V29.4064V29.4097V29.4129V29.4159V29.4187V29.4213V29.4238V29.426C27.1797 29.5198 27.1772 29.6129 27.1772 29.7035V29.9853L27.1636 31.1362C27.1357 33.4778 27.1028 36.2594 27.0769 39.2544C26.4648 39.4154 25.9231 39.8482 25.5718 40.1702C24.8994 40.764 24.8293 42.1227 25.6621 42.4146C26.0334 42.4146 26.5552 42.183 27.0669 41.851C26.9866 54.4312 26.9766 69.7287 26.9766 73.9557V75.0929C27.7693 75.8276 28.0002 80.3062 28.0002 80.9C28.0002 84.0601 34.6831 85.1672 40.9045 85.1672H42.55C48.7615 85.1672 55.4543 84.0601 55.4543 80.9C55.4543 80.3162 55.6853 75.8276 56.478 75.0929V74.9722V73.9557C56.478 69.6683 56.468 53.9883 56.3777 41.3176C56.7991 41.5591 57.1904 41.7101 57.5015 41.7101C58.3142 41.4484 58.2339 40.0998 57.5618 39.4758ZM48.1091 16.6605C50.1863 17.1939 52.1128 17.9991 53.3469 19.1162C54.1999 19.8911 54.7317 20.817 54.7317 21.9039V22.3971C54.1899 22.1857 53.9189 21.6624 53.7986 21.3404C53.779 21.2617 53.7498 21.183 53.7205 21.1044L53.7183 21.0988V21.0887C53.5076 20.5453 53.1665 20.0622 52.7248 19.6194C51.5207 18.4419 49.564 17.6468 47.4568 17.1537L48.1091 16.6605ZM50.9534 56.2773C50.9463 56.4791 50.939 56.683 50.9292 56.887C50.5893 66.0898 52.3906 68.7249 53.1714 69.8667C53.3818 70.1746 53.5181 70.374 53.5181 70.5642L53.8491 55.0352C52.956 55.3875 52.0029 55.5988 50.9792 55.639C50.969 55.8474 50.9612 56.061 50.9534 56.2773ZM53.8791 53.6866C53.2786 54.0239 52.3074 54.1689 51.5623 54.2803C51.3735 54.3085 51.1995 54.3345 51.0493 54.3609C51.7617 43.1494 54.2202 37.2619 54.2202 37.2619L53.8791 53.6866ZM53.3574 37.3323C51.5513 35.6415 45.0789 34.1722 41.7073 34.1722C38.3457 34.1722 31.8635 35.6516 30.0674 37.3223C31.2615 39.0231 32.1545 42.2235 32.7366 46.0982C34.884 44.5383 40.0518 44.4075 41.6873 44.4075C43.323 44.4075 48.5508 44.5383 50.6782 46.1284C51.2602 42.2437 52.1533 39.0332 53.3574 37.3323ZM32.4858 56.887C32.8264 66.1114 31.0093 68.7435 30.2292 69.8738C30.021 70.1752 29.8867 70.3698 29.8867 70.5541L29.5557 55.0251C30.4587 55.3472 31.4021 55.5585 32.4255 55.619L32.4858 56.887ZM32.355 54.3207C31.6426 43.1293 29.1841 37.2619 29.1841 37.2619L29.5354 53.6766C30.1819 54.0141 31.2427 54.1635 32.0486 54.2769L32.355 54.3207ZM30.0574 19.1162C31.2915 17.9991 33.2183 17.1939 35.2954 16.6605L35.9375 17.1537C33.8403 17.6468 31.8835 18.4419 30.6794 19.6295C30.238 20.0622 29.8967 20.5453 29.686 21.0988V21.1089C29.6699 21.1522 29.6567 21.1927 29.6431 21.2349L29.6399 21.2449L29.637 21.2542L29.6343 21.2623L29.606 21.3504C29.4853 21.6624 29.2146 22.1857 28.6726 22.4072C28.6626 22.226 28.6626 22.065 28.6626 21.9039C28.6726 20.817 29.1943 19.9012 30.0574 19.1162ZM28.4416 80.3768C28.4416 80.8096 28.552 81.192 28.7729 81.5241C29.4351 82.5607 31.0908 83.1646 33.2283 83.5269L32.5256 82.5205V82.5104C32.1946 82.4399 31.9236 82.3594 31.7129 82.2588C30.8801 81.8763 30.3181 81.2423 29.9067 80.4473C29.5657 79.8032 29.3447 79.0282 29.1843 78.213L28.4116 78.6257C28.4316 79.1993 28.4416 79.783 28.4416 80.3768ZM41.707 76.9751C34.7732 76.9751 32.0237 75.4353 31.7026 74.3282C32.4753 72.4563 33.0171 69.3766 33.3181 65.7536C34.2312 66.5688 37.2417 66.8506 41.687 66.8506C46.2024 66.8506 49.2329 66.5587 50.0957 65.7133C50.3967 69.3465 50.9387 72.4362 51.7114 74.3282C51.3901 75.4152 48.6409 76.9751 41.707 76.9751ZM54.6416 81.5443C54.8523 81.2021 54.9727 80.8297 54.9727 80.397C54.9727 79.7931 54.9827 79.1893 55.0129 78.6559L54.2402 78.2432C54.0796 79.0584 53.8589 79.8132 53.5176 80.4775C53.1062 81.2725 52.5344 81.9166 51.7114 82.289C51.5007 82.3796 51.2297 82.4601 50.8987 82.5406V82.5507L50.1963 83.5571C52.3235 83.1948 53.9692 82.5909 54.6416 81.5443Z" fill="#DA6F25"/>
<path d="M58.134 79.4912C58.134 80.2963 58.7963 80.9606 59.5991 80.9606H73.6573C74.4601 80.9606 75.1224 80.2963 75.1224 79.4912C75.1224 79.4912 59.5288 45.6353 59.3783 45.1522C58.7863 44.5585 58.134 44.9107 58.134 45.7158V79.4912H58.134Z" fill="#DA6F25"/>
</svg>
