<svg width="100" height="100" viewBox="0 0 100 100" fill="none" xmlns="http://www.w3.org/2000/svg">
<path fill-rule="evenodd" clip-rule="evenodd" d="M77.3904 31.6003L83.4412 35.2637L78.0227 44.2107L82.9597 47.2098L70.4968 50.4908L67.3259 37.7395L71.9619 40.5374L77.3904 31.6003ZM27.6697 74.8361C27.6697 60.0518 39.6609 48.015 54.4116 48.015C69.1621 48.015 81.1533 60.0417 81.1633 74.8058C81.1633 76.5872 80.9927 78.3182 80.6616 79.9889H72.7444V77.1709H78.5745C78.6548 76.396 78.6948 75.611 78.6948 74.8159C78.6948 71.5752 78.0728 68.4856 76.9187 65.6475L72.3733 67.6804L71.3496 65.3757L75.8452 63.3729C74.2195 60.3436 71.9719 57.6866 69.2825 55.5934L66.2722 59.7297L64.2354 58.2402L67.2156 54.1542C63.834 52.0608 59.9204 50.7626 55.7261 50.5411V55.5631H53.1169V50.5411C48.8423 50.7626 44.8687 52.1011 41.457 54.2649L53.0369 70.2166C53.3096 70.1274 53.5942 70.0625 53.8887 70.0267C54.0598 70.006 54.2344 69.9951 54.4116 69.9951C56.8699 69.9951 58.8567 71.9879 58.8567 74.4536C58.8567 76.9193 56.8599 78.912 54.4116 78.912C51.9531 78.912 49.9663 76.9093 49.9663 74.4536C49.9663 73.3767 50.3374 72.3904 50.9797 71.6155L39.4199 55.694C36.791 57.7672 34.6035 60.3638 33.0081 63.3428L37.5938 65.3857L36.5703 67.6904L31.9443 65.6273C30.7803 68.4755 30.1382 71.5853 30.1382 74.8461C30.1382 75.6311 30.1782 76.4261 30.2585 77.2012H35.637V80.019H28.1714C27.8503 78.3384 27.6697 76.6073 27.6697 74.8361Z" fill="#DA6F25"/>
<path fill-rule="evenodd" clip-rule="evenodd" d="M22.0505 19.0403H45.0093C48.3408 19.0403 51.0601 21.7677 51.0601 25.0989V44.2108C36.8013 45.7205 25.4221 56.8816 23.5356 71.062H22.0505C18.719 71.062 15.9998 68.3346 15.9998 64.9933V25.109C15.9998 21.7677 18.719 19.0403 22.0505 19.0403ZM17.8054 65.6273L19.8826 64.0171V27.323C19.8826 24.9379 21.7087 22.9955 23.9565 22.9955H43.3533C45.6008 22.9955 47.4272 24.9379 47.4272 27.323V42.2482L49.5044 41.8457V27.323C49.5044 23.7905 46.7449 20.9222 43.3533 20.9222H23.9565C20.5649 20.9222 17.8054 23.7905 17.8054 27.323V65.6273ZM22.512 47.3206H25.1812V47.7936C25.1812 49.1019 25.8936 50.2694 27.479 50.2694C29.4258 50.2694 29.9675 48.337 29.9675 46.2839C29.9675 44.251 29.4258 42.5502 27.6194 42.5502C26.4355 42.5502 25.5725 43.1943 25.3215 44.1604L22.833 44.0598L23.696 34.8712H32.115V37.1256H25.7932L25.2212 41.735L25.2715 41.7853C26.0139 40.9399 27.0776 40.4266 28.2114 40.4266C31.864 40.4266 32.7771 43.5264 32.7771 46.2236C32.7771 49.736 31.1716 52.4131 27.3987 52.4131C24.2881 52.4131 22.512 50.8029 22.512 47.7131V47.3206ZM39.47 42.54C40.5137 42.54 41.1357 43.1238 41.4768 44.0094L44.0457 42.9526C43.4336 41.5034 42.2295 40.4165 40.062 40.4165C38.9282 40.4165 37.8645 40.9298 37.1221 41.7751L37.0718 41.7249L37.6438 37.1155H43.9656V34.8611H35.5466L34.6836 44.0497L37.1721 44.1503C37.4231 43.1842 38.2859 42.54 39.47 42.54Z" fill="#DA6F25"/>
</svg>
