<svg width="100" height="100" viewBox="0 0 100 100" fill="none" xmlns="http://www.w3.org/2000/svg">
<path d="M23.1069 16.6608L33.582 16.5694L41.0536 23.9118L41.145 34.3869L33.8027 41.8585L23.3276 41.9499L15.8559 34.6076L15.7645 24.1325L23.1069 16.6608Z" fill="#DA6F25"/>
<path d="M46.6644 18.9874L46.0827 17.515C54.3741 14.1828 62.7151 13.7683 70.2134 16.3092C77.7118 18.8502 84.0919 24.2533 88.6399 31.9365L87.2829 32.7518C82.9203 25.3971 76.8435 20.2243 69.7063 17.8057C62.5531 15.403 54.5773 15.8031 46.6644 18.9874Z" fill="#DA6F25"/>
<path fill-rule="evenodd" clip-rule="evenodd" d="M66.9934 25.7807C72.439 27.6261 77.0979 31.5745 80.4232 37.2069L81.7801 36.3916C78.26 30.4275 73.3295 26.2489 67.5038 24.2747C61.6973 22.307 55.2168 22.64 48.8026 25.2164L49.3842 26.6887C55.4548 24.2509 61.5289 23.9289 66.9934 25.7807ZM63.7701 35.2935C67.9328 36.7041 71.4702 39.7093 74.0192 44.0054L75.3763 43.1901C72.6387 38.5751 68.8041 35.3204 64.2804 33.7875C59.7567 32.2545 54.737 32.4981 49.7545 34.5076L50.3362 35.9799C54.9623 34.1152 59.6076 33.8829 63.7701 35.2935Z" fill="#DA6F25"/>
<path fill-rule="evenodd" clip-rule="evenodd" d="M70.1578 72.7359C70.8321 73.0005 71.389 73.4562 71.7994 73.8238C72.679 74.6177 72.7962 76.426 71.6822 76.7788C71.2571 76.7788 70.7293 76.5583 70.1724 76.2496L70.2164 84.5413H67.0501L67.3433 70.8687C67.3433 70.8687 65.3939 75.5439 64.0745 84.5413H37.2645C36.034 76.2401 34.2791 71.6182 34.0264 70.9525L34.0106 70.911C33.9998 70.8828 33.9947 70.8687 33.9957 70.8687L34.2889 84.5413H31.0933L31.1373 76.9846C30.4483 77.4257 29.7596 77.7344 29.261 77.7344C28.147 77.3375 28.2642 75.5292 29.1439 74.7353C29.6129 74.3089 30.3311 73.7356 31.1519 73.515L31.1634 72.2683L31.1812 70.2906V70.2663V70.2418C31.2115 66.8471 31.2391 63.7477 31.284 61.1509V60.7687C31.294 60.5869 31.2972 60.3982 31.2982 60.2072L31.2986 59.9454C31.2986 59.7965 31.3023 59.6476 31.306 59.5006C31.3096 59.3574 31.3133 59.2159 31.3133 59.078C31.3279 58.8428 31.3279 58.6222 31.3279 58.4017V58.1665C31.3279 57.7842 31.3426 57.4167 31.3426 57.0638V56.8433C31.3426 56.6472 31.3426 56.4555 31.345 56.271C31.3463 56.1866 31.348 56.1037 31.3504 56.0225C31.3521 55.9619 31.3543 55.9022 31.3572 55.8436V55.5643C31.3755 55.3438 31.3821 55.1349 31.3882 54.941L31.389 54.928C31.3924 54.8163 31.3958 54.7096 31.4012 54.6087C31.8262 44.5086 40.3282 41.2889 49.5482 41.2889H51.7469C60.9818 41.2889 69.4688 44.5086 69.8939 54.6087C69.9063 54.7586 69.9136 54.9138 69.9188 55.0755C69.9219 55.1711 69.9244 55.269 69.9268 55.3693L69.9271 55.3843L69.9307 55.533C69.9327 55.6105 69.9349 55.6895 69.9378 55.7701C69.9434 55.8328 69.9468 55.9 69.949 55.9681C69.9525 56.0757 69.9525 56.1857 69.9525 56.2847C69.9525 56.4265 69.9559 56.5684 69.9593 56.7153C69.9632 56.8727 69.9671 57.0359 69.9671 57.2109C69.9671 57.3175 69.9708 57.4344 69.9744 57.5533V57.5596L69.9793 57.7462C69.9808 57.809 69.9818 57.8711 69.9818 57.9312V58.2106V58.2253C69.9964 58.4311 69.9964 58.6516 69.9964 58.8869C69.9964 59.0083 69.9998 59.1402 70.0035 59.2758C70.0071 59.4192 70.011 59.5666 70.011 59.7102C70.011 59.8921 70.0147 60.0705 70.0184 60.2506L70.0218 60.4378C70.024 60.5606 70.0257 60.6851 70.0257 60.8128V61.1803C70.0711 63.6779 70.0989 66.6049 70.1295 69.8193L70.1578 72.7359ZM33.2628 51.0215C33.981 50.7422 34.3475 50.0512 34.5086 49.6248C34.5272 49.5879 34.5428 49.5459 34.5582 49.5008L34.5792 49.4381L34.5814 49.4319L34.596 49.3877C34.6053 49.3593 34.6153 49.3303 34.626 49.3014C34.9193 48.5663 35.3589 47.9194 35.9451 47.3461C37.543 45.773 40.1522 44.7145 42.9373 44.0529L42.087 43.3913C39.3167 44.1117 36.7662 45.1702 35.1097 46.6698C33.981 47.6989 33.2774 48.9339 33.2774 50.3893L33.2772 50.5797C33.2767 50.6439 33.2759 50.7074 33.2745 50.7693C33.2725 50.8571 33.2689 50.9419 33.2628 51.0215ZM62.6236 82.7183C59.7798 80.6013 52.8172 80.4248 50.6478 80.4248C48.4783 80.4248 41.5596 80.6013 38.7012 82.6889C37.9244 77.5139 36.7369 73.2357 35.1246 70.9716C37.5286 68.7223 46.1622 66.7523 50.6624 66.7523C55.1624 66.7523 63.7816 68.7076 66.2003 70.9716C64.5877 73.2357 63.4005 77.5286 62.6236 82.7183ZM66.772 49.6836C66.9334 50.0805 67.2999 50.7862 68.0181 51.0803V50.4187C68.0181 48.9632 67.3292 47.7283 66.1859 46.6992C64.5587 45.2143 61.9788 44.1411 59.2083 43.4207L58.3582 44.0823C61.1434 44.7291 63.7525 45.8024 65.3355 47.4196C65.9219 48.0076 66.3763 48.6545 66.6548 49.3749C66.6807 49.427 66.7017 49.4842 66.7234 49.5466C66.7386 49.5898 66.754 49.6355 66.772 49.6836Z" fill="#DA6F25"/>
</svg>
