<svg width="100" height="101" viewBox="0 0 100 101" fill="none" xmlns="http://www.w3.org/2000/svg">
<path d="M47.5585 25.2461L46.9767 23.7738C55.2681 20.4416 63.6091 20.027 71.1074 22.568C78.6058 25.109 84.9859 30.5121 89.5339 38.1953L88.1769 39.0106C83.8143 31.6559 77.7375 26.4831 70.6003 24.0645C63.4471 21.6618 55.4713 22.0618 47.5585 25.2461V25.2461Z" fill="#DA6F25"/>
<path fill-rule="evenodd" clip-rule="evenodd" d="M67.8877 32.0395C73.3333 33.8849 77.992 37.8333 81.3172 43.4657L82.6741 42.6504C79.1541 36.6863 74.2237 32.5077 68.398 30.5335C62.5914 28.5658 56.1109 28.8988 49.6966 31.4752L50.2784 32.9475C56.3489 30.5097 62.4231 30.1878 67.8877 32.0395ZM64.6644 41.5523C68.827 42.9629 72.3643 45.9681 74.9134 50.2642L76.2703 49.4489C73.5328 44.8338 69.6983 41.5792 65.1746 40.0463C60.6509 38.5133 55.6312 38.7569 50.6487 40.7664L51.2305 42.2387C55.8565 40.374 60.5018 40.1417 64.6644 41.5523Z" fill="#DA6F25"/>
<path fill-rule="evenodd" clip-rule="evenodd" d="M71.0518 78.9946C71.7261 79.2592 72.283 79.715 72.6934 80.0826C73.5731 80.8764 73.6902 82.6848 72.5762 83.0376C72.1512 83.0376 71.6234 82.817 71.0665 82.5083L71.1104 90.8001H67.9442L68.2374 77.1275C68.2374 77.1275 66.2879 81.8026 64.9686 90.8001H38.1585C36.928 82.4989 35.1732 77.8769 34.9205 77.2113C34.8992 77.1555 34.8885 77.1275 34.8897 77.1275L35.1829 90.8001H31.9874L32.0313 83.2434C31.3423 83.6844 30.6536 83.9932 30.1551 83.9932C29.0411 83.5963 29.1583 81.7879 30.0379 80.994C30.5069 80.5677 31.2252 79.9943 32.046 79.7738C32.0565 78.675 32.066 77.5982 32.0753 76.5494V76.5251C32.1055 73.1208 32.1331 70.0127 32.178 67.4097V67.0274C32.1927 66.7628 32.1927 66.4835 32.1927 66.2041C32.1927 65.9101 32.2073 65.6161 32.2073 65.3367C32.2178 65.1665 32.2208 65.0039 32.2217 64.8435L32.222 64.6605V64.4252C32.222 64.043 32.2366 63.6754 32.2366 63.3226V63.1021C32.2366 62.7492 32.2366 62.4111 32.2513 62.1024V61.823C32.2701 61.5977 32.2767 61.3843 32.283 61.1868C32.2864 61.075 32.2899 60.9684 32.2952 60.8674C32.7203 50.7674 41.2222 47.5477 50.4422 47.5477H52.6409C61.8758 47.5477 70.3629 50.7674 70.7879 60.8674C70.8077 61.106 70.8143 61.358 70.8209 61.628L70.8211 61.643C70.824 61.7677 70.8272 61.8961 70.8318 62.0289C70.8465 62.1906 70.8465 62.3817 70.8465 62.5434C70.8465 62.7233 70.8521 62.9031 70.8563 63.093C70.8589 63.2137 70.8611 63.3383 70.8611 63.4696L70.8624 63.5862C70.8636 63.6611 70.866 63.7393 70.8685 63.8183L70.8726 63.9752C70.8746 64.0481 70.8758 64.1203 70.8758 64.19V64.4694V64.484C70.8904 64.6899 70.8904 64.9104 70.8904 65.1456C70.8904 65.2073 70.8914 65.2718 70.8929 65.338L70.8975 65.5346C70.9012 65.6779 70.9051 65.8254 70.9051 65.9689C70.9051 66.1529 70.9088 66.3331 70.9124 66.5152L70.9158 66.6818L70.9183 66.8434C70.9193 66.9185 70.9197 66.9944 70.9197 67.0715V67.4391C70.9651 69.9366 70.993 72.8636 71.0235 76.0781L71.0518 78.9946ZM34.1568 57.2803C34.8751 57.0009 35.2415 56.3099 35.4026 55.8836C35.4254 55.8382 35.4442 55.785 35.4632 55.7281L35.4913 55.6423C35.5003 55.6152 35.5098 55.5877 35.5201 55.5602C35.8133 54.8251 36.253 54.1782 36.8392 53.6048C38.4371 52.0318 41.0462 50.9732 43.8314 50.3117L42.981 49.6501C40.2108 50.3705 37.6602 51.429 36.0037 52.9286C34.8751 53.9577 34.1714 55.1926 34.1714 56.6481C34.1714 56.8686 34.1714 57.0891 34.1568 57.2803ZM63.5176 88.977C60.6739 86.86 53.7112 86.6836 51.5418 86.6836C49.3724 86.6836 42.4537 86.86 39.5953 88.9476C38.8184 83.7726 37.6309 79.4944 36.0186 77.2304C38.4227 74.981 47.0562 73.011 51.5565 73.011C56.0565 73.011 64.6756 74.9663 67.0943 77.2304C65.4818 79.4944 64.2945 83.7873 63.5176 88.977ZM67.6661 55.9424C67.8275 56.3393 68.1939 57.045 68.9122 57.339V56.6775C68.9122 55.222 68.2232 53.987 67.0799 52.9579C65.4527 51.4731 62.8729 50.3998 60.1024 49.6794L59.2523 50.341C62.0374 50.9879 64.6465 52.0611 66.2296 53.6783C66.816 54.2664 67.2703 54.9132 67.5489 55.6336C67.5928 55.7218 67.6221 55.8247 67.6661 55.9424Z" fill="#DA6F25"/>
<path fill-rule="evenodd" clip-rule="evenodd" d="M21.7532 10.3499C19.5439 10.3499 17.7532 12.1408 17.7532 14.3499V43.5477C17.7532 45.7568 19.5439 47.5477 21.7532 47.5477H36.7952C39.0044 47.5477 40.7952 45.7568 40.7952 43.5477V14.3499C40.7952 12.1408 39.0044 10.3499 36.7952 10.3499H21.7532ZM29.2742 22.6924C31.8503 22.6924 33.9385 20.6041 33.9385 18.028C33.9385 15.452 31.8503 13.3637 29.2742 13.3637C26.6982 13.3637 24.6099 15.452 24.6099 18.028C24.6099 20.6041 26.6982 22.6924 29.2742 22.6924ZM33.9385 29.0567C33.9385 31.6327 31.8503 33.721 29.2742 33.721C26.6982 33.721 24.6099 31.6327 24.6099 29.0567C24.6099 26.4806 26.6982 24.3923 29.2742 24.3923C31.8503 24.3923 33.9385 26.4806 33.9385 29.0567ZM29.2742 44.7494C31.8503 44.7494 33.9385 42.6611 33.9385 40.0851C33.9385 37.509 31.8503 35.4207 29.2742 35.4207C26.6982 35.4207 24.6099 37.509 24.6099 40.0851C24.6099 42.6611 26.6982 44.7494 29.2742 44.7494Z" fill="#DA6F25"/>
</svg>
