<svg width="100" height="100" viewBox="0 0 100 100" fill="none" xmlns="http://www.w3.org/2000/svg">
<path fill-rule="evenodd" clip-rule="evenodd" d="M31.2905 14.7992L27.5195 14.0557L26.0098 21.7581L29.7808 22.5016L31.2905 14.7992ZM74.0469 21.7982L72.5371 14.0955L68.7661 14.8392L70.2759 22.5417L74.0469 21.7982ZM76.8015 55.738L78.8987 66.4765L82.6716 65.7317L80.5745 54.9933L76.8015 55.738ZM76.0193 51.8231L73.9221 41.0846L77.6951 40.3398L79.7922 51.0783L76.0193 51.8231ZM71.062 26.4211L73.1592 37.1595L76.9321 36.4148L74.835 25.6763L71.062 26.4211ZM83.4387 69.6843L84.9485 77.3868L81.1777 78.1303L79.668 70.4278L83.4387 69.6843ZM21.1404 66.4765L17.3674 65.7317L19.4646 54.9933L23.2375 55.738L21.1404 66.4765ZM20.2378 51.0783L24.0107 51.8231L26.1079 41.0846L22.335 40.3398L20.2378 51.0783ZM26.8901 37.1595L23.1172 36.4148L25.2144 25.6763L28.9873 26.4211L26.8901 37.1595ZM20.3745 70.4029L16.6035 69.6594L15.0938 77.3617L18.8647 78.1054L20.3745 70.4029Z" fill="#DA6F25"/>
<path fill-rule="evenodd" clip-rule="evenodd" d="M49.8499 41.8092C26.0078 41.8092 49.8499 9.09058 49.8499 9.09058C49.8499 9.09058 73.6917 41.8092 49.8499 41.8092ZM64.5601 76.0878L68.303 78.2516C69.0454 78.6743 69.2964 79.6304 68.8547 80.4154C68.5737 80.9186 68.052 81.2004 67.5103 81.2004C67.2493 81.2004 66.9783 81.1299 66.7376 80.989L62.9946 78.8253L62.9846 83.5353C62.9846 84.4008 62.2822 85.0952 61.4292 85.0952C60.5664 85.0952 59.874 84.4008 59.874 83.5353L59.894 77.0338L51.3848 72.1024V81.9351L57.0442 85.1858C57.7869 85.6186 58.0476 86.5747 57.6162 87.3194C57.3252 87.8226 56.8035 88.1044 56.2615 88.1044C56.0007 88.1044 55.7297 88.034 55.489 87.8931L51.3848 85.528V89.8657C51.3848 90.7312 50.6924 91.4256 49.8294 91.4256C48.9666 91.4256 48.2742 90.7312 48.2742 89.8657V85.5582L44.2302 87.883C43.4775 88.3158 42.5344 88.0541 42.103 87.3094C41.6714 86.5545 41.9324 85.6085 42.6748 85.1758L48.2642 81.9552V72.0923L39.7749 77.0036L39.7949 83.5051C39.7949 84.3606 39.1025 85.065 38.2398 85.065C37.3867 85.065 36.6843 84.3606 36.6843 83.5051L36.6743 78.7951L32.9414 80.9589C32.7007 81.0998 32.4297 81.1702 32.1687 81.1702C31.637 81.1702 31.1152 80.8884 30.8242 80.3852C30.3928 79.6405 30.6536 78.6844 31.3962 78.2516L35.1289 76.0878L31.0649 73.7227C30.3225 73.29 30.0715 72.3339 30.5032 71.5891C30.9346 70.8444 31.8879 70.5928 32.6304 71.0255L38.2398 74.2964L46.7388 69.375L38.2598 64.4637L32.6504 67.7345C32.3997 67.8754 32.1287 67.9459 31.8677 67.9459C31.3359 67.9459 30.8142 67.6742 30.5232 67.171C30.0918 66.4262 30.3425 65.4701 31.0852 65.0374L35.1492 62.6723L31.4163 60.5085C30.6736 60.0757 30.4128 59.1196 30.8442 58.3748C31.2756 57.6301 32.229 57.3684 32.9717 57.8012L36.7044 59.965L36.7144 55.255C36.7144 54.3894 37.4168 53.695 38.2698 53.695C39.1328 53.695 39.8252 54.3894 39.8252 55.255L39.8049 61.7564L48.2742 66.6577V56.8351L42.6848 53.6145C41.9424 53.1817 41.6814 52.2256 42.113 51.4809C42.5444 50.7361 43.4978 50.4745 44.2402 50.9073L48.2842 53.2321V48.9246C48.2842 48.0591 48.9766 47.3647 49.8396 47.3647C50.7024 47.3647 51.3948 48.0591 51.3948 48.9246V53.2723L55.499 50.9073C56.2515 50.4745 57.1948 50.7261 57.6262 51.4809C58.0576 52.2357 57.7969 53.1817 57.0542 53.6145L51.3948 56.8652V66.6778L59.894 61.7564L59.874 55.255C59.874 54.3995 60.5664 53.695 61.4292 53.695C62.2822 53.695 62.9846 54.3995 62.9846 55.255L62.9946 59.965L66.7275 57.8012C67.47 57.3684 68.4233 57.6301 68.8547 58.3748C69.2864 59.1196 69.0254 60.0757 68.2827 60.5085L64.5501 62.6723L68.614 65.0374C69.3565 65.4701 69.6074 66.4262 69.1758 67.171C68.885 67.6641 68.363 67.9459 67.8313 67.9459C67.5603 67.9459 67.2996 67.8754 67.0486 67.7345L61.4395 64.4637L52.9502 69.375L61.4495 74.2964L67.0586 71.0255C67.8013 70.5928 68.7544 70.8444 69.186 71.5891C69.6174 72.3339 69.3665 73.29 68.624 73.7227L64.5601 76.0878Z" fill="#DA6F25"/>
</svg>
