<svg width="100" height="100" viewBox="0 0 100 100" fill="none" xmlns="http://www.w3.org/2000/svg">
<path fill-rule="evenodd" clip-rule="evenodd" d="M80.7959 76.554V72.0754L73.5713 72.166V76.5641H71.9255V66.2986H76.6116C77.9763 66.2986 79.0801 65.1815 79.0801 63.8229V41.4099C79.0801 41.1885 79.05 40.9772 78.9897 40.7658L74.2534 22.9019C73.9727 21.815 72.9893 21.0602 71.8652 21.0602H28.647C27.5229 21.0602 26.5398 21.8251 26.2488 22.912L21.5125 41.0275C21.4622 41.2388 21.4321 41.4502 21.4321 41.6515V63.8128C21.4321 65.1815 22.5459 66.2886 23.9006 66.2886H28.5767V76.554H27.1619V72.4177H19.7563V76.554H15.0803V79.0902H22.2751V74.9538H24.6331V79.0902H41.0696V74.2695H45.7959V79.0902H53.9338V75.5275H57.0144V79.0902H76.1099V74.672L78.2773 74.6519V79.1104H84.1575V76.5742H80.8062L80.7959 76.554ZM26.3896 41.9738L30.564 26.022H69.9692L74.1335 41.7322V61.3171H26.3896V41.9738ZM51.3953 76.5543V72.9916H59.5332V76.5543H63.2659V66.2888H37.2266V76.5543H38.531V71.7335H48.3147V76.5543H51.3953Z" fill="#DA6F25"/>
</svg>
